<svg id="bkash" xmlns="http://www.w3.org/2000/svg" xmlns:xlink="http://www.w3.org/1999/xlink" viewBox="917 119 125 58">
  <defs>
    <style>
      .cls-1 {
        opacity: 0;
      }

      .cls-2 {
        fill: #fff;
      }

      .cls-3 {
        fill: #d5005b;
      }

      .cls-4 {
        fill: #050605;
      }

      .cls-5 {
        fill: #c20341;
      }

      .cls-6 {
        fill: #8a032a;
      }

      .cls-7 {
        fill: #1a1818;
      }

      .cls-8 {
        fill: #e2126e;
      }

      .cls-9 {
        filter: url(#Rectangle_1499);
      }
    </style>
    <filter id="Rectangle_1499" x="918" y="139" width="123" height="38" filterUnits="userSpaceOnUse">
      <feOffset dy="1" input="SourceAlpha"/>
      <feGaussianBlur stdDeviation="3" result="blur"/>
      <feFlood flood-opacity="0.161"/>
      <feComposite operator="in" in2="blur"/>
      <feComposite in="SourceGraphic"/>
    </filter>
  </defs>
  <rect id="Rectangle_1" data-name="Rectangle 1" class="cls-1" width="125" height="58" transform="translate(917 119)"/>
  <g id="bKash-2" data-name="bKash" transform="translate(-6)">
    <g id="icon-offerBkash20percentCashBack" transform="translate(-4245 5005)">
      <g id="Group_460" data-name="Group 460" transform="translate(5178 -4864.138)">
        <g class="cls-9" transform="matrix(1, 0, 0, 1, -927, -140.86)">
          <path id="Rectangle_1499-2" data-name="Rectangle 1499" class="cls-2" d="M4,6.138H105v16a4,4,0,0,1-4,4H4a4,4,0,0,1-4-4v-12a4,4,0,0,1,4-4Z" transform="translate(927 140.86)"/>
        </g>
      </g>
      <g id="Group_461" data-name="Group 461" transform="translate(616.55 -161.88)">
        <path id="Path_218" data-name="Path 218" class="cls-3" d="M89.774,45.361l-1.2-.253L94.638,35.5l1.248.253Zm.976-6.123a1.869,1.869,0,0,1-1.4-.595,1.969,1.969,0,0,1-.574-1.416,1.886,1.886,0,0,1,.584-1.4,1.94,1.94,0,0,1,1.4-.576,1.852,1.852,0,0,1,1.376.6,1.969,1.969,0,0,1-.011,2.791,1.877,1.877,0,0,1-1.385.595M90.7,36.343a.819.819,0,0,0-.618.285.92.92,0,0,0-.265.639.9.9,0,0,0,.9.9.828.828,0,0,0,.628-.275.92.92,0,0,0,.255-.648.9.9,0,0,0-.9-.9m3.111,9.3a2.1,2.1,0,0,1-2.085-2.092,1.93,1.93,0,0,1,.634-1.447,2.1,2.1,0,0,1,2.951,0,2.026,2.026,0,0,1-.01,2.933,2.084,2.084,0,0,1-1.489.606M93.8,42.625a.954.954,0,0,0-.683.286.92.92,0,0,0-.293.68.906.906,0,0,0,.3.68.983.983,0,0,0,.694.285.951.951,0,0,0,.683-.285.93.93,0,0,0,.293-.679.919.919,0,0,0-.293-.69,1,1,0,0,0-.7-.276" transform="translate(4496.757 -4726.449)"/>
        <path id="Path_221" data-name="Path 221" class="cls-3" d="M1.849,4.714H9.793a.384.384,0,0,0,.4-.4V3.135a.384.384,0,0,0-.4-.4H5.057L7.417.343C9-.921,9.943-2.034,9.943-3.6c0-1.994-1.363-3.524-4.105-3.524a3.912,3.912,0,0,0-2.893.98,3.912,3.912,0,0,0-1.307,2.76.337.337,0,0,0,.1.239.337.337,0,0,0,.244.093H3.461a.47.47,0,0,0,.482-.382A1.875,1.875,0,0,1,5.854-5.192a1.527,1.527,0,0,1,1.255.43,1.527,1.527,0,0,1,.445,1.249c0,1.014-.9,1.895-3.058,3.59L1.866,2.686a1.006,1.006,0,0,0-.416.781v.848a.384.384,0,0,0,.4.4Zm13.74.166c3.141,0,4.388-2.011,4.487-4.454.05-.9.05-2.144,0-3.091-.083-2.427-1.413-4.421-4.487-4.421S11.2-5.092,11.1-2.666c-.033.947-.033,2.194,0,3.091C11.218,2.869,12.448,4.88,15.589,4.88Zm0-1.911c-1.413,0-2.061-1.03-2.111-2.626-.033-.947-.033-1.994,0-2.909.05-1.562.681-2.626,2.111-2.626,1.446,0,2.078,1.064,2.111,2.626.033.914.033,1.961,0,2.909C17.666,1.938,17.018,2.969,15.589,2.969Z" transform="translate(4565 -4685)"/>
      </g>
      <path id="Path_284" data-name="Path 284" class="cls-4" d="M3.969,1.325c2.121,0,3.392-1.189,3.438-2.7a.232.232,0,0,0-.068-.177.232.232,0,0,0-.177-.068H6.055c-.186,0-.28.058-.326.28A1.577,1.577,0,0,1,3.957-.016c-1.049,0-1.7-.548-1.748-1.876q-.035-1,0-1.958c.047-1.329.7-1.876,1.748-1.876A1.575,1.575,0,0,1,5.729-4.4c.058.21.14.28.326.28H7.163a.232.232,0,0,0,.177-.068.232.232,0,0,0,.068-.177c-.047-1.515-1.317-2.7-3.438-2.7a3.081,3.081,0,0,0-2.436.795A3.081,3.081,0,0,0,.542-3.908c-.023.664-.023,1.445,0,2.075A3.058,3.058,0,0,0,1.525.538a3.058,3.058,0,0,0,2.444.787ZM8.2,1.208H9.214A.353.353,0,0,0,9.552.987L10.1-.435h3.462L14.109.987a.329.329,0,0,0,.338.221h1.014a.237.237,0,0,0,.233-.245.36.36,0,0,0-.012-.1L12.873-6.659a.4.4,0,0,0-.408-.291H11.2a.391.391,0,0,0-.408.291L7.978.859a.433.433,0,0,0-.023.1.246.246,0,0,0,.245.249Zm2.308-2.984,1.317-3.6,1.329,3.6Zm8.986,3.1c1.97,0,3.31-.909,3.31-2.436,0-1.375-.851-1.946-2.832-2.389-1.41-.373-1.935-.618-1.935-1.27s.548-.956,1.4-.956a1.352,1.352,0,0,1,1.445.874.343.343,0,0,0,.338.221H22.3a.239.239,0,0,0,.175-.07.239.239,0,0,0,.07-.175c-.035-.944-1.072-2.191-3.112-2.191-1.888,0-3.042.991-3.042,2.331,0,1.4.909,1.993,2.646,2.413,1.492.385,2.121.606,2.121,1.27,0,.641-.548,1.037-1.667,1.037-1.049,0-1.538-.478-1.678-.932a.383.383,0,0,0-.361-.221H16.417a.239.239,0,0,0-.175.07.239.239,0,0,0-.07.175c.035,1.154,1.165,2.25,3.322,2.25Zm4.93-.117h1.061a.269.269,0,0,0,.28-.28V-2.2H29.2V.928a.269.269,0,0,0,.28.28h1.049a.272.272,0,0,0,.291-.28V-6.659a.275.275,0,0,0-.08-.211.275.275,0,0,0-.211-.08H29.482a.272.272,0,0,0-.2.083.272.272,0,0,0-.075.208v3.007H25.764V-6.659a.272.272,0,0,0-.075-.208.272.272,0,0,0-.2-.083h-1.06a.272.272,0,0,0-.2.083.272.272,0,0,0-.075.208V.928a.269.269,0,0,0,.28.28Zm8.5,0H36.4c1.807,0,2.774-1,2.774-2.413a2.057,2.057,0,0,0-1.154-1.865A1.8,1.8,0,0,0,39-4.713c0-1.329-.828-2.238-2.7-2.238H32.92a.272.272,0,0,0-.2.083.272.272,0,0,0-.075.208V.928a.269.269,0,0,0,.28.28Zm1.34-4.814v-2.12h1.83c.828,0,1.235.4,1.235,1.049s-.408,1.072-1.235,1.072Zm0,3.578V-2.393H36.21a1.159,1.159,0,0,1,.911.305,1.159,1.159,0,0,1,.368.888,1.156,1.156,0,0,1-.375.877,1.156,1.156,0,0,1-.907.3ZM40.03,1.208h1.014a.353.353,0,0,0,.338-.221L41.93-.435h3.462L45.939.987a.329.329,0,0,0,.338.221h1.014a.237.237,0,0,0,.233-.245.359.359,0,0,0-.012-.1L44.7-6.659a.4.4,0,0,0-.4-.291H43.03a.391.391,0,0,0-.408.291L39.808.859a.433.433,0,0,0-.023.1.246.246,0,0,0,.245.249Zm2.308-2.984,1.317-3.6,1.329,3.6Zm9.254,3.1c2.121,0,3.392-1.189,3.438-2.7a.232.232,0,0,0-.068-.177.232.232,0,0,0-.177-.068H53.678c-.186,0-.28.058-.326.28A1.577,1.577,0,0,1,51.58-.016c-1.049,0-1.7-.548-1.748-1.876q-.035-1,0-1.958c.047-1.329.7-1.876,1.748-1.876A1.575,1.575,0,0,1,53.351-4.4c.058.21.14.28.326.28h1.107a.232.232,0,0,0,.177-.068.232.232,0,0,0,.068-.177c-.047-1.515-1.317-2.7-3.438-2.7a3.081,3.081,0,0,0-2.436.8,3.081,3.081,0,0,0-.991,2.363c-.023.664-.023,1.445,0,2.075a3.058,3.058,0,0,0,.984,2.37,3.058,3.058,0,0,0,2.443.786Zm5.1-.117h1.026a.272.272,0,0,0,.291-.28V-2.09L60.834,1a.564.564,0,0,0,.455.21h1.2a.246.246,0,0,0,.245-.245.249.249,0,0,0-.058-.152L59.249-3.046l3.205-3.52a.224.224,0,0,0,.047-.14.246.246,0,0,0-.245-.245H61.1a.539.539,0,0,0-.455.21L58.013-3.932V-6.659a.275.275,0,0,0-.08-.211.275.275,0,0,0-.211-.08H56.7a.272.272,0,0,0-.2.083.272.272,0,0,0-.075.208V.928a.269.269,0,0,0,.28.28Zm7.832-6.93a.279.279,0,0,0,.361-.058c0-.012.023-.023.047-.082l.536-1.119L66-5.863c.023.058.047.07.047.082a.279.279,0,0,0,.361.058L66.79-6a.26.26,0,0,0,.058-.35c0-.012-.023-.035-.07-.082l-.9-.828L67.1-7.424l.093-.023a.277.277,0,0,0,.163-.326L67.2-8.216a.264.264,0,0,0-.315-.163.291.291,0,0,0-.093.047l-1.084.594L65.95-8.95a.437.437,0,0,0,.012-.093.267.267,0,0,0-.256-.256H65.24a.267.267,0,0,0-.256.256A.437.437,0,0,0,65-8.95l.221,1.2-1.072-.583a.291.291,0,0,0-.093-.047.264.264,0,0,0-.315.163l-.152.443a.277.277,0,0,0,.163.326l.093.023,1.212.152-.886.839c-.047.047-.07.07-.07.082a.26.26,0,0,0,.058.35Z" transform="translate(5212 -4844.7)"/>
    </g>
    <g id="icon-offerBkashPayment" transform="translate(-4235 5013)">
      <path id="Path_282" data-name="Path 282" class="cls-2" d="M48.707,6.138,46.795,3.446a1.989,1.989,0,0,0-1.219-.792,1.964,1.964,0,0,0-.45-.112L33.674,1.153a1.949,1.949,0,0,0-.241-.015,1.979,1.979,0,0,0-1.763,2.9,1.9,1.9,0,0,0-.185.315,1.99,1.99,0,0,0,.162,1.785H4a4,4,0,0,0-4,4v12a4,4,0,0,0,4,4H36.957l-.129.46a2,2,0,0,0,3.2,2.083l3.084-2.543H101a4,4,0,0,0,4-4v-16Z" transform="translate(5168 -4895.138)"/>
      <g id="Group_459" data-name="Group 459" transform="translate(5168 -4895.138)">
        <path id="Path_282-2" data-name="Path 282" class="cls-5" d="M42.435,14.6l1.47,6.688,9.6-4.925Z"/>
        <path id="Path_283-2" data-name="Path 283-2" class="cls-3" d="M45.165,4.6l-2.728,10L53.51,16.355Z"/>
        <path id="Path_284-2" data-name="Path 284-2" class="cls-5" d="M33.434,3.138,44.886,4.527l-2.708,9.93Z"/>
        <path id="Path_285-2" data-name="Path 285-2" class="cls-6" d="M33.342,5.1h1.276L38.2,9.73Z"/>
        <path id="Path_286" data-name="Path 286" class="cls-5" d="M53.817,16.289l-3.332-4.667,5.386-.979Z"/>
        <path id="Path_287" data-name="Path 287" class="cls-3" d="M53.258,17.661l.342-1.046-8.4,4.321Z"/>
        <path id="Path_288-2" data-name="Path 288-2" class="cls-6" d="M42.2,14.86l1.754,7.99-5.2,4.288Z"/>
        <path id="Path_289" data-name="Path 289" class="cls-3" d="M55.346,13.019l3.054-.051-2.206-2.279Z"/>
      </g>
      <g id="Group_460-2" data-name="Group 460" transform="translate(5168 -4895.138)">
        <path id="Path_290" data-name="Path 290" class="cls-3" d="M60.386,12.282a9.441,9.441,0,0,1,1.752-.146,2.906,2.906,0,0,1,1.983.587A1.912,1.912,0,0,1,64.75,14.2a2.044,2.044,0,0,1-.556,1.511,2.93,2.93,0,0,1-2.161.776,3.127,3.127,0,0,1-.735-.063v2.833h-.912Zm.912,3.4a3.149,3.149,0,0,0,.756.074c1.112,0,1.773-.546,1.773-1.5s-.661-1.4-1.668-1.4a4.518,4.518,0,0,0-.861.074Z"/>
        <path id="Path_291" data-name="Path 291" class="cls-3" d="M69.513,18.042a8.39,8.39,0,0,0,.074,1.217h-.829l-.084-.64h-.032a1.874,1.874,0,0,1-1.552.755,1.446,1.446,0,0,1-1.549-1.335v-.123c0-1.227,1.091-1.9,3.053-1.888v-.1a1.043,1.043,0,0,0-.892-1.173,1.148,1.148,0,0,0-.262,0,2.452,2.452,0,0,0-1.332.377l-.21-.618a3.284,3.284,0,0,1,1.678-.442c1.563,0,1.941,1.06,1.941,2.078Zm-.9-1.375c-1.008-.02-2.151.158-2.151,1.144a.81.81,0,0,0,.732.88.926.926,0,0,0,.129,0,1.28,1.28,0,0,0,1.248-.85.966.966,0,0,0,.042-.293Z"/>
        <path id="Path_292" data-name="Path 292" class="cls-3" d="M71.328,14.18l1.1,3c.126.335.252.734.337,1.037h.021c.094-.3.2-.692.325-1.059l1.006-2.98h.976L73.71,17.8a7.868,7.868,0,0,1-1.742,3.189,2.6,2.6,0,0,1-1.133.587L70.6,20.8a2.123,2.123,0,0,0,.808-.451,2.887,2.887,0,0,0,.776-1.029.581.581,0,0,0,.074-.219.546.546,0,0,0-.074-.231l-1.867-4.691Z"/>
        <path id="Path_293" data-name="Path 293" class="cls-3" d="M75.933,15.555c0-.535-.021-.955-.042-1.375H76.7l.042.82h.031a1.759,1.759,0,0,1,1.606-.935,1.5,1.5,0,0,1,1.427,1.019h.02a2,2,0,0,1,.577-.661,1.7,1.7,0,0,1,1.113-.358c.681,0,1.678.442,1.678,2.2v2.99h-.9V16.384c0-.986-.368-1.563-1.1-1.563a1.214,1.214,0,0,0-1.1.829,1.652,1.652,0,0,0-.074.462v3.147h-.9V16.217c0-.819-.357-1.4-1.059-1.4a1.274,1.274,0,0,0-1.144.923,1.29,1.29,0,0,0-.073.452v3.063h-.9Z"/>
        <path id="Path_294" data-name="Path 294" class="cls-3" d="M85.208,16.878a1.618,1.618,0,0,0,1.464,1.759,1.477,1.477,0,0,0,.266,0,3.469,3.469,0,0,0,1.406-.251l.168.65a4.116,4.116,0,0,1-1.7.325,2.366,2.366,0,0,1-2.5-2.559A2.478,2.478,0,0,1,86.5,14.069c.067-.007.135-.012.2-.014a2.142,2.142,0,0,1,2.1,2.182h0a2.076,2.076,0,0,1-.014.209,2.513,2.513,0,0,1-.031.442Zm2.695-.661a1.319,1.319,0,0,0-1.121-1.488,1.214,1.214,0,0,0-.148-.012,1.521,1.521,0,0,0-1.416,1.5Z"/>
        <path id="Path_295" data-name="Path 295" class="cls-3" d="M89.939,15.555c0-.535-.011-.955-.042-1.375h.818l.053.83h.02a1.885,1.885,0,0,1,1.679-.945c.7,0,1.794.421,1.794,2.162v3.032h-.923V16.332c0-.819-.305-1.511-1.176-1.511a1.334,1.334,0,0,0-1.237.944,1.372,1.372,0,0,0-.063.431v3.063h-.923Z"/>
        <path id="Path_296" data-name="Path 296" class="cls-3" d="M96.873,12.964V14.18h1.322v.7H96.873v2.738c0,.629.179.986.693.986a1.758,1.758,0,0,0,.535-.062l.042.7a2.5,2.5,0,0,1-.819.126,1.313,1.313,0,0,1-1-.388,1.983,1.983,0,0,1-.357-1.333V14.884H95.18v-.7h.787v-.937Z"/>
      </g>
      <g id="Group_461-2" data-name="Group 461" transform="translate(5168 -4895.138)">
        <path id="Path_297" data-name="Path 297" class="cls-3" d="M6.8,11.265c.148.013.3.039.457.039s.287-.026.459-.039v4.9A2.287,2.287,0,0,1,9.7,14.8c1.616,0,2.312,1.6,2.312,3.073,0,1.762-.939,3.445-2.589,3.445A1.811,1.811,0,0,1,7.8,20.38c-.276.237-.517.529-.781.794H6.8Zm.9,7.206c0,1.431.607,2.425,1.6,2.425,1.294,0,1.707-1.736,1.707-2.968,0-1.43-.47-2.555-1.591-2.57C8.111,15.345,7.7,16.9,7.7,18.471"/>
        <path id="Path_298" data-name="Path 298" class="cls-7" d="M16.227,14.436l-.973,1.251c.916,1.338,1.866,2.646,2.781,4l.928,1.454v.071c-.227-.013-.435-.041-.629-.041-.217,0-.435.028-.641.041a14.961,14.961,0,0,0-.79-1.321l-2.5-3.71c-.056-.057-.193-.1-.193-.042v5.073c-.184-.013-.344-.041-.5-.041s-.345.028-.5.041V11.265c.158.014.331.045.5.045s.32-.031.5-.045v4.5c.011.088.17.029.284-.089a7.1,7.1,0,0,0,.607-.711l2.818-3.695c.148.014.3.045.458.045.137,0,.286-.031.446-.045Z"/>
        <path id="Path_299" data-name="Path 299" class="cls-7" d="M23.807,20.1c0,.516-.034.782.642.611V21a1.564,1.564,0,0,1-.342.133c-.6.12-1.09.014-1.181-.768l-.1.118a2.116,2.116,0,0,1-1.7.836A1.535,1.535,0,0,1,19.6,19.771V19.7c0-1.511,1.042-1.709,2.117-1.908.907-.171,1.214-.251,1.214-.887,0-.981-.481-1.55-1.34-1.55a1.431,1.431,0,0,0-1.363.914H20.11v-.741a2.976,2.976,0,0,1,1.843-.729c1.2,0,1.854.729,1.854,2.226Zm-.915-2.185-.4.092c-.776.171-1.946.3-1.946,1.51,0,.835.426,1.246,1.123,1.246a1.418,1.418,0,0,0,.916-.5c.08-.1.31-.321.31-.413Z"/>
        <path id="Path_300" data-name="Path 300" class="cls-7" d="M25.845,19.929a1.677,1.677,0,0,0,1.316.98A1.182,1.182,0,0,0,28.285,19.7c0-1.787-2.7-.622-2.7-2.94a1.8,1.8,0,0,1,1.642-1.954h0a1.646,1.646,0,0,1,.222-.006,2.455,2.455,0,0,1,1.3.344,6.862,6.862,0,0,0-.275.942h-.1a1.213,1.213,0,0,0-.972-.875,1.011,1.011,0,0,0-1.044.974.884.884,0,0,0,0,.126c0,1.695,2.7.8,2.7,2.912a2.028,2.028,0,0,1-1.953,2.1h-.154a2.65,2.65,0,0,1-1.433-.424,6.418,6.418,0,0,0,.241-.967Z"/>
        <path id="Path_301" data-name="Path 301" class="cls-7" d="M30.6,11.265c.149.013.3.039.458.039s.287-.026.458-.039v4.823A2.038,2.038,0,0,1,33.361,14.8c1.327,0,1.844.914,1.844,2.583V21.21c-.173-.011-.311-.038-.459-.038s-.309.027-.459.038V17.689c0-1.47-.3-2.2-1.269-2.2-1.032,0-1.5.744-1.5,2.119v3.6c-.171-.011-.309-.038-.458-.038s-.309.027-.458.038Z"/>
      </g>
      <g id="Group_463" data-name="Group 463" transform="translate(5168 -4895.138)">
        <path id="Path_302" data-name="Path 302" class="cls-8" d="M26.69,23.926H4.9a2.616,2.616,0,0,1-2.611-2.614v-10.2A2.617,2.617,0,0,1,4.9,8.5H36.126l-.307-.288H4.9a2.9,2.9,0,0,0-2.9,2.9H2v10.2a2.9,2.9,0,0,0,2.9,2.9H38.845l.081-.288Z"/>
        <path id="Path_303" data-name="Path 303" class="cls-8" d="M88.959,8.214h-40.6l.2.288h54.149v12.81a2.617,2.617,0,0,1-2.608,2.614H43.39l-.35.288H100.1a2.9,2.9,0,0,0,2.9-2.9h0V8.214Z"/>
      </g>
    </g>
  </g>
</svg>
