<svg xmlns="http://www.w3.org/2000/svg" xmlns:xlink="http://www.w3.org/1999/xlink" viewBox="1209 119 125 58">
  <defs>
    <style>
      .cls-1 {
        opacity: 0;
      }

      .cls-2 {
        fill: #fff;
      }

      .cls-3 {
        fill: #00a651;
      }

      .cls-4 {
        fill: #050605;
      }

      .cls-5, .cls-7 {
        fill: #005baa;
      }

      .cls-6 {
        fill: #faa61a;
      }

      .cls-7, .cls-8 {
        fill-rule: evenodd;
      }

      .cls-9 {
        filter: url(#Rectangle_1499);
      }
    </style>
    <filter id="Rectangle_1499" x="1210" y="139" width="123" height="38" filterUnits="userSpaceOnUse">
      <feOffset dy="1" input="SourceAlpha"/>
      <feGaussianBlur stdDeviation="3" result="blur"/>
      <feFlood flood-opacity="0.161"/>
      <feComposite operator="in" in2="blur"/>
      <feComposite in="SourceGraphic"/>
    </filter>
  </defs>
  <g id="ebl" transform="translate(16)">
    <rect id="Rectangle_3" data-name="Rectangle 3" class="cls-1" width="125" height="58" transform="translate(1193 119)"/>
    <g id="ebl-2" data-name="ebl" transform="translate(133)">
      <g id="icon-offerBkash20percentCashBack" transform="translate(-4108 5005)">
        <g id="Group_460" data-name="Group 460" transform="translate(5178 -4864.138)">
          <g class="cls-9" transform="matrix(1, 0, 0, 1, -1219, -140.86)">
            <path id="Rectangle_1499-2" data-name="Rectangle 1499" class="cls-2" d="M4,6.138H105v16a4,4,0,0,1-4,4H4a4,4,0,0,1-4-4v-12a4,4,0,0,1,4-4Z" transform="translate(1219 140.86)"/>
          </g>
        </g>
        <g id="Group_461" data-name="Group 461" transform="translate(616.55 -161.88)">
          <path id="Path_218" data-name="Path 218" class="cls-3" d="M89.774,45.361l-1.2-.253L94.638,35.5l1.248.253Zm.976-6.123a1.869,1.869,0,0,1-1.4-.595,1.969,1.969,0,0,1-.574-1.416,1.886,1.886,0,0,1,.584-1.4,1.94,1.94,0,0,1,1.4-.576,1.852,1.852,0,0,1,1.376.6,1.969,1.969,0,0,1-.011,2.791,1.877,1.877,0,0,1-1.385.595M90.7,36.343a.819.819,0,0,0-.618.285.92.92,0,0,0-.265.639.9.9,0,0,0,.9.9.828.828,0,0,0,.628-.275.92.92,0,0,0,.255-.648.9.9,0,0,0-.9-.9m3.111,9.3a2.1,2.1,0,0,1-2.085-2.092,1.93,1.93,0,0,1,.634-1.447,2.1,2.1,0,0,1,2.951,0,2.026,2.026,0,0,1-.01,2.933,2.084,2.084,0,0,1-1.489.606M93.8,42.625a.954.954,0,0,0-.683.286.92.92,0,0,0-.293.68.906.906,0,0,0,.3.68.983.983,0,0,0,.694.285.951.951,0,0,0,.683-.285.93.93,0,0,0,.293-.679.919.919,0,0,0-.293-.69,1,1,0,0,0-.7-.276" transform="translate(4496.757 -4726.449)"/>
          <path id="Path_36" data-name="Path 36" class="cls-3" d="M4.709,0A.393.393,0,0,1,4.42-.119.393.393,0,0,1,4.3-.408V-9.214L1.717-7.225a.36.36,0,0,1-.238.085.407.407,0,0,1-.34-.187L.425-8.245A.486.486,0,0,1,.34-8.5a.407.407,0,0,1,.187-.34l3.808-2.941A.677.677,0,0,1,4.76-11.9h1.5a.4.4,0,0,1,.3.111.4.4,0,0,1,.11.3V-.408a.409.409,0,0,1-.11.289.386.386,0,0,1-.3.119Zm8.738.17a4.274,4.274,0,0,1-3.375-1.258,5.2,5.2,0,0,1-1.216-3.3Q8.84-4.845,8.84-5.95q0-1.122.017-1.6a5.009,5.009,0,0,1,1.224-3.264,4.311,4.311,0,0,1,3.366-1.258,4.334,4.334,0,0,1,3.383,1.258,4.939,4.939,0,0,1,1.207,3.264q.034.476.034,1.6,0,1.105-.034,1.564a5.13,5.13,0,0,1-1.2,3.3A4.3,4.3,0,0,1,13.447.17Zm0-1.955a1.866,1.866,0,0,0,1.6-.706,3.411,3.411,0,0,0,.561-1.98q.034-.986.034-1.5,0-.561-.034-1.479a3.422,3.422,0,0,0-.561-1.972,1.857,1.857,0,0,0-1.6-.714,1.861,1.861,0,0,0-1.59.714,3.381,3.381,0,0,0-.569,1.972q-.017.459-.017,1.479,0,1,.017,1.5a3.37,3.37,0,0,0,.569,1.98A1.871,1.871,0,0,0,13.447-1.785Z" transform="translate(4566.45 -4680.12)"/>
        </g>
        <path id="Path_284" data-name="Path 284" class="cls-4" d="M3.969,1.325c2.121,0,3.392-1.189,3.438-2.7a.232.232,0,0,0-.068-.177.232.232,0,0,0-.177-.068H6.055c-.186,0-.28.058-.326.28A1.577,1.577,0,0,1,3.957-.016c-1.049,0-1.7-.548-1.748-1.876q-.035-1,0-1.958c.047-1.329.7-1.876,1.748-1.876A1.575,1.575,0,0,1,5.729-4.4c.058.21.14.28.326.28H7.163a.232.232,0,0,0,.177-.068.232.232,0,0,0,.068-.177c-.047-1.515-1.317-2.7-3.438-2.7a3.081,3.081,0,0,0-2.436.795A3.081,3.081,0,0,0,.542-3.908c-.023.664-.023,1.445,0,2.075A3.058,3.058,0,0,0,1.525.538a3.058,3.058,0,0,0,2.444.787ZM8.2,1.208H9.214A.353.353,0,0,0,9.552.987L10.1-.435h3.462L14.109.987a.329.329,0,0,0,.338.221h1.014a.237.237,0,0,0,.233-.245.36.36,0,0,0-.012-.1L12.873-6.659a.4.4,0,0,0-.408-.291H11.2a.391.391,0,0,0-.408.291L7.978.859a.433.433,0,0,0-.023.1.246.246,0,0,0,.245.249Zm2.308-2.984,1.317-3.6,1.329,3.6Zm8.986,3.1c1.97,0,3.31-.909,3.31-2.436,0-1.375-.851-1.946-2.832-2.389-1.41-.373-1.935-.618-1.935-1.27s.548-.956,1.4-.956a1.352,1.352,0,0,1,1.445.874.343.343,0,0,0,.338.221H22.3a.239.239,0,0,0,.175-.07.239.239,0,0,0,.07-.175c-.035-.944-1.072-2.191-3.112-2.191-1.888,0-3.042.991-3.042,2.331,0,1.4.909,1.993,2.646,2.413,1.492.385,2.121.606,2.121,1.27,0,.641-.548,1.037-1.667,1.037-1.049,0-1.538-.478-1.678-.932a.383.383,0,0,0-.361-.221H16.417a.239.239,0,0,0-.175.07.239.239,0,0,0-.07.175c.035,1.154,1.165,2.25,3.322,2.25Zm4.93-.117h1.061a.269.269,0,0,0,.28-.28V-2.2H29.2V.928a.269.269,0,0,0,.28.28h1.049a.272.272,0,0,0,.291-.28V-6.659a.275.275,0,0,0-.08-.211.275.275,0,0,0-.211-.08H29.482a.272.272,0,0,0-.2.083.272.272,0,0,0-.075.208v3.007H25.764V-6.659a.272.272,0,0,0-.075-.208.272.272,0,0,0-.2-.083h-1.06a.272.272,0,0,0-.2.083.272.272,0,0,0-.075.208V.928a.269.269,0,0,0,.28.28Zm8.5,0H36.4c1.807,0,2.774-1,2.774-2.413a2.057,2.057,0,0,0-1.154-1.865A1.8,1.8,0,0,0,39-4.713c0-1.329-.828-2.238-2.7-2.238H32.92a.272.272,0,0,0-.2.083.272.272,0,0,0-.075.208V.928a.269.269,0,0,0,.28.28Zm1.34-4.814v-2.12h1.83c.828,0,1.235.4,1.235,1.049s-.408,1.072-1.235,1.072Zm0,3.578V-2.393H36.21a1.159,1.159,0,0,1,.911.305,1.159,1.159,0,0,1,.368.888,1.156,1.156,0,0,1-.375.877,1.156,1.156,0,0,1-.907.3ZM40.03,1.208h1.014a.353.353,0,0,0,.338-.221L41.93-.435h3.462L45.939.987a.329.329,0,0,0,.338.221h1.014a.237.237,0,0,0,.233-.245.359.359,0,0,0-.012-.1L44.7-6.659a.4.4,0,0,0-.4-.291H43.03a.391.391,0,0,0-.408.291L39.808.859a.433.433,0,0,0-.023.1.246.246,0,0,0,.245.249Zm2.308-2.984,1.317-3.6,1.329,3.6Zm9.254,3.1c2.121,0,3.392-1.189,3.438-2.7a.232.232,0,0,0-.068-.177.232.232,0,0,0-.177-.068H53.678c-.186,0-.28.058-.326.28A1.577,1.577,0,0,1,51.58-.016c-1.049,0-1.7-.548-1.748-1.876q-.035-1,0-1.958c.047-1.329.7-1.876,1.748-1.876A1.575,1.575,0,0,1,53.351-4.4c.058.21.14.28.326.28h1.107a.232.232,0,0,0,.177-.068.232.232,0,0,0,.068-.177c-.047-1.515-1.317-2.7-3.438-2.7a3.081,3.081,0,0,0-2.436.8,3.081,3.081,0,0,0-.991,2.363c-.023.664-.023,1.445,0,2.075a3.058,3.058,0,0,0,.984,2.37,3.058,3.058,0,0,0,2.443.786Zm5.1-.117h1.026a.272.272,0,0,0,.291-.28V-2.09L60.834,1a.564.564,0,0,0,.455.21h1.2a.246.246,0,0,0,.245-.245.249.249,0,0,0-.058-.152L59.249-3.046l3.205-3.52a.224.224,0,0,0,.047-.14.246.246,0,0,0-.245-.245H61.1a.539.539,0,0,0-.455.21L58.013-3.932V-6.659a.275.275,0,0,0-.08-.211.275.275,0,0,0-.211-.08H56.7a.272.272,0,0,0-.2.083.272.272,0,0,0-.075.208V.928a.269.269,0,0,0,.28.28Zm7.832-6.93a.279.279,0,0,0,.361-.058c0-.012.023-.023.047-.082l.536-1.119L66-5.863c.023.058.047.07.047.082a.279.279,0,0,0,.361.058L66.79-6a.26.26,0,0,0,.058-.35c0-.012-.023-.035-.07-.082l-.9-.828L67.1-7.424l.093-.023a.277.277,0,0,0,.163-.326L67.2-8.216a.264.264,0,0,0-.315-.163.291.291,0,0,0-.093.047l-1.084.594L65.95-8.95a.437.437,0,0,0,.012-.093.267.267,0,0,0-.256-.256H65.24a.267.267,0,0,0-.256.256A.437.437,0,0,0,65-8.95l.221,1.2-1.072-.583a.291.291,0,0,0-.093-.047.264.264,0,0,0-.315.163l-.152.443a.277.277,0,0,0,.163.326l.093.023,1.212.152-.886.839c-.047.047-.07.07-.07.082a.26.26,0,0,0,.058.35Z" transform="translate(5212 -4844.7)"/>
      </g>
      <g id="Group_5" data-name="Group 5" transform="translate(-276 -23)">
        <path id="Path_35" data-name="Path 35" class="cls-2" d="M33.59,15.1a2.007,2.007,0,0,0-.79-.27,6.39,6.39,0,0,0-.81-.05,64.73,64.73,0,0,0-9.62,1.36c2-2.29,3.72-5.07,3.61-7.78a.615.615,0,0,1-.01-.13c-.16-1.42-1.47-4.09-5.36-4.09h-.18a3.351,3.351,0,0,0-1.61-2.15c-.02-.01-.05-.03-.07-.04a4.461,4.461,0,0,0-2.11-.48,6.179,6.179,0,0,0-1.31.15c0-.01-.01-.03-.01-.04a2.671,2.671,0,0,0-.13-.4l-.06-.12a2.112,2.112,0,0,0-.21-.31.27.27,0,0,0-.07-.08A1.777,1.777,0,0,0,14.5.35a.3.3,0,0,1-.08-.04,2.115,2.115,0,0,0-.37-.18A.333.333,0,0,0,13.99.1a.06.06,0,0,1-.04-.01A2.265,2.265,0,0,0,13.43,0h-.06a1.684,1.684,0,0,0-.45.06c-.03,0-.06.02-.09.02a3.054,3.054,0,0,0-.32.13.612.612,0,0,0-.12.05,2.61,2.61,0,0,0-.27.19.55.55,0,0,1-.09.07,2.359,2.359,0,0,0-.3.34l-1.46,2.1a2.015,2.015,0,0,0-.28.64,19.435,19.435,0,0,0-5.78,4,1.2,1.2,0,0,1-.11.12,2.983,2.983,0,0,0-.67,3.29,2.329,2.329,0,0,0,.2.34C-1.03,15.74.04,19.38.28,20.02A3.59,3.59,0,0,0,1.4,21.57a2,2,0,0,0-.07,1.3l1.05,3.68a2,2,0,0,0,1.09,1.27A2.036,2.036,0,0,0,4.3,28a1.951,1.951,0,0,0,.85-.19c7.25-3.37,26.3-8.09,27.21-8.32,1.72-.37,2.23-1.3,2.36-2.03A2.3,2.3,0,0,0,33.59,15.1Zm-23.17.42a4.223,4.223,0,0,1-2.28.89,1.658,1.658,0,0,1-.7-.15c-.04-.81.98-2.45,2.98-4.15C10.43,13.14,10.43,14.28,10.42,15.52Zm4.51,1.72.19-6.63a7.162,7.162,0,0,1,2.63-.76,1.132,1.132,0,0,1,.23.02,1.639,1.639,0,0,1,.04.24C18.02,10.13,18.19,12.9,14.93,17.24Z" transform="translate(1353.996 142)"/>
        <rect id="Rectangle_1502" data-name="Rectangle 1502" class="cls-2" width="105" height="20" rx="4" transform="translate(1346 147)"/>
        <g id="Group_2" data-name="Group 2" transform="translate(1356 144)">
          <path id="Path_17" data-name="Path 17" class="cls-5" d="M22.584,30.655s-8.985,5.427-10.2,2.063c0,0-1.537-3.8,5.346-8.5,0,0-3.524.164-1.865-1.819a17.043,17.043,0,0,1,6.437-4.088l-.484.606s-3.656,1.568-2.952,3.318c.4,1.011,2.105-.2,2.105-.2l.687.24s-7.57,4.855-5.709,8.539c0,0,2.021,2.513,6.113-.443l.519.282Z" transform="translate(-12.24 -15.396)"/>
          <path id="Path_18" data-name="Path 18" class="cls-6" d="M43.358,15.892c-.066.059,0,.488,0,.488s2.712-1.342,3.524-.61c0,0,.77,1.053-3.562,3.485v.972s6.685-4.012,7.166.362c0,0,.488,3.844-4.371,9.675,0,0,8.543-6.152,8.337-11.129,0,0-.4-3.768-6.716-1.666,0,0,2.387-1.938.523-3.074,0,0-1.98-1.1-4.9,1.5Z" transform="translate(-32.487 -12.696)"/>
          <path id="Path_19" data-name="Path 19" class="cls-3" d="M25.911,9.95l-.526,18.145c7.6-1.659,17.336-3.618,19.713-3.332,0,0,.735.446-.641.728,0,0-19.96,4.9-27.611,8.459L15.79,30.266s4.022-.951,9.114-2.07c.031-1.7.272-14.97-.45-16.144l1.457-2.1Z" transform="translate(-14.553 -9.95)"/>
          <path id="Path_20" data-name="Path 20" d="M94.228,58.228V57.3h.307v-.1H93.81v.1h.3v.931Z" transform="translate(-65.38 -40.732)"/>
          <path id="Path_21" data-name="Path 21" d="M96.32,58.222V57.19h.167l.3.781c.014.045.031.094.049.146.017-.049.035-.1.052-.146l.282-.781h.16v1.032h-.122v-.857a2.133,2.133,0,0,1-.084.261l-.22.6h-.146l-.223-.586q-.042-.11-.094-.272v.857Z" transform="translate(-67.015 -40.725)"/>
        </g>
        <g id="Group_4" data-name="Group 4" transform="translate(1390 150)">
          <g id="Group_1" data-name="Group 1" transform="translate(0.163)">
            <path id="Path_2" data-name="Path 2" class="cls-5" d="M16.124,80.31l.093,1.623-.268.012a1.81,1.81,0,0,0-.436-1.1,1.689,1.689,0,0,0-1.041-.244,3.631,3.631,0,0,0-.669.035c-.076.029-.111.1-.111.25v1.489c.052.006.087.012.1.012h.058a.857.857,0,0,0,.739-.273,1.251,1.251,0,0,0,.169-.6h.291V83.6h-.291v-.128a.779.779,0,0,0-.332-.692,1.038,1.038,0,0,0-.524-.1h-.215v1.635l.006.116a.162.162,0,0,0,.087.145,1.5,1.5,0,0,0,.25.035,1.282,1.282,0,0,0,.18.006c.111.006.2.006.273.006a1.882,1.882,0,0,0,1.059-.227,1.714,1.714,0,0,0,.489-1.111l.023-.064.262.017-.122,1.67h-3.9v-.268l.378-.023c.145,0,.244-.041.279-.1a.716.716,0,0,0,.041-.279V80.979c0-.186-.023-.3-.081-.332a2.368,2.368,0,0,0-.611-.064v-.268h3.828Z" transform="translate(-12.29 -80.211)"/>
            <path id="Path_3" data-name="Path 3" class="cls-7" d="M21.946,85.661a.774.774,0,0,0,.4-.727l.012-.378v-.1a3.145,3.145,0,0,0-1.012.262.613.613,0,0,0-.378.559.583.583,0,0,0,.14.367.473.473,0,0,0,.384.151.866.866,0,0,0,.454-.128ZM21.1,84.5a6.288,6.288,0,0,1,1.263-.308c0-.029.006-.052.006-.07a.335.335,0,0,0,.006-.087.977.977,0,0,0-.134-.582.667.667,0,0,0-.57-.209,1.186,1.186,0,0,0-.39.076c-.122.047-.192.1-.192.169a.706.706,0,0,0,.07.134.482.482,0,0,1,.07.233.312.312,0,0,1-.087.221.407.407,0,0,1-.244.076.351.351,0,0,1-.268-.111.425.425,0,0,1-.093-.279.655.655,0,0,1,.349-.547,1.57,1.57,0,0,1,.873-.227,1.236,1.236,0,0,1,1.047.367,1,1,0,0,1,.151.593v.157l-.023.96V85.2a.965.965,0,0,0,.035.337.23.23,0,0,0,.233.175.4.4,0,0,0,.145-.035.308.308,0,0,1,.116-.035.047.047,0,0,1,.047.023.083.083,0,0,1,.029.064c0,.07-.052.145-.163.233a.63.63,0,0,1-.4.134.524.524,0,0,1-.425-.175.914.914,0,0,1-.145-.3,1.257,1.257,0,0,1-.512.39,1.6,1.6,0,0,1-.605.116,1.056,1.056,0,0,1-.663-.186.675.675,0,0,1-.25-.576c-.017-.361.233-.646.727-.855Z" transform="translate(-15.668 -81.332)"/>
            <path id="Path_4" data-name="Path 4" class="cls-5" d="M26.791,83.206a.887.887,0,0,1,.687-.256,1.368,1.368,0,0,1,.5.093,1.3,1.3,0,0,1,.273.175l.192-.239h.2v1.065h-.233a1.874,1.874,0,0,0-.244-.518.855.855,0,0,0-.7-.314.649.649,0,0,0-.425.128.394.394,0,0,0-.151.32.384.384,0,0,0,.192.349,1.448,1.448,0,0,0,.384.128l.529.1a1.289,1.289,0,0,1,.64.3.855.855,0,0,1,.2.623.788.788,0,0,1-.314.687,1.138,1.138,0,0,1-.739.239A1.172,1.172,0,0,1,27.309,86a1.785,1.785,0,0,1-.384-.221l-.221.279h-.2v-1.21h.239A1.783,1.783,0,0,0,27,85.44a.984.984,0,0,0,.826.4.668.668,0,0,0,.471-.157.425.425,0,0,0,.175-.337.373.373,0,0,0-.192-.361,4.587,4.587,0,0,0-.785-.239,1.7,1.7,0,0,1-.733-.308.741.741,0,0,1-.215-.6.788.788,0,0,1,.244-.628Z" transform="translate(-18.232 -81.315)"/>
            <path id="Path_5" data-name="Path 5" class="cls-5" d="M31.16,82.2l.07-.012a.743.743,0,0,0,.657-.564,2.483,2.483,0,0,0,.14-.721h.262v1.3h.948v.256h-.948v1.868a.814.814,0,0,0,.052.308.337.337,0,0,0,.337.221.441.441,0,0,0,.419-.337,2.01,2.01,0,0,0,.081-.524h.256a2.094,2.094,0,0,1-.128.745.837.837,0,0,1-.844.489.677.677,0,0,1-.669-.343,1.17,1.17,0,0,1-.087-.5V82.471h-.541V82.2Z" transform="translate(-20.181 -80.458)"/>
            <path id="Path_6" data-name="Path 6" class="cls-7" d="M37.641,84.271c.035-.029.052-.1.052-.215a1.181,1.181,0,0,0-.087-.448.586.586,0,0,0-.57-.4c-.3,0-.518.18-.646.547a1.728,1.728,0,0,0-.1.547h1.146a.366.366,0,0,0,.2-.035Zm-1.617-.844a1.29,1.29,0,0,1,1.018-.477,1.1,1.1,0,0,1,.937.448,1.983,1.983,0,0,1,.372,1.164H36.267a1.674,1.674,0,0,0,.128.7.811.811,0,0,0,.809.495.835.835,0,0,0,.6-.227,1.715,1.715,0,0,0,.332-.454l.215.122a1.765,1.765,0,0,1-.495.657,1.338,1.338,0,0,1-.8.227,1.433,1.433,0,0,1-1.018-.4,1.529,1.529,0,0,1-.425-1.158,1.688,1.688,0,0,1,.413-1.105Z" transform="translate(-22.042 -81.315)"/>
            <path id="Path_7" data-name="Path 7" class="cls-5" d="M40.93,83.33v-.25l1.117-.07V84a2.292,2.292,0,0,1,.3-.611.846.846,0,0,1,.7-.378.514.514,0,0,1,.378.14.522.522,0,0,1,.134.361.465.465,0,0,1-.093.285.331.331,0,0,1-.285.134.316.316,0,0,1-.233-.1.309.309,0,0,1-.1-.25.366.366,0,0,1,.029-.169,1.643,1.643,0,0,1,.111-.134c-.3.047-.512.268-.681.657a3.607,3.607,0,0,0-.233,1.35,1.664,1.664,0,0,0,.029.4c.023.052.1.081.215.081l.372.006v.25h-1.7v-.25h.087a.334.334,0,0,1,.07-.006h.116c.1,0,.186-.017.215-.058a.365.365,0,0,0,.047-.233V83.947l-.006-.221a.817.817,0,0,0-.052-.308.287.287,0,0,0-.227-.1H40.93Z" transform="translate(-24.266 -81.34)"/>
            <path id="Path_8" data-name="Path 8" class="cls-5" d="M45.838,85.774l.273-.006a.332.332,0,0,0,.192-.041c.035-.029.052-.087.052-.186V83.673c0-.163-.029-.268-.087-.3a1.127,1.127,0,0,0-.489-.047v-.25l1.135-.07v.623a2.037,2.037,0,0,1,.337-.4,1.056,1.056,0,0,1,.681-.227.881.881,0,0,1,.733.3,1.312,1.312,0,0,1,.239.844v1.4a.229.229,0,0,0,.041.163c.023.035.087.047.186.047l.279.006v.25H47.8v-.25a2.255,2.255,0,0,0,.431-.029c.052-.023.081-.087.081-.192V84.156a1.016,1.016,0,0,0-.134-.559.526.526,0,0,0-.46-.2.7.7,0,0,0-.413.134,1.07,1.07,0,0,0-.384.937v1.065c0,.1.012.157.041.186s.093.047.192.047l.279.006v.25H45.827v-.244Z" transform="translate(-26.295 -81.34)"/>
            <path id="Path_9" data-name="Path 9" class="cls-7" d="M57.276,82.676a2.646,2.646,0,0,1-.279.012v1.565c0,.175.035.279.087.32a1.527,1.527,0,0,0,.471.041,1.845,1.845,0,0,0,1.071-.209.955.955,0,0,0,.273-.785.8.8,0,0,0-.46-.809,2.457,2.457,0,0,0-.931-.14,1.737,1.737,0,0,0-.233.006ZM55.6,84.631a2.09,2.09,0,0,0,.623-.07c.058-.035.081-.145.081-.332V80.861l-.006-.087a.163.163,0,0,0-.1-.14,1.155,1.155,0,0,0-.239-.029l-.355-.017V80.32h2.374a1.546,1.546,0,0,1,1.117.337,1.061,1.061,0,0,1,.343.768.928.928,0,0,1-.471.867,1.824,1.824,0,0,1-.652.215,2.166,2.166,0,0,1,.785.221.972.972,0,0,1,.57.925,1.073,1.073,0,0,1-.8,1.082,3.5,3.5,0,0,1-1.21.163H55.6v-.268Zm2.735-2.374a.714.714,0,0,0,.384-.739.807.807,0,0,0-.39-.8,1.869,1.869,0,0,0-.82-.128.786.786,0,0,0-.413.07c-.064.035-.1.134-.1.274v1.455a3.374,3.374,0,0,0,1.338-.134Z" transform="translate(-30.401 -80.215)"/>
            <path id="Path_10" data-name="Path 10" class="cls-7" d="M65.236,85.661a.806.806,0,0,0,.4-.727l.006-.378v-.1a3.065,3.065,0,0,0-1.007.262.6.6,0,0,0-.367.559.573.573,0,0,0,.128.367.468.468,0,0,0,.378.151.933.933,0,0,0,.46-.128ZM64.381,84.5a6.4,6.4,0,0,1,1.263-.308.334.334,0,0,0,.006-.07v-.087a.942.942,0,0,0-.128-.582.68.68,0,0,0-.576-.209,1.219,1.219,0,0,0-.4.076c-.128.047-.2.1-.2.169a.808.808,0,0,0,.081.134.541.541,0,0,1,.064.233.3.3,0,0,1-.093.221.4.4,0,0,1-.244.076.335.335,0,0,1-.268-.111.393.393,0,0,1-.087-.279.636.636,0,0,1,.343-.547,1.6,1.6,0,0,1,.873-.227,1.238,1.238,0,0,1,1.041.367.962.962,0,0,1,.157.593v.157l-.023.96V85.2a1.45,1.45,0,0,0,.029.337.225.225,0,0,0,.233.175.429.429,0,0,0,.145-.035.308.308,0,0,1,.116-.035.057.057,0,0,1,.052.023.079.079,0,0,1,.023.064c0,.07-.052.145-.163.233a.637.637,0,0,1-.4.134.516.516,0,0,1-.425-.175.914.914,0,0,1-.145-.3,1.238,1.238,0,0,1-.518.39,1.576,1.576,0,0,1-.605.116,1.063,1.063,0,0,1-.669-.186.688.688,0,0,1-.244-.576c.012-.361.256-.646.751-.855Z" transform="translate(-33.759 -81.332)"/>
            <path id="Path_11" data-name="Path 11" class="cls-5" d="M69.522,85.774l.273-.006a.361.361,0,0,0,.192-.041c.035-.029.047-.087.047-.186V83.673c0-.163-.023-.268-.081-.3a1.126,1.126,0,0,0-.483-.047v-.25l1.129-.07v.623a2.037,2.037,0,0,1,.337-.4,1.056,1.056,0,0,1,.681-.227.9.9,0,0,1,.739.3,1.347,1.347,0,0,1,.244.844v1.4a.229.229,0,0,0,.041.163c.023.035.093.047.192.047l.285.006v.25H71.506v-.25a2.507,2.507,0,0,0,.436-.029c.052-.023.076-.087.076-.192V84.156a.967.967,0,0,0-.14-.559.5.5,0,0,0-.454-.2.7.7,0,0,0-.419.134,1.055,1.055,0,0,0-.384.937v1.065a.266.266,0,0,0,.047.186c.029.035.1.047.192.047l.279.006v.25H69.534v-.244Z" transform="translate(-36.201 -81.34)"/>
            <path id="Path_12" data-name="Path 12" class="cls-5" d="M76.07,80.466V80.2l1.152-.058v3.177l.948-.89c.035-.035.064-.07.081-.087a.107.107,0,0,0,.023-.076.1.1,0,0,0-.035-.07.221.221,0,0,0-.151-.052l-.343-.006v-.25h1.67v.25a1.584,1.584,0,0,0-.5.116,1.334,1.334,0,0,0-.419.291l-.454.4.867,1.169a1.594,1.594,0,0,0,.3.332.781.781,0,0,0,.5.145v.25H78.031v-.25l.209-.006a.677.677,0,0,0,.175-.023.073.073,0,0,0,.035-.064.1.1,0,0,0-.012-.058,1.028,1.028,0,0,0-.076-.122L77.623,83.3l-.407.372v.646a.29.29,0,0,0,.047.2.217.217,0,0,0,.169.052l.268.006v.25H76.134v-.25l.268-.006c.116,0,.18-.017.209-.052a.341.341,0,0,0,.035-.2V80.768c0-.122-.023-.2-.081-.233a.764.764,0,0,0-.32-.058l-.175-.012Z" transform="translate(-38.961 -80.14)"/>
            <path id="Path_13" data-name="Path 13" class="cls-5" d="M85.79,84.909v-.268c.233-.012.367-.023.413-.023a.419.419,0,0,0,.1-.012.209.209,0,0,0,.14-.087.524.524,0,0,0,.041-.215V80.929c0-.163-.047-.256-.116-.285a3.09,3.09,0,0,0-.576-.047V80.33h2.1V80.6a3.029,3.029,0,0,0-.611.047c-.064.029-.1.122-.1.285V84.24c0,.18.035.291.111.332a1.238,1.238,0,0,0,.535.07,1.96,1.96,0,0,0,.937-.18,1.671,1.671,0,0,0,.657-1.292l.262.012-.128,1.734H85.79Z" transform="translate(-43.026 -80.219)"/>
            <path id="Path_14" data-name="Path 14" class="cls-5" d="M92.876,82.2l.07-.012a.761.761,0,0,0,.663-.564,2.152,2.152,0,0,0,.128-.721H94v1.3h.943v.256H94v1.868a.819.819,0,0,0,.047.308.336.336,0,0,0,.337.221.433.433,0,0,0,.425-.337,2.242,2.242,0,0,0,.087-.524h.25a1.959,1.959,0,0,1-.134.745.827.827,0,0,1-.844.489.669.669,0,0,1-.663-.343,1.08,1.08,0,0,1-.093-.5V82.471H92.87V82.2Z" transform="translate(-45.986 -80.458)"/>
            <path id="Path_15" data-name="Path 15" class="cls-7" d="M98.252,84.259a.582.582,0,0,0,.547.326.686.686,0,0,0,.675-.535,2.413,2.413,0,0,0,.093-.7,1.983,1.983,0,0,0-.122-.739.65.65,0,0,0-.634-.454.628.628,0,0,0-.611.477,2.312,2.312,0,0,0,.052,1.623Zm-.471-1.978a1.078,1.078,0,0,1,.931-.471.953.953,0,0,1,.855.489V80.745c0-.145-.052-.233-.163-.262a3.844,3.844,0,0,0-.477-.017V80.2l1.21-.058v4.172a.33.33,0,0,0,.041.169.229.229,0,0,0,.209.081l.256.006v.25l-1.065.064v-.559a.976.976,0,0,1-.268.361,1.015,1.015,0,0,1-.663.221,1.11,1.11,0,0,1-.861-.384,1.9,1.9,0,0,1-.006-2.24Z" transform="translate(-47.889 -80.14)"/>
            <path id="Path_16" data-name="Path 16" class="cls-5" d="M104.717,87.106a.382.382,0,0,1,.116.279.432.432,0,0,1-.116.285.376.376,0,0,1-.279.1.379.379,0,0,1-.407-.384.418.418,0,0,1,.116-.279.347.347,0,0,1,.285-.116.354.354,0,0,1,.285.116Z" transform="translate(-50.653 -83.004)"/>
          </g>
          <g id="Group_3" data-name="Group 3" transform="translate(0 6.651)">
            <path id="Path_22" data-name="Path 22" d="M15.862,106.342a2.006,2.006,0,0,0,.291-.39.669.669,0,0,0,.081-.285.453.453,0,0,0-.157-.343,1.373,1.373,0,0,0-.64-.308,3.464,3.464,0,0,0-.687-.07,6.218,6.218,0,0,1-1.047-.1c-.041,0-.244-.047-.634-.116a2.022,2.022,0,0,1-.762-.262.769.769,0,0,1-.279-.407,1.4,1.4,0,0,1-.017-.163c0-.314.262-.634.78-.972a4,4,0,0,1,1.222-.547,5.812,5.812,0,0,1,.681-.157,3.937,3.937,0,0,1,.832-.093,1.79,1.79,0,0,1,.687.122.679.679,0,0,1,.378.419,2.525,2.525,0,0,1-.471.186,2.4,2.4,0,0,1-.489.041l.221-.3a2.723,2.723,0,0,0-.716-.1,3.079,3.079,0,0,0-.826.116,5.449,5.449,0,0,0-.879.355,2.622,2.622,0,0,0-.611.39.751.751,0,0,0-.337.524.419.419,0,0,0,.1.262,1.021,1.021,0,0,0,.332.215,3.651,3.651,0,0,0,1.233.273c.5.035.966.064,1.414.1a2.847,2.847,0,0,1,.652.151.763.763,0,0,1,.448.442.686.686,0,0,1,.047.279,1.555,1.555,0,0,1-.512,1.047,3.285,3.285,0,0,1-1,.727c-.221.1-.436.192-.646.291a3.208,3.208,0,0,1-.687.215c-.058.006-.145.017-.244.035a1.342,1.342,0,0,1-.221.023.387.387,0,0,1-.186-.023.553.553,0,0,1-.157-.035.6.6,0,0,1-.268-.157.7.7,0,0,1-.093-.279,1.4,1.4,0,0,0,.361.134,1.732,1.732,0,0,0,.384.047,2.705,2.705,0,0,0,1.321-.4,4.736,4.736,0,0,0,1.1-.89Z" transform="translate(-12.01 -100.757)"/>
            <path id="Path_23" data-name="Path 23" class="cls-8" d="M22.11,106.1a2.5,2.5,0,0,0-.518.07,2.1,2.1,0,0,1-.471.076c-.047,0-.087-.006-.111-.006.111-.32.3-.483.559-.483a.66.66,0,0,1,.541.343Zm-.064,1.9c.012.052.064.233.169.535a1.741,1.741,0,0,1,.116.559.843.843,0,0,1-.64-.518,2.474,2.474,0,0,1-.215-1.007,1.569,1.569,0,0,1,.116-.669,1.245,1.245,0,0,1,.337.64c.052.215.093.367.116.46Z" transform="translate(-15.774 -102.275)"/>
            <path id="Path_24" data-name="Path 24" d="M24.734,109.5a.679.679,0,0,1-.337-.454,3.882,3.882,0,0,1-.093-.559c-.1-.442-.2-.884-.3-1.315-.012-.087-.023-.175-.029-.262s-.017-.134-.017-.145c0-.151.047-.221.134-.221a.322.322,0,0,1,.14.052q.1.044.192.367a2.752,2.752,0,0,1,.093.495c.029.314.058.628.1.931a1.206,1.206,0,0,0,.419.768c.134-.244.262-.483.4-.733a5.309,5.309,0,0,0,.332-.739.994.994,0,0,1,.186-.349.309.309,0,0,1,.215-.116c.128,0,.256.1.4.279a2.377,2.377,0,0,1,.3.547,1.634,1.634,0,0,0,.227.4.313.313,0,0,0,.239.116c.134,0,.361-.18.669-.553s.576-.559.768-.559a.64.64,0,0,1,.454.233,1.991,1.991,0,0,1,.285.425c.122.244.25.495.372.751a1.491,1.491,0,0,0,.111.151.949.949,0,0,0,.169.064.691.691,0,0,0,.186.029c.041,0,.087.076.122.2a1.073,1.073,0,0,1-.372.081.714.714,0,0,1-.605-.39c-.047-.052-.175-.332-.407-.8-.1-.209-.221-.32-.349-.32a.514.514,0,0,0-.332.209,2.447,2.447,0,0,0-.279.407,1.5,1.5,0,0,1-.413.483.562.562,0,0,1-.39.1.945.945,0,0,1-.692-.576,5.49,5.49,0,0,0-.489-.815,11.647,11.647,0,0,1-.46,1.076c-.244.524-.495.785-.762.785a.821.821,0,0,1-.186-.052Z" transform="translate(-17.007 -102.601)"/>
            <path id="Path_25" data-name="Path 25" d="M38.674,107.913a.853.853,0,0,1,.227.553c0,.314-.227.605-.669.849a2.727,2.727,0,0,1-1.251.326,1.263,1.263,0,0,1-.285-.029,6.061,6.061,0,0,0,.9-.314,1.381,1.381,0,0,0,.716-.64.765.765,0,0,0,.058-.25.58.58,0,0,0-.273-.46,1.509,1.509,0,0,0-.588-.239,2.052,2.052,0,0,0-.471-.052,1.394,1.394,0,0,0-.646.128.531.531,0,0,0-.291.506,5.211,5.211,0,0,0,.326,1.46,5.019,5.019,0,0,1,.332,1.443.994.994,0,0,1-.023.268.684.684,0,0,1-.041.209c-.209-.087-.4-.349-.576-.8a7.829,7.829,0,0,1-.3-1.036,6.926,6.926,0,0,1-.18-1.169c-.047-.518-.093-.861-.116-1.03.407-.111.687-.186.838-.221a3.8,3.8,0,0,1,.867-.122,2.041,2.041,0,0,1,.791.151,1.422,1.422,0,0,1,.657.471Z" transform="translate(-21.841 -102.915)"/>
            <path id="Path_26" data-name="Path 26" d="M42.623,105.62c-.017-.122-.035-.355-.064-.692a9.659,9.659,0,0,1-.076-1.135,3.979,3.979,0,0,0-.064-.553,4.009,4.009,0,0,1-.07-.617,1.015,1.015,0,0,1,.035-.308.238.238,0,0,1,.169-.145,12.129,12.129,0,0,1,.291,2.642c.029.349.081.681.14,1.012.052.256.128.593.239,1.007.047.169.14.506.285.983-.262-.07-.489-.4-.652-.937a6.364,6.364,0,0,1-.233-1.257Z" transform="translate(-24.697 -100.774)"/>
            <path id="Path_27" data-name="Path 27" class="cls-8" d="M46.927,105.284a.677.677,0,0,1,.367.262.607.607,0,0,1,.157.407v.07a1.883,1.883,0,0,1-1.053,1.2c-.285.157-.57.332-.861.489a1.568,1.568,0,0,0,.8.646,2.779,2.779,0,0,0,1.024.163c.151,0,.3,0,.436-.012s.3-.029.483-.047a4.315,4.315,0,0,0,.57-.116c.2-.058.4-.128.582-.186a1.742,1.742,0,0,0,.273-.116,4.608,4.608,0,0,1,.46-.244.8.8,0,0,0,.145-.012c.023-.012.029-.035.006-.064a.694.694,0,0,1,.151-.017.029.029,0,0,0-.006.017c-.337.227-.687.448-1.03.657-.5.192-.815.3-.937.343a3.478,3.478,0,0,1-.966.169,3.646,3.646,0,0,1-1.681-.378,1.379,1.379,0,0,1-.925-1.228,1.72,1.72,0,0,1,.029-.3,2.184,2.184,0,0,1,.617-1.14,2.85,2.85,0,0,1,1.14-.623h.041a1.115,1.115,0,0,1,.18.064Zm-.442,1.46a1.873,1.873,0,0,0,.378-.337.783.783,0,0,0,.209-.477.352.352,0,0,0-.151-.279.42.42,0,0,0-.244-.076.867.867,0,0,0-.378.111,3.505,3.505,0,0,0-.326.192,1.267,1.267,0,0,0-.454.489,1.37,1.37,0,0,0-.157.64.919.919,0,0,0,.035.262,2.212,2.212,0,0,0,.588-.215,3.25,3.25,0,0,0,.5-.308Z" transform="translate(-25.772 -102.049)"/>
            <path id="Path_28" data-name="Path 28" d="M66.613,99.776a3.965,3.965,0,0,1,.326.913c.035.128.116.675.256,1.652a7.488,7.488,0,0,0,.145.768c.18.78.273,1.228.3,1.35a3.866,3.866,0,0,0,.157.489c.169.489.262.8.285.913-.413-.093-.716-.576-.919-1.455-.012-.035-.07-.384-.186-1.041-.076-.489-.157-.983-.233-1.478a7.949,7.949,0,0,0-.355-1.455,1.965,1.965,0,0,0-.669.989c-.145.4-.291.8-.431,1.21a6.6,6.6,0,0,1-.5.937,1.927,1.927,0,0,1-.745.762,1.387,1.387,0,0,1-.18.041.419.419,0,0,1-.175.029c-.378,0-.78-.3-1.187-.908-.18-.256-.355-.518-.512-.791a1.289,1.289,0,0,0-.093.337,1.7,1.7,0,0,0-.023.343,6.063,6.063,0,0,0,.221,1.292,6.3,6.3,0,0,1,.233,1.274,1.89,1.89,0,0,1-.052.431.606.606,0,0,1-.436-.465,2.469,2.469,0,0,1-.076-.716c-.006-.128-.035-.343-.076-.64s-.064-.495-.07-.605c0-.175-.035-.628-.1-1.367-.029-.349-.047-.623-.047-.838a2.061,2.061,0,0,0-.064-.454,4.4,4.4,0,0,1-.145-.675,1.012,1.012,0,0,1,.064-.332.68.68,0,0,1,.326.192,1.2,1.2,0,0,1,.128.471,4.39,4.39,0,0,0,.116.6,2.911,2.911,0,0,0,.25.646,6.988,6.988,0,0,0,.675,1.088,1.334,1.334,0,0,0,.931.617.742.742,0,0,0,.372-.122,1.369,1.369,0,0,0,.361-.413c.3-.483.495-.8.588-.96a5.127,5.127,0,0,0,.436-1,4.462,4.462,0,0,1,.966-1.635h.14Z" transform="translate(-32.605 -99.77)"/>
            <path id="Path_29" data-name="Path 29" d="M75.621,105.221a.74.74,0,0,1,.262.279.718.718,0,0,1,.081.349.644.644,0,0,1-.122.4.918.918,0,0,0-.151-.611.447.447,0,0,0-.384-.2,1.4,1.4,0,0,0-.855.413,1.827,1.827,0,0,0-.593.826c-.052.186-.111.361-.151.535a2.617,2.617,0,0,0-.1.64.765.765,0,0,0,.122.465.574.574,0,0,0,.431.2.7.7,0,0,0,.134.012,1.509,1.509,0,0,0,.983-.4c.256-.256.506-.524.756-.791a2.119,2.119,0,0,1,.844-.582,3.781,3.781,0,0,1,.122.489,1.732,1.732,0,0,0,.32.826.788.788,0,0,0,.3.192,1.11,1.11,0,0,0,.372.052,3.287,3.287,0,0,0,.355-.029c.32-.041.512-.058.57-.058h.1l-.64.314a1.7,1.7,0,0,1-.628.151,1.565,1.565,0,0,1-.273-.029.976.976,0,0,1-.559-.314c-.029-.035-.192-.349-.471-.937-.209.215-.431.425-.646.634a4.1,4.1,0,0,1-.681.547,2.159,2.159,0,0,1-.483.209,1.631,1.631,0,0,1-.512.087h-.093a.288.288,0,0,0-.087-.017.588.588,0,0,1-.495-.3,1.568,1.568,0,0,1-.1-.646,3.042,3.042,0,0,1,.541-1.716,2.992,2.992,0,0,1,1.379-1.146.76.76,0,0,0,.157.035c.093.052.157.087.2.116Z" transform="translate(-37.656 -101.986)"/>
            <path id="Path_30" data-name="Path 30" d="M84.593,102.16V101.5a.314.314,0,0,1,.041-.18.135.135,0,0,1,.122-.052,1.538,1.538,0,0,0,.209.012c0,.483.012.884.041,1.21a9.594,9.594,0,0,0,.175,1.065,4.3,4.3,0,0,0,1.129-.262,2.571,2.571,0,0,0,.919-.611.739.739,0,0,1-.326.669,2.684,2.684,0,0,1-.762.279,1.075,1.075,0,0,0-.588.291.94.94,0,0,0-.151.6,5.585,5.585,0,0,0,.209,1.088c.093.314.227.646.378,1.018.134.262.3.588.506.972a1.582,1.582,0,0,1-1.053-1.175,10.459,10.459,0,0,1-.337-1.682.852.852,0,0,0-.25-.559.689.689,0,0,0-.477-.145,2.518,2.518,0,0,0-.512.064,6.358,6.358,0,0,1-.89.145.915.915,0,0,1-.367-.064.635.635,0,0,1-.279-.25,1.305,1.305,0,0,1,.378-.122,3.761,3.761,0,0,1,.483-.023h.233a4.282,4.282,0,0,0,.675-.058,4.951,4.951,0,0,0,.721-.169c-.064-.3-.116-.535-.145-.687a4.8,4.8,0,0,1-.081-.716Z" transform="translate(-41.416 -100.397)"/>
            <path id="Path_31" data-name="Path 31" d="M91.559,104.562c.081.768.145,1.233.18,1.391a2.059,2.059,0,0,0,.623,1.187c.169-.448.25-.692.268-.733a1.016,1.016,0,0,1,.541-.518,1.045,1.045,0,0,1,.4-.082.767.767,0,0,1,.529.256c.047.047.151.157.332.343a4.127,4.127,0,0,0,.913.8,1.9,1.9,0,0,0,.7.233.074.074,0,0,0,.006.035c.058.041.076.076.07.111a.186.186,0,0,1-.1.122.542.542,0,0,1-.186.029,2.342,2.342,0,0,1-.268-.029c-.1-.023-.157-.041-.18-.047a1.743,1.743,0,0,1-.564-.32,7.984,7.984,0,0,1-.756-.785,1.072,1.072,0,0,0-.291-.239.478.478,0,0,0-.262-.093c-.18,0-.337.116-.483.361a2.833,2.833,0,0,0-.291.716.958.958,0,0,1-.157.308.333.333,0,0,1-.2.087.549.549,0,0,1-.332-.151,1.39,1.39,0,0,1-.262-.39,6.771,6.771,0,0,1-.436-1.361,7.1,7.1,0,0,1-.151-1.437,4.145,4.145,0,0,0-.041-.483,7.985,7.985,0,0,1-.081-.8,1.336,1.336,0,0,1,.122-.623,2.289,2.289,0,0,1,.285,1.024c.017.355.052.733.081,1.088Z" transform="translate(-45.071 -100.891)"/>
            <path id="Path_32" data-name="Path 32" d="M99.54,103.636v-1.559h-.5v-.157h1.21v.157h-.506v1.559Z" transform="translate(-48.403 -100.669)"/>
            <path id="Path_33" data-name="Path 33" d="M101.57,103.636V101.92h.273l.489,1.3q.044.113.087.244a2.4,2.4,0,0,0,.081-.244l.477-1.3h.262v1.716h-.2v-1.431c-.052.175-.1.332-.14.442l-.372.989h-.239l-.378-.977c-.041-.122-.1-.273-.157-.454v1.431Z" transform="translate(-49.461 -100.669)"/>
          </g>
          <rect id="Rectangle_1" data-name="Rectangle 1" width="54.337" height="0.128" transform="translate(0.163 5.865)"/>
        </g>
      </g>
    </g>
  </g>
</svg>
