<svg xmlns="http://www.w3.org/2000/svg" width="144" height="90" viewBox="0 0 144 90">
  <g id="Group_236" data-name="Group 236" transform="translate(-26.95 -18.569)">
    <rect id="Rectangle_1986" data-name="Rectangle 1986" width="144" height="90" transform="translate(26.95 18.569)" fill="#fab30c"/>
    <g id="Group_231" data-name="Group 231" transform="translate(43.268 69.549)">
      <path id="Path_186" data-name="Path 186" d="M52.709,102.2a3.09,3.09,0,0,1,3.14-3.158,2.819,2.819,0,0,1,2.46,1.195l-.742.525a1.981,1.981,0,0,0-1.746-.841,2.286,2.286,0,0,0,.036,4.56,2.181,2.181,0,0,0,1.845-.9l.751.516a3.02,3.02,0,0,1-2.633,1.258A3.068,3.068,0,0,1,52.709,102.2Z" transform="translate(-52.709 -99.045)" fill="#101010"/>
      <path id="Path_187" data-name="Path 187" d="M74.124,102.2a3.176,3.176,0,1,1,3.176,3.158A3.114,3.114,0,0,1,74.124,102.2Zm5.347,0a2.174,2.174,0,1,0-2.172,2.28A2.155,2.155,0,0,0,79.471,102.2Z" transform="translate(-60.558 -99.045)" fill="#101010"/>
      <path id="Path_188" data-name="Path 188" d="M98.194,99.174h.968v5.293h2.714v.86H98.194Z" transform="translate(-69.38 -99.092)" fill="#101010"/>
      <path id="Path_189" data-name="Path 189" d="M172.116,102.2a3.176,3.176,0,1,1,3.176,3.158A3.114,3.114,0,0,1,172.116,102.2Zm5.347,0a2.174,2.174,0,1,0-2.172,2.28A2.155,2.155,0,0,0,177.463,102.2Z" transform="translate(-96.474 -99.045)" fill="#101010"/>
      <path id="Path_190" data-name="Path 190" d="M202.273,105.326h-1.15l-1.049-1.493a3.378,3.378,0,0,1-.443.027h-.606v1.466h-.968V99.174h1.574c1.691,0,2.624.932,2.624,2.353a2.116,2.116,0,0,1-1.231,2.053Zm-2.678-2.3c1.185,0,1.665-.561,1.665-1.5s-.488-1.494-1.665-1.494h-.569v3Z" transform="translate(-105.982 -99.092)" fill="#101010"/>
      <path id="Path_191" data-name="Path 191" d="M220.613,103.659a1.478,1.478,0,0,0,1.393.833c.651,0,1.086-.309,1.086-.806,0-.579-.435-.778-.977-1.022l-.425-.19c-.905-.4-1.52-.868-1.52-1.828a1.584,1.584,0,0,1,1.71-1.6,1.9,1.9,0,0,1,1.755.968l-.733.48a1.079,1.079,0,0,0-1-.6.7.7,0,0,0-.787.715c0,.488.3.678.967.977l.426.189c.932.417,1.547.841,1.547,1.882,0,1.131-.869,1.7-2.035,1.7a2.391,2.391,0,0,1-2.217-1.294Z" transform="translate(-113.951 -99.045)" fill="#101010"/>
    </g>
    <path id="Path_192" data-name="Path 192" d="M61.628,65.983c0,1.688-.772,2.822-3.039,2.822H55.044V63.137h3.425c2.243,0,3.16,1.157,3.16,2.846m-1.086-7.091c0,1.351-.6,2.171-2.387,2.171H55.044v-4.22h3.112c1.809,0,2.387.8,2.387,2.049m2.557-.072c0-2.339-1.52-4.2-4.8-4.2H52.488v16.4h6.246c3.762,0,5.523-2.17,5.523-4.944a4.093,4.093,0,0,0-3.135-4.148A3.356,3.356,0,0,0,63.1,58.819" transform="translate(-9.36 -13.215)" fill="#101010"/>
    <path id="Path_193" data-name="Path 193" d="M91.252,60.893c0,2.509-1.278,4-4.437,4H85.3V56.914h1.52c3.134,0,4.437,1.5,4.437,3.979m2.653,0c0-3.786-2.485-6.27-6.994-6.27h-4.2v16.4H85.3V67.116h1.616a9.161,9.161,0,0,0,1.181-.072l2.8,3.979h3.063l-3.328-4.655a5.644,5.644,0,0,0,3.28-5.475" transform="translate(-20.439 -13.215)" fill="#101010"/>
    <path id="Path_194" data-name="Path 194" d="M186,71.124h.193V54.483h-2.412v10.78L173.262,54.242h-.193V70.883h2.411V60.1Z" transform="translate(-53.556 -13.075)" fill="#101010"/>
    <path id="Path_195" data-name="Path 195" d="M210.82,62.123l-5.619,8.9h2.725l4.268-6.752,4.268,6.752h2.918l-5.74-9.068c.024,0,4.654-7.331,4.654-7.331h-2.725l-3.28,5.186-3.28-5.186h-2.918s4.727,7.476,4.727,7.5" transform="translate(-65.333 -13.215)" fill="#101010"/>
    <g id="Group_232" data-name="Group 232" transform="translate(43.069 87.979)">
      <path id="Path_196" data-name="Path 196" d="M52.4,130.771V128.3h1.079v2.46c0,.457.213.718.67.718s.67-.261.67-.718V128.3h1.079v2.472a1.754,1.754,0,0,1-3.5,0Z" transform="translate(-52.395 -128.197)" fill="#101010"/>
      <path id="Path_197" data-name="Path 197" d="M68.523,132.33H67.356l-.563-.925h-.4v.925H65.31V128.3h1.529a1.545,1.545,0,0,1,1.7,1.583,1.411,1.411,0,0,1-.729,1.3Zm-1.737-1.785a.667.667,0,0,0,0-1.333h-.4v1.333Z" transform="translate(-57.129 -128.197)" fill="#101010"/>
      <path id="Path_198" data-name="Path 198" d="M77.551,128.3H79.2c.8,0,1.322.367,1.322.984a.77.77,0,0,1-.462.782,1.031,1.031,0,0,1,.812,1.055c0,.771-.6,1.209-1.6,1.209H77.551Zm1.565,1.488c.237,0,.343-.118.343-.309a.3.3,0,0,0-.332-.326h-.533v.634Zm.13,1.69c.416,0,.546-.178.546-.457s-.137-.451-.546-.451h-.652v.908Z" transform="translate(-61.615 -128.197)" fill="#101010"/>
      <path id="Path_199" data-name="Path 199" d="M90.323,132.272H89.268l1.963-4.1c.018-.041.053-.041.071,0l1.957,4.1H92.143l-.154-.343H90.472Zm.9-2.087-.4.937h.818Z" transform="translate(-65.91 -128.138)" fill="#101010"/>
      <path id="Path_200" data-name="Path 200" d="M103.515,130.267v2.009H102.5v-4.085c0-.035.018-.065.083-.011l2.531,2.087v-2.022h1.014v4.091c0,.048-.018.065-.083.012Z" transform="translate(-70.76 -128.143)" fill="#101010"/>
      <path id="Path_201" data-name="Path 201" d="M126.1,132.357a2.055,2.055,0,0,1-2.1-2.07,2.033,2.033,0,0,1,2.039-2.063,1.961,1.961,0,0,1,1.743.866l-.813.551a1.012,1.012,0,0,0-1.867.646,1.02,1.02,0,0,0,.99,1.132.97.97,0,0,0,.949-.556l.83.533A1.864,1.864,0,0,1,126.1,132.357Z" transform="translate(-78.64 -128.17)" fill="#101010"/>
      <path id="Path_202" data-name="Path 202" d="M136.672,130.287a2.166,2.166,0,1,1,2.164,2.07A2.087,2.087,0,0,1,136.672,130.287Zm3.225,0a1.063,1.063,0,1,0-1.061,1.132A1.035,1.035,0,0,0,139.9,130.287Z" transform="translate(-83.284 -128.17)" fill="#101010"/>
      <path id="Path_203" data-name="Path 203" d="M149.97,131.616l.782-.587a1.021,1.021,0,0,0,.842.438c.321,0,.51-.1.51-.319,0-.172-.13-.255-.4-.345l-.474-.16a1.225,1.225,0,0,1,.374-2.419,1.631,1.631,0,0,1,1.34.534l-.616.646a.836.836,0,0,0-.664-.29c-.261,0-.391.118-.391.279s.089.231.284.3l.534.179c.806.267,1.079.652,1.079,1.221,0,.742-.462,1.275-1.53,1.275A2,2,0,0,1,149.97,131.616Z" transform="translate(-88.158 -128.17)" fill="#101010"/>
      <path id="Path_204" data-name="Path 204" d="M162.215,128.217c.006-.042.03-.036.053-.006l1.933,2.17,1.9-2.17c.023-.03.048-.035.053.006l.237,4.073h-1.062l-.094-1.719-1.008,1.168a.033.033,0,0,1-.053,0l-1.05-1.173-.1,1.725h-1.055Z" transform="translate(-92.559 -128.156)" fill="#101010"/>
      <path id="Path_205" data-name="Path 205" d="M176.239,128.3h2.828v.908h-1.75v.936h1.459V131h-1.459v.421h1.832v.907h-2.911Z" transform="translate(-97.786 -128.197)" fill="#101010"/>
      <path id="Path_206" data-name="Path 206" d="M188.734,129.207h-1.067V128.3h3.213v.908h-1.067v3.124h-1.079Z" transform="translate(-101.975 -128.197)" fill="#101010"/>
      <path id="Path_207" data-name="Path 207" d="M199.9,128.3h1.08v4.031H199.9Z" transform="translate(-106.458 -128.197)" fill="#101010"/>
      <path id="Path_208" data-name="Path 208" d="M210.882,132.357a2.056,2.056,0,0,1-2.1-2.07,2.034,2.034,0,0,1,2.04-2.063,1.961,1.961,0,0,1,1.743.866l-.812.551a1.012,1.012,0,0,0-1.867.646,1.02,1.02,0,0,0,.99,1.132.969.969,0,0,0,.948-.556l.83.533A1.863,1.863,0,0,1,210.882,132.357Z" transform="translate(-109.714 -128.17)" fill="#101010"/>
      <path id="Path_209" data-name="Path 209" d="M221.388,131.616l.783-.587a1.021,1.021,0,0,0,.843.438c.319,0,.509-.1.509-.319,0-.172-.13-.255-.4-.345l-.474-.16a1.224,1.224,0,0,1,.373-2.419,1.634,1.634,0,0,1,1.341.534l-.617.646a.837.837,0,0,0-.664-.29c-.261,0-.392.118-.392.279s.089.231.285.3l.534.179c.806.267,1.078.652,1.078,1.221,0,.742-.462,1.275-1.529,1.275A2,2,0,0,1,221.388,131.616Z" transform="translate(-114.335 -128.17)" fill="#101010"/>
    </g>
    <g id="Group_234" data-name="Group 234" transform="translate(78.885 31.922)">
      <path id="Path_210" data-name="Path 210" d="M109.076,61.823c-.189.239-.265.525.257.857.143-.238.5-.429.6-.571a4.018,4.018,0,0,0-.857-.286" transform="translate(-108.933 -47.775)" fill="#101010"/>
      <path id="Path_211" data-name="Path 211" d="M111.127,62.323c.143-.238.267-.4-.115-.5a4.415,4.415,0,0,1-.5.286c.381.1.425.167.615.214" transform="translate(-109.512 -47.775)" fill="#101010"/>
      <path id="Path_212" data-name="Path 212" d="M110.464,72.215c-.1.143-.072.381.072.713a.542.542,0,0,0-.322.143,1.227,1.227,0,0,1-.393.215,1.358,1.358,0,0,0,.215.714,2.5,2.5,0,0,1,1.428.357,2.619,2.619,0,0,0,0-1.214.849.849,0,0,1,.143-.856c-.143.048-.239.012-.286-.107s-.119-.154-.214-.107q-.072.286-.643.143" transform="translate(-109.259 -51.524)" fill="#101010"/>
      <path id="Path_213" data-name="Path 213" d="M111.317,72.918c.143-.189.238-.143.286.143,0,.286-.048.454-.143.5a2.083,2.083,0,0,1-.286-.215.805.805,0,0,1,.286-.286c0-.046-.048-.1-.143-.143" transform="translate(-109.755 -51.8)" fill="#101010"/>
      <path id="Path_214" data-name="Path 214" d="M121.971,63.277q-.5.144-.429.214.214-.214.571.5a1.106,1.106,0,0,1,.786,0,1.913,1.913,0,0,0,.5.358q.285-.927-.357-1.214a.253.253,0,0,1-.286.286c-.143-.047-.19-.167-.143-.357a4.866,4.866,0,0,1-.642.213" transform="translate(-113.551 -48.23)" fill="#101010"/>
      <path id="Path_215" data-name="Path 215" d="M123.66,102.492a1.091,1.091,0,0,1,.215-.286.5.5,0,0,0-.5-.143,3.693,3.693,0,0,1-.857,1.358,1.055,1.055,0,0,0,.214.286q.214.215.286,0-.215,0-.143-.286l.143-.358c.286.382.547.549.786.5a.948.948,0,0,0,0-1h-.428c.094.048.143-.011.143-.178s.1-.226.286-.179c0-.19-.048-.1-.143.286" transform="translate(-113.912 -62.518)" fill="#101010"/>
      <g id="Group_233" data-name="Group 233" transform="translate(1.062 0)">
        <path id="Path_216" data-name="Path 216" d="M142.525,51.9c-.333.048-.525.168-.571.357.047-.047.167-.023.357.071.143.1.214.072.214-.071-.143-.047-.214-.1-.214-.143C142.5,52.115,142.572,52.044,142.525,51.9Z" transform="translate(-122.098 -44.139)" fill="#101010"/>
        <path id="Path_217" data-name="Path 217" d="M139.25,66.73a15.166,15.166,0,0,0,4.5-12.177A16.222,16.222,0,0,0,126.323,39.7a17.747,17.747,0,0,0-11.356,5.143,1.384,1.384,0,0,1,.214.715q0,1.143-1,1.142a1.258,1.258,0,0,1-.571-.143.411.411,0,0,0-.072.286,1.217,1.217,0,0,0,.393.644,2.232,2.232,0,0,1,.464.642q1.213.073,1.214.572a1.323,1.323,0,0,1-1.285-.25,1.777,1.777,0,0,0-.786-.464.771.771,0,0,0-.428.142,1.245,1.245,0,0,1,.214-.5q.07-.213-.214-.357a3.691,3.691,0,0,1-.357.678,1.713,1.713,0,0,0-.286,1.107.2.2,0,0,1-.143-.071c-.048-.047-.119-.047-.214,0q-.642,2.143-1,3.143a4.1,4.1,0,0,1,.286,3.07c.332.191.5.357.5.5a.884.884,0,0,0-.5.213.771.771,0,0,1-.643.143,8.614,8.614,0,0,0,.357,3.5,1.072,1.072,0,0,1-.286-.214l-.215.214a1.8,1.8,0,0,0,.857.286q.643,0,1-1,.5-1.426.643-1.714c-.286.048-.5-.143-.643-.571q1.141.358.786.856a.973.973,0,0,0,.643-.143,21,21,0,0,0,0,2.714,3.4,3.4,0,0,1-.5,2.429,3.727,3.727,0,0,0-.5-.357,3.13,3.13,0,0,1-.25.214.439.439,0,0,0-.179.357,1.116,1.116,0,0,0,.428.286.288.288,0,0,0-.143.286q0-.143.857,1.357a9.9,9.9,0,0,0,1.928,2.714c.189,0,.5.025.929.072h.642c.143-.047.19-.189.143-.428a2.282,2.282,0,0,0,.857,0,.385.385,0,0,1,.4.263c-.063-.08-.219-.12-.468-.12-.333.048-.5.168-.5.357a.633.633,0,0,1,.286-.072.778.778,0,0,1,.429.143.726.726,0,0,0,.285.143.588.588,0,0,0,.357-.215c0,.381-.12.62-.357.715q-1.071,0-.928-.072-.573.072-.357.429a8.85,8.85,0,0,1,1.357-.143l.286.429a5.616,5.616,0,0,1-.286.715,2.105,2.105,0,0,0,1.071.571.6.6,0,0,0,.5-.357,1.091,1.091,0,0,1,.072.643,17.212,17.212,0,0,0,3.565,1.15c0,.253,0,.518,0,.767,0,.53-.237.084-.234.6,0,.29.487,1.544.489,1.829.006,1.067-.013,2.093-.041,3.087-.756-.119-1.568-.929-1.75-.637-.62-.112-1.935.194-2.545.042a3.863,3.863,0,0,0-1.829-.265q-.358,2.214.143,2.785a5.824,5.824,0,0,0,.5-1.071.676.676,0,0,0,.571.285c.143-.046.286-.094.428-.143q.429,2.929-.357,3.285l-.429-.357a5.4,5.4,0,0,0-.714,1.571q-.286.072,0,.143c.143-.238.261.08.357-.016.046.334.26.087.642.231l4.838-.033v.055c0,.354.247.459.25.8.006.8-.23,1.562-.224,2.276.011,1.27.022,2.395.033,3.366H125.4c-.048.232,1.7.165,1.838.283s.214-.523.214-.464a5.369,5.369,0,0,1,2.857.309c-.47-.729.224-.9.367-1.946-.416-.905-.127-2.558-.152-4.942,2.251.042,4.141.176,5.587.156l.242-2.658c.19.048-.151-.484-.056-.627s-.318-.456-.27-.456a14.826,14.826,0,0,0,.342-2.615c-.334-.475-1.171-.3-2.028-.444a7.963,7.963,0,0,1-2.645.387,6.024,6.024,0,0,1-1.173-.134v-.483c-.619-1.051.247-1.964-.134-2.255.092-1.031.153-1.878.186-2.666A16.276,16.276,0,0,0,139.25,66.73ZM113.467,53.838q.357-.428.429-.5a.8.8,0,0,0,.143.215c-.048.239-.1.369-.143.392a.879.879,0,0,0-.215.215q-.143.179-.214.179A.47.47,0,0,1,113.467,53.838Zm.643,1.714a10.254,10.254,0,0,0-.214,1.071q-.716-.713-.643-.856a.9.9,0,0,0-.357.142c-.1.191-.167.215-.214.072a.468.468,0,0,1-.071-.429,3.411,3.411,0,0,0,1,.215,7.469,7.469,0,0,0,.286-1.072Q114.18,54.91,114.11,55.552Zm-.214-5.214a9.86,9.86,0,0,1-.143-1.285c.286,0,.452.191.5.571C114.3,50.053,114.182,50.292,113.9,50.338Zm7.785,31.212c-.239.1-.393.036-.464-.178s-.178-.322-.321-.322a.329.329,0,0,1,.357-.214q.571,0,.571.428A.408.408,0,0,1,121.681,81.55Zm.214-.714q1,0,.857.5A3.162,3.162,0,0,1,121.895,80.836Zm-3.357-30.783c-.62-.238-.928-.4-.928-.5Q118.609,49.553,118.538,50.053Zm-1.571-.5c.381,0,.571.167.571.5a.408.408,0,0,1-.143.285.356.356,0,0,1-.464-.25c-.072-.214-.179-.3-.322-.25C116.7,49.649,116.824,49.553,116.967,49.553Zm.928,15.856a5.324,5.324,0,0,1-1.643.642,1.827,1.827,0,0,0-.106-1.143,3.588,3.588,0,0,1-.25-1,1.043,1.043,0,0,1,.214-.642,1.254,1.254,0,0,1,.786.108c.238.118.4.2.5.249-.1.191-.012.464.25.822A1.06,1.06,0,0,1,117.9,65.409Zm8.5-1.143a16.4,16.4,0,0,1-3.071-.285,1.933,1.933,0,0,0-.786-1.072,2.191,2.191,0,0,0-.857.214,1.038,1.038,0,0,0-.571-1q-.643-.429-1.214-.858-.144.215-.643.143a1.928,1.928,0,0,1,.643-.714,5.729,5.729,0,0,1-.786-1.714q-.429-1.141-1.071-1.358a1.885,1.885,0,0,0-.929-1.714q-.071-1.927,1.285-2.285a2,2,0,0,1,.5-1.357,12.654,12.654,0,0,1,.786-1.071,1.754,1.754,0,0,0-1.071.428q-.215-.571-.357-.857a4.341,4.341,0,0,0,1.643,0,7.394,7.394,0,0,1,2.856-2.428q.356-.143,3.786-1.571a1.187,1.187,0,0,0,1.143.286q.284-.07.143-.429c-.049-.047-.1-.1-.143-.143-.048,0-.167.1-.357.286-.048,0-.1-.047-.143-.143,0-.143.106-.225.321-.25s.322-.107.322-.25a1.565,1.565,0,0,1,1.214.786,3.221,3.221,0,0,1,.786-.286c0,.1.1.239.286.429.1.191.072.333-.072.429a6.736,6.736,0,0,0,1.286-.358c0-.38-.143-.571-.428-.571h-.715c0-.189.107-.3.321-.321s.322-.083.322-.179a.9.9,0,0,1,.714.143l.572.429c-.1.62-.143.905-.143.858h-.786a.344.344,0,0,0,.214.428.35.35,0,0,1,.214.429,7.846,7.846,0,0,1,4.143,5.357c-.478.143-.35.723-.588.77-.1.477-.519.421-.305.8a1.043,1.043,0,0,0,1.107.5,7.889,7.889,0,0,1-2.857,6.427A10.549,10.549,0,0,1,126.4,64.265Z" transform="translate(-110.61 -39.648)" fill="#101010"/>
      </g>
    </g>
  </g>
</svg>
