<svg xmlns="http://www.w3.org/2000/svg" width="96" height="60" viewBox="0 0 96 60">
  <g id="Group_237" data-name="Group 237" transform="translate(-26.95 -18.569)">
    <rect id="Rectangle_1986" data-name="Rectangle 1986" width="96" height="60" transform="translate(26.95 18.569)" fill="#fab30c"/>
    <g id="Group_231" data-name="Group 231" transform="translate(37.829 52.555)">
      <path id="Path_186" data-name="Path 186" d="M52.709,101.15A2.06,2.06,0,0,1,54.8,99.045a1.879,1.879,0,0,1,1.64.8l-.495.35a1.321,1.321,0,0,0-1.164-.561,1.524,1.524,0,0,0,.024,3.04,1.454,1.454,0,0,0,1.23-.6l.5.344a2.013,2.013,0,0,1-1.755.839A2.045,2.045,0,0,1,52.709,101.15Z" transform="translate(-52.709 -99.045)" fill="#101010"/>
      <path id="Path_187" data-name="Path 187" d="M74.124,101.15a2.117,2.117,0,1,1,2.117,2.105A2.076,2.076,0,0,1,74.124,101.15Zm3.565,0a1.449,1.449,0,1,0-1.448,1.52A1.437,1.437,0,0,0,77.689,101.15Z" transform="translate(-65.08 -99.045)" fill="#101010"/>
      <path id="Path_188" data-name="Path 188" d="M98.194,99.174h.645V102.7h1.81v.573H98.194Z" transform="translate(-78.985 -99.12)" fill="#101010"/>
      <path id="Path_189" data-name="Path 189" d="M172.116,101.15a2.117,2.117,0,1,1,2.117,2.105A2.076,2.076,0,0,1,172.116,101.15Zm3.565,0a1.449,1.449,0,1,0-1.448,1.52A1.437,1.437,0,0,0,175.681,101.15Z" transform="translate(-121.688 -99.045)" fill="#101010"/>
      <path id="Path_190" data-name="Path 190" d="M200.868,103.276H200.1l-.7-1a2.251,2.251,0,0,1-.3.018h-.4v.977h-.645v-4.1h1.049a1.532,1.532,0,0,1,1.749,1.568,1.411,1.411,0,0,1-.821,1.369Zm-1.786-1.532c.79,0,1.11-.374,1.11-1s-.326-1-1.11-1h-.38v2Z" transform="translate(-136.674 -99.12)" fill="#101010"/>
      <path id="Path_191" data-name="Path 191" d="M220.342,102.121a.986.986,0,0,0,.929.555c.434,0,.724-.206.724-.537,0-.386-.29-.519-.651-.682l-.283-.127c-.6-.265-1.014-.579-1.014-1.218a1.056,1.056,0,0,1,1.14-1.068,1.266,1.266,0,0,1,1.17.645l-.489.32a.719.719,0,0,0-.669-.4.467.467,0,0,0-.525.477c0,.325.2.452.645.651l.284.126c.621.278,1.031.561,1.031,1.255,0,.754-.579,1.134-1.357,1.134a1.594,1.594,0,0,1-1.478-.863Z" transform="translate(-149.234 -99.045)" fill="#101010"/>
    </g>
    <path id="Path_192" data-name="Path 192" d="M58.582,62.2c0,1.125-.515,1.881-2.026,1.881H54.192V60.3h2.283c1.5,0,2.107.772,2.107,1.9m-.724-4.727c0,.9-.4,1.447-1.591,1.447H54.192V56.1h2.074c1.206,0,1.591.53,1.591,1.366m1.7-.048c0-1.559-1.013-2.8-3.2-2.8H52.488V65.556h4.164c2.508,0,3.682-1.447,3.682-3.3a2.728,2.728,0,0,0-2.09-2.765,2.237,2.237,0,0,0,1.318-2.074" transform="translate(-14.753 -20.828)" fill="#101010"/>
    <path id="Path_193" data-name="Path 193" d="M88.407,58.8c0,1.672-.852,2.669-2.958,2.669H84.436V56.151h1.013c2.09,0,2.958,1,2.958,2.653m1.769,0c0-2.524-1.656-4.18-4.662-4.18h-2.8V65.556h1.721v-2.6h1.077A6.108,6.108,0,0,0,86.3,62.9l1.865,2.653h2.042l-2.219-3.1a3.762,3.762,0,0,0,2.187-3.65" transform="translate(-32.214 -20.828)" fill="#101010"/>
    <path id="Path_194" data-name="Path 194" d="M181.687,65.5h.129V54.4h-1.608V61.59l-7.01-7.348h-.129V65.336h1.608V58.149Z" transform="translate(-84.41 -20.608)" fill="#101010"/>
    <path id="Path_195" data-name="Path 195" d="M208.947,59.623,205.2,65.556h1.817l2.846-4.5,2.846,4.5h1.946l-3.827-6.046c.016,0,3.1-4.887,3.1-4.887h-1.816l-2.186,3.457-2.187-3.457H205.8s3.151,4.984,3.151,5" transform="translate(-102.972 -20.828)" fill="#101010"/>
    <g id="Group_232" data-name="Group 232" transform="translate(37.696 64.842)">
      <path id="Path_196" data-name="Path 196" d="M52.4,129.947V128.3h.719v1.64c0,.3.142.478.447.478s.447-.174.447-.478V128.3h.719v1.648a1.17,1.17,0,0,1-2.332,0Z" transform="translate(-52.395 -128.231)" fill="#101010"/>
      <path id="Path_197" data-name="Path 197" d="M67.452,130.987h-.778l-.375-.617h-.269v.617H65.31V128.3h1.019a1.03,1.03,0,0,1,1.131,1.055.941.941,0,0,1-.486.87Zm-1.158-1.19a.444.444,0,0,0,0-.889h-.265v.889Z" transform="translate(-59.856 -128.231)" fill="#101010"/>
      <path id="Path_198" data-name="Path 198" d="M77.551,128.3h1.1c.533,0,.881.245.881.656a.513.513,0,0,1-.308.522.687.687,0,0,1,.541.7c0,.514-.4.806-1.067.806H77.551Zm1.044.992c.158,0,.229-.079.229-.206a.2.2,0,0,0-.221-.217h-.356v.423Zm.087,1.127c.277,0,.364-.119.364-.3s-.091-.3-.364-.3h-.435v.605Z" transform="translate(-66.927 -128.231)" fill="#101010"/>
      <path id="Path_199" data-name="Path 199" d="M89.972,130.894h-.7l1.308-2.735c.012-.027.035-.027.047,0l1.3,2.735h-.743l-.1-.229H90.07Zm.6-1.391-.269.625h.545Z" transform="translate(-73.696 -128.138)" fill="#101010"/>
      <path id="Path_200" data-name="Path 200" d="M103.177,129.561v1.34H102.5v-2.723c0-.024.012-.044.055-.008l1.688,1.391v-1.348h.676v2.727c0,.032-.012.043-.055.008Z" transform="translate(-81.34 -128.145)" fill="#101010"/>
      <path id="Path_201" data-name="Path 201" d="M125.4,130.979a1.37,1.37,0,0,1-1.4-1.38,1.355,1.355,0,0,1,1.359-1.376,1.307,1.307,0,0,1,1.162.577l-.542.367a.675.675,0,0,0-1.245.431.68.68,0,0,0,.66.755.647.647,0,0,0,.633-.371l.553.355A1.242,1.242,0,0,1,125.4,130.979Z" transform="translate(-93.76 -128.188)" fill="#101010"/>
      <path id="Path_202" data-name="Path 202" d="M136.672,129.6a1.444,1.444,0,1,1,1.443,1.38A1.392,1.392,0,0,1,136.672,129.6Zm2.15,0a.709.709,0,1,0-.707.755A.69.69,0,0,0,138.822,129.6Z" transform="translate(-101.08 -128.188)" fill="#101010"/>
      <path id="Path_203" data-name="Path 203" d="M149.97,130.485l.522-.391a.681.681,0,0,0,.561.292c.214,0,.34-.063.34-.213,0-.115-.087-.17-.265-.23l-.316-.106a.816.816,0,0,1,.249-1.613,1.087,1.087,0,0,1,.893.356l-.411.43a.557.557,0,0,0-.443-.193c-.174,0-.261.079-.261.186s.06.154.19.2l.356.119c.537.178.719.435.719.814,0,.495-.308.85-1.02.85A1.333,1.333,0,0,1,149.97,130.485Z" transform="translate(-108.762 -128.188)" fill="#101010"/>
      <path id="Path_204" data-name="Path 204" d="M162.136,128.207c0-.028.02-.024.035,0l1.289,1.447,1.269-1.447c.016-.02.032-.024.035,0l.158,2.715h-.708l-.063-1.146-.672.778a.022.022,0,0,1-.035,0l-.7-.782-.063,1.15h-.7Z" transform="translate(-115.699 -128.166)" fill="#101010"/>
      <path id="Path_205" data-name="Path 205" d="M176.239,128.3h1.886v.605h-1.166v.624h.973v.574h-.973v.28h1.221v.6h-1.941Z" transform="translate(-123.937 -128.231)" fill="#101010"/>
      <path id="Path_206" data-name="Path 206" d="M188.378,128.9h-.711V128.3h2.142v.605H189.1v2.082h-.72Z" transform="translate(-130.539 -128.231)" fill="#101010"/>
      <path id="Path_207" data-name="Path 207" d="M199.9,128.3h.72v2.688h-.72Z" transform="translate(-137.605 -128.231)" fill="#101010"/>
      <path id="Path_208" data-name="Path 208" d="M210.182,130.979a1.37,1.37,0,0,1-1.4-1.38,1.356,1.356,0,0,1,1.36-1.376,1.307,1.307,0,0,1,1.162.577l-.541.367a.675.675,0,0,0-1.245.431.68.68,0,0,0,.66.755.646.646,0,0,0,.632-.371l.553.355A1.242,1.242,0,0,1,210.182,130.979Z" transform="translate(-142.737 -128.188)" fill="#101010"/>
      <path id="Path_209" data-name="Path 209" d="M221.388,130.485l.522-.391a.681.681,0,0,0,.562.292c.213,0,.34-.063.34-.213,0-.115-.087-.17-.265-.23l-.316-.106a.816.816,0,0,1,.249-1.613,1.089,1.089,0,0,1,.894.356l-.411.43a.558.558,0,0,0-.443-.193c-.174,0-.261.079-.261.186s.06.154.19.2l.356.119c.538.178.719.435.719.814,0,.495-.308.85-1.019.85A1.335,1.335,0,0,1,221.388,130.485Z" transform="translate(-150.019 -128.188)" fill="#101010"/>
    </g>
    <g id="Group_234" data-name="Group 234" transform="translate(61.573 27.471)">
      <path id="Path_210" data-name="Path 210" d="M109.029,61.823c-.126.159-.177.35.171.571.1-.159.337-.286.4-.381a2.678,2.678,0,0,0-.571-.19" transform="translate(-108.933 -52.458)" fill="#101010"/>
      <path id="Path_211" data-name="Path 211" d="M110.922,62.156c.1-.159.178-.269-.077-.333a2.944,2.944,0,0,1-.333.19c.254.064.283.111.41.143" transform="translate(-109.845 -52.458)" fill="#101010"/>
      <path id="Path_212" data-name="Path 212" d="M110.25,72.16c-.064.1-.048.254.048.476a.361.361,0,0,0-.215.1.818.818,0,0,1-.262.143.905.905,0,0,0,.143.476,1.669,1.669,0,0,1,.952.238,1.746,1.746,0,0,0,0-.81.566.566,0,0,1,.1-.571c-.1.032-.159.008-.19-.071s-.079-.1-.143-.071q-.048.191-.429.1" transform="translate(-109.446 -58.367)" fill="#101010"/>
      <path id="Path_213" data-name="Path 213" d="M111.269,72.88c.1-.126.158-.1.19.1,0,.19-.032.3-.1.334a1.389,1.389,0,0,1-.19-.143.537.537,0,0,1,.19-.19c0-.031-.032-.063-.1-.1" transform="translate(-110.228 -58.802)" fill="#101010"/>
      <path id="Path_214" data-name="Path 214" d="M121.825,63.206q-.334.1-.286.143.143-.143.381.333a.737.737,0,0,1,.524,0,1.275,1.275,0,0,0,.333.239q.19-.618-.238-.81a.169.169,0,0,1-.191.19c-.1-.031-.127-.111-.1-.238a3.245,3.245,0,0,1-.428.142" transform="translate(-116.212 -53.175)" fill="#101010"/>
      <path id="Path_215" data-name="Path 215" d="M123.279,102.343a.728.728,0,0,1,.143-.19.332.332,0,0,0-.333-.1,2.462,2.462,0,0,1-.571.905.7.7,0,0,0,.143.19q.143.143.19,0-.143,0-.1-.19l.1-.239c.19.255.364.366.524.334a.632.632,0,0,0,0-.667h-.285c.063.032.1-.007.1-.119s.063-.15.19-.119c0-.127-.032-.064-.1.19" transform="translate(-116.781 -75.694)" fill="#101010"/>
      <g id="Group_233" data-name="Group 233" transform="translate(0.708 0)">
        <path id="Path_216" data-name="Path 216" d="M142.335,51.9c-.222.032-.35.112-.381.238.031-.031.111-.016.238.047.1.065.143.048.143-.047-.1-.031-.143-.063-.143-.1C142.318,52.044,142.366,52,142.335,51.9Z" transform="translate(-128.717 -46.726)" fill="#101010"/>
        <path id="Path_217" data-name="Path 217" d="M129.7,57.7a10.111,10.111,0,0,0,3-8.118,10.814,10.814,0,0,0-11.618-9.9,11.831,11.831,0,0,0-7.571,3.428.922.922,0,0,1,.143.476q0,.762-.666.761a.839.839,0,0,1-.381-.1.274.274,0,0,0-.048.19.811.811,0,0,0,.262.429,1.488,1.488,0,0,1,.31.428q.809.049.809.381a.882.882,0,0,1-.857-.167,1.185,1.185,0,0,0-.524-.309.514.514,0,0,0-.285.095.83.83,0,0,1,.143-.333q.047-.142-.143-.238a2.46,2.46,0,0,1-.238.452,1.142,1.142,0,0,0-.19.738.136.136,0,0,1-.1-.047c-.032-.031-.079-.031-.143,0q-.428,1.428-.666,2.1a2.732,2.732,0,0,1,.19,2.047c.221.127.333.238.333.334a.589.589,0,0,0-.333.142.514.514,0,0,1-.429.1,5.743,5.743,0,0,0,.238,2.333.714.714,0,0,1-.19-.143l-.143.143a1.2,1.2,0,0,0,.571.19q.429,0,.667-.667.333-.951.429-1.143c-.191.032-.333-.1-.429-.381q.761.239.524.571a.649.649,0,0,0,.429-.1,14,14,0,0,0,0,1.809,2.27,2.27,0,0,1-.334,1.619,2.485,2.485,0,0,0-.333-.238,2.087,2.087,0,0,1-.166.143.293.293,0,0,0-.119.238.744.744,0,0,0,.285.19.192.192,0,0,0-.1.19q0-.1.571.9a6.6,6.6,0,0,0,1.286,1.809c.126,0,.333.016.619.048h.428c.1-.031.127-.126.1-.285a1.522,1.522,0,0,0,.571,0,.256.256,0,0,1,.264.175c-.042-.053-.146-.08-.312-.08-.222.032-.333.112-.333.238a.422.422,0,0,1,.19-.048.518.518,0,0,1,.286.1.484.484,0,0,0,.19.1.392.392,0,0,0,.238-.143c0,.254-.08.413-.238.476q-.714,0-.619-.048-.382.048-.238.286a5.9,5.9,0,0,1,.9-.1l.19.286a3.745,3.745,0,0,1-.19.476,1.4,1.4,0,0,0,.714.381.4.4,0,0,0,.333-.238.728.728,0,0,1,.048.429,11.475,11.475,0,0,0,2.377.767c0,.169,0,.345,0,.511,0,.353-.158.056-.156.4,0,.193.325,1.03.326,1.219,0,.711-.009,1.4-.027,2.058-.5-.079-1.046-.619-1.167-.425-.413-.075-1.29.13-1.7.028a2.575,2.575,0,0,0-1.22-.177q-.239,1.476.1,1.857a3.883,3.883,0,0,0,.333-.714.451.451,0,0,0,.381.19l.285-.1q.286,1.952-.238,2.19l-.286-.238a3.6,3.6,0,0,0-.476,1.047q-.191.048,0,.1c.1-.158.174.053.238-.011.031.223.174.058.428.154l3.225-.022v.037c0,.236.165.306.166.532,0,.536-.153,1.041-.149,1.517.007.846.015,1.6.022,2.244h.965c-.032.155,1.13.11,1.226.188s.143-.349.143-.309a3.579,3.579,0,0,1,1.9.206c-.313-.486.149-.6.245-1.3-.277-.6-.085-1.705-.1-3.295,1.5.028,2.761.117,3.724.1l.161-1.772c.127.032-.1-.323-.037-.418s-.212-.3-.18-.3a9.884,9.884,0,0,0,.228-1.743c-.223-.317-.78-.2-1.352-.3a5.309,5.309,0,0,1-1.763.258,4.016,4.016,0,0,1-.782-.089v-.322c-.413-.7.165-1.31-.089-1.5.061-.687.1-1.252.124-1.778A10.851,10.851,0,0,0,129.7,57.7Zm-17.189-8.595q.238-.285.286-.333a.533.533,0,0,0,.1.143c-.032.159-.064.246-.1.261a.586.586,0,0,0-.143.143c-.064.079-.111.119-.143.119A.314.314,0,0,1,112.515,49.108Zm.429,1.143a6.841,6.841,0,0,0-.143.714q-.477-.475-.429-.571a.6.6,0,0,0-.238.095c-.064.128-.111.143-.143.048a.312.312,0,0,1-.047-.286,2.274,2.274,0,0,0,.666.143,4.979,4.979,0,0,0,.19-.715Q112.99,49.822,112.943,50.251Zm-.143-3.476a6.575,6.575,0,0,1-.1-.857c.19,0,.3.128.334.381C113.07,46.584,112.991,46.744,112.8,46.774Zm5.19,20.808c-.159.064-.262.024-.31-.119s-.119-.215-.214-.215a.219.219,0,0,1,.238-.143q.381,0,.381.285A.272.272,0,0,1,117.99,67.582Zm.143-.476q.667,0,.571.333A2.108,2.108,0,0,1,118.133,67.107ZM115.9,46.584c-.413-.159-.619-.269-.619-.333Q115.942,46.251,115.9,46.584Zm-1.047-.333c.254,0,.381.111.381.333a.272.272,0,0,1-.1.19.237.237,0,0,1-.309-.166c-.048-.143-.119-.2-.215-.167C114.673,46.315,114.753,46.251,114.848,46.251Zm.619,10.571a3.549,3.549,0,0,1-1.1.428,1.218,1.218,0,0,0-.071-.762,2.392,2.392,0,0,1-.167-.666.7.7,0,0,1,.143-.428.836.836,0,0,1,.524.072l.333.166c-.064.128-.008.31.167.548A.706.706,0,0,1,115.467,56.822Zm5.667-.762a10.936,10.936,0,0,1-2.047-.19,1.288,1.288,0,0,0-.524-.715,1.46,1.46,0,0,0-.571.143.692.692,0,0,0-.381-.666q-.429-.286-.81-.572-.1.143-.429.1a1.286,1.286,0,0,1,.429-.476,3.819,3.819,0,0,1-.524-1.143q-.286-.761-.714-.905a1.256,1.256,0,0,0-.619-1.143q-.048-1.285.857-1.523a1.331,1.331,0,0,1,.334-.9,8.433,8.433,0,0,1,.524-.714,1.17,1.17,0,0,0-.714.285q-.143-.381-.238-.571a2.894,2.894,0,0,0,1.1,0,4.929,4.929,0,0,1,1.9-1.619q.238-.1,2.524-1.047a.791.791,0,0,0,.762.19q.189-.047.1-.286c-.033-.031-.064-.063-.1-.1-.032,0-.111.064-.238.191-.032,0-.064-.031-.1-.1,0-.1.071-.15.214-.166s.215-.071.215-.167a1.043,1.043,0,0,1,.809.524,2.147,2.147,0,0,1,.524-.19c0,.064.063.159.19.286q.1.191-.048.286a4.491,4.491,0,0,0,.857-.239c0-.253-.1-.381-.285-.381h-.476c0-.126.071-.2.214-.214s.215-.055.215-.119a.6.6,0,0,1,.476.1l.381.286c-.065.413-.1.6-.1.572h-.524a.23.23,0,0,0,.143.285.233.233,0,0,1,.143.286,5.231,5.231,0,0,1,2.762,3.571c-.318.1-.233.482-.392.513-.063.318-.346.28-.2.535a.7.7,0,0,0,.738.333,5.259,5.259,0,0,1-1.9,4.285A7.033,7.033,0,0,1,121.133,56.06Z" transform="translate(-110.61 -39.648)" fill="#101010"/>
      </g>
    </g>
  </g>
</svg>
