<?xml version="1.0" encoding="utf-8"?>
<!-- Generator: Adobe Illustrator 24.1.0, SVG Export Plug-In . SVG Version: 6.00 Build 0)  -->
<svg version="1.1" id="Layer_1" xmlns="http://www.w3.org/2000/svg" xmlns:xlink="http://www.w3.org/1999/xlink" x="0px" y="0px"
	 viewBox="0 0 32 32" style="enable-background:new 0 0 32 32;" xml:space="preserve">
<path id="Path_731" d="M31.83,9.08l-1.36-1.95c-0.13-0.19-0.28-0.36-0.45-0.52c0.4-0.48,0.61-1.08,0.61-1.71V2.69
	c0-1.48-1.2-2.68-2.69-2.69h-0.25c-1.01,0-1.94,0.57-2.39,1.47h-1.74c-0.52,0.02-0.92,0.45-0.91,0.97c0.02,0.49,0.41,0.89,0.91,0.91
	h1.45v1.57c0,0.59,0.2,1.17,0.56,1.64c-0.23,0.21-0.43,0.44-0.6,0.71L23.8,9.11l-2.67,4.16V9.61c0-0.52-0.42-0.94-0.94-0.94h-5.8
	c-0.52,0-0.94,0.42-0.94,0.94c0,0,0,0,0,0V15c0,0.52,0.42,0.94,0.94,0.94l0,0h9.27v15.1c-0.02,0.52,0.39,0.95,0.91,0.97
	c0.52,0.02,0.95-0.39,0.97-0.91c0-0.02,0-0.04,0-0.06v-9.71h4.6v9.71c0,0.52,0.42,0.94,0.94,0.94S32,31.55,32,31.03V9.62
	C32,9.42,31.94,9.24,31.83,9.08z M27.69,5.72c-0.45,0-0.81-0.36-0.81-0.81V3.34h1.88v1.57c0,0.45-0.36,0.81-0.81,0.81H27.69z
	 M26.55,8.26c0.42-0.67,1.31-0.86,1.97-0.44c0.16,0.1,0.3,0.23,0.41,0.39l0.94,1.35l-2.9,4.51h-1.46V9.89L26.55,8.26z M15.32,14.06
	v-3.51h3.93v3.51L15.32,14.06z M22.84,14.06l0.81-1.26v1.26H22.84z M25.52,15.94h1.97c0.32,0,0.62-0.16,0.79-0.43l1.84-2.87v6.81
	h-4.6L25.52,15.94z"/>
<path id="Path_732" d="M14.5,26.35H9.7V0.94C9.7,0.42,9.28,0,8.76,0c0,0,0,0,0,0H0.94C0.42,0,0,0.42,0,0.94c0,0,0,0,0,0v30.1
	c0,0.52,0.42,0.94,0.94,0.94c0,0,0,0,0,0H14.5c0.52,0,0.94-0.42,0.94-0.94l0,0v-3.75C15.44,26.77,15.02,26.35,14.5,26.35z
	 M1.87,1.87h5.95v12.19H7.26c-0.52,0-0.94,0.42-0.94,0.94s0.42,0.94,0.94,0.94h0.56v10.41H1.87V1.87z M13.56,30.1H1.87v-1.87h11.69
	V30.1z"/>
</svg>
