<?xml version="1.0" encoding="utf-8"?>
<!-- Generator: Adobe Illustrator 24.1.0, SVG Export Plug-In . SVG Version: 6.00 Build 0)  -->
<svg version="1.1" id="Layer_1" xmlns="http://www.w3.org/2000/svg" xmlns:xlink="http://www.w3.org/1999/xlink" x="0px" y="0px"
	 viewBox="0 0 32 32" style="enable-background:new 0 0 32 32;" xml:space="preserve">
<style type="text/css">
	.st0{fill:#1A1818;}
</style>
<g id="icon-homeDelivery" transform="translate(-453.062 -267.665)">
	<g id="Group_88" transform="translate(453.062 267.665)">
		<path id="Path_722" class="st0" d="M9.23,25.81H4.5c-0.34,0-0.62,0.28-0.62,0.62c0,0.34,0.28,0.62,0.62,0.62h4.73
			c0.34,0,0.62-0.28,0.62-0.62C9.84,26.09,9.57,25.81,9.23,25.81z"/>
		<path id="Path_723" class="st0" d="M30.89,9.13V9.11c0-0.16-0.05-0.31-0.13-0.45L27.3,0.99C27.02,0.39,26.42,0.01,25.77,0H6.23
			C5.56,0.01,4.96,0.41,4.68,1.02L1.24,8.67C1.15,8.8,1.11,8.96,1.1,9.11v20.76c0.01,1.18,0.97,2.13,2.15,2.12h25.49
			c1.18,0.01,2.14-0.94,2.15-2.12L30.89,9.13L30.89,9.13z M28.48,8.17H21.6V7.62c0-0.06,0-0.11-0.02-0.17l-1.01-5.57h5.07
			L28.48,8.17z M12.27,10.05h7.45v6.6l-3.37-1.39c-0.23-0.09-0.48-0.09-0.71,0l-3.37,1.39L12.27,10.05z M12.27,8.17V7.7l1.06-5.83
			h5.34l1.06,5.83v0.47H12.27z M6.36,1.87h5.06l-1.01,5.57c-0.01,0.05-0.02,0.11-0.02,0.17v0.56H3.52L6.36,1.87z M29.01,29.87
			c-0.01,0.14-0.13,0.25-0.27,0.24H3.26c-0.14,0.01-0.26-0.1-0.27-0.24V10.05h7.41v8c0,0.52,0.42,0.94,0.94,0.94
			c0.12,0,0.25-0.02,0.36-0.07L16,17.15l4.31,1.77c0.48,0.2,1.03-0.03,1.23-0.51c0.05-0.11,0.07-0.24,0.07-0.36v-8h7.41L29.01,29.87
			z"/>
	</g>
</g>
</svg>
