<?xml version="1.0" encoding="utf-8"?>
<!-- Generator: Adobe Illustrator 24.1.0, SVG Export Plug-In . SVG Version: 6.00 Build 0)  -->
<svg version="1.1" id="Layer_1" xmlns="http://www.w3.org/2000/svg" xmlns:xlink="http://www.w3.org/1999/xlink" x="0px" y="0px"
	 viewBox="0 0 32 32" style="enable-background:new 0 0 32 32;" xml:space="preserve">
<style type="text/css">
	.st0{fill-rule:evenodd;clip-rule:evenodd;}
</style>
<path id="truck" class="st0" d="M10.91,17.26c1.79,0,5.99-6.03,5.99-9.4c0.04-3.31-2.6-6.02-5.91-6.07C7.68,1.76,4.96,4.4,4.92,7.71
	c0,0.05,0,0.1,0,0.15C4.92,10.79,8.78,17.26,10.91,17.26z M10.91,4.76c1.71,0,3.1,1.39,3.1,3.1s-1.39,3.1-3.1,3.1s-3.1-1.39-3.1-3.1
	l0,0C7.81,6.15,9.2,4.77,10.91,4.76L10.91,4.76z M11.78,7c0.48,0.48,0.48,1.26,0,1.74s-1.26,0.48-1.74,0
	C9.81,8.51,9.68,8.2,9.68,7.87c0-0.68,0.55-1.23,1.23-1.23C11.23,6.64,11.55,6.77,11.78,7z M4.08,11.95
	c1.27,2.87,4.35,7.19,6.83,7.19s5.56-4.32,6.83-7.19h2.2v15.33H10c-0.64-1.88-2.68-2.89-4.57-2.25c-1.06,0.36-1.89,1.19-2.25,2.25
	H1.88V11.95L4.08,11.95z M18.42,10.08c3.74,0,3.39-0.4,3.39,3.03c2.27,0.19,4.3,1.48,5.45,3.45l1.84,3.09
	c1.61,0.02,2.9,1.33,2.9,2.94v5.62c0,1.2-1.49,0.94-2.57,0.94c-0.41,1.95-2.32,3.19-4.26,2.78c-1.4-0.29-2.49-1.39-2.78-2.78
	l-12.27,0.01c-0.42,1.94-2.33,3.18-4.27,2.77c-1.39-0.3-2.47-1.38-2.77-2.77H0.94C0.42,29.15,0,28.73,0,28.22V11.01
	c0-0.52,0.42-0.94,0.94-0.94h2.45C2.16,5.92,4.53,1.56,8.68,0.33s8.51,1.14,9.75,5.29C18.86,7.07,18.86,8.62,18.42,10.08
	L18.42,10.08z M29.31,27.27h0.81v-4.69c0-0.59-0.48-1.06-1.06-1.06h-4.69c-0.52,0-0.94-0.42-0.94-0.94c0-0.52,0.42-0.94,0.94-0.94
	h2.55c-1.32-2.21-2.19-4.31-5.11-4.65v12.28h0.69c0.64-1.88,2.69-2.88,4.57-2.24C28.13,25.39,28.95,26.22,29.31,27.27z M27.13,27.21
	c-0.67-0.67-1.76-0.67-2.43,0c-0.67,0.67-0.67,1.76,0,2.43c0.67,0.67,1.76,0.67,2.43,0C27.8,28.97,27.8,27.88,27.13,27.21z
	 M4.88,28.29c-0.07,0.95,0.64,1.77,1.58,1.84c0.95,0.07,1.77-0.64,1.84-1.58c0.07-0.95-0.64-1.77-1.58-1.84c-0.04,0-0.08,0-0.13,0
	C5.7,26.7,4.95,27.39,4.88,28.29z"/>
</svg>
