<?xml version="1.0" encoding="utf-8"?>
<!-- Generator: Adobe Illustrator 24.3.0, SVG Export Plug-In . SVG Version: 6.00 Build 0)  -->
<svg version="1.1" id="Layer_1" xmlns="http://www.w3.org/2000/svg" xmlns:xlink="http://www.w3.org/1999/xlink" x="0px" y="0px"
	 viewBox="0 0 32 32" style="enable-background:new 0 0 32 32;" xml:space="preserve">
<path d="M28.8,11.3l-2.4,6.9c-0.1,0.4-0.5,0.6-0.9,0.6l-14.2,0.1c-0.5,0-0.8-0.3-0.9-0.8l0,0l-1.2-6.7L8.4,7.6l-1-5.4L0.6,0L0,1.8
	l5.8,1.9l3.1,17c0.2,1.2,0.9,2.2,1.8,2.9C9.1,25,9,27.3,10.3,28.9s3.7,1.7,5.3,0.4c1.4-1.2,1.7-3.2,0.8-4.7h4.8
	c-0.3,0.6-0.5,1.2-0.5,1.9c0,2.1,1.7,3.8,3.8,3.8s3.8-1.7,3.8-3.8s-1.7-3.8-3.8-3.8h-11c-1.2,0-2.3-0.8-2.6-1.9
	c0.1,0,0.3,0.1,0.4,0.1h14.3c1.2,0,2.3-0.8,2.7-1.9L32,7.6l-2,0L28.8,11.3z M15,0c1.1,0,2,0.9,2,2s-0.9,2-2,2s-2-0.9-2-2
	S13.9,0,15,0z M23,0c1.1,0,2,0.9,2,2s-0.9,2-2,2c-1.1,0-2-0.9-2-2S21.9,0,23,0z M14,10.7c0.2-0.2,5-3.6,9.9,0l0.8-1.1
	c-5.7-4.3-11.5,0-11.6,0L14,10.7z"/>
<path d="M-45,11.3l-2.4,6.9c-0.1,0.4-0.5,0.6-0.9,0.6l-14.2,0.1c-0.5,0-0.8-0.3-0.9-0.8l0,0l-1.2-6.7l-0.8-3.8l-1-5.4L-73.2,0
	l-0.6,1.8l5.8,1.9l3.1,17c0.2,1.2,0.9,2.2,1.8,2.9c-1.6,1.4-1.7,3.7-0.4,5.3c1.3,1.6,3.7,1.7,5.3,0.4c1.4-1.2,1.7-3.2,0.8-4.7h4.8
	c-0.3,0.6-0.5,1.2-0.5,1.9c0,2.1,1.7,3.8,3.8,3.8s3.8-1.7,3.8-3.8s-1.7-3.8-3.8-3.8h-11c-1.2,0-2.3-0.8-2.6-1.9
	c0.1,0,0.3,0.1,0.4,0.1h14.3c1.2,0,2.3-0.8,2.7-1.9l3.7-11.4l-2,0L-45,11.3z M-48.8,5.5c-0.3-0.8-0.7-1.6-1.3-2.3
	c-0.5-0.6-1.2-1.2-2-1.5C-53.6,1-55.4,1-57,1.7c-0.7,0.4-1.4,0.9-1.9,1.5c-0.6,0.7-1,1.5-1.3,2.3c-0.6,1.9-0.6,3.9,0,5.8
	c0.3,0.8,0.7,1.6,1.3,2.3c0.5,0.6,1.2,1.1,1.9,1.5c1.6,0.7,3.4,0.7,4.9,0c0.8-0.4,1.4-0.9,2-1.5c0.6-0.7,1-1.5,1.3-2.3
	C-48.2,9.4-48.2,7.4-48.8,5.5L-48.8,5.5z M-51.8,10.2c-0.1,0.5-0.3,0.9-0.6,1.4c-0.2,0.4-0.6,0.7-0.9,0.9c-0.4,0.2-0.8,0.3-1.2,0.3
	c-0.4,0-0.8-0.1-1.2-0.3c-0.4-0.2-0.7-0.5-0.9-0.9c-0.3-0.4-0.5-0.9-0.6-1.4c-0.1-0.6-0.2-1.2-0.2-1.7c0-0.6,0.1-1.2,0.2-1.8
	c0.1-0.5,0.3-1,0.6-1.4c0.2-0.4,0.6-0.7,0.9-0.9c0.4-0.2,0.8-0.3,1.2-0.3c0.4,0,0.8,0.1,1.2,0.3c0.4,0.2,0.7,0.5,0.9,0.9
	c0.3,0.4,0.5,0.9,0.6,1.4c0.1,0.6,0.2,1.2,0.2,1.8C-51.6,9-51.6,9.6-51.8,10.2z"/>
<path d="M-8.5,11.3l-2.4,6.9c-0.1,0.4-0.5,0.6-0.9,0.6L-26,18.9c-0.5,0-0.8-0.3-0.9-0.8l0,0l-1.2-6.7l-0.8-3.8l-1-5.4L-36.7,0
	l-0.6,1.8l5.8,1.9l3.1,17c0.2,1.2,0.9,2.2,1.8,2.9c-1.6,1.4-1.7,3.7-0.4,5.3c1.3,1.6,3.7,1.7,5.3,0.4c1.4-1.2,1.7-3.2,0.8-4.7h4.8
	c-0.3,0.6-0.5,1.2-0.5,1.9c0,2.1,1.7,3.8,3.8,3.8S-9,28.6-9,26.5s-1.7-3.8-3.8-3.8h-11c-1.2,0-2.3-0.8-2.6-1.9
	c0.1,0,0.3,0.1,0.4,0.1h14.3c1.2,0,2.3-0.8,2.7-1.9l3.7-11.4l-2,0L-8.5,11.3z"/>
<path d="M-23.6,3.2l0.4-0.4l-0.4-0.4c-0.3-0.3-0.3-0.8,0-1.1c0,0,0,0,0,0c0.3-0.3,0.8-0.3,1.1,0l0.4,0.4l0.4-0.4
	c0.3-0.3,0.8-0.3,1.1,0c0,0,0,0,0,0c0.3,0.3,0.3,0.8,0,1.1c0,0,0,0,0,0l-0.4,0.4l0.4,0.4c0.3,0.3,0.3,0.8,0,1.1c0,0,0,0,0,0
	c-0.3,0.3-0.8,0.3-1.1,0l-0.4-0.4l-0.4,0.4c-0.3,0.3-0.8,0.3-1.1,0C-23.9,4-23.9,3.5-23.6,3.2z"/>
<path d="M-16.9,3.2l0.4-0.4l-0.4-0.4c-0.3-0.3-0.3-0.8,0-1.1c0,0,0,0,0,0c0.3-0.3,0.8-0.3,1.1,0l0.4,0.4l0.4-0.4
	c0.3-0.3,0.8-0.3,1.1,0c0,0,0,0,0,0c0.3,0.3,0.3,0.8,0,1.1c0,0,0,0,0,0l-0.4,0.4l0.4,0.4c0.3,0.3,0.3,0.8,0,1.1c0,0,0,0,0,0
	c-0.3,0.3-0.8,0.3-1.1,0l-0.4-0.4l-0.4,0.4c-0.3,0.3-0.8,0.3-1.1,0C-17.2,4-17.2,3.5-16.9,3.2L-16.9,3.2z"/>
<path d="M-24.3,11.1v-1c0-0.1,0.1-0.2,0.2-0.2c0.5,0,0.9-0.3,1.2-0.6c0-0.1,0.1-0.1,0.2-0.1l0,0c0.1,0,0.1,0,0.2,0.1
	c0.5,0.6,1.4,0.8,2,0.3c0.1-0.1,0.2-0.2,0.3-0.3c0-0.1,0.1-0.1,0.2-0.1l0,0c0.1,0,0.1,0,0.2,0.1c0.5,0.6,1.4,0.8,2,0.3
	c0.1-0.1,0.2-0.2,0.3-0.3c0.1-0.1,0.2-0.1,0.3,0c0,0,0,0,0,0c0.5,0.6,1.4,0.8,2,0.3c0.1-0.1,0.2-0.2,0.3-0.3c0-0.1,0.1-0.1,0.2-0.1
	l0,0c0.1,0,0.1,0,0.2,0.1c0.3,0.3,0.7,0.6,1.2,0.6c0.1,0,0.2,0.1,0.2,0.2v1c0,0.1-0.1,0.2-0.2,0.2c-0.5,0-1-0.2-1.4-0.6
	c-0.7,0.8-2,0.8-2.7,0c0,0,0,0,0,0c-0.7,0.8-2,0.8-2.7,0c0,0,0,0,0,0c-0.7,0.8-2,0.8-2.7,0c0,0,0,0,0,0c-0.4,0.3-0.9,0.5-1.4,0.6
	C-24.2,11.3-24.3,11.2-24.3,11.1z"/>
</svg>
