<?xml version="1.0" encoding="utf-8"?>
<!-- Generator: Adobe Illustrator 24.3.0, SVG Export Plug-In . SVG Version: 6.00 Build 0)  -->
<svg version="1.1" id="Layer_1" xmlns="http://www.w3.org/2000/svg" xmlns:xlink="http://www.w3.org/1999/xlink" x="0px" y="0px"
	 viewBox="0 0 32 32" style="enable-background:new 0 0 32 32;" xml:space="preserve">
<style type="text/css">
	.st0{fill:#EC0127;}
</style>
<path id="Path_14" class="st0" d="M8.4,7.6l-1-5.4L0.6,0L0,1.8l5.8,1.9l3.1,17c0.2,1.2,0.9,2.2,1.8,2.9c-1.6,1.4-1.7,3.7-0.4,5.3
	s3.7,1.7,5.3,0.4c1.4-1.2,1.7-3.2,0.8-4.7h4.8c-0.3,0.6-0.5,1.2-0.5,1.9c0,2.1,1.7,3.8,3.8,3.8s3.8-1.7,3.8-3.8s-1.7-3.8-3.8-3.8
	H13.5c-1.2,0-2.3-0.8-2.6-1.9c0.1,0,0.3,0.1,0.4,0.1h14.3c1.2,0,2.3-0.8,2.7-1.9L32,7.6H8.4z M11.3,18.9c-0.5,0-0.8-0.3-0.9-0.8h0
	l-1.2-6.7h3.8l1.9,7.5H11.3z M20.9,18.9h-4.2l-1.9-7.5h7.9L20.9,18.9z M26.4,18.2c-0.1,0.4-0.5,0.6-0.9,0.6h-2.7l1.9-7.5h4.1
	L26.4,18.2z"/>
</svg>
