<?xml version="1.0" encoding="utf-8"?>
<!-- Generator: Adobe Illustrator 24.3.0, SVG Export Plug-In . SVG Version: 6.00 Build 0)  -->
<svg version="1.1" id="Layer_1" xmlns="http://www.w3.org/2000/svg" xmlns:xlink="http://www.w3.org/1999/xlink" x="0px" y="0px"
	 viewBox="0 0 32 32" style="enable-background:new 0 0 32 32;" xml:space="preserve">
<path id="check" d="M24.2,10.5c-0.4-0.4-1-0.4-1.4,0c0,0,0,0,0,0l-8.9,8.9l-4.7-4.7c-0.4-0.4-1-0.4-1.4,0c-0.4,0.4-0.4,1,0,1.4
	l5.4,5.4c0.4,0.4,1,0.4,1.4,0c0,0,0,0,0,0l9.6-9.6C24.6,11.5,24.6,10.9,24.2,10.5C24.2,10.5,24.2,10.5,24.2,10.5z"/>
</svg>
