<svg xmlns="http://www.w3.org/2000/svg" width="70" height="70" viewBox="0 0 70 70">
  <g id="default-image-sm" transform="translate(-5261 925)">
    <rect id="Rectangle_1981" data-name="Rectangle 1981" width="70" height="70" transform="translate(5261 -925)" fill="#ddd"/>
    <g id="Group_248" data-name="Group 248" transform="translate(5281.122 -912.231)">
      <path id="Path_210" data-name="Path 210" d="M109.057,61.823c-.164.207-.23.454.223.742.124-.206.437-.371.519-.494a3.477,3.477,0,0,0-.742-.247" transform="translate(-108.933 -49.667)" fill="#fff"/>
      <path id="Path_211" data-name="Path 211" d="M111.044,62.256c.123-.206.231-.349-.1-.433a3.822,3.822,0,0,1-.433.247c.33.083.368.145.532.185" transform="translate(-109.647 -49.667)" fill="#fff"/>
      <path id="Path_212" data-name="Path 212" d="M110.377,72.193c-.083.123-.062.33.062.617a.469.469,0,0,0-.278.124,1.062,1.062,0,0,1-.34.186,1.175,1.175,0,0,0,.186.618,2.166,2.166,0,0,1,1.236.309,2.266,2.266,0,0,0,0-1.051.734.734,0,0,1,.123-.741c-.123.042-.207.01-.247-.093s-.1-.133-.185-.093q-.062.247-.556.124" transform="translate(-109.334 -54.288)" fill="#fff"/>
      <path id="Path_213" data-name="Path 213" d="M111.3,72.9c.123-.164.206-.123.247.124,0,.247-.042.393-.124.433a1.8,1.8,0,0,1-.247-.186.7.7,0,0,1,.247-.247c0-.04-.041-.082-.123-.124" transform="translate(-109.946 -54.629)" fill="#fff"/>
      <path id="Path_214" data-name="Path 214" d="M121.912,63.249q-.433.125-.371.185.185-.185.494.433a.957.957,0,0,1,.68,0,1.655,1.655,0,0,0,.433.31q.247-.8-.309-1.051a.219.219,0,0,1-.248.247c-.123-.041-.164-.144-.123-.309a4.211,4.211,0,0,1-.556.185" transform="translate(-114.626 -50.228)" fill="#fff"/>
      <path id="Path_215" data-name="Path 215" d="M123.506,102.432a.944.944,0,0,1,.186-.247.431.431,0,0,0-.433-.124,3.2,3.2,0,0,1-.742,1.175.913.913,0,0,0,.185.247q.185.186.247,0-.186,0-.124-.247l.124-.31c.247.331.473.475.68.433a.82.82,0,0,0,0-.866h-.371c.082.042.123-.009.123-.154s.082-.2.247-.155c0-.164-.041-.083-.124.247" transform="translate(-115.071 -67.84)" fill="#fff"/>
      <g id="Group_233" data-name="Group 233" transform="translate(0.919 0)">
        <path id="Path_216" data-name="Path 216" d="M142.448,51.9c-.288.042-.454.145-.494.309.041-.041.144-.02.309.061.123.084.185.062.185-.061-.124-.041-.185-.082-.185-.124C142.427,52.086,142.489,52.025,142.448,51.9Z" transform="translate(-124.772 -45.184)" fill="#fff"/>
        <path id="Path_217" data-name="Path 217" d="M135.394,63.083a13.124,13.124,0,0,0,3.894-10.538,14.037,14.037,0,0,0-15.08-12.856,15.357,15.357,0,0,0-9.827,4.45,1.2,1.2,0,0,1,.185.618q0,.989-.865.988a1.089,1.089,0,0,1-.494-.123.356.356,0,0,0-.062.247,1.053,1.053,0,0,0,.34.557,1.932,1.932,0,0,1,.4.555q1.05.063,1.05.5a1.145,1.145,0,0,1-1.112-.217,1.538,1.538,0,0,0-.68-.4.667.667,0,0,0-.371.123,1.077,1.077,0,0,1,.185-.433q.061-.184-.185-.309a3.194,3.194,0,0,1-.309.587,1.482,1.482,0,0,0-.247.958.176.176,0,0,1-.124-.061c-.041-.041-.1-.041-.185,0q-.556,1.854-.865,2.72a3.547,3.547,0,0,1,.247,2.657c.287.165.433.309.433.433a.765.765,0,0,0-.433.185.668.668,0,0,1-.556.124,7.454,7.454,0,0,0,.309,3.029.927.927,0,0,1-.247-.185l-.186.185a1.56,1.56,0,0,0,.742.247q.557,0,.866-.866.432-1.234.556-1.483c-.248.042-.433-.123-.556-.494q.988.31.68.741a.842.842,0,0,0,.556-.123,18.176,18.176,0,0,0,0,2.348,2.946,2.946,0,0,1-.433,2.1,3.224,3.224,0,0,0-.433-.309,2.711,2.711,0,0,1-.216.185.38.38,0,0,0-.155.309.966.966,0,0,0,.371.247.249.249,0,0,0-.123.247q0-.123.742,1.174a8.565,8.565,0,0,0,1.669,2.348c.164,0,.433.021.8.062h.556c.124-.041.164-.164.124-.371a1.975,1.975,0,0,0,.742,0,.333.333,0,0,1,.343.227c-.055-.069-.19-.1-.4-.1-.288.042-.433.145-.433.309a.548.548,0,0,1,.247-.062.673.673,0,0,1,.371.124.628.628,0,0,0,.247.124.509.509,0,0,0,.309-.186c0,.33-.1.536-.309.618q-.927,0-.8-.062-.5.062-.309.371a7.658,7.658,0,0,1,1.174-.124l.247.371a4.861,4.861,0,0,1-.247.618,1.822,1.822,0,0,0,.927.494.52.52,0,0,0,.433-.309.944.944,0,0,1,.062.556,14.9,14.9,0,0,0,3.085,1c0,.219,0,.448,0,.664,0,.458-.205.072-.2.517,0,.251.422,1.336.423,1.583,0,.923-.012,1.811-.036,2.671-.654-.1-1.357-.8-1.515-.551-.536-.1-1.674.168-2.2.037a3.343,3.343,0,0,0-1.583-.23q-.31,1.916.124,2.41a5.04,5.04,0,0,0,.433-.927.585.585,0,0,0,.494.247c.123-.04.247-.082.371-.123q.371,2.534-.309,2.843l-.371-.309a4.673,4.673,0,0,0-.618,1.359q-.248.062,0,.124c.123-.206.226.069.309-.014.04.289.225.076.556.2l4.186-.029v.048c0,.306.214.4.216.69.005.7-.2,1.352-.194,1.97.009,1.1.019,2.072.029,2.912h1.252c-.041.2,1.467.143,1.591.244s.185-.453.185-.4a4.646,4.646,0,0,1,2.472.268c-.407-.631.194-.775.317-1.684-.36-.783-.11-2.214-.132-4.277,1.948.036,3.583.152,4.834.135l.209-2.3c.164.042-.131-.419-.048-.543s-.275-.395-.234-.395a12.828,12.828,0,0,0,.3-2.263c-.289-.411-1.013-.261-1.755-.384a6.891,6.891,0,0,1-2.289.335,5.214,5.214,0,0,1-1.015-.116v-.418c-.536-.909.214-1.7-.116-1.952.079-.892.133-1.625.161-2.307A14.085,14.085,0,0,0,135.394,63.083ZM113.082,51.927q.309-.37.371-.433a.692.692,0,0,0,.123.186c-.041.207-.083.32-.123.339a.76.76,0,0,0-.186.186q-.124.155-.185.155A.407.407,0,0,1,113.082,51.927Zm.556,1.483a8.876,8.876,0,0,0-.185.927q-.619-.617-.556-.741a.775.775,0,0,0-.309.123c-.083.166-.145.186-.185.062a.405.405,0,0,1-.061-.371,2.952,2.952,0,0,0,.865.186,6.463,6.463,0,0,0,.247-.928Q113.7,52.854,113.639,53.41Zm-.185-4.512a8.533,8.533,0,0,1-.124-1.112c.247,0,.391.166.433.494C113.8,48.652,113.7,48.858,113.453,48.9Zm6.737,27.009c-.207.083-.34.031-.4-.154s-.154-.278-.278-.278a.285.285,0,0,1,.309-.185q.494,0,.494.371A.353.353,0,0,1,120.19,75.907Zm.185-.618q.866,0,.742.433A2.736,2.736,0,0,1,120.375,75.29Zm-2.9-26.638c-.536-.206-.8-.35-.8-.433Q117.532,48.219,117.47,48.652Zm-1.359-.433c.329,0,.494.145.494.433a.353.353,0,0,1-.124.247.308.308,0,0,1-.4-.216c-.062-.185-.155-.257-.278-.217C115.884,48.3,115.987,48.219,116.111,48.219Zm.8,13.721a4.607,4.607,0,0,1-1.421.556,1.581,1.581,0,0,0-.092-.989,3.105,3.105,0,0,1-.217-.865.9.9,0,0,1,.185-.556,1.085,1.085,0,0,1,.68.093c.206.1.35.175.433.215-.083.166-.01.4.217.711A.917.917,0,0,1,116.914,61.94Zm7.355-.989a14.194,14.194,0,0,1-2.658-.247,1.672,1.672,0,0,0-.68-.928,1.9,1.9,0,0,0-.742.185.9.9,0,0,0-.494-.865q-.557-.371-1.051-.742-.125.186-.556.124a1.669,1.669,0,0,1,.556-.618,4.957,4.957,0,0,1-.68-1.483q-.371-.988-.927-1.175a1.631,1.631,0,0,0-.8-1.483q-.062-1.668,1.112-1.977a1.727,1.727,0,0,1,.433-1.174,10.952,10.952,0,0,1,.68-.927,1.518,1.518,0,0,0-.927.371q-.186-.494-.309-.742a3.757,3.757,0,0,0,1.421,0,6.4,6.4,0,0,1,2.472-2.1q.308-.123,3.276-1.359a1.027,1.027,0,0,0,.989.247q.246-.061.124-.371c-.042-.041-.083-.082-.124-.124-.042,0-.145.083-.309.248-.042,0-.083-.041-.123-.124,0-.124.092-.195.278-.216s.278-.093.278-.217a1.354,1.354,0,0,1,1.05.68,2.787,2.787,0,0,1,.68-.247c0,.083.082.207.247.371.082.165.062.288-.062.371a5.829,5.829,0,0,0,1.113-.31c0-.329-.123-.494-.371-.494h-.618c0-.164.093-.257.278-.278s.278-.072.278-.155a.779.779,0,0,1,.618.123l.495.371c-.084.536-.124.783-.124.742h-.68a.3.3,0,0,0,.185.37.3.3,0,0,1,.185.371,6.79,6.79,0,0,1,3.585,4.635c-.413.123-.3.625-.509.666-.082.413-.449.364-.264.694a.9.9,0,0,0,.958.433,6.827,6.827,0,0,1-2.472,5.562A9.129,9.129,0,0,1,124.269,60.95Z" transform="translate(-110.61 -39.648)" fill="#fff"/>
      </g>
    </g>
  </g>
</svg>
