<svg xmlns="http://www.w3.org/2000/svg" width="520" height="520" viewBox="0 0 520 520">
  <g id="default-image" transform="translate(-2716 884)">
    <rect id="Rectangle_1990" data-name="Rectangle 1990" width="520" height="520" transform="translate(2716 -884)" fill="#ddd"/>
    <g id="Group_247" data-name="Group 247" transform="translate(2870.074 -684.95)">
      <g id="Group_243" data-name="Group 243" transform="translate(0.383 72.467)">
        <path id="Path_186" data-name="Path 186" d="M52.709,105.127a5.951,5.951,0,0,1,6.048-6.082,5.43,5.43,0,0,1,4.739,2.3l-1.429,1.01a3.815,3.815,0,0,0-3.362-1.62,4.4,4.4,0,0,0,.07,8.782,4.2,4.2,0,0,0,3.554-1.725l1.447.993a5.817,5.817,0,0,1-5.07,2.423A5.908,5.908,0,0,1,52.709,105.127Z" transform="translate(-52.709 -99.045)" fill="#fff"/>
        <path id="Path_187" data-name="Path 187" d="M74.124,105.127a6.116,6.116,0,1,1,6.116,6.082A6,6,0,0,1,74.124,105.127Zm10.3,0a4.187,4.187,0,1,0-4.182,4.391A4.15,4.15,0,0,0,84.422,105.127Z" transform="translate(-47.997 -99.045)" fill="#fff"/>
        <path id="Path_188" data-name="Path 188" d="M98.194,99.174h1.864v10.193h5.228v1.656H98.194Z" transform="translate(-42.701 -99.017)" fill="#fff"/>
        <path id="Path_189" data-name="Path 189" d="M172.116,105.127a6.116,6.116,0,1,1,6.116,6.082A6,6,0,0,1,172.116,105.127Zm10.3,0a4.187,4.187,0,1,0-4.182,4.391A4.15,4.15,0,0,0,182.414,105.127Z" transform="translate(-26.435 -99.045)" fill="#fff"/>
        <path id="Path_190" data-name="Path 190" d="M206.176,111.023h-2.214l-2.02-2.876a6.505,6.505,0,0,1-.853.052h-1.168v2.823h-1.864V99.174h3.032c3.257,0,5.053,1.795,5.053,4.531a4.075,4.075,0,0,1-2.371,3.954Zm-5.158-4.426c2.283,0,3.206-1.081,3.206-2.891s-.941-2.877-3.206-2.877h-1.1V106.6Z" transform="translate(-20.728 -99.017)" fill="#fff"/>
        <path id="Path_191" data-name="Path 191" d="M221.367,107.932a2.847,2.847,0,0,0,2.683,1.6c1.254,0,2.091-.594,2.091-1.552,0-1.115-.837-1.5-1.881-1.969l-.819-.366c-1.743-.766-2.928-1.673-2.928-3.52a3.05,3.05,0,0,1,3.293-3.084,3.657,3.657,0,0,1,3.381,1.864l-1.412.924a2.078,2.078,0,0,0-1.934-1.149,1.35,1.35,0,0,0-1.515,1.377c0,.939.575,1.305,1.863,1.881l.82.365c1.795.8,2.979,1.62,2.979,3.625,0,2.178-1.673,3.277-3.92,3.277a4.6,4.6,0,0,1-4.269-2.493Z" transform="translate(-15.944 -99.045)" fill="#fff"/>
      </g>
      <path id="Path_218" data-name="Path 218" d="M70.092,76.5c0,3.25-1.487,5.434-5.853,5.434H57.411V71.02h6.6c4.32,0,6.086,2.229,6.086,5.48M68,62.844c0,2.6-1.16,4.181-4.6,4.181H57.411V58.9H63.4c3.483,0,4.6,1.532,4.6,3.947m4.924-.139c0-4.5-2.927-8.081-9.243-8.081H52.488V86.207h12.03c7.246,0,10.636-4.18,10.636-9.522A7.882,7.882,0,0,0,69.116,68.7,6.464,6.464,0,0,0,72.925,62.7" transform="translate(-52.374 -36.353)" fill="#fff"/>
      <path id="Path_219" data-name="Path 219" d="M99.157,66.7c0,4.831-2.461,7.711-8.545,7.711H87.685V59.036h2.927c6.037,0,8.545,2.879,8.545,7.663m5.109,0c0-7.292-4.785-12.076-13.469-12.076H82.715V86.207h4.97V78.683H90.8a17.644,17.644,0,0,0,2.275-.139l5.388,7.663h5.9l-6.41-8.965c4.135-1.9,6.317-5.666,6.317-10.544" transform="translate(-45.723 -36.353)" fill="#fff"/>
      <path id="Path_220" data-name="Path 220" d="M197.966,86.755h.372V54.707h-4.645V75.469L173.441,54.242h-.372V86.291h4.644V65.529Z" transform="translate(-25.843 -36.436)" fill="#fff"/>
      <path id="Path_221" data-name="Path 221" d="M216.023,69.068,205.2,86.207h5.249l8.221-13,8.221,13h5.621L221.457,68.742c.046,0,8.964-14.119,8.964-14.119h-5.247l-6.316,9.987-6.317-9.987h-5.621s9.1,14.4,9.1,14.445" transform="translate(-18.773 -36.353)" fill="#fff"/>
      <g id="Group_244" data-name="Group 244" transform="translate(0 107.962)">
        <path id="Path_196" data-name="Path 196" d="M52.4,133.061V128.3h2.078v4.739c0,.88.411,1.382,1.291,1.382s1.291-.5,1.291-1.382V128.3h2.078v4.762c0,2.09-1.427,3.117-3.369,3.117S52.4,135.151,52.4,133.061Z" transform="translate(-52.395 -128.103)" fill="#fff"/>
        <path id="Path_197" data-name="Path 197" d="M71.5,136.063H69.25l-1.085-1.781h-.777v1.781H65.31V128.3h2.945a2.975,2.975,0,0,1,3.266,3.049,2.717,2.717,0,0,1-1.4,2.512Zm-3.345-3.437a1.284,1.284,0,0,0,0-2.568h-.765v2.568Z" transform="translate(-49.553 -128.103)" fill="#fff"/>
        <path id="Path_198" data-name="Path 198" d="M77.551,128.3h3.175c1.541,0,2.546.708,2.546,1.9a1.483,1.483,0,0,1-.891,1.507,1.985,1.985,0,0,1,1.564,2.033c0,1.485-1.153,2.329-3.083,2.329H77.551Zm3.015,2.866c.456,0,.661-.228.661-.594a.568.568,0,0,0-.639-.627H79.56v1.221Zm.25,3.255c.8,0,1.052-.343,1.052-.88s-.264-.869-1.052-.869H79.56v1.748Z" transform="translate(-46.86 -128.103)" fill="#fff"/>
        <path id="Path_199" data-name="Path 199" d="M91.3,136.1H89.268l3.78-7.9c.034-.079.1-.079.137,0l3.769,7.9H94.806l-.3-.661H91.586Zm1.724-4.019-.776,1.8h1.575Z" transform="translate(-44.282 -128.138)" fill="#fff"/>
        <path id="Path_200" data-name="Path 200" d="M104.454,132.226v3.87H102.5v-7.867c0-.068.034-.126.16-.022l4.875,4.019v-3.894h1.953v7.879c0,.092-.034.126-.16.023Z" transform="translate(-41.37 -128.136)" fill="#fff"/>
        <path id="Path_201" data-name="Path 201" d="M128.043,136.184A3.957,3.957,0,0,1,124,132.2a3.915,3.915,0,0,1,3.927-3.974,3.777,3.777,0,0,1,3.358,1.668l-1.565,1.061a1.949,1.949,0,0,0-3.6,1.244,1.964,1.964,0,0,0,1.907,2.18,1.868,1.868,0,0,0,1.828-1.071l1.6,1.026A3.589,3.589,0,0,1,128.043,136.184Z" transform="translate(-36.639 -128.119)" fill="#fff"/>
        <path id="Path_202" data-name="Path 202" d="M136.672,132.2a4.172,4.172,0,1,1,4.168,3.986A4.02,4.02,0,0,1,136.672,132.2Zm6.211,0a2.048,2.048,0,1,0-2.044,2.18A1.993,1.993,0,0,0,142.883,132.2Z" transform="translate(-33.851 -128.119)" fill="#fff"/>
        <path id="Path_203" data-name="Path 203" d="M149.97,134.756l1.507-1.13a1.967,1.967,0,0,0,1.621.843c.617,0,.982-.183.982-.615,0-.332-.251-.492-.765-.664l-.914-.307a2.358,2.358,0,0,1,.72-4.659,3.141,3.141,0,0,1,2.58,1.028l-1.187,1.243a1.611,1.611,0,0,0-1.279-.559c-.5,0-.754.228-.754.538s.172.444.548.569l1.028.344c1.552.514,2.078,1.255,2.078,2.351,0,1.429-.891,2.456-2.946,2.456A3.85,3.85,0,0,1,149.97,134.756Z" transform="translate(-30.925 -128.119)" fill="#fff"/>
        <path id="Path_204" data-name="Path 204" d="M162.434,128.244c.011-.081.057-.07.1-.012l3.722,4.18,3.666-4.18c.045-.057.091-.068.1.012l.456,7.844h-2.045l-.182-3.311-1.941,2.249a.063.063,0,0,1-.1,0l-2.022-2.26-.183,3.322h-2.031Z" transform="translate(-28.283 -128.128)" fill="#fff"/>
        <path id="Path_205" data-name="Path 205" d="M176.239,128.3h5.447v1.748h-3.37v1.8h2.81v1.657h-2.81v.81h3.528v1.747h-5.606Z" transform="translate(-25.145 -128.103)" fill="#fff"/>
        <path id="Path_206" data-name="Path 206" d="M189.722,130.047h-2.055V128.3h6.188v1.748H191.8v6.016h-2.079Z" transform="translate(-22.631 -128.103)" fill="#fff"/>
        <path id="Path_207" data-name="Path 207" d="M199.9,128.3h2.08v7.764H199.9Z" transform="translate(-19.939 -128.103)" fill="#fff"/>
        <path id="Path_208" data-name="Path 208" d="M212.826,136.184a3.959,3.959,0,0,1-4.044-3.986,3.917,3.917,0,0,1,3.929-3.974,3.777,3.777,0,0,1,3.358,1.668l-1.564,1.061a1.949,1.949,0,0,0-3.6,1.244,1.964,1.964,0,0,0,1.907,2.18,1.867,1.867,0,0,0,1.826-1.071l1.6,1.026A3.587,3.587,0,0,1,212.826,136.184Z" transform="translate(-17.985 -128.119)" fill="#fff"/>
        <path id="Path_209" data-name="Path 209" d="M221.388,134.756l1.508-1.13a1.967,1.967,0,0,0,1.623.843c.615,0,.981-.183.981-.615,0-.332-.25-.492-.765-.664l-.914-.307a2.358,2.358,0,0,1,.719-4.659,3.147,3.147,0,0,1,2.583,1.028l-1.188,1.243a1.612,1.612,0,0,0-1.279-.559c-.5,0-.755.228-.755.538s.172.444.549.569l1.028.344c1.553.514,2.077,1.255,2.077,2.351,0,1.429-.889,2.456-2.944,2.456A3.855,3.855,0,0,1,221.388,134.756Z" transform="translate(-15.211 -128.119)" fill="#fff"/>
      </g>
      <g id="Group_245" data-name="Group 245" transform="translate(68.979)">
        <path id="Path_210" data-name="Path 210" d="M109.209,61.823c-.365.46-.511,1.01.5,1.651.276-.459.972-.826,1.155-1.1a7.738,7.738,0,0,0-1.651-.55" transform="translate(-108.933 -34.768)" fill="#fff"/>
        <path id="Path_211" data-name="Path 211" d="M111.7,62.786c.274-.459.514-.777-.222-.963a8.505,8.505,0,0,1-.963.55c.734.185.819.322,1.185.412" transform="translate(-108.586 -34.768)" fill="#fff"/>
        <path id="Path_212" data-name="Path 212" d="M111.059,72.366c-.184.275-.138.734.138,1.374a1.044,1.044,0,0,0-.62.276,2.363,2.363,0,0,1-.756.414,2.615,2.615,0,0,0,.414,1.375,4.821,4.821,0,0,1,2.751.687,5.044,5.044,0,0,0,0-2.339,1.635,1.635,0,0,1,.275-1.649c-.275.093-.46.023-.55-.206s-.229-.3-.412-.206q-.139.551-1.238.276" transform="translate(-108.738 -32.518)" fill="#fff"/>
        <path id="Path_213" data-name="Path 213" d="M111.45,73.024c.275-.365.458-.275.55.276,0,.55-.093.874-.276.964a4.01,4.01,0,0,1-.55-.414,1.551,1.551,0,0,1,.55-.55c0-.089-.091-.183-.275-.276" transform="translate(-108.44 -32.352)" fill="#fff"/>
        <path id="Path_214" data-name="Path 214" d="M122.376,63.475q-.964.278-.826.412.412-.412,1.1.963a2.13,2.13,0,0,1,1.513,0,3.683,3.683,0,0,0,.963.689q.549-1.786-.687-2.339a.487.487,0,0,1-.551.55c-.275-.09-.366-.321-.275-.687a9.372,9.372,0,0,1-1.237.411" transform="translate(-106.161 -34.495)" fill="#fff"/>
        <path id="Path_215" data-name="Path 215" d="M124.718,102.905a2.1,2.1,0,0,1,.414-.55.958.958,0,0,0-.963-.276,7.113,7.113,0,0,1-1.651,2.615,2.032,2.032,0,0,0,.412.55q.412.414.55,0-.414,0-.276-.55l.276-.689c.55.736,1.053,1.057,1.513.964a1.825,1.825,0,0,0,0-1.926h-.825c.182.093.275-.021.275-.343s.183-.434.55-.344c0-.366-.092-.184-.276.55" transform="translate(-105.944 -25.918)" fill="#fff"/>
        <g id="Group_233" data-name="Group 233" transform="translate(2.045 0)">
          <path id="Path_216" data-name="Path 216" d="M143.054,51.9c-.642.093-1.01.323-1.1.688.09-.09.321-.045.688.137.275.187.412.138.412-.137-.276-.09-.412-.183-.412-.276C143.007,52.313,143.145,52.177,143.054,51.9Z" transform="translate(-103.713 -36.951)" fill="#fff"/>
          <path id="Path_217" data-name="Path 217" d="M165.769,91.806a29.209,29.209,0,0,0,8.667-23.453,30.222,30.222,0,0,0-10.18-20.633,30.083,30.083,0,0,0-23.383-7.979A34.179,34.179,0,0,0,119,49.645a2.665,2.665,0,0,1,.412,1.376q0,2.2-1.925,2.2a2.423,2.423,0,0,1-1.1-.275.792.792,0,0,0-.138.55,2.344,2.344,0,0,0,.756,1.24,4.3,4.3,0,0,1,.894,1.236q2.337.141,2.338,1.1a2.548,2.548,0,0,1-2.475-.482,3.423,3.423,0,0,0-1.513-.893,1.484,1.484,0,0,0-.825.273,2.4,2.4,0,0,1,.412-.963q.135-.41-.412-.687a7.108,7.108,0,0,1-.688,1.307,3.3,3.3,0,0,0-.55,2.131.392.392,0,0,1-.276-.137c-.092-.09-.229-.09-.412,0q-1.237,4.127-1.925,6.053a7.893,7.893,0,0,1,.55,5.914c.639.367.963.688.963.964a1.7,1.7,0,0,0-.963.411,1.486,1.486,0,0,1-1.238.276,16.59,16.59,0,0,0,.688,6.741,2.063,2.063,0,0,1-.55-.412l-.414.412a3.472,3.472,0,0,0,1.651.55q1.239,0,1.926-1.926.961-2.747,1.238-3.3c-.551.093-.963-.275-1.238-1.1q2.2.69,1.513,1.649a1.875,1.875,0,0,0,1.238-.275,40.452,40.452,0,0,0,0,5.227q.135,3.58-.964,4.678a7.177,7.177,0,0,0-.963-.688,6.032,6.032,0,0,1-.481.412.846.846,0,0,0-.344.688,2.149,2.149,0,0,0,.825.55.554.554,0,0,0-.275.55q0-.274,1.651,2.613a19.061,19.061,0,0,0,3.714,5.227c.365,0,.963.048,1.789.138h1.237c.276-.09.366-.365.276-.825a4.395,4.395,0,0,0,1.651,0,.741.741,0,0,1,.763.506c-.122-.154-.422-.232-.9-.232-.642.093-.963.323-.963.688a1.22,1.22,0,0,1,.55-.138,1.5,1.5,0,0,1,.826.276,1.4,1.4,0,0,0,.549.276,1.132,1.132,0,0,0,.688-.414c0,.734-.231,1.193-.688,1.376q-2.062,0-1.787-.139-1.1.139-.688.826a17.043,17.043,0,0,1,2.613-.276l.55.826a10.817,10.817,0,0,1-.55,1.376,4.055,4.055,0,0,0,2.063,1.1,1.158,1.158,0,0,0,.963-.688,2.1,2.1,0,0,1,.138,1.238,33.149,33.149,0,0,0,6.866,2.216c0,.488.006,1,.009,1.477,0,1.02-.456.161-.45,1.152,0,.558.938,2.974.942,3.522.011,2.055-.026,4.031-.079,5.945-1.456-.229-3.021-1.789-3.371-1.227-1.193-.216-3.726.375-4.9.082a7.44,7.44,0,0,0-3.523-.511q-.69,4.264.276,5.364a11.218,11.218,0,0,0,.963-2.063,1.3,1.3,0,0,0,1.1.549c.275-.089.55-.182.825-.275q.825,5.64-.687,6.327l-.826-.687a10.4,10.4,0,0,0-1.375,3.026q-.551.139,0,.276c.275-.458.5.154.688-.032.089.644.5.168,1.237.444,3.4-.022,6.4-.044,9.317-.063v.106c0,.682.476.883.481,1.536.012,1.547-.443,3.009-.431,4.384.021,2.445.043,4.612.063,6.482h2.787c-.092.447,3.265.317,3.541.544s.412-1.008.412-.893c2.291-.564,4.127.259,5.5.6-.905-1.4.432-1.725.706-3.748-.8-1.743-.245-4.926-.293-9.519,4.336.081,7.975.339,10.759.3l.466-5.119c.366.093-.292-.932-.107-1.208s-.612-.878-.52-.878c.741-2.688.382-3.66.659-5.036-.644-.915-2.255-.581-3.907-.855-1.058.594-2.755.532-5.094.745a11.6,11.6,0,0,1-2.258-.257v-.931c-1.192-2.024.476-3.783-.257-4.343.177-1.985.3-3.616.357-5.135A31.347,31.347,0,0,0,165.769,91.806ZM116.112,66.977q.688-.824.826-.963a1.54,1.54,0,0,0,.275.414c-.092.46-.184.711-.275.755a1.692,1.692,0,0,0-.414.414q-.276.344-.412.344A.906.906,0,0,1,116.112,66.977Zm1.238,3.3a19.75,19.75,0,0,0-.412,2.063q-1.378-1.373-1.238-1.649a1.724,1.724,0,0,0-.688.273c-.184.368-.322.414-.412.139a.9.9,0,0,1-.137-.826,6.569,6.569,0,0,0,1.925.414,14.385,14.385,0,0,0,.55-2.064Q117.486,69.041,117.351,70.278Zm-.412-10.042a18.988,18.988,0,0,1-.276-2.475c.55,0,.871.368.964,1.1C117.717,59.687,117.489,60.147,116.938,60.236Zm14.993,60.112c-.46.185-.756.07-.894-.343s-.343-.62-.619-.62a.634.634,0,0,1,.688-.412q1.1,0,1.1.825A.787.787,0,0,1,131.931,120.348Zm.412-1.375q1.927,0,1.651.963A6.089,6.089,0,0,1,132.344,118.973Zm-6.465-59.286c-1.193-.459-1.787-.778-1.787-.963Q126.015,58.725,125.879,59.687Zm-3.026-.963c.733,0,1.1.322,1.1.963a.786.786,0,0,1-.276.549.685.685,0,0,1-.893-.481c-.138-.412-.344-.571-.62-.482C122.348,58.909,122.577,58.725,122.853,58.725Zm1.787,30.537a10.253,10.253,0,0,1-3.164,1.237,3.518,3.518,0,0,0-.2-2.2,6.91,6.91,0,0,1-.482-1.925,2.008,2.008,0,0,1,.412-1.237,2.415,2.415,0,0,1,1.513.207c.459.228.778.39.963.479-.184.368-.023.894.482,1.582A2.041,2.041,0,0,1,124.64,89.262Zm16.37-2.2a31.589,31.589,0,0,1-5.915-.549,3.722,3.722,0,0,0-1.514-2.064,4.219,4.219,0,0,0-1.651.412,2,2,0,0,0-1.1-1.925q-1.239-.825-2.339-1.652-.278.414-1.238.276a3.714,3.714,0,0,1,1.238-1.375,11.033,11.033,0,0,1-1.514-3.3q-.825-2.2-2.063-2.615a3.63,3.63,0,0,0-1.789-3.3q-.137-3.711,2.475-4.4a3.845,3.845,0,0,1,.964-2.613,24.364,24.364,0,0,1,1.513-2.063,3.379,3.379,0,0,0-2.063.825q-.414-1.1-.687-1.651a8.361,8.361,0,0,0,3.164,0,14.24,14.24,0,0,1,5.5-4.676q.686-.275,7.291-3.026a2.286,2.286,0,0,0,2.2.55q.547-.135.276-.826c-.094-.09-.185-.183-.276-.276-.093,0-.322.185-.688.551-.093,0-.185-.09-.274-.276,0-.276.2-.433.619-.481s.62-.206.62-.482a3.014,3.014,0,0,1,2.338,1.513,6.2,6.2,0,0,1,1.513-.55c0,.185.183.46.55.826.183.367.138.642-.138.826a12.973,12.973,0,0,0,2.477-.689c0-.732-.275-1.1-.825-1.1H148.3c0-.365.206-.572.619-.619s.62-.16.62-.344a1.734,1.734,0,0,1,1.375.275q.549.414,1.1.826c-.187,1.193-.276,1.743-.276,1.652h-1.513a.663.663,0,0,0,.412.824.673.673,0,0,1,.412.826A15.112,15.112,0,0,1,159.031,66.7c-.92.275-.673,1.392-1.132,1.482-.183.919-1,.81-.588,1.545a2.008,2.008,0,0,0,2.133.963q0,7.84-5.5,12.378Q148.849,87.063,141.011,87.06Z" transform="translate(-110.61 -39.648)" fill="#fff"/>
        </g>
      </g>
    </g>
  </g>
</svg>
