<?xml version="1.0" encoding="utf-8"?>
<!-- Generator: Adobe Illustrator 24.3.0, SVG Export Plug-In . SVG Version: 6.00 Build 0)  -->
<svg version="1.1" id="Layer_1" xmlns="http://www.w3.org/2000/svg" xmlns:xlink="http://www.w3.org/1999/xlink" x="0px" y="0px"
	 viewBox="0 0 32 32" style="enable-background:new 0 0 32 32;" xml:space="preserve">
  <g>
    <rect x="11.9" y="17.1" transform="matrix(3.667855e-02 -0.9993 0.9993 3.667855e-02 0.231 37.0335)" width="14.8" height="2.5"/>
    <rect x="11.4" y="11" transform="matrix(0.9993 -3.666115e-02 3.666115e-02 0.9993 -0.6661 0.477)" width="2.5" height="14.8"/>
    <path d="M22.2,4.8V2.1c0-1.2-0.9-2.1-2.1-2.1h-8.2c-1.2,0-2.1,0.9-2.1,2.1v2.7H1.1v2.5h2.6l2.1,23.5
      C5.8,31.5,6.4,32,7,32h17.9c0.6,0,1.2-0.5,1.2-1.1l2.1-23.5h2.7V4.8H22.2z M12.3,2.5h7.4v2.3h-7.4V2.5z M23.8,29.5H8.2l-2-22.2
      h19.5L23.8,29.5z"/>
  </g>
</svg>
