<?xml version="1.0" encoding="utf-8"?>
<!-- Generator: Adobe Illustrator 24.3.0, SVG Export Plug-In . SVG Version: 6.00 Build 0)  -->
<svg version="1.1" id="Layer_1" xmlns="http://www.w3.org/2000/svg" xmlns:xlink="http://www.w3.org/1999/xlink" x="0px" y="0px"
	 viewBox="0 0 32 32" style="enable-background:new 0 0 32 32;" xml:space="preserve">
  <path d="M21.9,24.5c0.5,1.4,2,2.2,3.4,1.8c0.8-0.3,1.5-0.9,1.8-1.8H30v-7l-3.5-7.4h-6.2V5.6H2v19h2.9
    c0.5,1.4,2,2.2,3.4,1.8c0.8-0.3,1.5-0.9,1.8-1.8H21.9z M27.9,16.9h-3.5v-5.2h1.1L27.9,16.9z M18.7,7.2V18H3.6V7.2L18.7,7.2z
    M7.5,24.8c-0.6,0-1.1-0.5-1.1-1.1c0-0.6,0.5-1.1,1.1-1.1s1.1,0.5,1.1,1.1l0,0C8.5,24.3,8.1,24.8,7.5,24.8z M10.1,22.9
    c-0.5-1.4-2-2.2-3.4-1.8c-0.8,0.3-1.5,0.9-1.8,1.8H3.6v-3.2h15.1v3.2H10.1z M24.5,24.8c-0.6,0-1.1-0.5-1.1-1.1
    c0-0.6,0.5-1.1,1.1-1.1c0.6,0,1.1,0.5,1.1,1.1l0,0C25.6,24.3,25.1,24.8,24.5,24.8L24.5,24.8z M27.1,22.9c-0.5-1.4-2-2.2-3.4-1.8
    c-0.8,0.3-1.5,0.9-1.8,1.8h-1.6V11.7h2.4v6.8h5.6v4.3L27.1,22.9z"/>
</svg>
