<?xml version="1.0" encoding="utf-8"?>
<!-- Generator: Adobe Illustrator 24.3.0, SVG Export Plug-In . SVG Version: 6.00 Build 0)  -->
<svg version="1.1" id="Layer_1" xmlns="http://www.w3.org/2000/svg" xmlns:xlink="http://www.w3.org/1999/xlink" x="0px" y="0px"
	 viewBox="0 0 90 112" style="enable-background:new 0 0 90 112;" xml:space="preserve">
<style type="text/css">
	.st0{fill:#EC0127;}
</style>
<g>
	<path class="st0" d="M63.4,13.5V5.2L58.2,0H32.1l-5.4,5.2v8.3H0V112h90V13.5H63.4z M74.3,35.9H79v23.5h-4.8V35.9z M79,69.5v3.9
		H66.7v-3.9H79z M32.1,5.2h26.1v8.3H32.1V5.2z M46.1,35.9v23.5h-4.8V35.9H46.1z M10.5,35.9h4.1l9,17.1l9-17.1h3.9v23.5h-5.2V46.3
		l-7.2,13.1h-3.1l-6.6-13.3v13.3h-4V35.9z M24.6,92.7c-2.1,1.3-4.6,2-7.1,1.9c-2.3,0-4.6-0.4-6.7-1.1l0.6-3.4c1.9,0.7,4,1.1,6.1,1.1
		c0.5,0,0.9,0,1.4-0.1c1.5,0,2.8-0.8,3.6-2.1c0.4-0.9,0.2-2-0.4-2.8c-0.7-1-2.2-1.6-4-2.3c-2-0.8-4.2-1.7-5.7-3.3
		c-1.1-1.2-1.6-2.8-1.5-4.5c0.1-1.8,0.9-3.4,2.2-4.6c1.9-1.6,5-2,7.2-2c2,0,4,0.3,6,0.7l-0.6,3.3c-1.6-0.5-3.3-0.8-5-0.8
		c-3.1,0-4.9,0.9-5.1,2.6c-0.4,2.4,2.9,3.7,4.8,4.4l0.5,0.2c2.7,1.1,4.9,2.6,5.8,4.1C28.5,87.5,26.4,91.4,24.6,92.7z M49.4,82.4
		c-0.4,10-5.4,12.1-9.5,12.1h-0.1c0,0-0.1,0-0.1,0h-0.1c-7.5,0-9.3-6.6-9.5-12.1c-0.2-4.6,1-8.3,3.4-10.5c1.4-1.5,3.3-2.2,6.2-2.2
		c0,0,0.1,0,0.1,0c2.8,0,4.7,0.7,6.2,2.2C48.4,74.1,49.6,77.7,49.4,82.4z M50.8,35.9h3.1l11.7,14v-14h3.9v23.5h-2.3L54.8,45v14.4h-4
		V35.9z M56.3,68.9c1.7,0,3,1.4,3,3c0,0,0,0,0,0c0,1.7-1.4,3-3.1,3c-1.7,0-3-1.4-3-3.1C53.3,70.2,54.6,68.9,56.3,68.9z M66.4,94.7
		c-7.2,0-13-6.1-13-13.7c0-0.2,0-0.4,0-0.6h3.5c0,0.2,0,0.4,0,0.6c0,0.3,0,0.6,0,1c0.3,5.3,4.7,9.3,10,9.1c5.3-0.3,9.3-4.7,9.1-10
		c0-0.2,0-0.4,0-0.6h3.5c0,0.2,0,0.4,0,0.6C79.5,88.5,73.6,94.7,66.4,94.7z"/>
	<path class="st0" d="M39.8,72.6L39.8,72.6c-0.1,0-0.1,0-0.1,0c0,0-0.1,0-0.1,0c-4.2,0.2-4.7,5.1-4.7,9.8c0,3.3,0.7,8.8,4.7,9
		c0,0,0,0,0.1,0c0,0,0,0,0.1,0c4-0.1,4.7-5.7,4.7-9C44.5,77.7,44,72.8,39.8,72.6z"/>
</g>
</svg>
