<?xml version="1.0" encoding="utf-8"?>
<!-- Generator: Adobe Illustrator 24.3.0, SVG Export Plug-In . SVG Version: 6.00 Build 0)  -->
<svg version="1.1" id="Layer_1" xmlns="http://www.w3.org/2000/svg" xmlns:xlink="http://www.w3.org/1999/xlink" x="0px" y="0px"
	 viewBox="0 0 110 60" style="enable-background:new 0 0 110 60;" xml:space="preserve">
<style type="text/css">
	.st0{fill:#EC0127;}
	.st1{fill:#FFFFFF;}
	.st2{fill-rule:evenodd;clip-rule:evenodd;fill:#FFFFFF;}
</style>
<g id="Footer-logo" transform="translate(-320 -3597)">
	<g id="logo-footer_2" transform="translate(223.266 3379.767)">
		<path id="Path_1" class="st0" d="M130.7,224.5V220l-2.8-2.8h-14l-2.9,2.8v4.5H96.7v52.8H145v-52.8H130.7z M114,220h14v4.5h-14
			L114,220z"/>
		<g id="Group_1" transform="translate(125.355 254.133)">
			<path id="Path_2" class="st1" d="M3.2,1.6c0,0.9-0.7,1.6-1.6,1.6C0.7,3.2,0,2.5,0,1.6C0,0.7,0.7,0,1.6,0C2.5,0,3.2,0.7,3.2,1.6"
				/>
			<rect id="Rectangle_1709" x="7.2" y="0.4" class="st1" width="6.6" height="2.1"/>
			<path id="Path_3" class="st1" d="M12.1,6.1c0,0.1,0,0.2,0,0.3c0.1,2.8-2,5.2-4.9,5.4C4.4,12,2,9.8,1.9,7c0-0.2,0-0.3,0-0.5
				c0-0.1,0-0.2,0-0.3H0.1c0,0.1,0,0.2,0,0.3c-0.2,3.9,2.8,7.1,6.6,7.3C10.5,14,13.8,11,14,7.2c0-0.2,0-0.5,0-0.7c0-0.1,0-0.2,0-0.3
				H12.1z"/>
		</g>
		<path id="Path_4" class="st2" d="M124,249.1v-12.6h1.6l6.3,7.5v-7.5h2.1v12.6h-1.2l-6.6-7.7v7.7L124,249.1z"/>
		<path id="Path_5" class="st2" d="M102.5,249.1v-12.6h2.2l4.8,9.1l4.8-9.1h2.1v12.6h-2.8v-7l-3.8,7h-1.6l-3.5-7.1v7.1L102.5,249.1z
			"/>
		<rect id="Rectangle_1710" x="118.9" y="236.5" class="st1" width="2.6" height="12.6"/>
		<rect id="Rectangle_1711" x="136.6" y="236.5" class="st1" width="2.6" height="12.6"/>
		<path id="Path_6" class="st2" d="M110,266.9c1.4-1.1,1.8-3,1-4.5c-0.8-1-1.9-1.8-3.1-2.2l-0.3-0.1c-1-0.4-2.8-1.1-2.6-2.4
			c0.1-0.9,1.1-1.4,2.8-1.4c0.9,0,1.8,0.1,2.7,0.4l0.3-1.8c-1-0.3-2.1-0.4-3.2-0.4c-1.4-0.1-2.7,0.3-3.9,1c-0.7,0.6-1.1,1.5-1.2,2.5
			c-0.1,0.9,0.2,1.7,0.8,2.4c0.9,0.8,1.9,1.4,3,1.8c0.8,0.2,1.5,0.7,2.1,1.2c0.3,0.4,0.4,1,0.2,1.5c-0.4,0.7-1.1,1.1-1.9,1.1
			c-0.2,0-0.5,0-0.7,0c-1.1,0-2.2-0.2-3.2-0.6l-0.3,1.8c1.2,0.4,2.4,0.6,3.6,0.6C107.5,267.9,108.9,267.6,110,266.9z"/>
		<path id="Path_7" class="st2" d="M118.1,254.5C118.1,254.5,118.1,254.5,118.1,254.5c-1.3-0.1-2.5,0.3-3.4,1.2
			c-1.3,1.2-1.9,3.2-1.8,5.6c0.1,3,1.1,6.5,5.1,6.5h0c0,0,0,0,0,0h0c2.2,0,4.9-1.1,5.1-6.5c0.1-2.5-0.5-4.4-1.8-5.6
			C120.5,254.9,119.3,254.4,118.1,254.5z M120.6,261.4c0,1.8-0.4,4.7-2.5,4.8c0,0,0,0,0,0c0,0,0,0,0,0c-2.2-0.1-2.5-3-2.5-4.8
			c0-2.5,0.3-5.1,2.5-5.3c0,0,0,0,0,0c0,0,0,0,0.1,0h0C120.4,256.2,120.7,258.8,120.6,261.4L120.6,261.4z"/>
		<path id="Path_8" class="st0" d="M192.5,224.5V220l-2.8-2.8h-14l-2.9,2.8v4.5h-14.4v52.8h48.3v-52.8L192.5,224.5z M175.7,220h14
			v4.5h-14L175.7,220z"/>
		<path id="Path_9" class="st1" d="M173.1,260c-0.8-2.1-1.6-4.2-2.6-6.3l-2.6,1.2c1,2,1.8,4,2.6,6L173.1,260z"/>
		<path id="Path_10" class="st1" d="M177.8,253.3L177.8,253.3c-0.8,6.5-2.6,9.3-8.5,12.9l-0.1,0l1.6,2.5l0.1,0
			c4.7-3.2,7.2-5.8,8.4-9c0.7-1.9,1.2-3.9,1.4-6l0-0.1L177.8,253.3z"/>
		<path id="Path_11" class="st1" d="M177.6,241.5L177.6,241.5l0-0.1c0.8-2,1.3-4,1.5-6.2l-2.9-0.1c-0.1,1.7-0.5,3.3-1.1,4.9l0,0.1
			l-0.1-0.1c-1.9-1.1-3.9-2-5.9-2.8l-1.1,2.5c2,0.8,3.9,1.7,5.7,2.6l0.1,0l-0.1,0.1c-1.6,2.7-4.2,4.2-7.5,5.5l0.9,2.6
			c4.3-1.6,6.9-3.5,9.2-6.7l0-0.1l0.1,0c1.9,1,3.7,2.3,5.4,3.7l1.9-2.1C181.7,244,179.7,242.7,177.6,241.5z"/>
		<path id="Path_12" class="st1" d="M193.6,255v-2h-2.7v2h-5.5v5.2l2.6,0.1v-2.4h8.4v0.4l0,0c0,2.1,0,3.3-0.8,4.4
			c-1.1,1.6-3.2,2.5-6.2,2.7l0.5,3c3-0.2,6.9-1.1,8.6-4.6c0.6-1.6,0.8-3.4,0.7-5.1V255L193.6,255z"/>
		<path id="Path_13" class="st1" d="M196.7,234.2c-2.9,3.1-5.8,4.4-10.7,4.8l0.1,2.7c1.9-0.3,3.7-0.6,5.5-1.2v8.8h2.9v-10
			c1.6-1,3-2.2,4.3-3.6L196.7,234.2z"/>
	</g>
</g>
</svg>
