<?xml version="1.0" encoding="utf-8"?>
<!-- Generator: Adobe Illustrator 24.3.0, SVG Export Plug-In . SVG Version: 6.00 Build 0)  -->
<svg version="1.1" id="Layer_1" xmlns="http://www.w3.org/2000/svg" xmlns:xlink="http://www.w3.org/1999/xlink" x="0px" y="0px"
	 viewBox="0 0 32 32" style="enable-background:new 0 0 32 32;" xml:space="preserve">
  <path d="M32,4H5.4v8.2C1.1,13.8-1.1,18.6,0.5,23s6.5,6.5,10.8,4.9c3-1.1,5-3.8,5.4-6.9H32V4z M7.3,5.9
    h22.8v9.4H15.3c-1.8-2.6-4.9-4-8-3.6V5.9z M8.4,26.6c-3.6,0-6.5-2.9-6.5-6.5s2.9-6.5,6.5-6.5s6.5,2.9,6.5,6.5
    C14.9,23.6,12,26.6,8.4,26.6z M16.7,19.1c-0.1-0.7-0.2-1.3-0.5-1.9h13.8v1.9L16.7,19.1z"/>
  <path d="M7.2,20.9L5.3,19l-1.2,1.2l3,3l4.7-4.7l-1.2-1.2L7.2,20.9z"/>
  <path d="M19.8,8.6h7.6v1.9h-7.6V8.6z"/>
</svg>
