<?xml version="1.0" standalone="no"?>
<!DOCTYPE svg PUBLIC "-//W3C//DTD SVG 20010904//EN"
 "http://www.w3.org/TR/2001/REC-SVG-20010904/DTD/svg10.dtd">
<svg version="1.0" xmlns="http://www.w3.org/2000/svg"
 width="700.000000pt" height="700.000000pt" viewBox="0 0 700.000000 700.000000"
 preserveAspectRatio="xMidYMid meet">
<metadata>
Created by potrace 1.14, written by Peter Selinger 2001-2017
</metadata>
<g transform="translate(0.000000,700.000000) scale(0.100000,-0.100000)"
fill="#000000" stroke="none">
<path d="M3428 6995 c-1 -1 -35 -6 -73 -9 -39 -4 -80 -8 -90 -10 -11 -2 -41
-6 -66 -10 -87 -13 -179 -33 -310 -69 -101 -28 -272 -96 -389 -156 -111 -55
-304 -170 -338 -201 -9 -8 -42 -34 -73 -57 -31 -22 -77 -61 -104 -85 -119
-107 -129 -120 -104 -145 5 -5 10 -38 10 -71 1 -48 -4 -69 -22 -93 -36 -51
-103 -68 -178 -44 -18 5 -21 2 -21 -23 0 -17 12 -45 30 -68 16 -21 44 -57 60
-79 23 -29 39 -40 63 -42 48 -5 114 -32 121 -49 11 -28 -5 -36 -61 -32 -40 4
-64 12 -96 36 -69 53 -121 74 -151 62 -30 -11 -32 -3 -9 38 14 25 15 32 4 46
-19 23 -27 20 -40 -11 -6 -16 -22 -48 -36 -73 -14 -24 -28 -66 -31 -92 -6 -44
-9 -47 -29 -42 -18 4 -25 1 -30 -18 -4 -12 -34 -109 -67 -215 l-61 -192 28
-83 c23 -68 28 -101 28 -178 0 -52 -5 -112 -11 -132 -6 -21 -7 -38 -4 -38 12
0 62 -50 62 -62 0 -6 -3 -8 -6 -5 -4 3 -27 -6 -51 -20 -25 -14 -57 -27 -72
-28 l-26 -1 1 -140 c1 -126 11 -209 41 -314 6 -22 5 -24 -10 -11 -17 14 -47 9
-47 -8 0 -14 76 -41 114 -41 39 0 88 36 112 81 8 16 28 66 44 111 17 46 34 92
39 103 31 72 31 75 13 75 -20 0 -55 34 -65 62 -5 15 -2 16 20 7 71 -27 107
-68 88 -98 -8 -13 25 -14 57 -2 l23 9 1 -182 c0 -99 2 -210 3 -246 3 -80 -5
-129 -31 -194 -30 -76 -35 -80 -75 -55 -28 18 -36 19 -51 8 -50 -38 -53 -61
-13 -85 24 -14 27 -20 18 -35 -9 -14 -8 -22 4 -36 19 -21 71 -110 124 -208 63
-116 148 -235 231 -322 18 -19 220 -33 245 -17 5 3 9 15 9 27 0 21 5 22 70 22
41 0 74 -5 81 -12 10 -10 6 -12 -20 -8 -38 4 -91 -12 -91 -28 0 -7 16 -12 35
-13 19 0 50 -9 69 -19 28 -15 38 -17 48 -7 33 33 39 -12 6 -53 -20 -26 -24
-27 -97 -22 -42 2 -84 0 -93 -5 -24 -12 -25 -53 -2 -44 9 4 53 9 98 12 l81 6
17 -29 c18 -30 15 -56 -8 -102 -17 -31 -8 -42 59 -76 61 -30 96 -32 124 -6 26
24 33 18 33 -29 0 -36 2 -38 58 -60 106 -41 246 -87 340 -110 l93 -22 -4 -69
c-3 -43 -10 -73 -19 -83 -18 -18 -13 -57 27 -181 24 -76 25 -92 25 -302 0
-200 -2 -223 -16 -223 -9 0 -57 20 -106 45 l-89 46 -132 -6 c-72 -4 -148 -8
-167 -10 -19 -2 -71 5 -115 17 -87 22 -193 32 -212 20 -6 -4 -15 -39 -19 -77
-15 -133 -5 -264 22 -285 12 -11 20 -1 48 60 20 44 36 68 41 61 13 -22 55 -32
90 -22 42 11 43 8 52 -164 6 -142 -8 -225 -46 -259 -18 -16 -20 -16 -49 9 -17
14 -33 22 -35 18 -24 -40 -47 -88 -67 -138 -13 -33 -27 -65 -32 -71 -11 -15 2
-26 17 -14 8 7 19 3 35 -12 24 -22 26 -23 388 -23 l364 0 16 -40 c17 -44 21
-144 8 -215 -5 -25 -10 -177 -11 -338 l-3 -292 46 -1 c26 -1 68 -1 94 0 26 1
56 -3 66 -8 10 -5 52 -13 93 -16 41 -3 95 -8 121 -10 45 -5 48 -3 54 23 4 15
11 30 17 33 5 4 48 7 96 8 77 2 123 -5 260 -36 20 -5 22 -3 13 13 -13 26 -5
68 22 123 33 64 45 112 35 140 -22 58 -24 150 -15 566 l2 90 89 -1 c50 -1 176
-5 280 -9 291 -11 386 -12 391 -3 8 12 11 36 19 127 4 47 8 93 10 103 2 11 5
42 6 69 2 28 6 52 10 55 5 3 4 16 -1 30 -6 14 -10 37 -10 52 0 15 -9 38 -19
51 -14 19 -17 32 -10 60 4 20 10 56 14 81 3 25 8 52 10 60 2 8 7 52 10 96 5
67 3 84 -10 97 -40 40 -229 55 -339 27 -114 -28 -279 -39 -385 -25 -60 8 -67
13 -65 45 1 17 -5 44 -13 60 -16 32 -21 139 -8 160 4 7 10 74 12 149 2 75 5
154 7 176 2 22 4 66 5 98 1 63 7 69 82 81 115 18 343 102 513 187 401 203 779
574 987 969 105 199 189 449 215 636 3 27 8 58 10 69 8 41 16 173 16 260 0 92
-11 286 -17 295 -2 3 -6 30 -10 60 -6 45 -17 101 -39 195 -55 227 -165 474
-304 685 -358 541 -910 885 -1582 985 -46 7 -436 16 -442 10z m719 -898 c66
-52 71 -62 62 -108 -4 -24 -8 -49 -9 -54 0 -6 -22 -11 -51 -10 -27 1 -53 -3
-55 -7 -10 -15 7 -46 26 -51 12 -3 22 -17 26 -34 4 -22 19 -36 64 -61 79 -43
196 -138 251 -203 24 -29 49 -58 56 -64 49 -50 146 -239 177 -347 22 -78 23
-83 6 -95 -9 -7 -29 -36 -44 -66 -14 -30 -35 -64 -46 -77 -29 -33 -25 -58 16
-96 34 -33 50 -38 103 -36 l23 1 -6 -99 c-18 -285 -133 -539 -328 -726 -123
-118 -360 -246 -533 -290 -16 -4 -34 -8 -40 -10 -118 -31 -184 -38 -365 -39
-107 0 -231 3 -276 7 -75 7 -185 25 -190 31 -1 1 -11 20 -22 42 -11 22 -35 54
-54 72 -30 29 -37 31 -73 24 -22 -5 -47 -12 -56 -15 -12 -5 -18 0 -22 23 -10
46 -33 77 -90 115 -29 19 -74 50 -101 70 -38 27 -54 33 -67 25 -24 -12 -69
-12 -69 1 0 6 19 31 41 55 39 42 41 47 26 63 -19 21 -77 142 -77 160 0 24 -66
157 -91 182 -13 14 -37 34 -52 43 -15 10 -25 22 -22 28 4 5 -1 35 -10 65 -12
42 -30 71 -67 110 l-51 54 6 65 c11 112 66 200 142 225 23 8 31 17 33 38 5 66
33 118 129 245 41 53 43 57 21 57 -13 0 -45 -12 -73 -25 -27 -13 -50 -23 -51
-22 -1 1 -11 25 -22 52 l-20 51 105 0 105 0 47 55 c135 160 252 241 477 334
87 36 173 72 189 80 17 7 70 29 118 49 l89 37 33 -21 c68 -42 162 -23 148 30
-7 28 -28 31 -53 8 -17 -16 -24 -18 -30 -8 -13 21 -1 37 29 43 16 3 35 13 44
21 26 26 101 -3 148 -57 l27 -31 48 19 48 18 28 -34 c19 -22 28 -42 25 -56 -5
-26 7 -28 68 -12 98 25 112 41 79 87 -13 18 -25 22 -74 22 -32 0 -61 4 -65 9
-7 12 33 41 56 41 9 0 22 6 28 14 13 16 80 5 108 -17z m-2407 -407 c11 -11 20
-26 21 -32 0 -7 2 -22 4 -33 7 -33 -14 -85 -34 -85 -10 0 -18 6 -18 13 0 6 -4
45 -8 85 -8 78 -1 88 35 52z m443 -59 c47 -18 42 -106 -6 -99 -12 2 -31 17
-42 35 -11 18 -27 33 -35 33 -11 0 -8 6 9 20 26 22 39 24 74 11z m131 -5 c40
-17 59 -61 20 -46 -36 14 -104 50 -104 55 0 10 52 4 84 -9z m-582 -556 c-11
-28 -56 -80 -69 -80 -23 0 -13 45 19 89 28 39 33 42 44 26 7 -9 10 -25 6 -35z
m7 -167 c12 -32 9 -81 -14 -193 -2 -8 -4 -22 -4 -30 -1 -17 -77 64 -86 92 -7
19 -29 15 -58 -11 -16 -13 -19 -13 -27 -1 -6 8 -10 25 -10 37 0 20 3 22 28 12
15 -6 46 -13 69 -16 l42 -5 15 53 c9 29 16 61 16 71 0 27 16 22 29 -9z m415
-1172 c31 -16 43 -27 39 -37 -6 -16 5 -42 49 -113 39 -63 37 -105 -4 -131 -36
-22 -128 -59 -168 -66 -25 -5 -25 -4 -24 42 1 29 -8 76 -23 118 -28 80 -33
159 -14 195 11 20 18 23 56 19 24 -3 64 -15 89 -27z m620 -2392 c40 -19 43
-69 6 -89 -26 -14 -46 -3 -60 30 -7 16 -19 31 -28 35 -15 6 -15 8 2 21 24 17
47 18 80 3z m129 -5 c19 -6 41 -40 29 -48 -11 -6 -86 30 -103 50 -12 15 -11
16 21 10 19 -4 43 -10 53 -12z"/>
<path d="M4016 5913 l-30 -16 37 -15 c39 -15 63 -9 37 9 -11 8 -12 12 -2 16 6
2 12 9 12 14 0 13 -21 10 -54 -8z"/>
<path d="M2280 4937 c-53 -16 -60 -21 -43 -28 12 -4 29 -21 38 -37 16 -27 23
-29 70 -29 42 1 59 -5 89 -28 20 -15 39 -26 41 -23 11 11 10 86 -1 109 -22 45
-40 53 -64 29 -17 -17 -24 -19 -36 -9 -8 7 -13 18 -10 26 7 17 -5 15 -84 -10z"/>
<path d="M1130 5055 c-18 -21 13 -95 41 -95 10 0 79 62 79 71 0 6 -84 39 -101
39 -3 0 -12 -7 -19 -15z"/>
<path d="M1293 5052 l-32 -17 40 -17 c38 -16 39 -16 50 4 12 23 5 48 -13 48
-7 -1 -27 -9 -45 -18z"/>
<path d="M1368 4168 c-3 -7 -22 -13 -47 -13 l-43 0 6 -45 c6 -45 6 -45 -39
-72 -49 -30 -52 -39 -31 -90 14 -32 19 -35 61 -36 25 -1 69 -11 97 -22 29 -11
53 -18 55 -16 7 7 4 123 -5 167 -7 34 -5 56 4 78 11 27 11 31 -2 31 -8 0 -17
7 -20 15 -7 18 -31 20 -36 3z"/>
<path d="M2422 1566 c-5 -6 -19 -32 -32 -58 -13 -27 -27 -48 -32 -48 -4 0 -8
-6 -8 -12 0 -7 -11 -24 -25 -36 -20 -19 -23 -28 -15 -43 14 -25 47 -42 55 -29
3 5 1 10 -4 10 -14 0 -14 36 0 62 11 20 11 20 33 -4 52 -60 94 -53 100 17 5
50 -8 75 -38 75 -19 0 -22 4 -18 25 2 14 11 25 19 25 8 0 11 -4 8 -10 -3 -5
-1 -10 4 -10 6 0 11 8 11 19 0 22 -45 35 -58 17z"/>
</g>
</svg>
