<?xml version="1.0" encoding="utf-8"?>
<!-- Generator: Adobe Illustrator 24.3.0, SVG Export Plug-In . SVG Version: 6.00 Build 0)  -->
<svg version="1.1" id="Layer_1" xmlns="http://www.w3.org/2000/svg" xmlns:xlink="http://www.w3.org/1999/xlink" x="0px" y="0px"
	 viewBox="0 0 46 30" style="enable-background:new 0 0 46 30;" xml:space="preserve">
<style type="text/css">
	.st0{fill:#292929;}
</style>
<path id="Path_172" class="st0" d="M12.7,13.2c0,1-0.5,2-1.3,2.7c-0.8,0.7-1.9,1-3,1C7.2,17,6,16.5,5.2,15.5
	c-0.8-1.1-1.2-2.4-1.2-3.8v-0.6c0-0.9,0.2-1.9,0.5-2.7c0.3-0.7,0.9-1.4,1.5-1.8C6.8,6.2,7.6,6,8.4,6c1.1-0.1,2.1,0.3,3,1
	c0.8,0.7,1.2,1.7,1.3,2.8h-2.2c0-0.6-0.2-1.1-0.6-1.5C9.5,7.9,9,7.8,8.4,7.8c-0.6,0-1.3,0.3-1.6,0.8C6.4,9.3,6.2,10.2,6.2,11v0.8
	c-0.1,0.9,0.1,1.7,0.5,2.5c0.4,0.5,1,0.8,1.6,0.8c0.5,0,1.1-0.1,1.5-0.5c0.4-0.4,0.6-0.9,0.6-1.4L12.7,13.2z"/>
<path id="Path_173" class="st0" d="M20.1,14.6h-3.8l-0.7,2.2h-2.3l4-10.6h2l4,10.6h-2.3L20.1,14.6z M16.9,12.8h2.7l-1.3-4L16.9,12.8
	z"/>
<path id="Path_174" class="st0" d="M29.7,14c0-0.4-0.1-0.7-0.4-1c-0.5-0.3-1-0.5-1.6-0.7c-0.6-0.2-1.2-0.4-1.8-0.7
	c-1.1-0.4-1.8-1.5-1.8-2.6c0-0.6,0.2-1.1,0.5-1.5c0.4-0.5,0.8-0.8,1.4-1.1C26.6,6.1,27.3,6,28,6c0.7,0,1.4,0.1,2,0.4
	c0.6,0.2,1,0.7,1.4,1.2c0.3,0.5,0.5,1.1,0.5,1.7h-2.2c0-0.4-0.1-0.8-0.5-1.1c-0.4-0.3-0.8-0.4-1.3-0.4c-0.4,0-0.9,0.1-1.2,0.3
	c-0.3,0.2-0.5,0.5-0.4,0.9c0,0.4,0.2,0.7,0.5,0.9c0.5,0.3,1,0.5,1.5,0.7c1,0.2,1.9,0.7,2.7,1.4c0.6,0.5,0.9,1.3,0.9,2.1
	c0,0.9-0.4,1.7-1,2.2C30,16.7,29,17,28,16.9c-0.8,0-1.5-0.1-2.2-0.4c-0.6-0.3-1.2-0.7-1.5-1.2c-0.4-0.5-0.5-1.2-0.5-1.8h2.2
	c0,1.2,0.7,1.8,2.1,1.8c0.4,0,0.9-0.1,1.2-0.3C29.5,14.7,29.7,14.3,29.7,14z"/>
<path id="Path_175" class="st0" d="M42,16.8h-2.2v-4.6h-4.3v4.6h-2.2V6.1h2.2v4.3h4.3V6.1H42V16.8z"/>
<path id="Path_176" class="st0" d="M4,21.9c0-0.4,0.1-0.8,0.2-1.1c0.1-0.3,0.4-0.6,0.7-0.8c0.3-0.2,0.6-0.3,1-0.3
	c0.5,0,1,0.2,1.4,0.6c0.4,0.4,0.6,1,0.5,1.6V22c0,0.4-0.1,0.8-0.2,1.1c-0.1,0.3-0.4,0.6-0.7,0.8c-0.3,0.2-0.7,0.3-1,0.3
	c-0.5,0-1-0.2-1.4-0.6C4.2,23.1,4,22.5,4,21.9L4,21.9z M4.7,22c0,0.4,0.1,0.8,0.3,1.1c0.2,0.3,0.5,0.4,0.9,0.4
	c0.3,0,0.7-0.2,0.9-0.4c0.2-0.4,0.4-0.8,0.3-1.2c0-0.4-0.1-0.8-0.3-1.1c-0.2-0.3-0.5-0.4-0.9-0.4c-0.3,0-0.7,0.2-0.9,0.4
	C4.8,21.1,4.7,21.5,4.7,22L4.7,22z"/>
<path id="Path_177" class="st0" d="M9.5,19.8l0,0.5c0.3-0.4,0.8-0.6,1.3-0.6c0.9,0,1.4,0.5,1.4,1.5V24h-0.7v-2.8
	c0-0.2-0.1-0.5-0.2-0.7c-0.2-0.2-0.4-0.2-0.6-0.2c-0.2,0-0.4,0.1-0.6,0.2c-0.2,0.1-0.3,0.3-0.4,0.5v3H8.8v-4.3H9.5z"/>
<path id="Path_178" class="st0" d="M15,21.9c0-0.6,0.1-1.1,0.5-1.6c0.3-0.4,0.7-0.6,1.2-0.6c0.5,0,0.9,0.2,1.2,0.5V18h0.7v6H18
	l0-0.5c-0.3,0.4-0.7,0.6-1.2,0.5c-0.5,0-0.9-0.2-1.2-0.6C15.2,23.1,15,22.5,15,21.9L15,21.9z M15.8,22c0,0.4,0.1,0.8,0.3,1.1
	c0.2,0.3,0.5,0.4,0.8,0.4c0.4,0,0.8-0.2,1-0.6v-2c-0.2-0.4-0.6-0.6-1-0.6c-0.3,0-0.6,0.1-0.8,0.4C15.9,21.1,15.7,21.5,15.8,22
	L15.8,22z"/>
<path id="Path_179" class="st0" d="M21.5,24.1c-0.5,0-1-0.2-1.4-0.6c-0.4-0.4-0.6-1-0.5-1.5v-0.1c0-0.4,0.1-0.8,0.2-1.1
	c0.1-0.3,0.4-0.6,0.7-0.8c0.3-0.2,0.6-0.3,0.9-0.3c0.5,0,1,0.2,1.3,0.5c0.3,0.5,0.5,1,0.5,1.6v0.3h-2.9c0,0.4,0.1,0.7,0.4,1
	c0.2,0.3,0.6,0.4,0.9,0.4c0.2,0,0.5,0,0.7-0.2c0.2-0.1,0.3-0.2,0.5-0.4l0.4,0.3C22.8,23.8,22.2,24.2,21.5,24.1z M21.4,20.3
	c-0.3,0-0.6,0.1-0.7,0.3c-0.2,0.3-0.3,0.6-0.4,0.9h2.1v-0.1c0-0.3-0.1-0.6-0.3-0.9C22,20.4,21.7,20.3,21.4,20.3L21.4,20.3z"/>
<path id="Path_180" class="st0" d="M24.8,24h-0.7v-6h0.7V24z"/>
<path id="Path_181" class="st0" d="M26,18.7c0-0.1,0-0.2,0.1-0.3c0.1-0.1,0.2-0.1,0.3-0.1c0.1,0,0.2,0,0.3,0.1
	c0.1,0.1,0.1,0.2,0.1,0.3c0,0.1,0,0.2-0.1,0.3c-0.1,0.1-0.2,0.1-0.3,0.1c-0.1,0-0.2,0-0.3-0.1C26,18.9,26,18.8,26,18.7z M26.8,24
	h-0.7v-4.3h0.7V24z"/>
<path id="Path_182" class="st0" d="M29.3,23.1l1.1-3.3h0.7L29.6,24h-0.6l-1.5-4.3h0.7L29.3,23.1z"/>
<path id="Path_183" class="st0" d="M33.6,24.1c-0.5,0-1-0.2-1.4-0.6c-0.4-0.4-0.6-1-0.5-1.5v-0.1c0-0.4,0.1-0.8,0.2-1.1
	c0.1-0.3,0.4-0.6,0.7-0.8c0.3-0.2,0.6-0.3,0.9-0.3c0.5,0,1,0.2,1.3,0.5c0.3,0.5,0.5,1,0.5,1.6v0.3h-2.9c0,0.4,0.1,0.7,0.4,1
	c0.2,0.3,0.6,0.4,0.9,0.4c0.2,0,0.5,0,0.7-0.2c0.2-0.1,0.3-0.2,0.5-0.4l0.4,0.3C34.9,23.8,34.3,24.2,33.6,24.1z M33.5,20.3
	c-0.3,0-0.6,0.1-0.7,0.3c-0.2,0.3-0.3,0.6-0.4,0.9h2.1v-0.1c0-0.3-0.1-0.6-0.3-0.9C34.1,20.4,33.8,20.3,33.5,20.3L33.5,20.3z"/>
<path id="Path_184" class="st0" d="M38.2,20.4c-0.1,0-0.2,0-0.4,0c-0.4,0-0.8,0.2-1,0.6v3h-0.7v-4.3h0.7l0,0.5
	c0.2-0.4,0.6-0.6,1-0.6c0.1,0,0.2,0,0.3,0.1L38.2,20.4z"/>
<path id="Path_185" class="st0" d="M40.2,23l1-3.2H42l-1.7,4.9c-0.3,0.7-0.7,1.1-1.3,1.1l-0.1,0l-0.3-0.1v-0.6l0.2,0
	c0.2,0,0.4,0,0.6-0.1c0.2-0.1,0.3-0.3,0.3-0.5l0.2-0.4l-1.5-4.2h0.8L40.2,23z"/>
</svg>
