<?xml version="1.0" encoding="utf-8"?>
<!DOCTYPE svg PUBLIC "-//W3C//DTD SVG 1.1//EN" "http://www.w3.org/Graphics/SVG/1.1/DTD/svg11.dtd">
<svg version="1.1" id="Layer_1" xmlns="http://www.w3.org/2000/svg" xmlns:xlink="http://www.w3.org/1999/xlink" x="0px" y="0px" class="Svg__icon" 
	 viewBox="0 0 46 30" enable-background="new 0 0 46 30" xml:space="preserve">
	<g id="Page-1">
		<g id="Visa">
			<rect id="Rectangle-20" y="2.7" fill="#F6F6F6" width="46" height="24"/>
			<g>
				<path fill="#265697" d="M0,6h46c0-0.5,0-2,0-6C43.6,0,12.9,0,0,0V6z"/>
				<path fill="#265697" d="M46,0L46,0"/>
			</g>
			<path id="Rectangle-1_1_" fill="#D97B16" d="M0,24c0,0,0,0,0,6h46v-6H0z"/>
			<path id="Shape" fill="#265697" d="M32.1,8.9c-0.6-0.3-1.7-0.5-2.9-0.5c-3.2,0-5.5,1.7-5.5,4.2c0,1.8,1.6,2.8,2.8,3.4
				c1.3,0.6,1.7,1,1.7,1.6c0,0.8-1,1.2-2,1.2c-1.3,0-2-0.2-3.1-0.7L22.8,18l-0.5,2.9c0.7,0.4,2.2,0.7,3.6,0.7c3.4,0,5.6-1.7,5.7-4.4
				c0-1.4-0.9-2.5-2.7-3.4c-1.1-0.6-1.8-1-1.8-1.6c0-0.5,0.6-1.1,1.9-1.1c1.1,0,1.8,0.2,2.4,0.5l0.3,0.1L32.1,8.9"/>
			<path id="Shape_1_" fill="#265697" d="M40.4,8.6h-2.5c-0.8,0-1.4,0.2-1.7,1.1l-4.8,11.7h3.4c0,0,0.5-1.6,0.7-1.9
				c0.4,0,3.7,0,4.2,0c0.1,0.5,0.4,1.9,0.4,1.9h3L40.4,8.6L40.4,8.6z M36.4,16.8c0.3-0.7,1.3-3.6,1.3-3.6c0,0,0.3-0.8,0.4-1.2
				l0.2,1.1c0,0,0.6,3,0.7,3.7L36.4,16.8L36.4,16.8L36.4,16.8L36.4,16.8z"/>
			<path id="Shape_2_" fill="#265697" d="M17,21.4l2-12.7h3.2l-2,12.7H17z"/>
			<path id="Shape_3_" fill="#265697" d="M14.3,8.6l-3.2,8.7l-0.3-1.8c-0.6-2-2.4-4.2-4.5-5.3l2.9,11.1h3.4l5.1-12.7H14.3"/>
			<path id="Shape_4_" fill="#D97B16" d="M8.2,8.6H2.9l0,0.3c4.1,1,6.8,3.6,7.9,6.7L9.6,9.7C9.4,8.9,8.9,8.6,8.2,8.6"/>
		</g>
	</g>
</svg>
