<?xml version="1.0" encoding="UTF-8" standalone="no"?>
<svg width="160px" height="100px" viewBox="0 0 300 91" version="1.1" xmlns="http://www.w3.org/2000/svg" xmlns:xlink="http://www.w3.org/1999/xlink" xmlns:sketch="http://www.bohemiancoding.com/sketch/ns">
    <!-- Generator: Sketch 3.3.3 (12072) - http://www.bohemiancoding.com/sketch -->
  <g>
    <rect fill="#FFFFFF" width="300" height="91"/>
    <g id="Page-1" stroke="none" stroke-width="1" fill="none" fill-rule="evenodd" sketch:type="MSPage">
        <g id="portwallet" sketch:type="MSLayerGroup" transform="translate(0.000000, -1.000000)">
            <g id="Group" sketch:type="MSShapeGroup">
                <path d="M89.9,33.7 C96.8,40.6 96.8,51.9 89.9,58.8 L71.4,77.4 C64.5,84.3 53.2,84.3 46.3,77.4 L27.8,58.9 C20.9,52 20.9,40.7 27.8,33.8 L46.3,15.3 C53.2,8.4 64.5,8.4 71.4,15.3 L89.9,33.7 L89.9,33.7 Z" id="Shape" fill="#125C2F"></path>
                <path d="M67.4,33.3 C74.3,40.2 74.3,51.5 67.4,58.4 L48.9,76.9 C42,83.8 30.7,83.8 23.8,76.9 L5.3,58.4 C-1.6,51.5 -1.6,40.2 5.3,33.3 L23.8,14.8 C30.7,7.9 42,7.9 48.9,14.8 L67.4,33.3 L67.4,33.3 Z" id="Shape" fill="#23AF4B"></path>
                <g transform="translate(107.000000, 43.000000)" id="Shape" fill="#125C2F">
                    <path d="M1.1,11.2 C1,10.8 0.9,10.4 0.9,10.2 C0.9,9.5 1.3,9.1 2.1,9.1 L6.6,9.1 C7.4,9.1 8,9.3 8.6,9.7 C9.2,10.1 9.6,10.6 9.8,11.2 L13.7,24.1 L17.6,11.2 C18,9.8 18.9,9.1 20.3,9.1 L24.6,9.1 C26,9.1 26.9,9.8 27.3,11.2 L31.2,24.1 L35.1,11.2 C35.3,10.5 35.7,10 36.3,9.7 C36.9,9.3 37.6,9.1 38.3,9.1 L42.8,9.1 C43.6,9.1 44,9.5 44,10.2 C44,10.5 43.9,10.8 43.8,11.2 L36.5,33.3 C36.3,34 35.9,34.5 35.3,34.8 C34.7,35.2 34.1,35.4 33.5,35.4 L30.1,35.4 C29.4,35.4 28.8,35.2 28.2,34.8 C27.6,34.4 27.2,33.9 27,33.3 L22.4,19 L17.8,33.3 C17.6,33.9 17.2,34.4 16.6,34.8 C16,35.2 15.4,35.4 14.7,35.4 L11.3,35.4 C10.6,35.4 10,35.2 9.5,34.8 C8.9,34.4 8.5,33.9 8.3,33.3 L1.1,11.2 L1.1,11.2 Z"></path>
                    <path d="M51.2,33.6 C49.1,32.1 48,30 48,27.4 C48,24.7 49.1,22.6 51.2,21.2 C53.3,19.8 56.1,19 59.4,19 L67.3,19 C67.3,17.1 66.9,15.8 66.1,15.1 C65.3,14.4 63.9,14 62,14 C60,14 58.7,14.5 57.9,15.5 C57.1,16.5 56.1,17 55,17 L51.4,17 C51,17 50.6,16.9 50.3,16.6 C50,16.3 49.9,16 49.9,15.6 C49.9,11 54.3,8.7 63,8.7 C66.8,8.7 69.9,9.5 72.2,11.3 C74.5,13 75.7,15.6 75.7,19.2 L75.7,34.1 C75.7,34.5 75.6,34.9 75.3,35.2 C75,35.5 74.7,35.6 74.2,35.6 L69.6,35.6 C69.2,35.6 68.8,35.5 68.5,35.2 C68.2,34.9 68.1,34.6 68.1,34.2 L68.1,33.5 C65.6,35.3 62.7,36.2 59.3,36.2 C56,35.8 53.3,35.1 51.2,33.6 L51.2,33.6 Z M57.3,25.3 C56.7,25.8 56.3,26.5 56.3,27.4 C56.3,28.3 56.6,29 57.3,29.5 C58,30.1 58.9,30.3 60.2,30.3 C62.7,30.3 65,29.6 67.3,28.1 L67.3,24.4 L60,24.4 C58.8,24.5 58,24.8 57.3,25.3 L57.3,25.3 Z"></path>
                    <path d="M84,33.9 L84,2.4 C84,2 84.1,1.6 84.4,1.3 C84.7,1 85,0.9 85.4,0.9 L90.8,0.9 C91.2,0.9 91.6,1 91.8,1.3 C92.1,1.6 92.2,1.9 92.2,2.4 L92.2,33.9 C92.2,34.3 92.1,34.7 91.8,34.9 C91.5,35.2 91.2,35.3 90.8,35.3 L85.4,35.3 C85,35.3 84.6,35.2 84.4,34.9 C84.2,34.7 84,34.3 84,33.9 L84,33.9 Z"></path>
                    <path d="M100.7,33.9 L100.7,2.4 C100.7,2 100.8,1.6 101.1,1.3 C101.4,1 101.7,0.9 102.1,0.9 L107.5,0.9 C107.9,0.9 108.3,1 108.5,1.3 C108.8,1.6 108.9,1.9 108.9,2.4 L108.9,33.9 C108.9,34.3 108.8,34.7 108.5,34.9 C108.2,35.2 107.9,35.3 107.5,35.3 L102.1,35.3 C101.7,35.3 101.3,35.2 101.1,34.9 C100.8,34.7 100.7,34.3 100.7,33.9 L100.7,33.9 Z"></path>
                    <path d="M119.6,32.3 C117.1,30 115.9,26.6 115.9,22.2 C115.9,17.8 117.1,14.4 119.6,12.1 C122.1,9.7 125.5,8.6 129.9,8.6 C134.3,8.6 137.7,9.7 140.2,12 C142.7,14.3 143.9,17.6 143.9,21.9 L143.9,23.3 C143.9,23.7 143.8,24.1 143.5,24.4 C143.2,24.7 142.9,24.8 142.4,24.8 L124.3,24.8 C124.5,26.8 125,28.2 126,29.1 C127,30 128.5,30.4 130.6,30.4 C132.7,30.4 134.2,29.9 135,29 C135.8,28 136.8,27.6 137.9,27.5 L141.5,27.5 C141.9,27.5 142.3,27.6 142.6,27.9 C142.9,28.2 143,28.5 143,29 C143,33.6 138.6,35.9 129.9,35.9 C125.5,35.8 122,34.7 119.6,32.3 L119.6,32.3 Z M124.3,19.7 L135.5,19.7 C135.3,15.9 133.5,14 129.9,14 C126.4,14 124.5,15.9 124.3,19.7 L124.3,19.7 Z"></path>
                    <path d="M163.3,30.2 L166.6,29.9 L167.5,29.9 C167.9,29.9 168.3,30 168.6,30.3 C168.9,30.6 169,30.9 169,31.4 L169,34 C169,34.4 168.9,34.7 168.6,34.9 C168.3,35.2 168,35.4 167.5,35.4 C165.9,35.7 163.7,35.9 161.1,35.9 C154.2,35.9 150.8,32.3 150.8,25.1 L150.8,2.4 C150.8,2 150.9,1.6 151.2,1.3 C151.5,1 151.8,0.9 152.2,0.9 L157.6,0.9 C158,0.9 158.4,1 158.6,1.3 C158.9,1.6 159,1.9 159,2.4 L159,10.4 L165.7,10.4 C166.1,10.4 166.5,10.5 166.7,10.8 C167,11.1 167.1,11.4 167.1,11.9 L167.1,14.8 C167.1,15.2 167,15.6 166.7,15.9 C166.4,16.2 166.1,16.3 165.7,16.3 L159,16.3 L159,25 C159,26.6 159.4,27.9 160.2,28.8 C161,29.7 162.1,30.2 163.3,30.2 L163.3,30.2 Z"></path>
                </g>
                <g transform="translate(109.000000, 0.000000)" id="Shape" fill="#23AF4B">
                    <path d="M0.9,42.1 L0.9,10.6 C0.9,10.2 1,9.8 1.3,9.5 C1.6,9.2 1.9,9.1 2.3,9.1 L6.9,9.1 C7.3,9.1 7.7,9.2 7.9,9.5 C8.2,9.8 8.3,10.1 8.3,10.6 L8.3,11.3 C10.8,9.5 13.8,8.6 17.1,8.6 C20.4,8.6 23.2,9.8 25.5,12.1 C27.7,14.5 28.9,17.8 28.9,22.2 C28.9,26.6 27.7,30 25.4,32.3 C23.1,34.6 19.9,35.8 16,35.8 C14,35.8 11.7,35.4 9.1,34.6 L9.1,42 C9.1,42.4 9,42.8 8.7,43.1 C8.4,43.4 8.1,43.5 7.7,43.5 L2.3,43.5 C1.9,43.5 1.5,43.4 1.3,43.1 C1.1,42.9 0.9,42.5 0.9,42.1 L0.9,42.1 Z M9.2,29.1 C11.3,29.8 13,30.1 14.4,30.1 C16.6,30.1 18.1,29.5 19.1,28.2 C20,27 20.5,25 20.5,22.2 C20.5,19.5 20.1,17.5 19.2,16.2 C18.3,15 17,14.3 15.3,14.3 C13.6,14.3 11.5,15 9.3,16.5 L9.3,29.1 L9.2,29.1 Z"></path>
                    <path d="M38.2,32.5 C35.7,30.2 34.5,26.8 34.5,22.3 C34.5,17.8 35.7,14.4 38.2,12.1 C40.7,9.8 44.3,8.7 49,8.7 C53.7,8.7 57.3,9.8 59.8,12.1 C62.3,14.4 63.5,17.8 63.5,22.3 C63.5,26.8 62.3,30.2 59.8,32.5 C57.3,34.8 53.7,36 49,36 C44.3,36 40.7,34.8 38.2,32.5 L38.2,32.5 Z M44.3,16 C43.3,17.3 42.8,19.4 42.8,22.2 C42.8,25.1 43.3,27.1 44.3,28.4 C45.3,29.7 46.9,30.4 49,30.4 C51.1,30.4 52.7,29.7 53.7,28.4 C54.7,27.1 55.2,25 55.2,22.2 C55.2,19.4 54.7,17.3 53.7,16 C52.7,14.7 51.1,14.1 49,14.1 C46.8,14.1 45.3,14.7 44.3,16 L44.3,16 Z"></path>
                    <path d="M88.6,15.2 L84.9,15.1 C82.7,15.1 80.7,16.3 78.7,18.7 L78.7,34 C78.7,34.4 78.6,34.8 78.3,35.1 C78,35.4 77.7,35.5 77.3,35.5 L71.9,35.5 C71.5,35.5 71.1,35.4 70.8,35.1 C70.5,34.8 70.4,34.5 70.4,34 L70.4,10.6 C70.4,10.2 70.5,9.8 70.8,9.5 C71.1,9.2 71.4,9.1 71.8,9.1 L77.2,9.1 C77.6,9.1 78,9.2 78.3,9.5 C78.6,9.8 78.7,10.1 78.7,10.6 L78.7,12.1 C80.3,10.9 81.9,10 83.4,9.5 C84.9,8.9 86.9,8.6 89.3,8.6 C89.7,8.6 90.1,8.7 90.4,9 C90.7,9.3 90.8,9.6 90.8,10 L90.8,13.6 C90.8,14 90.7,14.4 90.4,14.7 C90.1,15 89.8,15.1 89.3,15.1 L88.6,15.1 L88.6,15.2 Z"></path>
                    <path d="M109.3,30.2 L112.6,29.9 L113.5,29.9 C113.9,29.9 114.3,30 114.6,30.3 C114.9,30.6 115,30.9 115,31.4 L115,34 C115,34.4 114.9,34.7 114.6,34.9 C114.3,35.2 114,35.4 113.5,35.4 C111.9,35.7 109.7,35.9 107.1,35.9 C100.2,35.9 96.8,32.3 96.8,25.1 L96.8,2.5 C96.8,2.1 96.9,1.7 97.2,1.4 C97.5,1.1 97.8,1 98.2,1 L103.6,1 C104,1 104.4,1.1 104.6,1.4 C104.9,1.7 105,2 105,2.5 L105,10.5 L111.7,10.5 C112.1,10.5 112.5,10.6 112.7,10.9 C113,11.2 113.1,11.5 113.1,12 L113.1,14.9 C113.1,15.3 113,15.7 112.7,16 C112.4,16.3 112.1,16.4 111.7,16.4 L105,16.4 L105,25.2 C105,26.8 105.4,28.1 106.2,29 C107,29.8 108,30.2 109.3,30.2 L109.3,30.2 Z"></path>
                </g>
            </g>
        </g>
    </g>
  </g>
</svg>
