<svg xmlns="http://www.w3.org/2000/svg" width="21" height="21" viewBox="0 0 21 21">
  <path id="Path_437" data-name="Path 437" d="M199.391.677a.833.833,0,0,0-1.42.59V5.709c-4.852.692-6.354,2.591-6.7,2.9-2.269,1.861-3.018,3.97-3.581,6.85a12.916,12.916,0,0,0-.149,4.227v0c0,.012,0,.025.006.037l.177,1.017a.833.833,0,0,0,1.534.286l.53-.883c1.629-2.708,3.288-4.723,5.663-5.555a8.23,8.23,0,0,1,2.517-.333v4.6a.833.833,0,0,0,1.423.587l8.8-8.84a.832.832,0,0,0,0-1.177Zm0,0" transform="translate(-187.435 -0.435)" fill="#fff"/>
</svg>
