<svg xmlns="http://www.w3.org/2000/svg" xmlns:xlink="http://www.w3.org/1999/xlink"  width="182" height="80" viewBox="0 0 182 80">
    <g fill="#ffffff">
        <g>
            <path d="M1.6,34.5c0-1.1-0.1-1.8-0.3-2.6C1,31,0.7,30.4,0,29.9l5-0.8v14.5c0,0.1,0.1,0.3,0.3,0.3s0.3-0.3,0.7-0.7
                c0.4-0.4,0.8-0.8,1.3-1.3c0.5-0.5,1.2-0.9,1.8-1.3c0.8-0.4,1.7-0.7,2.5-0.7c1.4,0,2.5,0.4,3.5,1.1c1,0.7,1.8,1.4,2.2,2.5
                c0.7,1.1,1,2.1,1.3,3.4c0.3,1.3,0.4,2.5,0.4,3.7c0,1.4-0.3,3-0.7,4.5c-0.4,1.4-1,2.6-1.8,3.7c-0.8,1.1-1.8,1.8-3,2.5
                s-2.6,0.9-4.5,0.9c-0.8,0-1.4,0-2-0.1c-0.7-0.1-1.3-0.1-1.8-0.3c-0.7-0.1-1.3-0.1-1.8-0.3c-0.4,0.1-1.2,0.1-2,0.1
                c0-2,0.1-4,0.1-5.8s0-4,0-5.8L1.6,34.5L1.6,34.5z M15.2,48.6c-0.3-1.1-0.5-2-0.9-2.8c-0.4-0.9-1-1.4-1.7-2
                c-0.7-0.5-1.6-0.8-2.5-0.8c-1.7,0-2.9,0.7-3.8,1.8C5.4,46.3,5,48,5,50.2v3.7c0,0.9,0,1.7,0.1,2.6c0.1,0.9,0.3,1.4,0.7,2.1
                s0.8,1.2,1.4,1.4c0.7,0.4,1.6,0.5,2.5,0.5c1.2,0,2.1-0.3,2.9-0.9s1.4-1.3,1.8-2.1c0.4-0.8,0.8-1.8,0.9-2.9c0.1-1.1,0.3-2,0.3-3
                C15.5,50.7,15.4,49.7,15.2,48.6z"/>
            <path d="M24.9,38.1c0-1.1,0-2.1-0.1-3.3c-0.1-1.2-0.4-2-0.9-2.9H30c-0.5,0.8-0.9,1.7-0.9,2.9C29,36,29,36.9,29,38.1v7.2
                c0.5-0.1,1.2-0.4,1.8-0.8c0.7-0.4,1.3-1.1,1.8-1.4c0.7-0.7,1.3-1.3,1.8-2c0.7-0.8,1.3-1.4,1.8-2.1c1.3-1.4,2.2-2.6,3-3.7
                s1.2-1.7,1.2-2.2c0-0.1,0-0.4,0-0.5c0-0.1,0-0.3,0-0.4h5.6c-1.2,1.1-2.1,1.8-3,2.6c-0.9,0.8-1.8,1.7-2.9,2.9l-7.2,7.8l7.7,10.9
                c0.7,0.9,1.3,1.7,2,2.8c0.8,0.9,1.6,1.7,2.1,2.5H40c-0.4,0-0.8-0.1-1-0.4c-0.3-0.3-0.5-0.5-0.8-0.9l-8.4-12.7
                c-0.1-0.1-0.3-0.4-0.4-0.5c-0.1-0.1-0.3-0.3-0.4-0.3c-0.1,0-0.1,0-0.1,0.1s0,0.1,0,0.3v8c0,1.1,0,2.1,0.1,3.3
                c0.1,1.2,0.4,2,0.9,2.9h-6.2c0.5-0.8,0.8-1.7,0.9-2.9c0.1-1.2,0.1-2.1,0.1-3.3L24.9,38.1L24.9,38.1z"/>
            <path d="M59,61.9c-0.3-0.9-0.4-1.4-0.4-2.1c0-0.5-0.1-0.8-0.4-0.8c-0.1,0-0.1,0-0.1,0S58,59,58,59.2c-0.3,0.4-0.7,0.9-0.9,1.3
                c-0.3,0.4-0.7,0.8-1,1.1c-0.4,0.3-0.9,0.5-1.4,0.8c-0.5,0.1-1.3,0.3-2,0.3c-1.7,0-3-0.4-4.1-1.3c-1.2-0.9-1.7-2.1-1.7-4
                c0-1.1,0.3-1.8,0.9-2.6c0.7-0.8,1.3-1.4,2.1-1.8c0.9-0.5,1.8-1.1,2.8-1.4c1-0.4,1.8-0.8,2.6-1.2c0.7-0.3,1.2-0.7,1.7-0.8
                c0.4-0.3,0.8-0.5,1-0.8c0.3-0.3,0.4-0.7,0.5-1.2c0.1-0.4,0.1-1.1,0.1-1.7c0-1.2-0.3-2.1-0.8-2.9c-0.5-0.8-1.6-1.2-2.8-1.2
                c-1.2,0-1.8,0.3-2.2,0.8c-0.4,0.5-0.8,1.1-1,1.4c-0.3,0.5-0.5,1.1-0.8,1.4c-0.3,0.5-0.8,0.8-1.6,0.8c-0.5,0-0.9-0.1-1.3-0.4
                c-0.3-0.3-0.5-0.7-0.5-1.3c0-0.8,0.3-1.4,0.8-2c0.5-0.5,1.2-1.1,2-1.4c0.8-0.4,1.7-0.7,2.6-0.8c1-0.1,1.8-0.3,2.8-0.3
                c0.9,0,1.7,0,2.4,0.1c0.8,0.1,1.4,0.3,1.8,0.7c0.5,0.3,1,0.7,1.3,1.2c0.4,0.5,0.5,1.2,0.5,1.8V54c0,1.4,0,2.8,0.1,4.1
                c0.1,1.3,0.5,2.5,1.2,3.4L59,61.9z M51.7,59c0.7,0.5,1.6,0.8,2.5,0.8c0.7,0,1.3-0.1,1.8-0.4c0.5-0.3,1-0.7,1.3-1.2
                c0.4-0.5,0.7-1.1,0.8-1.6c0.1-0.5,0.3-1.3,0.3-1.8v-4.6l-2.5,1.3c-0.9,0.4-1.7,0.9-2.2,1.2c-0.7,0.4-1.2,0.8-1.7,1.2
                c-0.5,0.4-0.8,0.9-1,1.3c-0.3,0.5-0.4,1.1-0.4,1.6C50.8,57.6,51,58.4,51.7,59z"/>
            <path d="M70.7,46.8c0.5,0.7,1,1.2,1.8,1.6c0.8,0.5,1.6,0.9,2.2,1.4c0.9,0.4,1.7,0.9,2.2,1.4c0.8,0.5,1.3,1.2,1.8,1.8
                c0.5,0.8,0.8,1.6,0.8,2.6c0,1.2-0.3,2.1-0.8,2.9c-0.5,0.9-1.2,1.4-1.8,2c-0.8,0.5-1.7,1.1-2.6,1.3c-1,0.3-1.8,0.4-2.9,0.4
                c-0.9,0-1.8-0.1-2.6-0.3s-1.7-0.4-2.5-0.8c-0.3-0.1-0.4-0.3-0.7-0.4c-0.1-0.1-0.3-0.4-0.3-0.8c0-0.5,0-1.2,0.1-1.6
                c0-0.5,0.1-1.2,0.1-1.7c0.4,0.7,0.8,1.2,1,1.4c0.4,0.5,0.8,0.9,1.2,1.2c0.4,0.4,0.9,0.7,1.6,0.8c0.5,0.1,1.2,0.3,2,0.3
                c1.4,0,2.5-0.4,3.1-1.1c0.8-0.7,1.2-1.6,1.2-3c0-0.9-0.3-1.7-0.7-2.4c-0.5-0.7-1-1.2-1.7-1.6c-0.7-0.5-1.4-0.9-2.2-1.4
                c-0.8-0.4-1.6-0.9-2.2-1.4c-0.7-0.5-1.3-1.2-1.7-1.8c-0.5-0.8-0.7-1.7-0.7-2.9c0-1.7,0.7-3,1.8-3.8c1.3-0.8,2.9-1.2,5.2-1.2
                c0.8,0,1.4,0,2.1,0.1c0.7,0.1,1.4,0.3,2.1,0.4c0,0,0.1,0.1,0.4,0.1c0.1,0,0.3,0.1,0.3,0.3c0,0.4,0,1.1,0,1.4c0,0.7,0,1.2-0.1,1.6
                c-0.5-0.5-0.9-1.1-1.3-1.4c-0.4-0.4-0.8-0.7-1.2-0.9S75.2,41,74.8,41c-0.4-0.1-0.9-0.1-1.4-0.1c-0.9,0-1.7,0.3-2.4,0.7
                c-0.8,0.5-1,1.2-1,2.1C69.9,45.3,70.2,46.1,70.7,46.8z"/>
            <path d="M99.7,56.7c0,0.9,0,1.7,0.1,2.6c0,0.9,0.3,1.6,0.7,2.4h-4.2V48.9c0-0.8,0-1.4-0.1-2.2c-0.1-0.8-0.3-1.4-0.5-2
                c-0.3-0.7-0.8-1.2-1.3-1.4c-0.5-0.4-1.3-0.5-2.2-0.5s-1.7,0.1-2.2,0.5c-0.5,0.4-1,0.9-1.3,1.4c-0.4,0.7-0.5,1.3-0.7,2.1
                c0,0.9,0,1.7,0,2.4v7.5c0,0.9,0,1.7,0.1,2.6c0,0.9,0.4,1.6,0.8,2.4h-5.1c0.4-0.7,0.7-1.4,0.8-2.4c0-0.9,0.1-1.7,0.1-2.6V34.5
                c0-1.1,0-1.8-0.1-2.6c-0.1-0.9-0.5-1.4-1-1.8l4.6-0.8v13.2c0,0.1,0,0.4,0,0.5s0,0.3,0.1,0.3c0.1,0,0.3-0.1,0.5-0.5
                c0.3-0.3,0.7-0.7,1.2-1.1c0.5-0.4,1.2-0.7,1.8-1.1c0.8-0.3,1.7-0.4,2.5-0.4c1.8,0,3.1,0.5,4.2,1.4c1,0.9,1.6,2.5,1.6,4.6
                L99.7,56.7L99.7,56.7z"/>
        </g>
        <g>
            <polygon points="95.3,0 134.6,5.1 125.3,37.6 		"/>
            <path d="M135.9,5.3L165.2,44l-33.7,16.2l-4.2-17c0,0-1.2-6.2,0.7-10.9L135.9,5.3z"/>
            <polygon points="166.3,43.6 155.5,28.5 173.7,25.3 		"/>
            <polygon points="175.2,25.3 182,32.7 172,32.7 		"/>
            <polygon points="137.4,58.9 165.2,45.2 164.3,48.5 		"/>
            <polygon points="125.3,41 113.6,80 131.5,66.2 		"/>
            <polygon points="110.5,21 99.2,6.6 94.9,6.7 		"/>
            <path d="M127.2,40.9c0.1,1.3,0.3,2.1,0.3,2.1l4.2,17l33.7-16.1l-0.3-0.4L127.2,40.9z"/>
        </g>
    </g>
</svg>