<svg xmlns="http://www.w3.org/2000/svg" xmlns:xlink="http://www.w3.org/1999/xlink"  width="26" height="24" viewBox="0 0 26 24">
  <path fill="#ffffff" d="M25.7 6.9c.3.3.3.6.3 1l-1.1 6c0 .3-.2.6-.4.8-.3.2-.5.3-.9.3H7.7l-.3 1.7h15.1c.4 0 .7.1.9.4.3.2.4.6.4.9 0 .4-.1.7-.4.9-.3.2-.6.4-.9.4H5.8c-.4 0-.7-.2-1-.5-.3-.3-.4-.7-.3-1.1l.6-3.7L4 3.5l-3.1-1c-.3-.1-.6-.3-.7-.6C0 1.6 0 1.3.1.9.2.6.4.3.8.1c.3-.1.6-.1.9 0l4 1.2c.3 0 .5.2.6.4.2.2.3.4.3.7l.2 2.1 18 1.9c.4 0 .7.2.9.5M7.8 20c.6 0 1.1.2 1.5.6.4.4.6.8.6 1.4 0 .6-.2 1-.6 1.4-.4.4-.9.6-1.5.6s-1.1-.2-1.5-.6c-.4-.4-.6-.9-.6-1.4s.2-1 .6-1.4c.4-.4.9-.6 1.5-.6M20 20c.6 0 1.1.2 1.5.6.4.4.6.9.6 1.4 0 .6-.2 1-.6 1.4-.4.4-.9.6-1.5.6s-1.1-.2-1.5-.6c-.3-.4-.5-.9-.5-1.4s.2-1 .6-1.4c.4-.4.9-.6 1.4-.6"/>
</svg>