<?xml version="1.0" encoding="utf-8"?>
<!DOCTYPE svg PUBLIC "-//W3C//DTD SVG 1.1//EN" "http://www.w3.org/Graphics/SVG/1.1/DTD/svg11.dtd">
<svg version="1.1" xmlns="http://www.w3.org/2000/svg" xmlns:xlink="http://www.w3.org/1999/xlink" x="0px" y="0px"
	 viewBox="0 0 12 10" enable-background="new 0 0 12 10" xml:space="preserve">
	<path fill="#46C16F" d="M0.1,5.5C0,5.4,0,5.2,0,5.1s0-0.2,0.1-0.3l0.6-0.6C1,4,1.2,4,1.4,4.2l0,0L4,6.9C4.1,7,4.2,7,4.3,6.9l6.2-6.4
		l0,0l0,0c0.2-0.2,0.5-0.2,0.6,0l0.6,0.6c0.2,0.2,0.2,0.5,0,0.6l0,0L4.5,9.5C4.4,9.6,4.3,9.6,4.2,9.6S4,9.6,3.9,9.5L0.2,5.6L0.1,5.5z
		"/>
</svg>
