<?xml version="1.0" encoding="utf-8"?>
<!-- Generator: Adobe Illustrator 18.0.0, SVG Export Plug-In . SVG Version: 6.00 Build 0)  -->
<!DOCTYPE svg PUBLIC "-//W3C//DTD SVG 1.1//EN" "http://www.w3.org/Graphics/SVG/1.1/DTD/svg11.dtd">
<svg version="1.1" id="Layer_1" xmlns="http://www.w3.org/2000/svg" xmlns:xlink="http://www.w3.org/1999/xlink" x="0px" y="0px"
	 viewBox="0 0 800 600" enable-background="new 0 0 800 600" xml:space="preserve">
<rect fill="#E5E5E5" width="800" height="600"/>
<path opacity="0.15" d="M492.9,224.6l-15.3,146c-0.5,5-4.6,8.7-9.5,9l-1.9-40.8l4.4,0.5l12.1-115.8l-128.7-13.4l-1.7,16.2l-10.3,0.5
	l1.9-17.8c0.6-5.6,5.6-9.6,11.1-9l128.7,13.4C489.5,214.1,493.5,219,492.9,224.6 M456.5,236.8l6.7,146.7c0.3,5.6-4.1,10.3-9.7,10.6
	L324.4,400c-5.6,0.3-10.3-4.1-10.6-9.7L307,243.7c-0.3-5.6,4.1-10.3,9.7-10.6l129.2-5.9C451.5,226.9,456.3,231.2,456.5,236.8
	 M322.5,359.5l129.2-5.9l-5.3-116.3l-129.2,5.9L322.5,359.5z M445.1,318.9c-0.2-3.6-1.6-7-4-9.6l-9.1-9.8c-3.2-3-8.2-2.8-11,0.5
	l-16.4,19l-35.7-43.9c-3.1-3.8-8.9-3.7-11.9,0.1l-27.9,36.7c-2.2,2.8-3.2,6.3-3.1,9.9l1.5,32.4l119.1-5.5L445.1,318.9z M424.2,278.8
	c7.7-0.4,13.7-6.9,13.3-14.5c-0.4-7.7-6.9-13.6-14.6-13.3c-7.7,0.4-13.7,6.9-13.3,14.5C410,273.3,416.5,279.2,424.2,278.8"/>
</svg>
