<?xml version="1.0" encoding="utf-8"?>
<svg version="1.1" id="Layer_1" xmlns="http://www.w3.org/2000/svg" xmlns:xlink="http://www.w3.org/1999/xlink" x="0px" y="0px"
	 viewBox="0 0 1200 630" enable-background="new 0 0 1200 630" xml:space="preserve">
<g>
	<defs>
		<rect id="SVGID_1_" width="1199" height="630"/>
	</defs>
	<clipPath id="SVGID_2_">
		<use xlink:href="#SVGID_1_"  overflow="visible"/>
	</clipPath>
	<g clip-path="url(#SVGID_2_)">
		<g>
			<path fill="#3FB567" d="M940.8,220.8l-3.8-1.3c-1.5-0.5-1.5-2.6,0.1-3.1l3.5-1.1c0.5-0.2,0.9-0.5,1.1-1l1.5-4
				c0.6-1.5,2.8-1.4,3.3,0.1l1.3,3.8c0.2,0.5,0.6,0.9,1.1,1.1l4,1.2c1.6,0.5,1.6,2.6,0.1,3.1l-4.2,1.5c-0.5,0.2-0.9,0.6-1.1,1
				l-1.1,3.4c-0.5,1.5-2.7,1.5-3.3,0.1l-1.4-3.6C941.6,221.3,941.3,221,940.8,220.8z"/>
		</g>
		<g>
			<path fill="#3FB567" d="M1043.6,604.2l-3.8-1.3c-1.5-0.5-1.5-2.6,0.1-3.1l3.5-1.1c0.5-0.2,0.9-0.5,1.1-1l1.5-4
				c0.6-1.5,2.8-1.4,3.3,0.1l1.3,3.8c0.2,0.5,0.6,0.9,1.1,1.1l4,1.2c1.6,0.5,1.6,2.6,0.1,3.1l-4.2,1.5c-0.5,0.2-0.9,0.6-1.1,1
				l-1.1,3.4c-0.5,1.5-2.7,1.5-3.3,0.1l-1.4-3.6C1044.4,604.7,1044.1,604.4,1043.6,604.2z"/>
		</g>
		<g>
			<path fill="#F4BA18" d="M1092.5,69.6l-4.6-1.6c-1.9-0.6-1.8-3.2,0.1-3.7l4.2-1.3c0.6-0.2,1.1-0.6,1.3-1.2l1.8-4.8
				c0.7-1.8,3.3-1.7,3.9,0.1l1.5,4.5c0.2,0.6,0.7,1.1,1.3,1.3l4.7,1.4c1.9,0.6,1.9,3.1,0.1,3.7l-5.1,1.8c-0.6,0.2-1.1,0.7-1.3,1.3
				l-1.3,4c-0.6,1.8-3.2,1.8-3.9,0.1l-1.7-4.4C1093.5,70.3,1093.1,69.8,1092.5,69.6z"/>
		</g>
		<g>
			<path fill="#76CBD7" d="M108.1,223.1L102,221c-2.5-0.9-2.4-4.2,0.1-5l5.6-1.7c0.8-0.2,1.5-0.8,1.7-1.6l2.4-6.4
				c0.9-2.4,4.4-2.3,5.2,0.1l2,6c0.3,0.8,0.9,1.4,1.8,1.7l6.3,1.9c2.5,0.8,2.6,4.1,0.1,5l-6.8,2.3c-0.8,0.3-1.4,0.9-1.7,1.7
				l-1.8,5.4c-0.8,2.4-4.3,2.4-5.2,0.1l-2.2-5.8C109.5,224,108.9,223.4,108.1,223.1z"/>
		</g>
		<g>
			<path fill="#3FB567" d="M908.2,17.1L908.2,17.1c0.9,0.8,2.2,1,3.4,0.5c2.5-1.2,4.5,0.3,6.6,2.3c2,2,3.5,3.8,2.2,6.1
				c-0.6,1.1-0.4,2.4,0.5,3.2v0c1.4,1.3,3.7,1,4.6-0.7c2.4-4.4,1.6-9.9-2.2-13.6c-3.9-3.7-9.7-4.4-14.3-2.1
				C907.1,13.6,906.8,15.8,908.2,17.1z"/>
		</g>
		<g>
			<path fill="#EE3E60" d="M1104.7,345.5l-6.7-6.4c-2-1.9-2-5,0-7l6.7-6.4c2-1.9,5.3-1.9,7.3,0l6.7,6.4c2,1.9,2,5,0,7l-6.7,6.4
				C1110,347.4,1106.7,347.4,1104.7,345.5z M1112.5,332.5l-0.8-0.8c-1.8-1.7-4.8-1.7-6.6,0l-0.8,0.8c-1.8,1.7-1.8,4.6,0,6.3l0.8,0.8
				c1.8,1.7,4.8,1.7,6.6,0l0.8-0.8C1114.3,337,1114.3,334.2,1112.5,332.5z"/>
		</g>
		<g>
			<path fill="#EE3E60" d="M524.2,639.8l-6.7-6.4c-2-1.9-2-5,0-7l6.7-6.4c2-1.9,5.3-1.9,7.3,0l6.7,6.4c2,1.9,2,5,0,7l-6.7,6.4
				C529.5,641.8,526.2,641.8,524.2,639.8z M532,626.8l-0.8-0.8c-1.8-1.7-4.8-1.7-6.6,0l-0.8,0.8c-1.8,1.7-1.8,4.6,0,6.3l0.8,0.8
				c1.8,1.7,4.8,1.7,6.6,0l0.8-0.8C533.8,631.4,533.8,628.6,532,626.8z"/>
		</g>
		<g>
			<path fill="#EE3E60" d="M726.4,88.1l7.8-12.9c1-1.6,3.4-1.6,4.4,0l7.8,12.9c1,1.6-0.2,3.6-2.2,3.6h-15.6
				C726.6,91.7,725.4,89.7,726.4,88.1z M740.2,86.6l-2.5-4.1c-0.6-1-2.2-1-2.8,0l-2.5,4.1c-0.2,0.4,0.1,0.9,0.5,0.9h6.7
				C740.2,87.5,740.5,87,740.2,86.6z"/>
		</g>
		<g>
			<path fill="#EE3E60" d="M943.2,447.8L951,435c1-1.6,3.4-1.6,4.4,0l7.8,12.9c1,1.6-0.2,3.6-2.2,3.6h-15.6
				C943.4,451.5,942.2,449.4,943.2,447.8z M957.1,446.3l-2.5-4.1c-0.6-1-2.2-1-2.8,0l-2.5,4.1c-0.2,0.4,0.1,0.9,0.5,0.9h6.7
				C957,447.2,957.3,446.7,957.1,446.3z"/>
		</g>
		<g>
			<path fill="#EE3E60" d="M0.3,16.7L8.1,3.8c1-1.6,3.4-1.6,4.4,0l7.8,12.9c1,1.6-0.2,3.6-2.2,3.6H2.5C0.6,20.3-0.6,18.3,0.3,16.7z
				 M14.2,15.2L11.7,11c-0.6-1-2.2-1-2.8,0l-2.5,4.1c-0.2,0.4,0.1,0.9,0.5,0.9h6.7C14.1,16.1,14.4,15.6,14.2,15.2z"/>
		</g>
		<g>
			<path fill="#F4BA18" d="M643.6,516.4l-2-6.4c-0.8-2.5,0.1-5.2,2.3-6.8l7.1-5.4c2.4-1.8,5.9-1.8,8.3,0l7.1,5.4
				c2.1,1.6,3,4.3,2.3,6.8l-2,6.4c-0.8,2.7-3.4,4.6-6.4,4.6H650C647,521,644.4,519.1,643.6,516.4z M661.6,513.2l1-3.3
				c0.4-1.2-0.1-2.5-1.1-3.2l-4.4-3.3c-1.2-0.9-2.8-0.9-4,0l-4.4,3.3c-1,0.8-1.4,2-1.1,3.2l1,3.3c0.4,1.3,1.6,2.2,3.1,2.2h6.8
				C660,515.4,661.2,514.5,661.6,513.2z"/>
		</g>
		<g>
			<path fill="#F4BA18" d="M1174.6,504.1l-2-6.4c-0.8-2.5,0.1-5.2,2.3-6.8l7.1-5.4c2.4-1.8,5.9-1.8,8.3,0l7.1,5.4
				c2.1,1.6,3,4.3,2.3,6.8l-2,6.4c-0.8,2.7-3.4,4.6-6.4,4.6H1181C1178,508.7,1175.4,506.8,1174.6,504.1z M1192.6,500.9l1-3.3
				c0.4-1.2-0.1-2.5-1.1-3.2l-4.4-3.3c-1.2-0.9-2.8-0.9-4,0l-4.4,3.3c-1,0.8-1.4,2-1.1,3.2l1,3.3c0.4,1.3,1.6,2.2,3.1,2.2h6.8
				C1191,503.1,1192.2,502.2,1192.6,500.9z"/>
		</g>
		<g>
			<path fill="#3FB567" d="M275.5,129.2l-3.8-1.3c-1.5-0.5-1.5-2.6,0.1-3.1l3.5-1.1c0.5-0.2,0.9-0.5,1.1-1l1.5-4
				c0.6-1.5,2.8-1.4,3.3,0.1l1.3,3.8c0.2,0.5,0.6,0.9,1.1,1.1l4,1.2c1.6,0.5,1.6,2.6,0.1,3.1l-4.2,1.5c-0.5,0.2-0.9,0.6-1.1,1
				l-1.1,3.4c-0.5,1.5-2.7,1.5-3.3,0.1l-1.4-3.6C276.4,129.7,276,129.3,275.5,129.2z"/>
		</g>
		<g>
			<path fill="#3FB567" d="M566.3,357.3l-3.8-1.3c-1.5-0.5-1.5-2.6,0.1-3.1l3.5-1.1c0.5-0.2,0.9-0.5,1.1-1l1.5-4
				c0.6-1.5,2.8-1.4,3.3,0.1l1.3,3.8c0.2,0.5,0.6,0.9,1.1,1.1l4,1.2c1.6,0.5,1.6,2.6,0.1,3.1l-4.2,1.5c-0.5,0.2-0.9,0.6-1.1,1
				l-1.1,3.4c-0.5,1.5-2.7,1.5-3.3,0.1l-1.4-3.6C567.1,357.9,566.8,357.5,566.3,357.3z"/>
		</g>
		<g>
			<path fill="#F4BA18" d="M697.3,242.3l-4.6-1.6c-1.9-0.6-1.8-3.2,0.1-3.7l4.2-1.3c0.6-0.2,1.1-0.6,1.3-1.2l1.8-4.8
				c0.7-1.8,3.3-1.7,3.9,0.1l1.5,4.5c0.2,0.6,0.7,1.1,1.3,1.3l4.7,1.4c1.9,0.6,1.9,3.1,0.1,3.7l-5.1,1.8c-0.6,0.2-1.1,0.7-1.3,1.3
				l-1.3,4c-0.6,1.8-3.2,1.8-3.9,0.1l-1.7-4.4C698.4,243,697.9,242.5,697.3,242.3z"/>
		</g>
		<g>
			<path fill="#F4BA18" d="M829.6,563.1l-4.6-1.6c-1.9-0.6-1.8-3.2,0.1-3.7l4.2-1.3c0.6-0.2,1.1-0.6,1.3-1.2l1.8-4.8
				c0.7-1.8,3.3-1.7,3.9,0.1l1.5,4.5c0.2,0.6,0.7,1.1,1.3,1.3l4.7,1.4c1.9,0.6,1.9,3.1,0.1,3.7l-5.1,1.8c-0.6,0.2-1.1,0.7-1.3,1.3
				l-1.3,4c-0.6,1.8-3.2,1.8-3.9,0.1l-1.7-4.4C830.6,563.7,830.2,563.3,829.6,563.1z"/>
		</g>
		<g>
			<path fill="#F4BA18" d="M167.6,33.5l-4.6-1.6c-1.9-0.6-1.8-3.2,0.1-3.7l4.2-1.3c0.6-0.2,1.1-0.6,1.3-1.2l1.8-4.8
				c0.7-1.8,3.3-1.7,3.9,0.1l1.5,4.5c0.2,0.6,0.7,1.1,1.3,1.3l4.7,1.4c1.9,0.6,1.9,3.1,0.1,3.7l-5.1,1.8c-0.6,0.2-1.1,0.7-1.3,1.3
				l-1.3,4c-0.6,1.8-3.2,1.8-3.9,0.1l-1.7-4.4C168.6,34.2,168.2,33.7,167.6,33.5z"/>
		</g>
		<g>
			<path fill="#F4BA18" d="M5.9,367.9l-4.6-1.6c-1.9-0.6-1.8-3.2,0.1-3.7l4.2-1.3c0.6-0.2,1.1-0.6,1.3-1.2l1.8-4.8
				c0.7-1.8,3.3-1.7,3.9,0.1l1.5,4.5c0.2,0.6,0.7,1.1,1.3,1.3l4.7,1.4c1.9,0.6,1.9,3.1,0.1,3.7l-5.1,1.8c-0.6,0.2-1.1,0.7-1.3,1.3
				l-1.3,4c-0.6,1.8-3.2,1.8-3.9,0.1l-1.7-4.4C7,368.5,6.5,368.1,5.9,367.9z"/>
		</g>
		<g>
			<path fill="#F4BA18" d="M336.3,563.1l-4.6-1.6c-1.9-0.6-1.8-3.2,0.1-3.7l4.2-1.3c0.6-0.2,1.1-0.6,1.3-1.2l1.8-4.8
				c0.7-1.8,3.3-1.7,3.9,0.1l1.5,4.5c0.2,0.6,0.7,1.1,1.3,1.3l4.7,1.4c1.9,0.6,1.9,3.1,0.1,3.7l-5.1,1.8c-0.6,0.2-1.1,0.7-1.3,1.3
				l-1.3,4c-0.6,1.8-3.2,1.8-3.9,0.1l-1.7-4.4C337.3,563.7,336.9,563.3,336.3,563.1z"/>
		</g>
		<g>
			<path fill="#76CBD7" d="M796.2,376.8l-6.1-2.1c-2.5-0.9-2.4-4.2,0.1-5l5.6-1.7c0.8-0.2,1.5-0.8,1.7-1.6l2.4-6.4
				c0.9-2.4,4.4-2.3,5.2,0.1l2,6c0.3,0.8,0.9,1.4,1.8,1.7l6.3,1.9c2.5,0.8,2.6,4.1,0.1,5l-6.8,2.3c-0.8,0.3-1.4,0.9-1.7,1.7
				l-1.8,5.4c-0.8,2.4-4.3,2.4-5.2,0.1l-2.2-5.8C797.6,377.6,797,377,796.2,376.8z"/>
		</g>
		<g>
			<path fill="#76CBD7" d="M50.8,597.3l-6.1-2.1c-2.5-0.9-2.4-4.2,0.1-5l5.6-1.7c0.8-0.2,1.5-0.8,1.7-1.6l2.4-6.4
				c0.9-2.4,4.4-2.3,5.2,0.1l2,6c0.3,0.8,0.9,1.4,1.8,1.7l6.3,1.9c2.5,0.8,2.6,4.1,0.1,5l-6.8,2.3c-0.8,0.3-1.4,0.9-1.7,1.7
				l-1.8,5.4c-0.8,2.4-4.3,2.4-5.2,0.1l-2.2-5.8C52.2,598.2,51.6,597.6,50.8,597.3z"/>
		</g>
		<g>
			<path fill="#76CBD7" d="M1192.4,198.7l-6.1-2.1c-2.5-0.9-2.4-4.2,0.1-5l5.6-1.7c0.8-0.2,1.5-0.8,1.7-1.6l2.4-6.4
				c0.9-2.4,4.4-2.3,5.2,0.1l2,6c0.3,0.8,0.9,1.4,1.8,1.7l6.3,1.9c2.5,0.8,2.6,4.1,0.1,5l-6.8,2.3c-0.8,0.3-1.4,0.9-1.7,1.7
				l-1.8,5.4c-0.8,2.4-4.3,2.4-5.2,0.1l-2.2-5.8C1193.8,199.6,1193.2,199,1192.4,198.7z"/>
		</g>
		<g>
			<path fill="#76CBD7" d="M406,34.7l-6.1-2.1c-2.5-0.9-2.4-4.2,0.1-5l5.6-1.7c0.8-0.2,1.5-0.8,1.7-1.6l2.4-6.4
				c0.9-2.4,4.4-2.3,5.2,0.1l2,6c0.3,0.8,0.9,1.4,1.8,1.7l6.3,1.9c2.5,0.8,2.6,4.1,0.1,5l-6.8,2.3c-0.8,0.3-1.4,0.9-1.7,1.7
				l-1.8,5.4c-0.8,2.4-4.3,2.4-5.2,0.1l-2.2-5.8C407.4,35.6,406.8,35,406,34.7z"/>
		</g>
		<g>
			<path fill="#3FB567" d="M173.4,473.5L173.4,473.5c0.9,0.8,2.2,1,3.4,0.5c2.5-1.2,4.5,0.3,6.6,2.3c2,2,3.5,3.8,2.2,6.1
				c-0.6,1.1-0.4,2.4,0.5,3.2v0c1.4,1.3,3.7,1,4.6-0.7c2.4-4.4,1.6-9.9-2.2-13.6c-3.9-3.7-9.7-4.4-14.3-2.1
				C172.4,470,172,472.2,173.4,473.5z"/>
		</g>
		<g>
			<path fill="#3FB567" d="M528.7,140.5L528.7,140.5c0.9,0.8,2.2,1,3.4,0.5c2.5-1.2,4.5,0.3,6.6,2.3c2,2,3.5,3.8,2.2,6.1
				c-0.6,1.1-0.4,2.4,0.5,3.2v0c1.4,1.3,3.7,1,4.6-0.7c2.4-4.4,1.6-9.9-2.2-13.6c-3.9-3.7-9.7-4.4-14.3-2.1
				C527.7,137,527.3,139.2,528.7,140.5z"/>
		</g>
		<g>
			<path fill="#EE3E60" d="M428.7,432.3L422,426c-2-1.9-2-5,0-7l6.7-6.4c2-1.9,5.3-1.9,7.3,0l6.7,6.4c2,1.9,2,5,0,7l-6.7,6.4
				C434,434.3,430.7,434.3,428.7,432.3z M436.5,419.3l-0.8-0.8c-1.8-1.7-4.8-1.7-6.6,0l-0.8,0.8c-1.8,1.7-1.8,4.6,0,6.3l0.8,0.8
				c1.8,1.7,4.8,1.7,6.6,0l0.8-0.8C438.3,423.9,438.3,421.1,436.5,419.3z"/>
		</g>
		<g>
			<path fill="#EE3E60" d="M603,9.8l-6.7-6.4c-2-1.9-2-5,0-7l6.7-6.4c2-1.9,5.3-1.9,7.3,0l6.7,6.4c2,1.9,2,5,0,7l-6.7,6.4
				C608.3,11.8,605,11.8,603,9.8z M610.8-3.2L610-3.9c-1.8-1.7-4.8-1.7-6.6,0l-0.8,0.8c-1.8,1.7-1.8,4.6,0,6.3l0.8,0.8
				c1.8,1.7,4.8,1.7,6.6,0l0.8-0.8C612.6,1.4,612.6-1.4,610.8-3.2z"/>
		</g>
		<g>
			<path fill="#EE3E60" d="M222.4,348.4l7.8-12.9c1-1.6,3.4-1.6,4.4,0l7.8,12.9c1,1.6-0.2,3.6-2.2,3.6h-15.6
				C222.6,352,221.4,350,222.4,348.4z M236.2,346.9l-2.5-4.1c-0.6-1-2.2-1-2.8,0l-2.5,4.1c-0.2,0.4,0.1,0.9,0.5,0.9h6.7
				C236.2,347.8,236.5,347.3,236.2,346.9z"/>
		</g>
		<g>
			<path fill="#F4BA18" d="M387.2,246.5l-2-6.4c-0.8-2.5,0.1-5.2,2.3-6.8l7.1-5.4c2.4-1.8,5.9-1.8,8.3,0l7.1,5.4
				c2.1,1.6,3,4.3,2.3,6.8l-2,6.4c-0.8,2.7-3.4,4.6-6.4,4.6h-10.4C390.6,251.1,388,249.2,387.2,246.5z M405.2,243.3l1-3.3
				c0.4-1.2-0.1-2.5-1.1-3.2l-4.4-3.3c-1.2-0.9-2.8-0.9-4,0l-4.4,3.3c-1,0.8-1.4,2-1.1,3.2l1,3.3c0.4,1.3,1.6,2.2,3.1,2.2h6.8
				C403.6,245.5,404.8,244.6,405.2,243.3z"/>
		</g>
	</g>
</g>
</svg>