<svg xmlns="http://www.w3.org/2000/svg" width="800" height="800" viewBox="0 0 800 800">
  <g id="default-brand-logo" transform="translate(-42 36)">
    <rect id="Rectangle_1" data-name="Rectangle 1" width="800" height="800" transform="translate(42 -36)" fill="#e5e5e5"/>
    <path id="Path_1" data-name="Path 1" d="M492.9,224.6l-15.3,146a10.074,10.074,0,0,1-9.5,9l-1.9-40.8,4.4.5,12.1-115.8L354,210.1l-1.7,16.2-10.3.5,1.9-17.8a10.1,10.1,0,0,1,11.1-9l128.7,13.4a10.2,10.2,0,0,1,9.2,11.2m-36.4,12.2,6.7,146.7a10.164,10.164,0,0,1-9.7,10.6L324.4,400a10.164,10.164,0,0,1-10.6-9.7L307,243.7a10.164,10.164,0,0,1,9.7-10.6l129.2-5.9a10.023,10.023,0,0,1,10.6,9.6m-134,122.7,129.2-5.9-5.3-116.3-129.2,5.9Zm122.6-40.6a15.379,15.379,0,0,0-4-9.6l-9.1-9.8a7.587,7.587,0,0,0-11,.5l-16.4,19-35.7-43.9a7.636,7.636,0,0,0-11.9.1l-27.9,36.7a15.194,15.194,0,0,0-3.1,9.9l1.5,32.4,119.1-5.5Zm-20.9-40.1a13.915,13.915,0,1,0-14.6-13.3,13.94,13.94,0,0,0,14.6,13.3" transform="translate(54.954 64)" opacity="0.15"/>
  </g>
</svg>
