<svg xmlns="http://www.w3.org/2000/svg" x="0" y="0" viewBox="0 0 282.653 347.738">
  <g id="Group_36" data-name="Group 36" transform="translate(-516.654 -176.274)">
    <g id="Group_6" data-name="Group 6" transform="translate(598.078 376.958)">
      <g id="Group_2" data-name="Group 2" transform="translate(46.059)">
        <path id="Path_3" data-name="Path 3" d="M723.723,501.936s22.407-19.148,32.118-12.362c2.7,1.886.048,33.533-2.091,40.943-4.142,14.355-12.492,35.868-28.267,38.507-6.465,1.082-12.014-.968-10.472-7.446,1.808-7.6,4.62-13.137,5.862-20.887a181.81,181.81,0,0,0,2.346-19.813c.239-6.132.788-12.3.2-18.41C723,498.138,724.683,505.909,723.723,501.936Z" transform="translate(-714.751 -488.119)" fill="#dbdcdd"/>
        <path id="Path_4" data-name="Path 4" d="M726.288,525.794l-.055,5.152s24.361-3.513,33.789,5.866l.2-4.712S748.106,520.813,726.288,525.794Z" transform="translate(-718.844 -501.096)" fill="#bbbdbf"/>
        <path id="Path_5" data-name="Path 5" d="M724.886,542.4l-.286,4.557s25.267-.888,32.439,8.172l1.25-4.249C757.394,549.653,754.958,543.9,724.886,542.4Z" transform="translate(-718.262 -507.47)" fill="#bbbdbf"/>
        <path id="Path_6" data-name="Path 6" d="M722.91,558.033l-.7,4.907s18.161,1.077,29.307,9.29l1.971-3.87S747.5,560.857,722.91,558.033Z" transform="translate(-717.408 -513.04)" fill="#bbbdbf"/>
      </g>
      <g id="Group_5" data-name="Group 5" transform="translate(0 67.84)">
        <g id="Group_3" data-name="Group 3" transform="translate(0 50.278)">
          <path id="Path_7" data-name="Path 7" d="M643.179,676.139l5.119-4.476,11.4,2.864s20.167,6.219,20.433,24.212c0,0-1.525,2.008-18.45-5.461C655.384,690.5,643.179,676.139,643.179,676.139Z" transform="translate(-643.179 -671.663)" fill="#dbdcdd"/>
          <path id="Path_8" data-name="Path 8" d="M658.44,692.125s10.868-10.13,19.049-8.652c0,0,12.718,6.756,8.883,21.284A47.612,47.612,0,0,1,658.44,692.125Z" transform="translate(-648.619 -675.82)" fill="#f27321"/>
        </g>
        <g id="Group_4" data-name="Group 4" transform="translate(1.04)">
          <path id="Path_9" data-name="Path 9" d="M644.795,647.325s38.388-30.229,46.3-52.41c0,0,14.664-5.23,21.979,4.677,0,0-18.392,25.5-59.209,53.2Z" transform="translate(-644.795 -593.535)" fill="#dbdcdd"/>
          <path id="Path_10" data-name="Path 10" d="M678.3,645.969s7.294,6.065,9.136,8.75l3.184-2.605s-7.82-6.83-10.26-8.161Z" transform="translate(-656.74 -611.508)" fill="#7b59a4"/>
        </g>
      </g>
    </g>
    <g id="Group_11" data-name="Group 11" transform="translate(516.654 371.327)">
      <g id="Group_7" data-name="Group 7" transform="translate(66.284)">
        <path id="Path_11" data-name="Path 11" d="M671.559,479.37s25.072,12.725,18.73,30.078c-9.349,25.586-49.5,41.805-64.069,33.961-5.972-3.214-9.209-8.408-3.841-12.729,6.3-5.068,12.107-7.813,18.036-13.362A187.924,187.924,0,0,0,654.9,502.606c4.083-4.861,8.444-9.558,11.837-14.925C669.139,483.875,669.826,483.227,671.559,479.37Z" transform="translate(-619.653 -479.37)" fill="#dbdcdd"/>
        <path id="Path_12" data-name="Path 12" d="M679.225,504.225l-3.312,4.177s22.956,13.19,24.718,26.836l3.151-3.725S700.224,513.986,679.225,504.225Z" transform="translate(-639.708 -488.23)" fill="#bbbdbf"/>
        <path id="Path_13" data-name="Path 13" d="M668.2,516.423l-3.124,3.545s21.335,16.564,21.455,28.521l3.716-2.682C690.3,544.232,691.845,536.71,668.2,516.423Z" transform="translate(-635.845 -492.578)" fill="#bbbdbf"/>
        <path id="Path_14" data-name="Path 14" d="M656.552,528.1l-3.687,3.565s14.279,13.665,18.184,27.447l4.065-1.914S674.868,546,656.552,528.1Z" transform="translate(-631.492 -496.739)" fill="#bbbdbf"/>
      </g>
      <g id="Group_10" data-name="Group 10" transform="translate(0 48.491)">
        <g id="Group_8" data-name="Group 8" transform="translate(0 13.183)">
          <path id="Path_15" data-name="Path 15" d="M516.654,575.619l7.024-.414,7.506,9.57s12.547,17.872,1.356,32.753c0,0-2.519.676-11.623-16.163C517.529,595.1,516.654,575.619,516.654,575.619Z" transform="translate(-516.654 -575.205)" fill="#dbdcdd"/>
          <path id="Path_16" data-name="Path 16" d="M517.479,600.483s15.309-1.393,21.062,5c0,0,6.115,13.588-6.231,23.036A49.267,49.267,0,0,1,517.479,600.483Z" transform="translate(-516.948 -584.17)" fill="#f27321"/>
        </g>
        <g id="Group_9" data-name="Group 9" transform="translate(1.443)">
          <path id="Path_17" data-name="Path 17" d="M518.9,568.218s50.556-.377,71.088-13.5c0,0,15.243,4.312,14.943,17.052,0,0-31.144,9.9-82.081,6.664Z" transform="translate(-518.896 -554.72)" fill="#dbdcdd"/>
          <path id="Path_18" data-name="Path 18" d="M565.339,572.195s2.118,9.585,1.922,12.948l4.255-.111s-2.064-10.543-3.215-13.178Z" transform="translate(-535.451 -560.827)" fill="#7b59a4"/>
        </g>
      </g>
    </g>
    <g id="Group_15" data-name="Group 15" transform="translate(602.944 252.598)">
      <path id="Path_19" data-name="Path 19" d="M827.746,346.5l5.192,5.1s-5.819,21.484-16.62,32.057l-5.245-1.821S814.3,357.018,827.746,346.5Z" transform="translate(-707.893 -313.276)" fill="#21201f"/>
      <path id="Path_20" data-name="Path 20" d="M701.99,430.217s-1.22,26.926-2.48,30.605,26.43,38.7,51.873,5.284c0,0,7.25-27.382,8.563-32.522C761.173,428.783,736.821,408.031,701.99,430.217Z" transform="translate(-668.111 -339.535)" fill="#dbdcdd"/>
      <path id="Path_21" data-name="Path 21" d="M657.623,317.488S730.447,294.3,777.988,332.3c0,0-15.182,45.084-34.867,63.855l-55.385-3.763s-18.163-36.927-20.583-45.282S657.623,317.488,657.623,317.488Z" transform="translate(-653.194 -300.438)" fill="#dbdcdd"/>
      <path id="Path_22" data-name="Path 22" d="M651.529,325.513l6.871-1.647s13.576,12.7,10.217,35.555l-6.1.951S647.14,342.28,651.529,325.513Z" transform="translate(-650.741 -305.209)" fill="#21201f"/>
      <path id="Path_23" data-name="Path 23" d="M661.091,316.8s20.9,15.069,12.012,42.193l38.441,3.287,1.453,20.3,7.84.735-16.178,56.12s8.414,3.959,16.023.776l15.237-55.556,5.893.611,7.6-20.169,14.8,1.972s12.85-27.12,15.014-34.73C779.224,332.335,736.277,296.535,661.091,316.8Z" transform="translate(-654.43 -300.475)" fill="#ebe8ea"/>
      <path id="Path_24" data-name="Path 24" d="M673.9,320.9l1.886,2.54,13.7-1.93-2.3-3.327Z" transform="translate(-658.998 -303.182)" fill="#c6b1d6"/>
      <path id="Path_25" data-name="Path 25" d="M817.773,331.552l-.58,3.466,12.438,4.762.453-2.493Z" transform="translate(-710.075 -307.948)" fill="#c6b1d6"/>
      <path id="Path_26" data-name="Path 26" d="M711.534,337.567l3.192-2.856s31.859,22.416,56.033,4.354l2.312,2.846S754.431,368.078,711.534,337.567Z" transform="translate(-672.411 -309.075)" fill="#c6b1d6"/>
      <path id="Path_27" data-name="Path 27" d="M755.85,424.772l3.478.3L745.14,477.184l-3.753-.381Z" transform="translate(-683.053 -341.178)" fill="#c6b1d6"/>
      <path id="Path_28" data-name="Path 28" d="M758.821,404.227l12.247,1.268s-1.392,2.868-6.217,4.5A11.986,11.986,0,0,1,758.821,404.227Z" transform="translate(-689.268 -333.855)" fill="#7b59a4"/>
      <path id="Path_29" data-name="Path 29" d="M764.657,407.044l5.316.5-2.825,1.9Z" transform="translate(-691.348 -334.859)" fill="#c6b1d6"/>
      <path id="Path_30" data-name="Path 30" d="M679.756,385.8l38.441,3.286,1.453,20.3,7.84.735-.834,2.828-8.973-.777-1.908-21.186-34.91-2.715Z" transform="translate(-661.084 -327.286)" fill="#c6b1d6"/>
      <path id="Path_31" data-name="Path 31" d="M776.946,414.844l-.76,2.839,7.308.683,8.657-21.259,12.361,1.738.832-1.546-14.9-2.013-7.6,20.169Z" transform="translate(-695.458 -330.667)" fill="#c6b1d6"/>
      <g id="Group_12" data-name="Group 12" transform="translate(60.24 76.001)">
        <circle id="Ellipse_2" data-name="Ellipse 2" cx="2.349" cy="2.349" r="2.349" fill="#7b59a4"/>
        <circle id="Ellipse_3" data-name="Ellipse 3" cx="1.306" cy="1.306" r="1.306" transform="translate(1.042 1.042)" fill="#dbdcdd"/>
        <circle id="Ellipse_4" data-name="Ellipse 4" cx="0.713" cy="0.713" r="0.713" transform="translate(1.635 1.635)" fill="#c6b1d6"/>
      </g>
      <g id="Group_13" data-name="Group 13" transform="translate(83.106 78.368)">
        <circle id="Ellipse_5" data-name="Ellipse 5" cx="2.349" cy="2.349" r="2.349" fill="#7b59a4"/>
        <circle id="Ellipse_6" data-name="Ellipse 6" cx="1.306" cy="1.306" r="1.306" transform="translate(1.042 1.042)" fill="#dbdcdd"/>
        <circle id="Ellipse_7" data-name="Ellipse 7" cx="0.713" cy="0.713" r="0.713" transform="translate(1.635 1.635)" fill="#c6b1d6"/>
      </g>
      <path id="Path_32" data-name="Path 32" d="M695.573,306.609s26.411,22.924,51.136,20.06S773.268,315.1,773.268,315.1l.833-5.037s-36.079-25.733-76.894-10.221Z" transform="translate(-666.722 -294.874)" fill="#7b59a4"/>
      <path id="Path_33" data-name="Path 33" d="M711.915,301.708c8.17-1.968,31.75-5.613,59.5,8.488a1.4,1.4,0,0,1-.044,2.521c-7.081,3.275-29.2,10.468-59.864-8.457A1.4,1.4,0,0,1,711.915,301.708Z" transform="translate(-672.166 -296.623)" fill="#21201f"/>
      <g id="Group_14" data-name="Group 14" transform="translate(70.587 59.248)">
        <path id="Path_34" data-name="Path 34" d="M762.622,394.347a2.431,2.431,0,0,1-1.884-.663,2.706,2.706,0,0,1-.2-2.155l.048-.24a3.674,3.674,0,0,1,.982-2.147,3.012,3.012,0,0,1,2.04-.5l.191.006q.245.009.988.086a.186.186,0,0,0,.239-.162l.254-1.207a.481.481,0,0,1,.533-.42l.571.019a.373.373,0,0,1,.313.149.416.416,0,0,1,.052.352l-1.149,5.372a2.16,2.16,0,0,1-.39.92,1.541,1.541,0,0,1-.817.48,5.1,5.1,0,0,1-1.474.124Zm.382-1.3a2.943,2.943,0,0,0,.731-.051.543.543,0,0,0,.328-.176.919.919,0,0,0,.156-.4l.408-1.945q.074-.332-.208-.414a3.224,3.224,0,0,0-.766-.109l-.137,0a1.279,1.279,0,0,0-.969.262,2.346,2.346,0,0,0-.459,1.133l-.051.243a1.768,1.768,0,0,0-.011,1.142q.176.3.851.32Z" transform="translate(-760.427 -386.94)" fill="#c6b1d6"/>
        <path id="Path_35" data-name="Path 35" d="M771.707,397.289a7.135,7.135,0,0,1-1.836-.262.46.46,0,0,1-.364-.6l.064-.339a.473.473,0,0,1,.524-.409q.053,0,.641.174a4.488,4.488,0,0,0,1.127.191l.085,0a1.982,1.982,0,0,0,.889-.12.714.714,0,0,0,.372-.52.26.26,0,0,0,0-.2c-.027-.037-.094-.053-.2-.05a5.929,5.929,0,0,1-.807.038l-.169-.005a2.4,2.4,0,0,1-1.845-.661,2.316,2.316,0,0,1-.21-1.991l.051-.239a3.308,3.308,0,0,1,.966-1.951,3.156,3.156,0,0,1,2.041-.461l.254.008a3.27,3.27,0,0,1,1.895.459,1.165,1.165,0,0,1,.331,1.217l-.749,3.617a2.581,2.581,0,0,1-.908,1.7,3.313,3.313,0,0,1-1.969.406Zm2.038-5.984a2.728,2.728,0,0,0-.719-.109l-.129,0a1.464,1.464,0,0,0-1,.228,1.844,1.844,0,0,0-.442,1.01l-.04.19a1.392,1.392,0,0,0,.034,1q.185.258.9.281l.14,0a2.984,2.984,0,0,0,.789-.06.483.483,0,0,0,.391-.414l.33-1.522a.76.76,0,0,0,.013-.4A.384.384,0,0,0,773.744,391.305Z" transform="translate(-763.658 -387.989)" fill="#c6b1d6"/>
      </g>
    </g>
    <g id="Group_19" data-name="Group 19" transform="translate(707.165 256.895)">
      <g id="Group_16" data-name="Group 16" transform="translate(0 26.766)">
        <path id="Path_36" data-name="Path 36" d="M832.069,343.144s-8.148,29.251-19.378,38.424c0,0,15.04,12.678,19.648,21.486,4.622,8.835,16.242,22.832,23.207,11.48S861.793,364.645,832.069,343.144Z" transform="translate(-812.691 -343.144)" fill="#dcdcdb"/>
        <path id="Path_37" data-name="Path 37" d="M855.22,372.941s-19.647,9.358-28.176,26.442l-3.529-3.213s9.456-18.522,26.5-31.291A52.7,52.7,0,0,1,855.22,372.941Z" transform="translate(-816.55 -350.892)" fill="#664d9c"/>
        <path id="Path_38" data-name="Path 38" d="M851.383,353.157l-5.8,8.565,2.7,2.214,5.482-8.477Z" transform="translate(-824.416 -346.713)" fill="#cbbed8"/>
      </g>
      <path id="Path_39" data-name="Path 39" d="M846.566,426.917s-1.178-14.5,10.984-18.995a17.784,17.784,0,0,1,22.167,9.506c2.326,5.083,2.81,11.549-3.094,18.282C863.47,450.71,847.045,435.929,846.566,426.917Z" transform="translate(-824.755 -339.091)" fill="#664d9c"/>
      <g id="Group_17" data-name="Group 17" transform="translate(24.662 38.82)">
        <path id="Path_40" data-name="Path 40" d="M884.413,368.213S872,384.251,861.362,392.688s-12.23,20-8.574,25.1,9.188,8.856,17.928,8.3S894.284,404.059,901,370.852A66.744,66.744,0,0,1,884.413,368.213Z" transform="translate(-851.013 -364.134)" fill="#dcdcdb"/>
        <path id="Path_41" data-name="Path 41" d="M902.946,361.964a21.454,21.454,0,0,1-1.972,2.9c-.612.571,3.425,6.684,9.834,8.486s8.782-1.776,8.782-1.776.99-2.56.683-3.338C920.274,368.233,912.286,360.994,902.946,361.964Z" transform="translate(-868.801 -361.875)" fill="#664d9c"/>
      </g>
      <g id="Group_18" data-name="Group 18" transform="translate(57.822)">
        <path id="Path_42" data-name="Path 42" d="M935.786,310.564c2.281-4.466,3.412-8.847-1.057-9.008-4.182-.149-6.967,4.4-9.083,7.379a56.877,56.877,0,0,0-3.849,5.824c-1.167,1.9-5.462,9-6.212,11.1-.4,1.132-.6,2.568.278,3.388a2.87,2.87,0,0,0,1.9.613,10.6,10.6,0,0,0,7.437-3.283,14.831,14.831,0,0,0,3.624-4.41C929.493,321.043,933.727,314.594,935.786,310.564Z" transform="translate(-907.068 -301.552)" fill="#f27321"/>
        <path id="Path_43" data-name="Path 43" d="M921.571,352.072a10.674,10.674,0,0,1-14.856,2.676c-4.841-3.363-5.3-9.764-1.932-14.606A10.47,10.47,0,0,1,919.5,337.67C924.343,341.033,924.934,347.23,921.571,352.072Z" transform="translate(-902.564 -313.722)" fill="#c35126"/>
        <path id="Path_44" data-name="Path 44" d="M930.622,359.792c-2.334,4.608-12.159,3.746-16.76.55s-4.5-4.854-1.254-9.521a10.216,10.216,0,0,1,14.2-2.664C931.409,351.354,933.865,355.125,930.622,359.792Z" transform="translate(-905.299 -317.527)" fill="#c35126"/>
        <path id="Path_45" data-name="Path 45" d="M928.5,352.895l-22.816-11.518,11.7-16.47,14.315,9.944,4.4,7.1Z" transform="translate(-903.661 -309.877)" fill="#c35126"/>
        <path id="Path_46" data-name="Path 46" d="M947.606,351.147c-2.22,3.664-5.865,5.516-8.692,3.8s-2.018-4.87.2-8.535,5.009-6.447,7.836-4.734S949.826,347.484,947.606,351.147Z" transform="translate(-914.861 -315.673)" fill="#f27321"/>
        <path id="Path_47" data-name="Path 47" d="M939.687,340.567c-2.837,4.085-6.632,6.359-9.59,4.3s-1.458-6.081,1.38-10.165,5.939-6.682,8.9-4.627S942.525,336.482,939.687,340.567Z" transform="translate(-911.789 -311.464)" fill="#f27321"/>
        <path id="Path_48" data-name="Path 48" d="M922,348.624c1.767-2.543,2.354-8.47-1.747-11.319a12.139,12.139,0,0,0-11.1-1.16,11.011,11.011,0,0,0-5.99,7.048c-1.459,4.652-.3,8.65,3.133,9.728,2.834.889,7.465.4,8.724-5.714C918.286,348.736,920.649,350.568,922,348.624Z" transform="translate(-902.541 -313.584)" fill="#f27321"/>
        <path id="Path_49" data-name="Path 49" d="M929.369,329.48s-.125-.1-1.382.579c-.741.4-2.3.965-6.139.261a10.171,10.171,0,0,0-5.092.016c.907-1.277,3.645-5.006,5.58-8.261Z" transform="translate(-907.608 -308.868)" fill="#f27321"/>
      </g>
    </g>
    <g id="Group_32" data-name="Group 32" transform="translate(621.711 176.274)">
      <g id="Group_22" data-name="Group 22" transform="translate(9.605 12.084)">
        <path id="Path_50" data-name="Path 50" d="M812.8,245.745s8.4,15.725-8.26,35.49l-8-5.3,11.544-30.867Z" transform="translate(-731.082 -212.882)" fill="#ebe8ea"/>
        <g id="Group_21" data-name="Group 21">
          <path id="Path_51" data-name="Path 51" d="M700.838,222.525s9.674-30.285,43.608-27.262,38.348,28.43,27.49,46.266c0,0,1.773,16.188-5.45,23.053s-46.008-2.4-46.008-2.4-18.065-7.63-18.225-7.739-.654-19.018-.654-19.018S702.518,225.514,700.838,222.525Z" transform="translate(-696.97 -195.051)" fill="#919395"/>
          <g id="Group_20" data-name="Group 20" transform="translate(0 59.58)">
            <path id="Path_52" data-name="Path 52" d="M766.963,306.288s-5.9,3.5-16.61,2.989-55.253-8.018-55.253-8.018l-.272-9.966s37.351-11.666,72.7,6.673Z" transform="translate(-694.828 -287.634)" fill="#664c9c"/>
            <path id="Path_53" data-name="Path 53" d="M766.322,298.805s-31.7-16.8-68.265-5.876C698.057,292.929,753.446,305.931,766.322,298.805Z" transform="translate(-695.979 -288.206)" fill="#21201f"/>
          </g>
        </g>
      </g>
      <g id="Group_29" data-name="Group 29" transform="translate(3.062 10.754)">
        <path id="Path_54" data-name="Path 54" d="M781.058,258.148c-.516,1.061-2.069,1.7-3.255,2.082-.772,6.021-2.732,6.973-3.293,7.058a10.348,10.348,0,0,0,4.3,1.156,7.753,7.753,0,0,0,6.864-3.023,13.435,13.435,0,0,1,.825-3.078,13.435,13.435,0,0,0-.825,3.078,10.01,10.01,0,0,0,1.7-3.933c.725-3.373-.878-6.85-2.264-9.083a7.219,7.219,0,0,1-1.174.188,7.219,7.219,0,0,0,1.174-.188,20.146,20.146,0,0,0-1.725-2.4,20.146,20.146,0,0,1,1.725,2.4c5.165-1.269,5.009-9.2-.272-11.972-4.405-2.31-6.919,2.764-7.728,4.558l.068.07C779.775,247.823,783.49,253.151,781.058,258.148Z" transform="translate(-716.689 -209.687)" fill="#fcd1b7"/>
        <path id="Path_55" data-name="Path 55" d="M721,271.33a31.052,31.052,0,0,0-11.456-9.125,12.719,12.719,0,0,1-7.439-10.627c-.3-4.182,5.706-14.391,8.006-18.2a11.312,11.312,0,0,0,1.254-6.984,40.8,40.8,0,0,0-7.285,6.134c-.288.305-.568.658-.854.979.148-.207.284-.393.391-.527-2.055,2.279-12.767,15.644-17.241,17.011a12.154,12.154,0,0,0,5.635,1.927c.227.018.447.033.668.048-1.29,1.932-5.034,7.293-8.021,9.1a9.958,9.958,0,0,0,8.011-.355,19.34,19.34,0,0,0-1.478,8.256v.068a13.769,13.769,0,0,1,6.231-3.529c.779,2.33,1.975,6.545,1.438,9.1,1.427-1.075,4.191-3.382,5.052-5.652a87.819,87.819,0,0,0,18.972,6.251A11.318,11.318,0,0,0,721,271.33Z" transform="translate(-684.661 -204.894)" fill="#fcd1b7"/>
        <path id="Path_56" data-name="Path 56" d="M774.609,244.635a8.457,8.457,0,0,1,1.335.936A4.7,4.7,0,0,0,774.609,244.635Z" transform="translate(-716.724 -211.396)" fill="#f27321"/>
        <path id="Path_57" data-name="Path 57" d="M801.235,226.187c-3.056-.375-7.127,1.154-9.462,2.193a34.957,34.957,0,0,1,3.115,3.522,60.109,60.109,0,0,1,4.587,7.018,16.851,16.851,0,0,0,.93-1.523C802.55,233.481,804.828,226.628,801.235,226.187Z" transform="translate(-722.843 -204.799)" fill="#f27321"/>
        <g id="Group_23" data-name="Group 23" transform="translate(17.128 13.259)">
          <path id="Path_58" data-name="Path 58" d="M713.327,237.744c-.012-.045-.02-.084-.032-.129l0,0C713.284,237.582,713.336,237.78,713.327,237.744Z" transform="translate(-711.995 -222.152)" fill="#f27321"/>
          <path id="Path_59" data-name="Path 59" d="M712.648,215.046s-3.038,2.717-.071,14.005a40.34,40.34,0,0,1,7.383-6.236,37.489,37.489,0,0,1,7.229-3.919C724.727,216.883,716.615,210.834,712.648,215.046Z" transform="translate(-711.276 -213.588)" fill="#f27321"/>
        </g>
        <path id="Path_60" data-name="Path 60" d="M811.156,264.6l-.438-.25c-3.291-1.881-9.43-17.965-11.555-23.756a16.878,16.878,0,0,1-.93,1.523,60.106,60.106,0,0,0-4.587-7.018c.21,1.658,1.079,4.529,3.592,9.531a32.521,32.521,0,0,1,2.943,20.9c-.974,6.1-8.934,10.15-8.934,10.15a6.513,6.513,0,0,0-2.957,3.236,29.558,29.558,0,0,0,2.874-.87,34.849,34.849,0,0,1,4.187-.866c1.994-.217,5.749,2.6,7.553,4.061-.259-1.271-.561-2.882-.907-4.943-1.257-7.481.659-5.982.659-5.982a34.448,34.448,0,0,1,3.854,3.97c.8-3.158.062-7.533-.346-9.469A23.327,23.327,0,0,0,811.156,264.6Z" transform="translate(-721.6 -207.997)" fill="#fcd1b7"/>
        <path id="Path_61" data-name="Path 61" d="M761.772,265.084s.044,0,.108-.014a6.85,6.85,0,0,1-.991-.623,6.85,6.85,0,0,0,.991.623c.561-.084,3.382-1.5,4.154-7.523-4.4,1.425-9.752-.961-11.085-5.056.788-4.89,2.347-8.235,3.821-10.149-2.108-6.177-5.724-8.056-7.121-8.567a2.645,2.645,0,0,0-1.049-.153c-8.352.461-12.2,6.7-11.423,9.926.51,2.117,3.815,3.914,6.11,4.929a7.855,7.855,0,0,1,1.1-1.161,7.855,7.855,0,0,0-1.1,1.161c1.271.562,2.236.887,2.236.887s-.965-.326-2.236-.887c-1.114,1.4-1.912,3.476-1.611,7.439a13.064,13.064,0,0,0,2.567,5.848C747.844,263.575,753.056,268.009,761.772,265.084Z" transform="translate(-704.059 -207.469)" fill="#fcd1b7"/>
        <path id="Path_62" data-name="Path 62" d="M769.956,238.172c-2.513-5-3.381-7.872-3.592-9.531a34.964,34.964,0,0,0-3.115-3.522,27.232,27.232,0,0,0-14.544-7.56,36.9,36.9,0,0,0-9.77-.436,31.469,31.469,0,0,0-10.7,2.218,37.618,37.618,0,0,0-7.2,3.7,11.313,11.313,0,0,1-1.254,6.984c-2.3,3.809-8.3,14.018-8.006,18.2a12.719,12.719,0,0,0,7.439,10.627,31.051,31.051,0,0,1,11.456,9.125,11.319,11.319,0,0,1,1.885,3.873,115.853,115.853,0,0,0,11.639,1.909l.065.006a21.8,21.8,0,0,1-9.17-6.834c-1.392-2.083-.118-9.316-.024-13.268a14.806,14.806,0,0,1-.989-3.433c-.3-3.964.366-6.279,1.48-7.681-2.295-1.015-5.6-2.812-6.11-4.929-.732-3.039,2.733-8.7,10.111-9.734a5.39,5.39,0,0,1,3.933.931,14.964,14.964,0,0,1,5.159,7.665c.406-.33.692-.866,1.107-1.079,1.013-.52,1.7-.965,2.458-.624a4.689,4.689,0,0,1,1.335.936,14.59,14.59,0,0,1,1.194,1.129c.809-1.794,3.323-6.868,7.728-4.558,5.282,2.77,4.613,10.852-.552,12.121,1.385,2.233,2.847,4.956,2.322,8.366-.212,1.382-.835,3.932-2,4.978-.458,3.074-.675,7.027-1.42,9.269a11.76,11.76,0,0,1-4.534,6.366c1.01-.142,2.042-.317,3.081-.537a15.074,15.074,0,0,0,1.652-.389,6.755,6.755,0,0,1,2.957-3.236s7.96-4.048,8.934-10.15A32.522,32.522,0,0,0,769.956,238.172Z" transform="translate(-694.32 -201.538)" fill="#f27321"/>
        <path id="Path_63" data-name="Path 63" d="M774.094,284.026a31.747,31.747,0,0,0,.625-8.017c-1.791,2.411-3.627,3.518-6.024,3.383a10.348,10.348,0,0,1-4.3-1.156c-.064.01-.108.014-.108.014a14.249,14.249,0,0,1-17.69-7.7c-.1,3.952-1.32,12.581.68,15.829s4.3,4.995,8.683,6.545a96.956,96.956,0,0,0,14.241-.71C772.781,290.563,773.815,285.77,774.094,284.026Z" transform="translate(-706.577 -220.634)" fill="#fcd1b7"/>
        <g id="Group_24" data-name="Group 24" transform="translate(39.555 52.262)">
          <path id="Path_64" data-name="Path 64" d="M775.252,283.346a1.738,1.738,0,0,1-.475.181A1.432,1.432,0,0,0,775.252,283.346Z" transform="translate(-756.339 -277.457)" fill="none"/>
          <path id="Path_65" data-name="Path 65" d="M746.511,274.2c-.479,5.982-.781,10.961.787,13.471a17.871,17.871,0,0,0,9.29,7.212A28.957,28.957,0,0,0,762.8,296.3c2.622.276,4.054-.57,5.977-1.786a11.175,11.175,0,0,0,4.668-5.988,49.974,49.974,0,0,0,1.525-11.2Z" transform="translate(-746.125 -274.195)" fill="#fcd1b7"/>
        </g>
        <path id="Path_66" data-name="Path 66" d="M749.61,227.64c-3.512,1.091-7.016,5.946-7.016,5.946,7.757-5.923,13.831-2.021,13.831-2.021a9.3,9.3,0,0,0-2.377-3.119A21.474,21.474,0,0,1,749.61,227.64Z" transform="translate(-705.312 -205.338)" fill="#603813"/>
        <path id="Path_67" data-name="Path 67" d="M790.139,265.442s2.149-2.447,6.409-1.3c0,0-3.994-.651-6.041,1.569C790.507,265.706,790.109,265.919,790.139,265.442Z" transform="translate(-722.259 -218.239)" fill="#603813"/>
        <path id="Path_68" data-name="Path 68" d="M791.973,270.61s3.422-1.705,7.544,1.429c0,0-4.052-2.481-7.262-.978C792.255,271.061,791.729,271.115,791.973,270.61Z" transform="translate(-722.891 -220.49)" fill="#603813"/>
        <path id="Path_69" data-name="Path 69" d="M789.55,275.444a4.166,4.166,0,0,1,3.795,3.13s-1.2-2.7-3.848-2.776C789.5,275.8,789.157,275.67,789.55,275.444Z" transform="translate(-721.982 -222.378)" fill="#603813"/>
        <path id="Path_70" data-name="Path 70" d="M756.743,244.847s.53-6.034-2.831-7.945a6.373,6.373,0,0,0-4.207-.275,9.355,9.355,0,0,0-4.567,3.781c-1.653,2.712,2.541,7.332,5.9,7.107C756.625,247.141,756.743,244.847,756.743,244.847Z" transform="translate(-706.087 -208.462)" fill="#fff"/>
        <path id="Path_71" data-name="Path 71" d="M781.932,247.99s.807-4.238,3.024-4.978a3.238,3.238,0,0,1,2.518.309c.84.507,1.434,2.257,1.909,3.63,1.158,2.277-2.416,4.392-4.428,3.635C781.605,249.327,781.932,247.99,781.932,247.99Z" transform="translate(-719.331 -210.771)" fill="#fff"/>
        <circle id="Ellipse_8" data-name="Ellipse 8" cx="2.276" cy="2.276" r="2.276" transform="translate(41.192 30.69)" fill="#603813"/>
        <circle id="Ellipse_9" data-name="Ellipse 9" cx="0.818" cy="0.818" r="0.818" transform="translate(41.999 31.019)" fill="#fff"/>
        <circle id="Ellipse_10" data-name="Ellipse 10" cx="1.607" cy="1.607" r="1.607" transform="translate(63.729 34.053)" fill="#603813"/>
        <circle id="Ellipse_11" data-name="Ellipse 11" cx="0.536" cy="0.536" r="0.536" transform="translate(64.385 34.27)" fill="#fff"/>
        <path id="Path_72" data-name="Path 72" d="M781.547,239.058s5.849-2.272,9.275,2.366C790.822,241.424,786.224,231.941,781.547,239.058Z" transform="translate(-719.197 -208.464)" fill="#603813"/>
        <path id="Path_73" data-name="Path 73" d="M779.134,207.769a17.275,17.275,0,0,1-6.187-.755,12.734,12.734,0,0,0,4.391-5.111c1.581-3.171,1.992-4.929,2-5.9-2.961,2.469-9.992,4.126-13.5,4.828a27.7,27.7,0,0,0,2.925-5.865,4.369,4.369,0,0,0,.285-1.981c-3.474,3.715-18.8,7.766-23.331,8.9.719-4.244,1.878-6.395,2.713-7.437-4,.129-6.539,4.487-7.539,6.613a8.006,8.006,0,0,0-5.46-2.375c2.461,2.361,3.222,3.931,3.372,4.893-3.521,3.122-3.556,6.17-3.279,7.66.566-.225,1.277-.489,1.843-.7a13.849,13.849,0,0,0,2.19,3.156,15.2,15.2,0,0,0,7.181,4.424h0a21.52,21.52,0,0,0,4.437.808c.441.034.855.054,1.236.064-1.765-1.178-2.579-4.262-2.931-6.3a50.084,50.084,0,0,1,7.692,1.125c5.327,1.147,10.485,4.41,12.661,5.915a10.524,10.524,0,0,0-2.591-5.27c4.987,2.312,6.315,4.65,6.666,5.748a10.226,10.226,0,0,0,.34-2.868,9.321,9.321,0,0,0-2.168-5.55A9.74,9.74,0,0,0,779.134,207.769Z" transform="translate(-702.757 -192.984)" fill="#3b2f2c"/>
        <path id="Path_74" data-name="Path 74" d="M725.7,222.23s-6.647-5.251-8.058-3.431c-1.842,2.376.669,8.462.669,8.462S723.563,223.066,725.7,222.23Z" transform="translate(-696.178 -202.05)" fill="#603813"/>
        <path id="Path_75" data-name="Path 75" d="M795.58,232.042s4.587-1.983,6.2-1.029-2.514,6.944-2.514,6.944a52.33,52.33,0,0,0-3.722-5.239Z" transform="translate(-724.187 -206.448)" fill="#603813"/>
        <path id="Path_76" data-name="Path 76" d="M742.118,252.746s-7.372-3.63-6.279-7.547c0,0-3.8,2.937-.216,5.271A16.776,16.776,0,0,0,742.118,252.746Z" transform="translate(-702.278 -211.597)" fill="#603813"/>
        <path id="Path_77" data-name="Path 77" d="M733.9,257.443s-10.273-4.39-9.323-9.748c0,0-5.245,4.976,1.087,7.728A25.745,25.745,0,0,0,733.9,257.443Z" transform="translate(-698.162 -212.486)" fill="#603813"/>
        <path id="Path_78" data-name="Path 78" d="M714.589,263.974a13.46,13.46,0,0,1-1.6-7.265,6.048,6.048,0,0,1-.211-.83,6.048,6.048,0,0,0,.211.83,5.715,5.715,0,0,1,.238-1.245,5.715,5.715,0,0,0-.238,1.245c1.533,4.862,8.856,6.96,12.95,9.478a7.975,7.975,0,0,1,3.723,4.3c1.16-6.628-11.207-9.917-14.153-15.053a8.047,8.047,0,0,1-1.082-4.774c-1.826,3.09-3.77,7.034-4.14,11.325-.931,10.793,18.285,15.6,18.9,15.745a5.017,5.017,0,0,0,1.1.048C727.271,275.814,717.022,268.893,714.589,263.974Z" transform="translate(-693.783 -213.542)" fill="#603813"/>
        <path id="Path_79" data-name="Path 79" d="M798.3,260.745a6.3,6.3,0,0,1-3.292,3.064c1.779.282,4.886.347,5.5-2.476a3.786,3.786,0,0,0-1.2-3.9A7.47,7.47,0,0,1,798.3,260.745Z" transform="translate(-723.997 -215.958)" fill="#603813"/>
        <path id="Path_80" data-name="Path 80" d="M801.669,268.1a4.13,4.13,0,0,1-1.4,2.823c-1.992,1.763-7.536,4.6-8.473,8.875a7.348,7.348,0,0,1,3.442-2.51c2.617-.894,4.382-2.346,5.1-4.117a3.932,3.932,0,0,0-.207-1.033,3.932,3.932,0,0,1,.207,1.033,4.844,4.844,0,0,0,.325-1.127l.1-.927-.1.927a4.844,4.844,0,0,1-.325,1.127,9.441,9.441,0,0,1-1.247,5.161,21.286,21.286,0,0,1-7.771,8.645,12.826,12.826,0,0,0,6.824-3.373C801.109,280.449,802.351,273.916,801.669,268.1Z" transform="translate(-722.684 -219.761)" fill="#603813"/>
        <path id="Path_81" data-name="Path 81" d="M796,254.569a3.029,3.029,0,0,0-.757-1.041,2.675,2.675,0,0,1-.24,1.181,6.132,6.132,0,0,1-3.068,2.582C793.334,257.089,796.834,256.391,796,254.569Z" transform="translate(-722.9 -214.566)" fill="#603813"/>
        <g id="Group_25" data-name="Group 25" transform="translate(57.62 50.838)">
          <path id="Path_82" data-name="Path 82" d="M774.328,277.426l-.131-.367c2.637-.944,2.693-5.035,2.693-5.077h.389C777.278,272.162,777.218,276.392,774.328,277.426Z" transform="translate(-774.197 -271.982)" fill="#603813"/>
        </g>
        <path id="Path_83" data-name="Path 83" d="M745.57,260.823s-2.841-5.186-10.842-4.844c0,0,7.336.425,10.086,5.168C744.814,261.147,745.435,261.679,745.57,260.823Z" transform="translate(-702.508 -215.434)" fill="#603813"/>
        <path id="Path_84" data-name="Path 84" d="M744.262,266.708s-4.592-3.726-11.869-.382c0,0,6.951-2.381,11.291.968C743.684,267.293,744.46,267.552,744.262,266.708Z" transform="translate(-701.676 -218.631)" fill="#603813"/>
        <path id="Path_85" data-name="Path 85" d="M747.094,273.056a7.956,7.956,0,0,0-7.784,5.263s2.764-4.913,7.822-4.582C747.132,273.736,747.8,273.557,747.094,273.056Z" transform="translate(-704.141 -221.523)" fill="#603813"/>
        <g id="Group_26" data-name="Group 26" transform="translate(50.7 32.972)">
          <path id="Path_86" data-name="Path 86" d="M775.661,259.355a4.639,4.639,0,0,0,3.211-3.126,10.557,10.557,0,0,0-.661-3.013q-.054-.147-.112-.292a20.3,20.3,0,0,0-4.025-6.243l-.041-.044-.069-.07a14.673,14.673,0,0,0-1.193-1.129,8.579,8.579,0,0,0-1.336-.936,2.957,2.957,0,0,0-2.68.081,7.189,7.189,0,0,0-1.236.824,7.72,7.72,0,0,0-1.682,2.276,17.965,17.965,0,0,0-2.247,6.062,11.269,11.269,0,0,0-.062,3.157C767.253,259.055,773.053,260.176,775.661,259.355Z" transform="translate(-763.445 -244.22)" fill="#a15a28"/>
          <path id="Path_87" data-name="Path 87" d="M775.708,266.007c-2.608.821-8.408-.3-12.133-2.454a5.109,5.109,0,0,0,.551,1.8,6.9,6.9,0,0,0,2.243,2.375,10.252,10.252,0,0,0,5.539,1.534c2.594.008,5.36-.924,6.518-3.431a6.148,6.148,0,0,0,.492-2.95A4.639,4.639,0,0,1,775.708,266.007Z" transform="translate(-763.491 -250.872)" fill="#603813"/>
        </g>
        <g id="Group_27" data-name="Group 27" transform="translate(54.921 60.036)">
          <path id="Path_88" data-name="Path 88" d="M771.818,287.175a7.066,7.066,0,0,1-1.815-.5l.156-.357c.017.01,1.77.766,2.661.389a.728.728,0,0,0,.419-.432l.365.133a1.11,1.11,0,0,1-.633.656A2.375,2.375,0,0,1,771.818,287.175Z" transform="translate(-770.003 -286.274)" fill="#603813"/>
        </g>
        <g id="Group_28" data-name="Group 28" transform="translate(53.183 55.895)">
          <path id="Path_89" data-name="Path 89" d="M767.505,281.81l-.2-.334c.154-.095,3.8-2.315,5.736-1.426a1.949,1.949,0,0,1,1.1,1.561l-.382.068a1.566,1.566,0,0,0-.881-1.274C771.135,279.609,767.54,281.788,767.505,281.81Z" transform="translate(-767.303 -279.84)" fill="#603813"/>
        </g>
      </g>
      <g id="Group_31" data-name="Group 31">
        <g id="Group_30" data-name="Group 30">
          <path id="Path_90" data-name="Path 90" d="M816.735,252.608s8.533,15.978-8.394,36.061l-2.4-5.451,3.78-6.552,3.984-24.489Z" transform="translate(-724.83 -203.33)" fill="#ebe8ea"/>
          <path id="Path_91" data-name="Path 91" d="M810.565,265.663l1.9.88s3.27,4.93-.871,11.493l-5.349-1.184.181-5.644Z" transform="translate(-724.94 -208.138)" fill="#bbbdbf"/>
          <path id="Path_92" data-name="Path 92" d="M692.053,206.481s.075-.218.232-.616a46.489,46.489,0,0,1,42.4-29.578c12.882-.291,26.118,4.286,35.13,13.7,6.193,6.468,9.1,13.652,8.887,24.532l-10.519-20.4-22.866-10.3-30.695,7.191-17.211,24.965-2.629,6.86Z" transform="translate(-684.234 -176.274)" fill="#ebe8ea"/>
          <path id="Path_93" data-name="Path 93" d="M804.659,294.388s3.937-6.457,3.216-10.619l3.156.721a19.084,19.084,0,0,1-3.383,9.242Z" transform="translate(-724.374 -214.592)" fill="#171533"/>
          <path id="Path_94" data-name="Path 94" d="M808.894,210.212v0c4.673,5.825,5.3,12.371,5.5,15.563a86.889,86.889,0,0,1-.255,11.912l3.652-.041C818.263,217.383,808.894,210.212,808.894,210.212Z" transform="translate(-725.883 -188.371)" fill="#bbbdbf"/>
          <path id="Path_95" data-name="Path 95" d="M815.95,236.007l1.384,5.392a62.221,62.221,0,0,1-2.475,14.572l-1.9-.88A79.368,79.368,0,0,0,815.95,236.007Z" transform="translate(-727.331 -197.566)" fill="#171533" opacity="0.93"/>
          <path id="Path_96" data-name="Path 96" d="M704.557,256.056s.067,17.542,7.332,25.571-15.967-12.7-15.967-12.7Z" transform="translate(-685.613 -204.713)" fill="#171533" opacity="0.89"/>
          <path id="Path_97" data-name="Path 97" d="M698.981,266.762l7.155-.132s4.21-8.641-1.814-14.955l-6.1-.209Z" transform="translate(-686.434 -203.077)" fill="#bbbdbf"/>
          <path id="Path_98" data-name="Path 98" d="M709.05,275.612l-5.466,2.667,3.586,7.3,5-2.07A5.886,5.886,0,0,0,709.05,275.612Z" transform="translate(-688.344 -211.684)" fill="#1f4591"/>
          <path id="Path_99" data-name="Path 99" d="M709.857,253.688" transform="translate(-690.58 -203.869)" fill="#40406d"/>
          <path id="Path_100" data-name="Path 100" d="M705.23,230.98l-4.46.082s-.139-15.75,8.986-23.719,19.069-17.16,40.923-12.818,27.65,13.776,26.642,32.118c0,0-2.875-18.56-18.105-24.109C738.306,194.913,718.459,203.782,705.23,230.98Z" transform="translate(-687.341 -182.382)" fill="#171533" opacity="0.93"/>
          <path id="Path_101" data-name="Path 101" d="M780.725,214.989a32.019,32.019,0,0,0-18.858-26.922c-21.624-10.006-45.059.5-55.024,13.079-11.973,15.11-8.432,26.868-8.432,26.868l4.565.1c1.368-6.946,2.458-11.853,4.993-16.8,2.163-4.222,15.256-23.857,39.837-20.259a60.029,60.029,0,0,1,7.1,1.451,39.669,39.669,0,0,1,5.779,2.035A24.761,24.761,0,0,1,767.1,198.6a33.518,33.518,0,0,1,4.034,4.193c.373.474.723.967,1.055,1.472a27.491,27.491,0,0,1,1.634,2.861A34.7,34.7,0,0,1,775.453,211a43.3,43.3,0,0,1,1.416,4.967,54.566,54.566,0,0,1,1,6.149c.219,2.066.334,4.142.364,6.22A24.679,24.679,0,0,0,780.725,214.989Z" transform="translate(-686.326 -179.057)" fill="#bbbdbf"/>
          <path id="Path_102" data-name="Path 102" d="M769.787,287.319c-1.541.832-.58-10.409-.889-8.693-3.122,17.345-29.428,14.653-41.2,10.674a48.158,48.158,0,0,1-7.032-2.976c-5.861-3.087-9.922-8.84-13.447-14.3-.137-.212-.906-1.828-1.159-1.86,0,0-6.051-.786-6.4-.827l-2.267,1.487-2.074,3.821s22.54,24.9,52.3,22.125a40.343,40.343,0,0,0,19.9-5.852Z" transform="translate(-685.397 -209.448)" fill="#171533"/>
          <path id="Path_103" data-name="Path 103" d="M769.677,299.188s-20.386,20.849-64.663-9.494a90.837,90.837,0,0,0,16.625,11.7c10.377,5.808,21.919,10.113,33.726,6.442C760.71,306.17,765.955,303.46,769.677,299.188Z" transform="translate(-688.854 -216.704)" fill="#bbbdbf"/>
          <path id="Path_104" data-name="Path 104" d="M688.384,267.442s1.322,9.835,1.322,11.665c0,0,47.236,17.583,72.308,4.771,0,0,1.577-6.76,2.054-8.067.279-.765,3.969-5.166,4.8-10.614.67-4.4,1-3.361.252-8.629,0,0-4.3,13.452-8.255,16.1,0,0-26.01,16.686-64.009-10.34a72.731,72.731,0,0,1,.064-24.566,74.347,74.347,0,0,1,3.28-11.739l-6.426-1.755c-1.169-2.26-2.449-4.939-4.5-6.867C689.276,217.4,668.794,243.9,688.384,267.442Z" transform="translate(-679.903 -190.933)" fill="#ebe8ea"/>
          <path id="Path_105" data-name="Path 105" d="M769.361,302.46a19.082,19.082,0,0,1-3.442,1.776,41.459,41.459,0,0,1-9.528,2.861c-9.622,1.688-19.442-.521-28.538-3.644-7.2-2.473-14.285-5.665-20.266-10.45a30.752,30.752,0,0,1-2.681-2.4,66.383,66.383,0,0,0,34.737,18.412,37.665,37.665,0,0,0,15.875-.115A38.1,38.1,0,0,0,769.361,302.46Z" transform="translate(-688.816 -217.028)" fill="#bbbdbf"/>
          <path id="Path_106" data-name="Path 106" d="M697.677,266.4c-.947-2.12-2.062-4.1-2.82-6.32-2.993-8.775-1.782-18.191,1.333-26.782.4-1.093.955-2.12,1.364-3.2C697.554,230.1,690.691,250.774,697.677,266.4Z" transform="translate(-684.62 -195.46)" fill="#bbbdbf"/>
        </g>
        <path id="Path_107" data-name="Path 107" d="M742.53,206.813s-12.311,6.238-16.886,13.642,4.77,41.812,4.77,41.812a52.173,52.173,0,0,0,9.924,2.168S740.484,217.366,742.53,206.813Z" transform="translate(-695.759 -187.16)" fill="#fff" opacity="0.46"/>
        <path id="Path_108" data-name="Path 108" d="M771.841,264.076s16.847-22.727,4.707-50.077c-5.639-12.7-18.922-17.4-29.527-17.381-8.958.019-14.709,1.4-22.295,5.924-6.332,3.778-14.377,11.533-16.4,18.625l-2.272,7.972a37.8,37.8,0,0,0-.88,6.23h0c-1.12,8.437.551,19.549.551,19.549s9.428,6.973,18.372,10.653c7.355,3.026,15.185,5.26,20.1,5.449C757.136,271.52,769,268.063,771.841,264.076Z" transform="translate(-688.774 -183.525)" fill="#bababa" opacity="0.17"/>
      </g>
    </g>
    <g id="Group_33" data-name="Group 33" transform="translate(574.157 269.262)">
      <path id="Path_109" data-name="Path 109" d="M632.961,486.573s13.444-4.6,17.1-2.272c0,0,5.457,4.816,7.232,5.961s6.54,3.574,7.507,5.706-1.575,4.1-4.048,3.663a10.755,10.755,0,0,1-5.6-2.508c.626,1.167,2.6,4.175,7.521,7.039,4.319,2.514,7.229,3.647,5.7,6.78-1.337,2.572-13.548.044-17.776-3.823a13.422,13.422,0,0,0,4.885,2.868,32.969,32.969,0,0,0,6.247,1.752,22.165,22.165,0,0,0,2.612.3c.969.026-1.7,1.053-3.707,1.111-3.467.034-11.793.14-17.07-6.482a13.9,13.9,0,0,0,5.708,4.565,24.972,24.972,0,0,0,3.391,1.192s-12.228-.864-16.725-11.959C631.858,489.943,632.961,486.573,632.961,486.573Z" transform="translate(-615.568 -378.828)" fill="#f27321"/>
      <path id="Path_110" data-name="Path 110" d="M623.26,465.772s-9.529-15.977-13.236-33.565c-.723-3.429,3.079-6.042,8.819-7.971,3.16-1.062,10.614-1.681,15.376.62,2.068,1,3.046,1.673,3.008,4.067-.183,11.45-.017,23.126,5.715,33.436C642.942,462.358,633.665,467.279,623.26,465.772Z" transform="translate(-607.409 -357.312)" fill="#dcdcdb"/>
      <path id="Path_111" data-name="Path 111" d="M640.528,320.77s21.4,14.465,14.59,39.812c0,0-18.9,16.826-18.927,27.462,0,0-20.38,6.034-29.257-1.309C606.935,386.735,597.253,344.195,640.528,320.77Z" transform="translate(-606.009 -320.77)" fill="#dcdcdb"/>
      <path id="Path_112" data-name="Path 112" d="M616.367,358.013a58.338,58.338,0,0,1,5.957-9.28s21.328,22.288,31.154,27.365c0,0-3.438,3.908-3.642,4.29C649.835,380.387,628.887,370.752,616.367,358.013Z" transform="translate(-609.701 -330.738)" fill="#664d9c"/>
      <path id="Path_113" data-name="Path 113" d="M606.116,414.506s9.764,4.5,30.567,4.5c0,0-.7,4.336-.826,6.839,0,0-14.59,4.827-27.139,3.735A137.133,137.133,0,0,1,606.116,414.506Z" transform="translate(-606.047 -354.183)" fill="#664d9c"/>
      <path id="Path_114" data-name="Path 114" d="M636.347,342.037l3.081-3.308s7.824,8.337,14.638,14.211l-3.041,3.411S645.384,352.141,636.347,342.037Z" transform="translate(-616.823 -327.172)" fill="#cbbed8"/>
      <path id="Path_115" data-name="Path 115" d="M626.932,484.609l3.5,5.924s12.887-.485,20.033-6.486l-1.663-3.958S641.733,482.886,626.932,484.609Z" transform="translate(-613.467 -377.561)" fill="#664d9c"/>
      <path id="Path_116" data-name="Path 116" d="M613.044,379.589a111.9,111.9,0,0,0,18.567,8.245s-3.034,7.747-4.3,12.309c0,0-11.64-3.049-17.255-7.447A43.816,43.816,0,0,1,613.044,379.589Z" transform="translate(-607.453 -341.737)" fill="#00a564"/>
      <circle id="Ellipse_12" data-name="Ellipse 12" cx="4.007" cy="4.007" r="4.007" transform="translate(7.006 44.221)" fill="#e8262b"/>
    </g>
  </g>
</svg>
