<svg xmlns="http://www.w3.org/2000/svg" xmlns:xlink="http://www.w3.org/1999/xlink"  width="90" height="16" viewBox="0 0 90 16">
	<g fill="#085da8">
		<g fill="#085da8">
			<path fill="#085da8" d="M0.5,0h11.4v16H7c0,0,0-2,0-3.2c0-1.5-1-2.8-2.3-3.2c0-1.3,0-2.5,0-3.3c-0.1-1.7,0.9-2,1.5-2
				c0.6,0,1.5,0.2,1.6,1.6c0.1,1.7-2.1,1.6-2.1,1.6v2c0,0,2.1-0.5,2.1,2c0,0.4,0,2.3,0,2.3H10v-3.1c0-1.9-1.2-2.4-1.2-2.4
				s1.2-0.5,1.2-2.7c0-0.9-0.5-3.5-3.6-3.5c-3.7,0-4,3.5-4,4.2v3c0,0-1.9,0-1.9,0V0z"/>
			<path fill="#085da8" d="M0.5,12.9c0-1.3,0.8-2.4,1.9-2.8v3.7h2.3c0,0,0-1.8,0.1-3.7c1.1,0.5,1.9,1.6,1.9,2.8
				c0,1.7-1.4,3.1-3.1,3.1C1.8,16,0.5,14.6,0.5,12.9z"/>
		</g>
		<g fill="#085da8">
			<path fill="#085da8" d="M68.8,4.3c-0.2,0-0.9,0-1.4,0c-1.3,0-2,1-2,1.9c0,0.9,0,4,0,4.9c0,1.2,0.4,2.3,1.5,2.3c0.8,0,1.5,0,1.9,0
				c0.4,0,0.5-0.2,0.5-0.4s0-0.6,0-0.8c0-0.3-0.1-0.5-0.4-0.5c-0.3,0-0.5,0-0.7,0c-0.3,0-0.8-0.2-0.8-1.1c0-0.9,0-3.3,0-3.8
				c0-0.5,0.2-0.9,0.6-0.9c0.4,0,0.6,0,0.7,0c0.2,0,0.5-0.1,0.5-0.5c0-0.4,0-0.7,0-0.9C69.3,4.5,69,4.3,68.8,4.3z"/>
			<path fill="#085da8" d="M55.3,4.7c0,0.3,0,0.6,0,0.8c0,0.3,0.2,0.5,0.5,0.5c0.3,0,1.5,0,1.5,1c0,1-0.3,1.4-1.6,1.4
				c-0.3,0-0.4,0.1-0.4,0.4c0,0.4,0,1.4,0,2.6c0,1.2,0.5,2,1.9,2c1.4,0,3.5,0,3.9,0c0.4,0,0.6-0.1,0.6-0.6c0-0.6,0-5.8,0-6.3
				c0-0.5,0.9-0.5,0.9,0c0,0.6,0,1.9,0,2.2c0,0.4,0,0.7,0.5,0.7c0.5,0,0.5,0,0.9,0s0.5-0.3,0.5-0.7c0-0.4,0-1.2,0-2.5
				c0-1.2-0.4-2-2.2-2c-1.8,0-2.4,0.8-2.4,1.9s0,4.6,0,5c0,0.4,0,0.6-0.5,0.6c-0.5,0-1.3,0-1.7,0c-0.2,0-0.5-0.1-0.5-0.4
				c0-0.5,0-0.7,0-1c0-0.2,0.1-0.4,0.3-0.5c1-0.7,1.8-1.3,1.8-2.5c0-1.3-0.4-2.9-3.4-2.9C55.5,4.3,55.3,4.4,55.3,4.7z"/>
			<path fill="#085da8" d="M53.8,4.3c-0.4,0-0.6,0-0.9,0c-0.3,0-0.4,0.1-0.4,0.4c0,0.3,0,7.7,0,8.1c0,0.4,0.2,0.7,0.4,0.7
				c0.2,0,0.7,0,0.9,0c0.2,0,0.4-0.2,0.4-0.7c0-0.5,0-7.3,0-7.7C54.3,4.6,54.2,4.3,53.8,4.3z"/>
			<path fill="#085da8" d="M43.9,4.9c0-0.3-0.2-0.6-0.5-0.6c-0.3,0-0.5,0-0.8,0c-0.3,0-0.5,0.2-0.5,0.5c0,0.3,0,5.4,0,6.3
				c0,0.9,0.4,2.4,1.9,2.4c1.5,0,2.3,0,3.1,0c0.7,0,1.4-0.2,1.8-1.6c0.7,0.2,0.9,0.3,1,1c0.1,0.4,0.3,0.6,0.6,0.6c0.2,0,0.4,0,0.6,0
				c0.4,0,0.5-0.1,0.5-0.7c0-0.8,0-6.9,0-7.4c0-0.5-0.2-1-0.6-1c-0.4,0-0.6,0-0.8,0c-0.3,0-0.4,0.1-0.4,0.5c0,0.4,0,4.7,0,5.2
				c-0.6-0.2-1-0.3-1-0.8c0-0.5,0-2.4,0-3.1c0-0.7-0.3-1.9-2.2-1.9c-1.9,0-2.1,1-2.1,1.8c0,0.9,0,2.4,0,2.8c0,0.3,0.2,0.6,0.4,0.6
				c0.2,0,0.4,0,0.8,0c0.3,0,0.6-0.1,0.6-0.7c0-0.7,0-1.5,0-2.1C46.3,6,47,6,47,6.6c0,0.6,0,3,0,4c0,0.9-0.2,1-0.9,1
				c-0.6,0-0.8,0-1.4,0c-0.6,0-0.9-0.3-0.9-0.8C43.9,10.3,43.9,5.5,43.9,4.9z"/>
			<path fill="#085da8" d="M26.9,8.5c-0.2,0-0.4-0.2-0.4-0.6c0-0.4,0-1,0-1.6c0-0.6,0.4-2,1.9-2c0.8,0,1.3,0,2.1,0
				c1.4,0,2.1,1.3,2.1,2c0,0.9,0,1.8,0,2.5c0,0.7-0.3,1.5-1.8,2c-0.4,0.1-1.2,0.3-1.8,0.4c-0.3,0-0.5,0.5,0.1,0.5c0.6,0,2.5,0,2.9,0
				c0.4,0,0.6,0.2,0.6,0.6c0,0.2,0,0.5,0,0.8c0,0.3-0.1,0.4-0.7,0.4c-0.6,0-2.7,0-3.6,0c-0.9,0-1.7-0.3-1.7-1.9c0-0.6,0-1.1,0-1.4
				c0-0.3,0.2-0.7,0.7-0.7c0.8,0,1.3-0.1,2.2-0.2c0.9-0.1,1.3-0.3,1.3-1.1c0-0.5,0-0.9,0-1.1c0-0.5-0.3-1-0.6-1c-0.3,0-0.6,0-0.9,0
				c-0.3,0-0.9,0.3-0.9,0.7c0,0.4,0,0.7,0,1.1c0,0.4-0.3,0.6-0.6,0.6C27.4,8.5,27.1,8.5,26.9,8.5z"/>
			<path fill="#085da8" d="M19.5,13.9c-0.5,0-1.1,0.3-1.1,1c0,0.8,0.6,1.1,1.1,1.1c0.6,0,1.2-0.3,1.2-1.1
				C20.6,14.1,20,13.9,19.5,13.9z"/>
			<path fill="#085da8" d="M30.6,2.8c-0.3-1.2-1.3-2.7-3.5-2.7c-2.2,0-3.8,1.5-3.8,4c0,2.5,0,7.8,0,8.5c0,0.7,0.2,0.8,0.6,0.8
				c0.4,0,0.5,0,0.8,0c0.3,0,0.5,0.2,0.5-0.9c0-1.1,0-7.2,0-8.3c0-1.1,0.5-2.3,1.8-2.3c1.2,0,1.5,0.7,1.7,1.1
				c0.2,0.4,0.3,0.4,0.7,0.4c0.3,0,0.7,0,1-0.1C30.6,3.2,30.7,3.1,30.6,2.8z"/>
			<path fill="#085da8" d="M73.3,13.9c-0.5,0-1.1,0.3-1.1,1c0,0.8,0.6,1.1,1.1,1.1c0.6,0,1.2-0.3,1.2-1.1
				C74.4,14.1,73.8,13.9,73.3,13.9z"/>
			<path fill="#085da8" d="M78.5,4.3c-0.4,0-0.6,0-0.9,0c-0.3,0-0.4,0.1-0.4,0.4c0,0.3,0,7.7,0,8.1c0,0.4,0.2,0.7,0.4,0.7
				c0.2,0,0.7,0,0.9,0c0.2,0,0.4-0.2,0.4-0.7c0-0.5,0-7.3,0-7.7C79,4.6,78.9,4.3,78.5,4.3z"/>
			<path fill="#085da8" d="M81.6,4.3c-0.3,0-0.7,0-1,0c-0.2,0-0.5,0.1-0.5,0.4c0,0.3,0,3.9,0,5.8c0,1.9,0.3,2.9,2.1,2.9
				c0.8,0,2,0,3.1,0c1.1,0,2-0.6,2-2.3c0-0.9,0-2.9,0-3.3c0-0.4,0-0.6-0.4-0.6c-0.3,0-0.9,0-1.2,0c-0.2,0-0.3,0.3-0.3,0.5
				c0,0.7-0.7,0.6-0.7,0c0-0.5,0-0.9,0-1.3c0-0.4,0.3-0.5,1-0.5c0.7,0,1.2,0,1.6,0C87.8,6,88,6.4,88,6.9c0,0.5,0,5.3,0,5.7
				c0,0.4,0.2,0.8,0.4,0.8c0.2,0,0.6,0,0.9,0c0.3,0,0.5-0.2,0.5-0.8c0-0.6,0-5.7,0-6.5c0-0.8-0.3-1.8-1.6-1.8c-1.3,0-4.2,0-4.8,0
				c-0.4,0-0.5,0.2-0.5,0.5c0,0.3,0,2.5,0,3.5c0,1,0.4,1.8,1.4,1.8c0.3,0,0.5,0,0.6,0c0.3,0,0.4,0.1,0.4,0.4c0,0.2,0,0.4,0,0.6
				c0,0.4-0.2,0.6-0.7,0.6c-0.5,0-1.1,0-1.6,0c-0.7,0-1-0.3-1-1.1c0-0.8,0-5.1,0-5.5C82.1,4.6,81.9,4.3,81.6,4.3z"/>
			<path fill="#085da8" d="M22.3,5.2c0,0.5,0,7,0,7.5c0,0.5-0.1,0.7-0.7,0.7c-0.5,0-2.9,0-3.6,0c-0.7,0-1.6-0.7-1.6-1.6
				c0-0.9,0-5.3,0-6.2c0-0.8,0.6-1.4,1.8-1.4c1.2,0,2.9,0,3.3,0C22.1,4.3,22.3,4.7,22.3,5.2z M19.8,6.1c-0.4,0-0.6,0-0.8,0
				c-0.3,0-0.8,0.2-0.8,0.7c0,0.5,0,3.3,0,3.9c0,0.5,0.3,1,0.8,1c0.3,0,0.7,0,1,0c0.3,0,0.5,0,0.5-0.8c0-0.8,0-3.5,0-3.9
				C20.4,6.4,20.3,6.1,19.8,6.1z"/>
			<path fill="#085da8" d="M37.8,12.2c0,0.2,0,0.4,0,0.7c0,0.3-0.1,0.5-0.8,0.5c-0.5,0-1,0-1.9,0c-0.9,0-1.5-0.8-1.5-2.2
				c0-2.3,1-2.2,1.8-2.3c0.9-0.1,0.5-0.5,0-0.5c-1.4,0-1.8-0.7-1.8-2.1c0-1.4,0.8-1.9,1.8-1.9c1,0,2.6,0,3.9,0c1.3,0,1.8,0.9,1.8,2.3
				c0,1.4,0,5.6,0,6.2c0,0.5-0.3,0.6-0.5,0.6c-0.2,0-0.4,0-0.7,0c-0.3,0-0.5-0.3-0.5-0.6c0-0.2,0-0.4,0-0.8c0-0.9-1.2-1.4-1.6-1.4
				c-0.5,0-0.7,0-1.3,0c-0.6,0-0.8,0.2-0.8,0.6c0,0.3,0.4,0.6,0.7,0.6c0.3,0,0.5,0,0.9,0C37.6,11.7,37.8,12,37.8,12.2z M38.3,6.1
				c-0.7,0-1.9,0-2.2,0c-0.4,0-0.6,0.7,0,0.7c1.3,0,1.7,0.1,1.8,1.2C38,9,38.1,9,38.8,9.1c0.4,0,0.5-0.1,0.5-0.4c0-0.4,0-1.1,0-1.7
				C39.3,6.4,39,6.1,38.3,6.1z"/>
			<path fill="#085da8" d="M76.1,5.2c0,0.5,0,7,0,7.5c0,0.5-0.1,0.7-0.7,0.7c-0.5,0-2.9,0-3.6,0c-0.7,0-1.6-0.7-1.6-1.6
				c0-0.9,0-5.3,0-6.2c0-0.8,0.6-1.4,1.8-1.4c1.2,0,2.9,0,3.3,0C75.9,4.3,76.1,4.7,76.1,5.2z M73.5,6.1c-0.4,0-0.6,0-0.8,0
				c-0.3,0-0.8,0.2-0.8,0.7c0,0.5,0,3.3,0,3.9c0,0.5,0.3,1,0.8,1c0.3,0,0.7,0,1,0c0.3,0,0.5,0,0.5-0.8c0-0.8,0-3.5,0-3.9
				C74.2,6.4,74,6.1,73.5,6.1z"/>
		</g>
	</g>
</svg>