<svg xmlns="http://www.w3.org/2000/svg" xmlns:xlink="http://www.w3.org/1999/xlink" x="0" y="0" viewBox="0 0 423 423">
  <defs>
    <linearGradient id="linear-gradient" y1="0.5" x2="1" y2="0.5" gradientUnits="objectBoundingBox">
      <stop offset="0.003" stop-color="#1b1464"/>
      <stop offset="0.158" stop-color="#163c7e"/>
      <stop offset="0.575" stop-color="#0aa4c3"/>
      <stop offset="0.864" stop-color="#02e5ee"/>
      <stop offset="1" stop-color="aqua"/>
    </linearGradient>
  </defs>
  <g id="globe" transform="translate(-868.854 -859.996)">
    <circle id="Ellipse_1" data-name="Ellipse 1" cx="211.5" cy="211.5" r="211.5" transform="translate(868.854 859.996)" fill="#59e474"/>
    <path id="Path_1" data-name="Path 1" d="M869.114,1070.652c0,116.874,94.747,211.621,211.619,211.621a211.452,211.452,0,0,0,178.223-97.471,5.754,5.754,0,0,0-3.623-1.983c-7.4-.824-20.579,21.353-36.159,34.484-15.6,13.149-15.6,23.829-23.031,5.777-7.4-18.085,12.352-27.112,19.732-34.51,7.4-7.43-10.7-18.907,1.65-25.483,12.3-6.6,8.2-21.353,13.951-25.483,5.777-4.1,14.781-21.378,2.451-28.758-12.3-7.372,9.879-9.849,8.228-21.352-1.625-11.5-10.68,6.576-13.13-4.928-2.474-11.5,4.1-11.5-17.251-5.752s-22.206-3.3-27.133-18.078c-4.9-14.8-23.005-26.306-13.153-26.306,9.875,0,15.6-4.9,13.153-26.287-2.474-21.353,1.625-18.9,10.677-20.548,9.055-1.627.826-11.484,10.7-13.131,9.853-1.653,28.441-14.195,29.559-.829,1.141,13.378,0,0,11.5,13.96,11.529,13.974,4.929,9.071,18.081,3.3s5.778-11.5-9.029-12.333-.8-7.374-13.15-12.3c-12.33-4.953-9.852-13.157-17.257-16.431-7.4-3.3-2.448,10.654-15.845,13.131s-19.465-16.431-11.259-19.852c8.225-3.445,8.225-12.206,0-19.585-8.206-7.424-25.484-13.149-13.132-11.528,12.3,1.678,13.132,11.528,21.357,10.7,8.2-.83-1.672-15.6-12.352-17.254s-1.625-10.68-15.6-18.908c-13.954-8.222-10.68-2.47-21.355-9.027a8.958,8.958,0,0,1-3.347-3.377q-4.921-1.821-9.953-3.405c-2.125,1.1-4.756,2.512-8.057,4.306-27.133,14.8-20.554,1.654-21.378-8.2a8.216,8.216,0,0,0-.83-3.2q-6.106-.964-12.323-1.577a16.071,16.071,0,0,1-4.929-.172c-7.376-1.654,4.929,9.874-2.451,11.5-7.376,1.647-13.539-7.379-13.539-7.379l-9.467,4.1s3.059,6.8-6.575,5.758c-9.634-1.071-27.956-4.105-21.359,2.471,6.578,6.555,7.4-6.576,9.856,5.732,2.473,12.327-3.279,8.223,10.676.823,13.979-7.38,11.5-18.059,26.306-.823,14.781,17.28,8.2,33.705,2.451,23.031-5.726-10.7-19.731-13.156-22.18-4.928-2.476,8.2,22.18,9.825,10.291,14.777-11.94,4.922-21.793-14.777-21.793-7.4,0,7.4,13.127,8.229-8.2,9.882-21.376,1.622-38.627,23.683-38.627,23.683s-11.5,45.335-9.869,14.1-22.981-18.909-38.623-2.452c-15.613,16.431-2.46,27.934,4.941,20.53,7.39-7.425,14.8-2.477,14.8-2.477-12.352,11.5-18.091,12.327-6.6,13.98s.836,8.2,1.662,22.183c.789,13.979,7.389,5.751,30.4,3.275,23.012-2.451,34.512,9.875,39.44,20.555s24.754,7.74,18.081,19.7c-15.312,27.4-6.577,23.83-6.577,23.83,23.807.83,68.169,17.254,41.889,38.632-26.284,21.359-22.161,27.935-25.458,37.791s-21.381,12.326-21.381,12.326c-9,31.235-29.562,26.307-29.562,26.307-11.494,28.757-17.254,10.679-22.2,21.352-4.925,10.68,8.226,34.51-3.4,32.862s-12.219-12.326-9.755-37.783c2.486-25.484-14.756-43.562-3.266-51.764,11.494-8.228,12.317-27.135,7.392-32.882s-23.82-9.032-16.431-18.882c7.4-9.875,4.1-17.253-4.111-26.305-8.228-9.053-13.153-13.955,2.461-28.757s32.871-32.863,18.081-27.935c-14.769,4.929-23.018-4.928-23.018-4.928-3.279-29.581-5.74-10.7-12.571-26.306-6.8-15.6-26.855-7.373-13.714-32.855s5.752-32.058-2.473-14.1c-8.215,17.932-10.667-10.559,15.626-31.113,26.284-20.53,22.17-20.53,22.17-20.53a15.4,15.4,0,0,1-6.436-1.34A211.513,211.513,0,0,0,869.114,1070.652Z" transform="translate(0 0.467)" fill="#a1e4ff"/>
    <path id="Path_2" data-name="Path 2" d="M869.114,1070.652c0,116.874,94.747,211.621,211.619,211.621a211.452,211.452,0,0,0,178.223-97.471,5.754,5.754,0,0,0-3.623-1.983c-7.4-.824-20.579,21.353-36.159,34.484-15.6,13.149-15.6,23.829-23.031,5.777-7.4-18.085,12.352-27.112,19.732-34.51,7.4-7.43-10.7-18.907,1.65-25.483,12.3-6.6,8.2-21.353,13.951-25.483,5.777-4.1,14.781-21.378,2.451-28.758-12.3-7.372,9.879-9.849,8.228-21.352-1.625-11.5-10.68,6.576-13.13-4.928-2.474-11.5,4.1-11.5-17.251-5.752s-22.206-3.3-27.133-18.078c-4.9-14.8-23.005-26.306-13.153-26.306,9.875,0,15.6-4.9,13.153-26.287-2.474-21.353,1.625-18.9,10.677-20.548,9.055-1.627.826-11.484,10.7-13.131,9.853-1.653,28.441-14.195,29.559-.829,1.141,13.378,0,0,11.5,13.96,11.529,13.974,4.929,9.071,18.081,3.3s5.778-11.5-9.029-12.333-.8-7.374-13.15-12.3c-12.33-4.953-9.852-13.157-17.257-16.431-7.4-3.3-2.448,10.654-15.845,13.131s-19.465-16.431-11.259-19.852c8.225-3.445,8.225-12.206,0-19.585-8.206-7.424-25.484-13.149-13.132-11.528,12.3,1.678,13.132,11.528,21.357,10.7,8.2-.83-1.672-15.6-12.352-17.254s-1.625-10.68-15.6-18.908c-13.954-8.222-10.68-2.47-21.355-9.027a8.958,8.958,0,0,1-3.347-3.377q-4.921-1.821-9.953-3.405c-2.125,1.1-4.756,2.512-8.057,4.306-27.133,14.8-20.554,1.654-21.378-8.2a8.216,8.216,0,0,0-.83-3.2q-6.106-.964-12.323-1.577a16.071,16.071,0,0,1-4.929-.172c-7.376-1.654,4.929,9.874-2.451,11.5-7.376,1.647-13.539-7.379-13.539-7.379l-9.467,4.1s3.059,6.8-6.575,5.758c-9.634-1.071-27.956-4.105-21.359,2.471,6.578,6.555,7.4-6.576,9.856,5.732,2.473,12.327-3.279,8.223,10.676.823,13.979-7.38,11.5-18.059,26.306-.823,14.781,17.28,8.2,33.705,2.451,23.031-5.726-10.7-19.731-13.156-22.18-4.928-2.476,8.2,22.18,9.825,10.291,14.777-11.94,4.922-21.793-14.777-21.793-7.4,0,7.4,13.127,8.229-8.2,9.882-21.376,1.622-38.627,23.683-38.627,23.683s-11.5,45.335-9.869,14.1-22.981-18.909-38.623-2.452c-15.613,16.431-2.46,27.934,4.941,20.53,7.39-7.425,14.8-2.477,14.8-2.477-12.352,11.5-18.091,12.327-6.6,13.98s.836,8.2,1.662,22.183c.789,13.979,7.389,5.751,30.4,3.275,23.012-2.451,34.512,9.875,39.44,20.555s24.754,7.74,18.081,19.7c-15.312,27.4-6.577,23.83-6.577,23.83,23.807.83,68.169,17.254,41.889,38.632-26.284,21.359-22.161,27.935-25.458,37.791s-21.381,12.326-21.381,12.326c-9,31.235-29.562,26.307-29.562,26.307-11.494,28.757-17.254,10.679-22.2,21.352-4.925,10.68,8.226,34.51-3.4,32.862s-12.219-12.326-9.755-37.783c2.486-25.484-14.756-43.562-3.266-51.764,11.494-8.228,12.317-27.135,7.392-32.882s-23.82-9.032-16.431-18.882c7.4-9.875,4.1-17.253-4.111-26.305-8.228-9.053-13.153-13.955,2.461-28.757s32.871-32.863,18.081-27.935c-14.769,4.929-23.018-4.928-23.018-4.928-3.279-29.581-5.74-10.7-12.571-26.306-6.8-15.6-26.855-7.373-13.714-32.855s5.752-32.058-2.473-14.1c-8.215,17.932-10.667-10.559,15.626-31.113,26.284-20.53,22.17-20.53,22.17-20.53a15.4,15.4,0,0,1-6.436-1.34A211.513,211.513,0,0,0,869.114,1070.652Z" transform="translate(0 0.467)" fill="url(#linear-gradient)"/>
  </g>
</svg>
