<svg xmlns="http://www.w3.org/2000/svg" xmlns:xlink="http://www.w3.org/1999/xlink" width="105" height="20" viewBox="0 0 105 20">
  <defs>
    <radialGradient id="radial-gradient" cx="-8824.319" cy="48.077" r="21.123" gradientTransform="matrix(-0.903, -0.034, -0.034, 0.903, -18261.081, -373.111)" gradientUnits="userSpaceOnUse">
      <stop offset="0" stop-color="#fff"/>
      <stop offset="0.725" stop-color="#8a8c90"/>
      <stop offset="1" stop-color="#6d6f72"/>
    </radialGradient>
    <radialGradient id="radial-gradient-2" cx="-6685.754" cy="-1332.957" r="21.589" gradientTransform="matrix(-0.452, -0.017, -0.017, 0.452, -10882.337, -1152.725)" gradientUnits="userSpaceOnUse">
      <stop offset="0" stop-color="#d8dadc"/>
      <stop offset="0.725" stop-color="#8a8c90"/>
      <stop offset="1" stop-color="#6d6f72"/>
    </radialGradient>
  </defs>
  <g id="Group_503" data-name="Group 503" transform="translate(-5424 4880)">
    <rect id="Rectangle_1502" data-name="Rectangle 1502" width="105" height="20" rx="4" transform="translate(5424 -4880)" fill="#fff"/>
    <g id="Group_502" data-name="Group 502" transform="translate(4477.798 -5401.548)">
      <g id="Group_444" data-name="Group 444" transform="translate(964.202 521.646)">
        <g id="Group_443" data-name="Group 443" transform="translate(0 0)">
          <g id="Group_441" data-name="Group 441">
            <g id="Group_439" data-name="Group 439" transform="translate(5.41 12.474)">
              <path id="Path_243" data-name="Path 243" d="M981.2,558.577h-1.113c-.681,0-.889.56-.894,1.09s.213,1.092.894,1.092H981.2v.477h-1.3a1.588,1.588,0,0,1,0-3.139h1.3Z" transform="translate(-978.55 -556.888)" fill="#e2041d"/>
              <path id="Path_244" data-name="Path 244" d="M986.463,555.523v-.635h.592v.635Zm.592.576v3.139h-.592V556.1Z" transform="translate(-983.479 -554.888)" fill="#e2041d"/>
              <path id="Path_245" data-name="Path 245" d="M988.789,556.1h.617v-1.211H990V556.1h.941v.479H990v1.875a.289.289,0,0,0,.081.214.276.276,0,0,0,.226.093h.635v.477H990a.547.547,0,0,1-.392-.161.663.663,0,0,1-.207-.455v-2.044h-.617Z" transform="translate(-984.928 -554.888)" fill="#e2041d"/>
              <path id="Path_246" data-name="Path 246" d="M995.813,560.591a.568.568,0,0,0,.415.169h1V558.1h.594v3.25a.8.8,0,0,1-.83.854h-1.923v-.485h1.7a.441.441,0,0,0,.37-.115.424.424,0,0,0,.093-.3v-.066h-1.109a1.009,1.009,0,0,1-.721-.213.9.9,0,0,1-.33-.772V558.1h.594v2.1A.474.474,0,0,0,995.813,560.591Z" transform="translate(-988.843 -556.888)" fill="#e2041d"/>
              <path id="Path_247" data-name="Path 247" d="M1008.266,558.76v-2.182h.825c.681,0,.894.56.894,1.09s-.213,1.092-.894,1.092Zm1.015.477a1.588,1.588,0,0,0,0-3.139h-1.015v-1.211h-.594v4.349Z" transform="translate(-996.691 -554.888)" fill="#e2041d"/>
              <path id="Path_248" data-name="Path 248" d="M1018.81,559.812v.947h-1.184c-.4,0-.577-.156-.577-.474s.174-.473.561-.473Zm-2.3-1.714v.479h1.722a.5.5,0,0,1,.414.122.732.732,0,0,1,.162.54v.088h-1.367c-.654,0-1.052.328-1.052.957s.4.952,1.052.952h1.961v-2.054a1.042,1.042,0,0,0-.212-.794.813.813,0,0,0-.631-.29Z" transform="translate(-1002.122 -556.888)" fill="#e2041d"/>
              <path id="Path_249" data-name="Path 249" d="M1025.253,558.1h1.459a1.262,1.262,0,0,1,1.039.29,1.064,1.064,0,0,1,.26.843v2.006h-.589V559.31a.7.7,0,0,0-.167-.547.738.738,0,0,0-.613-.186h-.8v2.66h-.593Z" transform="translate(-1007.642 -556.887)" fill="#e2041d"/>
              <path id="Path_250" data-name="Path 250" d="M1033.455,554.888h.594v2.452l1.569-1.241h.8l-1.6,1.241h.518a.938.938,0,0,1,.693.254,1.106,1.106,0,0,1,.26.9v.747h-.588v-.806a.566.566,0,0,0-.227-.515.588.588,0,0,0-.353-.1h-1.071v1.418h-.594Z" transform="translate(-1012.751 -554.888)" fill="#e2041d"/>
            </g>
            <g id="Group_440" data-name="Group 440">
              <path id="Path_251" data-name="Path 251" d="M989.99,548.728c.048-.011.1-.019.146-.029a19.846,19.846,0,0,1,9.338,1.061q.284.165.577.332c-3.614-1.12-6.87-1.633-9.9-1.088a.1.1,0,0,0,.025,0Z" transform="translate(-980.266 -538.437)" fill="#1a1718"/>
              <path id="Path_252" data-name="Path 252" d="M975.535,549.1l.182.272a.1.1,0,0,1-.024,0c-3.477.663-6.406,2.657-8.908,6.859C969.213,551.849,972.088,549.78,975.535,549.1Z" transform="translate(-965.81 -538.809)" fill="#1a1718"/>
              <path id="Path_253" data-name="Path 253" d="M979.395,528.279h0c-.8-1.095-1.577-2.18-2.388-3.46a13.111,13.111,0,0,0,3.873-3.01,16.321,16.321,0,0,0,3.629,5.915A17.677,17.677,0,0,0,979.395,528.279Z" transform="translate(-972.181 -521.809)" fill="#e2041d"/>
              <path id="Path_254" data-name="Path 254" d="M971.53,533.252c-.069.021-.136.043-.2.061a13.215,13.215,0,0,0-5.429,2.942,8.889,8.889,0,0,0-1.512-4.661,21.535,21.535,0,0,0,4.761-1.8c.811,1.28,1.59,2.365,2.388,3.46Z" transform="translate(-964.316 -526.782)" fill="url(#radial-gradient)"/>
              <path id="Path_255" data-name="Path 255" d="M983.3,538.973a.012.012,0,0,0-.008,0h0A.015.015,0,0,1,983.3,538.973Z" transform="translate(-976.093 -532.501)" fill="#d1d2d2"/>
              <path id="Path_256" data-name="Path 256" d="M995.335,542.883A19.843,19.843,0,0,0,986,541.822l.021,0c-.893-1.374-1.759-2.535-2.673-3.788a17.417,17.417,0,0,1,5.114-.554A29.246,29.246,0,0,0,995.335,542.883Z" transform="translate(-976.126 -531.56)" fill="url(#radial-gradient-2)"/>
              <path id="Path_257" data-name="Path 257" d="M965.783,541.972a13.066,13.066,0,0,1,5.427-2.943c.063-.019.125-.04.19-.056a.025.025,0,0,1,.011,0,.021.021,0,0,1,.009,0h0c.914,1.253,1.78,2.414,2.673,3.788l-.021,0c-.05.01-.1.018-.146.029-3.446.68-6.322,2.749-8.751,7.135q-.5.9-.974,1.934c.034-.114.064-.224.1-.338a33.134,33.134,0,0,0,1.481-7.322A16.339,16.339,0,0,0,965.783,541.972Z" transform="translate(-964.202 -532.497)" fill="#e2041d"/>
            </g>
          </g>
          <path id="Path_258" data-name="Path 258" d="M978.885,570.659c0-.112-.006-.2-.01-.293h.176l.009.175h.007a.379.379,0,0,1,.348-.2.324.324,0,0,1,.31.218h.007a.409.409,0,0,1,.124-.141.375.375,0,0,1,.242-.077c.148,0,.364.094.364.469v.637h-.2v-.61c0-.21-.081-.335-.239-.335a.262.262,0,0,0-.24.179.3.3,0,0,0-.017.1v.67h-.2V570.8c0-.172-.079-.3-.23-.3a.28.28,0,0,0-.249.2.293.293,0,0,0-.017.1v.651h-.195Z" transform="translate(-973.342 -552.041)" fill="#1a1818"/>
          <path id="Path_259" data-name="Path 259" d="M984.53,571.084a.216.216,0,0,1-.009.063.277.277,0,0,1-.272.18.175.175,0,0,1-.188-.186c0-.21.25-.248.47-.245Zm.194-.3a.386.386,0,0,0-.42-.442.752.752,0,0,0-.365.094l.047.132a.52.52,0,0,1,.288-.081.227.227,0,0,1,.251.253v.022c-.426,0-.664.139-.664.4a.313.313,0,0,0,.338.311.408.408,0,0,0,.337-.162h.007l.018.137h.179a1.732,1.732,0,0,1-.017-.259Z" transform="translate(-976.448 -552.041)" fill="#1a1818"/>
          <path id="Path_260" data-name="Path 260" d="M987.359,570.07h0a1.168,1.168,0,0,1,.1-.123l.327-.375h.238l-.426.445.485.637h-.243l-.379-.521-.1.116v.405h-.2v-1.587h.2Z" transform="translate(-978.5 -551.247)" fill="#1a1818"/>
          <path id="Path_261" data-name="Path 261" d="M990.2,570.745v-1.082h.2v1.082Zm.1-1.279a.122.122,0,0,1-.126-.127.124.124,0,0,1,.13-.126.121.121,0,0,1,.127.126.123.123,0,0,1-.13.127Z" transform="translate(-980.376 -551.338)" fill="#1a1818"/>
          <path id="Path_262" data-name="Path 262" d="M991.8,570.659c0-.112,0-.2-.009-.293h.178l.011.177h.005a.411.411,0,0,1,.364-.2c.153,0,.39.089.39.461v.645h-.2v-.623c0-.174-.067-.323-.255-.323a.289.289,0,0,0-.269.2.3.3,0,0,0-.014.092v.651h-.2Z" transform="translate(-981.385 -552.041)" fill="#1a1818"/>
          <path id="Path_263" data-name="Path 263" d="M995.927,570.985a.342.342,0,0,1-.015.106.287.287,0,0,1-.278.2c-.213,0-.326-.18-.326-.39,0-.251.136-.409.329-.409a.286.286,0,0,1,.28.21.283.283,0,0,1,.01.088Zm.2-.322c0-.132,0-.22.008-.3h-.176l-.007.162h-.005a.369.369,0,0,0-.344-.186.522.522,0,0,0-.5.572.488.488,0,0,0,.469.53.393.393,0,0,0,.352-.181h0v.117a.33.33,0,0,1-.357.38.614.614,0,0,1-.322-.087l-.051.152a.722.722,0,0,0,.367.09.62.62,0,0,0,.4-.129.63.63,0,0,0,.158-.5Z" transform="translate(-983.452 -552.041)" fill="#1a1818"/>
          <path id="Path_264" data-name="Path 264" d="M1000.129,571.249a.58.58,0,0,0,.268.078c.142,0,.212-.071.212-.163s-.057-.144-.2-.2c-.2-.073-.293-.178-.293-.307a.339.339,0,0,1,.379-.318.513.513,0,0,1,.268.068l-.046.142a.453.453,0,0,0-.226-.064c-.118,0-.183.067-.183.149s.065.132.208.185c.189.07.291.163.291.326,0,.192-.153.326-.411.326a.643.643,0,0,1-.31-.076Z" transform="translate(-986.551 -552.041)" fill="#1a1818"/>
          <path id="Path_265" data-name="Path 265" d="M1002.81,570.8a.325.325,0,0,1,.309-.317.283.283,0,0,1,.276.317Zm.771.144a.431.431,0,0,0,.006-.094.459.459,0,0,0-.454-.509.53.53,0,0,0-.519.585.51.51,0,0,0,.542.546.908.908,0,0,0,.368-.07l-.034-.138a.823.823,0,0,1-.307.053.348.348,0,0,1-.376-.375Z" transform="translate(-988.13 -552.039)" fill="#1a1818"/>
          <path id="Path_266" data-name="Path 266" d="M1005.99,570.659c0-.112,0-.2-.008-.293h.178l.012.177h0a.413.413,0,0,1,.364-.2c.154,0,.393.089.393.461v.645h-.2v-.623c0-.174-.065-.323-.255-.323a.289.289,0,0,0-.269.2.3.3,0,0,0-.015.092v.651h-.2Z" transform="translate(-990.227 -552.041)" fill="#1a1818"/>
          <path id="Path_267" data-name="Path 267" d="M1009.362,571.249a.585.585,0,0,0,.267.078c.144,0,.211-.071.211-.163s-.057-.144-.2-.2c-.2-.073-.293-.178-.293-.307a.339.339,0,0,1,.38-.318.518.518,0,0,1,.268.068l-.048.142a.448.448,0,0,0-.225-.064c-.12,0-.182.067-.182.149s.062.132.207.185c.189.07.289.163.289.326,0,.192-.152.326-.409.326a.63.63,0,0,1-.309-.076Z" transform="translate(-992.304 -552.041)" fill="#1a1818"/>
          <path id="Path_268" data-name="Path 268" d="M1012.04,570.8a.325.325,0,0,1,.308-.317.28.28,0,0,1,.274.317Zm.77.144a.647.647,0,0,0,.007-.094.46.46,0,0,0-.455-.509.531.531,0,0,0-.52.585.511.511,0,0,0,.545.546.915.915,0,0,0,.368-.07l-.037-.138a.8.8,0,0,1-.3.053.349.349,0,0,1-.377-.375Z" transform="translate(-993.878 -552.039)" fill="#1a1818"/>
          <path id="Path_269" data-name="Path 269" d="M1016.991,571.327c-.194,0-.33-.18-.33-.416,0-.206.1-.422.337-.422s.33.231.33.413c0,.246-.143.424-.335.424Zm0,.146a.536.536,0,0,0,.548-.577.516.516,0,0,0-.53-.554.534.534,0,0,0-.548.575.521.521,0,0,0,.53.556Z" transform="translate(-996.752 -552.041)" fill="#1a1818"/>
          <path id="Path_270" data-name="Path 270" d="M1019.934,570.617v-.932h-.154v-.149h.154v-.051a.518.518,0,0,1,.129-.379.4.4,0,0,1,.266-.1.429.429,0,0,1,.173.032l-.026.151a.289.289,0,0,0-.13-.026c-.168,0-.214.148-.214.313v.057h.266v.149h-.264v.932Z" transform="translate(-998.822 -551.209)" fill="#1a1818"/>
          <path id="Path_271" data-name="Path 271" d="M1023.474,570.659c0-.112,0-.2-.008-.293h.176l.009.175h.006a.381.381,0,0,1,.349-.2.326.326,0,0,1,.311.218h0a.428.428,0,0,1,.126-.141.379.379,0,0,1,.241-.077c.149,0,.364.094.364.469v.637h-.194v-.61c0-.21-.081-.335-.24-.335a.264.264,0,0,0-.24.179.362.362,0,0,0-.016.1v.67h-.2V570.8c0-.172-.077-.3-.228-.3a.279.279,0,0,0-.251.2.331.331,0,0,0-.014.1v.651h-.2Z" transform="translate(-1001.118 -552.041)" fill="#1a1818"/>
          <path id="Path_272" data-name="Path 272" d="M1029,571.327c-.194,0-.33-.18-.33-.416,0-.206.1-.422.336-.422s.33.231.33.413c0,.246-.143.424-.333.424Zm0,.146a.535.535,0,0,0,.547-.577.515.515,0,0,0-.531-.554.534.534,0,0,0-.546.575.52.52,0,0,0,.53.556Z" transform="translate(-1004.237 -552.041)" fill="#1a1818"/>
          <path id="Path_273" data-name="Path 273" d="M1032.138,570.659c0-.112,0-.2-.006-.293h.176l.012.177h0a.412.412,0,0,1,.364-.2c.151,0,.393.089.393.461v.645h-.2v-.623c0-.174-.067-.323-.256-.323a.285.285,0,0,0-.267.2.222.222,0,0,0-.014.092v.651h-.2Z" transform="translate(-1006.517 -552.041)" fill="#1a1818"/>
          <path id="Path_274" data-name="Path 274" d="M1035.642,570.8a.324.324,0,0,1,.309-.317.284.284,0,0,1,.276.317Zm.771.144a.418.418,0,0,0,.006-.094.459.459,0,0,0-.454-.509.53.53,0,0,0-.52.585.51.51,0,0,0,.543.546.922.922,0,0,0,.37-.07l-.037-.138a.8.8,0,0,1-.3.053.348.348,0,0,1-.377-.375Z" transform="translate(-1008.58 -552.039)" fill="#1a1818"/>
          <path id="Path_275" data-name="Path 275" d="M1038.66,570.407l.239.641a2.246,2.246,0,0,1,.073.218h0c.02-.063.044-.146.071-.223l.217-.636h.215l-.3.772a1.711,1.711,0,0,1-.38.679.632.632,0,0,1-.246.125l-.051-.166a.45.45,0,0,0,.176-.1.591.591,0,0,0,.168-.217.12.12,0,0,0,.017-.046.094.094,0,0,0-.017-.049l-.4-1Z" transform="translate(-1010.447 -552.081)" fill="#1a1818"/>
          <g id="Group_442" data-name="Group 442" transform="translate(29.47 13.662)">
            <path id="Path_276" data-name="Path 276" d="M1042.572,558.846v-.711h-.219v-.1h.523v.1h-.219v.711Z" transform="translate(-1042.353 -558.039)" fill="#1a1818"/>
            <path id="Path_277" data-name="Path 277" d="M1044.082,558.846v-.807h.13l.157.571.031.118c.008-.029.02-.072.036-.13l.159-.559h.117v.807h-.086v-.676l-.19.676h-.078l-.192-.689v.689Z" transform="translate(-1043.43 -558.039)" fill="#1a1818"/>
          </g>
        </g>
      </g>
      <g id="Group_446" data-name="Group 446" transform="translate(1013.218 521.548)">
        <path id="Path_278" data-name="Path 278" d="M1114.138,541.5h-19.95v-19.95h19.95V541.5Z" transform="translate(-1094.188 -521.548)" fill="#fff"/>
        <g id="Group_445" data-name="Group 445" transform="translate(0)">
          <path id="Path_279" data-name="Path 279" d="M1106.793,535.448l-.4-.494v.494h-1.313v-.843a1.308,1.308,0,0,1-.552.119h-.464v.724h-1.982l-.363-.475-.361.475h-3.289v-3.133h3.3l.361.471.361-.471h12.043V521.548h-19.95v8.414l.751-1.755h1.292l.419.979v-.979h1.616l.25.71.248-.71h7.217v.362a1.537,1.537,0,0,1,1.036-.362h2.3l.419.979v-.979h1.36l.36.557v-.557h1.359v3.133h-1.351l-.362-.566v.566h-1.974l-.2-.48h-.541l-.193.48h-1.225a1.482,1.482,0,0,1-.99-.339v.339h-2.026l-.4-.494v.494h-7.511l-.2-.48h-.541l-.192.48h-.926V541.5h19.95v-6.281a1.271,1.271,0,0,1-.758.231Z" transform="translate(-1094.188 -521.548)" fill="#0068b4"/>
          <path id="Path_280" data-name="Path 280" d="M1120.99,551.666l.234-.527h-1.241a.733.733,0,0,0-.815.739.661.661,0,0,0,.733.7h.557a.194.194,0,0,1,.212.195.191.191,0,0,1-.212.191h-1.219v.527h1.212a.737.737,0,0,0,.815-.762.643.643,0,0,0-.733-.675h-.557a.193.193,0,0,1-.212-.195.191.191,0,0,1,.212-.192Zm-3.378.192a.191.191,0,0,1,.211-.192h1.013l.235-.527h-1.241a.733.733,0,0,0-.814.739.661.661,0,0,0,.733.7h.557a.194.194,0,0,1,.212.195.192.192,0,0,1-.212.191h-1.218v.527h1.212a.737.737,0,0,0,.814-.762.643.643,0,0,0-.733-.675h-.557a.193.193,0,0,1-.211-.195Zm-2.707,1.632h1.916v-.527H1115.5v-.4h1.287v-.514H1115.5v-.383h1.319v-.527H1114.9v2.351Zm-.095,0-.762-.856a.731.731,0,0,0,.616-.735.741.741,0,0,0-.814-.759h-1.306v2.351h.6v-.833h.231l.7.833Zm-1.023-1.343h-.648v-.48h.648a.246.246,0,0,1,.277.242c0,.135-.094.239-.277.239Zm-1.5-.215a.755.755,0,0,0-.814-.793h-1.323v2.351h.6v-.766h.707a.773.773,0,0,0,.833-.792Zm-.6,0a.253.253,0,0,1-.278.262h-.664v-.531h.664a.257.257,0,0,1,.278.269Zm-1.59,1.555-.945-1.186.938-1.165h-.73l-.554.722-.554-.722h-.749l.942,1.179-.938,1.172h.73l.554-.729.557.729Zm-4.554,0h1.916v-.527h-1.32v-.4h1.287v-.514h-1.287v-.383h1.32v-.527h-1.916v2.351Z" transform="translate(-1101.26 -539.981)" fill="#0068b4"/>
          <path id="Path_281" data-name="Path 281" d="M1112.416,542.595v-2.351h-.593V541.7l-.939-1.457h-.756v2.351h.6v-1.511l.968,1.511Zm-3.023,0h.674l-1.007-2.351h-.775l-1.007,2.351h.658l.192-.481h1.069l.2.481Zm-.4-.991h-.652l.326-.806.326.806Zm-1.923-.816h.632v-.544h-.677a1.068,1.068,0,0,0-1.137,1.158v.034a1.041,1.041,0,0,0,1.091,1.159h.049l.244-.528h-.192a.56.56,0,0,1-.6-.631V541.4a.555.555,0,0,1,.586-.614ZM1105,542.595h.6v-2.351h-.6v2.351Zm-.095,0-.762-.856a.731.731,0,0,0,.616-.736.74.74,0,0,0-.814-.759h-1.306v2.351h.6v-.833h.231l.7.833Zm-1.023-1.344h-.648v-.48h.648a.245.245,0,0,1,.277.242c0,.134-.094.238-.277.238Zm-3.5,1.344h1.916v-.528h-1.319v-.4h1.287v-.514h-1.287v-.383h1.319v-.527h-1.916v2.351Zm-.987,0h.59v-2.351h-.938l-.525,1.5-.528-1.5h-.948v2.351h.59v-1.74l.619,1.74h.522l.619-1.74v1.74Zm-3.085,0h.674l-1.006-2.351h-.776l-1.006,2.351h.658l.192-.481h1.068l.2.481Zm-.4-.991h-.651l.326-.806.326.806Z" transform="translate(-1094.193 -533.194)" fill="#0068b4"/>
        </g>
      </g>
    </g>
  </g>
</svg>
