<svg xmlns="http://www.w3.org/2000/svg" xmlns:xlink="http://www.w3.org/1999/xlink" width="105" height="28" viewBox="0 0 105 28">
  <g id="Group_459" data-name="Group 459" transform="translate(-5168 4894)">
    <path id="Path_282" data-name="Path 282" d="M48.707,6.138,46.795,3.446a1.989,1.989,0,0,0-1.219-.792,1.964,1.964,0,0,0-.45-.112L33.674,1.153a1.949,1.949,0,0,0-.241-.015,1.979,1.979,0,0,0-1.763,2.9,1.9,1.9,0,0,0-.185.315,1.99,1.99,0,0,0,.162,1.785H4a4,4,0,0,0-4,4v12a4,4,0,0,0,4,4H36.957l-.129.46a2,2,0,0,0,3.2,2.083l3.084-2.543H101a4,4,0,0,0,4-4v-16Z" transform="translate(5168 -4895.138)" fill="#fff"/>
    <g id="Group_459-2" data-name="Group 459" transform="translate(5168 -4895.138)">
      <path id="Path_282-2" data-name="Path 282" d="M42.435,14.6l1.47,6.688,9.6-4.925Z" fill="#c20341"/>
      <path id="Path_283-2" data-name="Path 283-2" d="M45.165,4.6,42.437,14.6,53.51,16.355Z" fill="#d5005b"/>
      <path id="Path_284-2" data-name="Path 284-2" d="M33.434,3.138,44.886,4.527l-2.708,9.93Z" fill="#c20341"/>
      <path id="Path_285-2" data-name="Path 285-2" d="M33.342,5.1h1.276L38.2,9.73Z" fill="#8a032a"/>
      <path id="Path_286" data-name="Path 286" d="M53.817,16.289l-3.332-4.667,5.386-.979Z" fill="#c20341"/>
      <path id="Path_287" data-name="Path 287" d="M53.258,17.661l.342-1.046-8.4,4.321Z" fill="#d5005b"/>
      <path id="Path_288-2" data-name="Path 288-2" d="M42.2,14.86l1.754,7.99-5.2,4.288Z" fill="#8a032a"/>
      <path id="Path_289" data-name="Path 289" d="M55.346,13.019l3.054-.051-2.206-2.279Z" fill="#d5005b"/>
    </g>
    <g id="Group_460" data-name="Group 460" transform="translate(5168 -4895.138)">
      <path id="Path_290" data-name="Path 290" d="M60.386,12.282a9.441,9.441,0,0,1,1.752-.146,2.906,2.906,0,0,1,1.983.587A1.912,1.912,0,0,1,64.75,14.2a2.044,2.044,0,0,1-.556,1.511,2.93,2.93,0,0,1-2.161.776,3.127,3.127,0,0,1-.735-.063v2.833h-.912Zm.912,3.4a3.149,3.149,0,0,0,.756.074c1.112,0,1.773-.546,1.773-1.5s-.661-1.4-1.668-1.4a4.518,4.518,0,0,0-.861.074Z" fill="#d5005b"/>
      <path id="Path_291" data-name="Path 291" d="M69.513,18.042a8.391,8.391,0,0,0,.074,1.217h-.829l-.084-.64h-.032a1.874,1.874,0,0,1-1.552.755,1.446,1.446,0,0,1-1.549-1.335v-.123c0-1.227,1.091-1.9,3.053-1.888v-.1a1.043,1.043,0,0,0-.892-1.173,1.148,1.148,0,0,0-.262,0,2.452,2.452,0,0,0-1.332.377l-.21-.618a3.284,3.284,0,0,1,1.678-.442c1.563,0,1.941,1.06,1.941,2.078Zm-.9-1.375c-1.008-.02-2.151.158-2.151,1.144a.81.81,0,0,0,.732.88.926.926,0,0,0,.129,0,1.28,1.28,0,0,0,1.248-.85.966.966,0,0,0,.042-.293Z" fill="#d5005b"/>
      <path id="Path_292" data-name="Path 292" d="M71.328,14.18l1.1,3c.126.335.252.734.337,1.037h.021c.094-.3.2-.692.325-1.059l1.006-2.98h.976L73.71,17.8a7.868,7.868,0,0,1-1.742,3.189,2.6,2.6,0,0,1-1.133.587L70.6,20.8a2.123,2.123,0,0,0,.808-.451,2.887,2.887,0,0,0,.776-1.029.581.581,0,0,0,.074-.219.546.546,0,0,0-.074-.231l-1.867-4.691Z" fill="#d5005b"/>
      <path id="Path_293" data-name="Path 293" d="M75.933,15.555c0-.535-.021-.955-.042-1.375H76.7l.042.82h.031a1.759,1.759,0,0,1,1.606-.935,1.5,1.5,0,0,1,1.427,1.019h.02a2,2,0,0,1,.577-.661,1.7,1.7,0,0,1,1.113-.358c.681,0,1.678.442,1.678,2.2v2.99h-.9V16.384c0-.986-.368-1.563-1.1-1.563a1.214,1.214,0,0,0-1.1.829,1.652,1.652,0,0,0-.074.462v3.147h-.9V16.217c0-.819-.357-1.4-1.059-1.4a1.274,1.274,0,0,0-1.144.923,1.29,1.29,0,0,0-.073.452v3.063h-.9Z" fill="#d5005b"/>
      <path id="Path_294" data-name="Path 294" d="M85.208,16.878a1.618,1.618,0,0,0,1.464,1.759,1.477,1.477,0,0,0,.266,0,3.469,3.469,0,0,0,1.406-.251l.168.65a4.116,4.116,0,0,1-1.7.325,2.366,2.366,0,0,1-2.5-2.559A2.478,2.478,0,0,1,86.5,14.069c.067-.007.135-.012.2-.014a2.142,2.142,0,0,1,2.1,2.182h0a2.077,2.077,0,0,1-.014.209,2.514,2.514,0,0,1-.031.442Zm2.695-.661a1.319,1.319,0,0,0-1.121-1.488,1.214,1.214,0,0,0-.148-.012,1.521,1.521,0,0,0-1.416,1.5Z" fill="#d5005b"/>
      <path id="Path_295" data-name="Path 295" d="M89.939,15.555c0-.535-.011-.955-.042-1.375h.818l.053.83h.02a1.885,1.885,0,0,1,1.679-.945c.7,0,1.794.421,1.794,2.162v3.032h-.923V16.332c0-.819-.305-1.511-1.176-1.511a1.334,1.334,0,0,0-1.237.944,1.372,1.372,0,0,0-.063.431v3.063h-.923Z" fill="#d5005b"/>
      <path id="Path_296" data-name="Path 296" d="M96.873,12.964V14.18h1.322v.7H96.873v2.738c0,.629.179.986.693.986a1.758,1.758,0,0,0,.535-.062l.042.7a2.5,2.5,0,0,1-.819.126,1.313,1.313,0,0,1-1-.388,1.983,1.983,0,0,1-.357-1.333V14.884H95.18v-.7h.787v-.937Z" fill="#d5005b"/>
    </g>
    <g id="Group_461" data-name="Group 461" transform="translate(5168 -4895.138)">
      <path id="Path_297" data-name="Path 297" d="M6.8,11.265c.148.013.3.039.457.039s.287-.026.459-.039v4.9A2.287,2.287,0,0,1,9.7,14.8c1.616,0,2.312,1.6,2.312,3.073,0,1.762-.939,3.445-2.589,3.445A1.811,1.811,0,0,1,7.8,20.38c-.276.237-.517.529-.781.794H6.8Zm.9,7.206c0,1.431.607,2.425,1.6,2.425,1.294,0,1.707-1.736,1.707-2.968,0-1.43-.47-2.555-1.591-2.57C8.111,15.345,7.7,16.9,7.7,18.471" fill="#d5005b"/>
      <path id="Path_298" data-name="Path 298" d="M16.227,14.436l-.973,1.251c.916,1.338,1.866,2.646,2.781,4l.928,1.454v.071c-.227-.013-.435-.041-.629-.041-.217,0-.435.028-.641.041a14.961,14.961,0,0,0-.79-1.321l-2.5-3.71c-.056-.057-.193-.1-.193-.042v5.073c-.184-.013-.344-.041-.5-.041s-.345.028-.5.041V11.265c.158.014.331.045.5.045s.32-.031.5-.045v4.5c.011.088.17.029.284-.089a7.1,7.1,0,0,0,.607-.711l2.818-3.695c.148.014.3.045.458.045.137,0,.286-.031.446-.045Z" fill="#1a1818"/>
      <path id="Path_299" data-name="Path 299" d="M23.807,20.1c0,.516-.034.782.642.611V21a1.564,1.564,0,0,1-.342.133c-.6.12-1.09.014-1.181-.768l-.1.118a2.116,2.116,0,0,1-1.7.836A1.535,1.535,0,0,1,19.6,19.771V19.7c0-1.511,1.042-1.709,2.117-1.908.907-.171,1.214-.251,1.214-.887,0-.981-.481-1.55-1.34-1.55a1.431,1.431,0,0,0-1.363.914H20.11v-.741a2.976,2.976,0,0,1,1.843-.729c1.2,0,1.854.729,1.854,2.226Zm-.915-2.185-.4.092c-.776.171-1.946.3-1.946,1.51,0,.835.426,1.246,1.123,1.246a1.418,1.418,0,0,0,.916-.5c.08-.1.31-.321.31-.413Z" fill="#1a1818"/>
      <path id="Path_300" data-name="Path 300" d="M25.845,19.929a1.677,1.677,0,0,0,1.316.98A1.182,1.182,0,0,0,28.285,19.7c0-1.787-2.7-.622-2.7-2.94a1.8,1.8,0,0,1,1.642-1.954h0a1.646,1.646,0,0,1,.222-.006,2.455,2.455,0,0,1,1.3.344,6.862,6.862,0,0,0-.275.942h-.1a1.213,1.213,0,0,0-.972-.875,1.011,1.011,0,0,0-1.044.974.884.884,0,0,0,0,.126c0,1.695,2.7.8,2.7,2.912a2.028,2.028,0,0,1-1.953,2.1h-.154a2.65,2.65,0,0,1-1.433-.424,6.418,6.418,0,0,0,.241-.967Z" fill="#1a1818"/>
      <path id="Path_301" data-name="Path 301" d="M30.6,11.265c.149.013.3.039.458.039s.287-.026.458-.039v4.823A2.038,2.038,0,0,1,33.361,14.8c1.327,0,1.844.914,1.844,2.583v3.827c-.173-.011-.311-.038-.459-.038s-.309.027-.459.038V17.689c0-1.47-.3-2.2-1.269-2.2-1.032,0-1.5.744-1.5,2.119v3.6c-.171-.011-.309-.038-.458-.038s-.309.027-.458.038Z" fill="#1a1818"/>
    </g>
    <g id="Group_463" data-name="Group 463" transform="translate(5168 -4895.138)">
      <path id="Path_302" data-name="Path 302" d="M26.69,23.926H4.9a2.616,2.616,0,0,1-2.611-2.614v-10.2A2.617,2.617,0,0,1,4.9,8.5H36.126l-.307-.288H4.9a2.9,2.9,0,0,0-2.9,2.9H2v10.2a2.9,2.9,0,0,0,2.9,2.9H38.845l.081-.288Z" fill="#e2126e"/>
      <path id="Path_303" data-name="Path 303" d="M88.959,8.214h-40.6l.2.288h54.149v12.81a2.617,2.617,0,0,1-2.608,2.614H43.39l-.35.288H100.1a2.9,2.9,0,0,0,2.9-2.9h0V8.214Z" fill="#e2126e"/>
    </g>
  </g>
</svg>
