<svg xmlns="http://www.w3.org/2000/svg" xmlns:xlink="http://www.w3.org/1999/xlink" width="105" height="20" viewBox="0 0 105 20">
  <g id="Group_465" data-name="Group 465" transform="translate(-5178 4858)">
    <g id="Group_460" data-name="Group 460" transform="translate(5178 -4864.138)">
      <path id="Rectangle_1499" data-name="Rectangle 1499" d="M4,6.138H105v16a4,4,0,0,1-4,4H4a4,4,0,0,1-4-4v-12a4,4,0,0,1,4-4Z" fill="#fff"/>
    </g>
    <path id="Path_284" data-name="Path 284" d="M3.969,1.325c2.121,0,3.392-1.189,3.438-2.7a.232.232,0,0,0-.068-.177.232.232,0,0,0-.177-.068H6.055c-.186,0-.28.058-.326.28A1.577,1.577,0,0,1,3.957-.016c-1.049,0-1.7-.548-1.748-1.876q-.035-1,0-1.958c.047-1.329.7-1.876,1.748-1.876A1.575,1.575,0,0,1,5.729-4.4c.058.21.14.28.326.28H7.163a.232.232,0,0,0,.177-.068.232.232,0,0,0,.068-.177c-.047-1.515-1.317-2.7-3.438-2.7a3.081,3.081,0,0,0-2.436.795A3.081,3.081,0,0,0,.542-3.908c-.023.664-.023,1.445,0,2.075A3.058,3.058,0,0,0,1.525.538a3.058,3.058,0,0,0,2.444.787ZM8.2,1.208H9.214A.353.353,0,0,0,9.552.987L10.1-.435h3.462L14.109.987a.329.329,0,0,0,.338.221h1.014a.237.237,0,0,0,.233-.245.36.36,0,0,0-.012-.1L12.873-6.659a.4.4,0,0,0-.408-.291H11.2a.391.391,0,0,0-.408.291L7.978.859a.433.433,0,0,0-.023.1.246.246,0,0,0,.245.249Zm2.308-2.984,1.317-3.6,1.329,3.6Zm8.986,3.1c1.97,0,3.31-.909,3.31-2.436,0-1.375-.851-1.946-2.832-2.389-1.41-.373-1.935-.618-1.935-1.27s.548-.956,1.4-.956a1.352,1.352,0,0,1,1.445.874.343.343,0,0,0,.338.221H22.3a.239.239,0,0,0,.175-.07.239.239,0,0,0,.07-.175c-.035-.944-1.072-2.191-3.112-2.191-1.888,0-3.042.991-3.042,2.331,0,1.4.909,1.993,2.646,2.413,1.492.385,2.121.606,2.121,1.27,0,.641-.548,1.037-1.667,1.037-1.049,0-1.538-.478-1.678-.932a.383.383,0,0,0-.361-.221H16.417a.239.239,0,0,0-.175.07.239.239,0,0,0-.07.175c.035,1.154,1.165,2.25,3.322,2.25Zm4.93-.117h1.061a.269.269,0,0,0,.28-.28V-2.2H29.2V.928a.269.269,0,0,0,.28.28h1.049a.272.272,0,0,0,.291-.28V-6.659a.275.275,0,0,0-.08-.211.275.275,0,0,0-.211-.08H29.482a.272.272,0,0,0-.2.083.272.272,0,0,0-.075.208v3.007H25.764V-6.659a.272.272,0,0,0-.075-.208.272.272,0,0,0-.2-.083h-1.06a.272.272,0,0,0-.2.083.272.272,0,0,0-.075.208V.928a.269.269,0,0,0,.28.28Zm8.5,0H36.4c1.807,0,2.774-1,2.774-2.413a2.057,2.057,0,0,0-1.154-1.865A1.8,1.8,0,0,0,39-4.713c0-1.329-.828-2.238-2.7-2.238H32.92a.272.272,0,0,0-.2.083.272.272,0,0,0-.075.208V.928a.269.269,0,0,0,.28.28Zm1.34-4.814v-2.12h1.83c.828,0,1.235.4,1.235,1.049s-.408,1.072-1.235,1.072Zm0,3.578V-2.393H36.21a1.159,1.159,0,0,1,.911.305,1.159,1.159,0,0,1,.368.888,1.156,1.156,0,0,1-.375.877,1.156,1.156,0,0,1-.907.3ZM40.03,1.208h1.014a.353.353,0,0,0,.338-.221L41.93-.435h3.462L45.939.987a.329.329,0,0,0,.338.221h1.014a.237.237,0,0,0,.233-.245.359.359,0,0,0-.012-.1L44.7-6.659a.4.4,0,0,0-.4-.291H43.03a.391.391,0,0,0-.408.291L39.808.859a.433.433,0,0,0-.023.1.246.246,0,0,0,.245.249Zm2.308-2.984,1.317-3.6,1.329,3.6Zm9.254,3.1c2.121,0,3.392-1.189,3.438-2.7a.232.232,0,0,0-.068-.177.232.232,0,0,0-.177-.068H53.678c-.186,0-.28.058-.326.28A1.577,1.577,0,0,1,51.58-.016c-1.049,0-1.7-.548-1.748-1.876q-.035-1,0-1.958c.047-1.329.7-1.876,1.748-1.876A1.575,1.575,0,0,1,53.351-4.4c.058.21.14.28.326.28h1.107a.232.232,0,0,0,.177-.068.232.232,0,0,0,.068-.177c-.047-1.515-1.317-2.7-3.438-2.7a3.081,3.081,0,0,0-2.436.8,3.081,3.081,0,0,0-.991,2.363c-.023.664-.023,1.445,0,2.075a3.058,3.058,0,0,0,.984,2.37,3.058,3.058,0,0,0,2.443.786Zm5.1-.117h1.026a.272.272,0,0,0,.291-.28V-2.09L60.834,1a.564.564,0,0,0,.455.21h1.2a.246.246,0,0,0,.245-.245.249.249,0,0,0-.058-.152L59.249-3.046l3.205-3.52a.224.224,0,0,0,.047-.14.246.246,0,0,0-.245-.245H61.1a.539.539,0,0,0-.455.21L58.013-3.932V-6.659a.275.275,0,0,0-.08-.211.275.275,0,0,0-.211-.08H56.7a.272.272,0,0,0-.2.083.272.272,0,0,0-.075.208V.928a.269.269,0,0,0,.28.28Zm7.832-6.93a.279.279,0,0,0,.361-.058c0-.012.023-.023.047-.082l.536-1.119L66-5.863c.023.058.047.07.047.082a.279.279,0,0,0,.361.058L66.79-6a.26.26,0,0,0,.058-.35c0-.012-.023-.035-.07-.082l-.9-.828L67.1-7.424l.093-.023a.277.277,0,0,0,.163-.326L67.2-8.216a.264.264,0,0,0-.315-.163.291.291,0,0,0-.093.047l-1.084.594L65.95-8.95a.437.437,0,0,0,.012-.093.267.267,0,0,0-.256-.256H65.24a.267.267,0,0,0-.256.256A.437.437,0,0,0,65-8.95l.221,1.2-1.072-.583a.291.291,0,0,0-.093-.047.264.264,0,0,0-.315.163l-.152.443a.277.277,0,0,0,.163.326l.093.023,1.212.152-.886.839c-.047.047-.07.07-.07.082a.26.26,0,0,0,.058.35Z" transform="translate(5212 -4844.7)" fill="#050605"/>
    <g id="Group_461" data-name="Group 461" transform="translate(616.55 -161.88)">
      <path id="Path_218" data-name="Path 218" d="M89.774,45.361l-1.2-.253L94.638,35.5l1.248.253Zm.976-6.123a1.869,1.869,0,0,1-1.4-.595,1.969,1.969,0,0,1-.574-1.416,1.886,1.886,0,0,1,.584-1.4,1.94,1.94,0,0,1,1.4-.576,1.852,1.852,0,0,1,1.376.6,1.969,1.969,0,0,1-.011,2.791,1.877,1.877,0,0,1-1.385.595m-.04-2.894a.819.819,0,0,0-.618.285.92.92,0,0,0-.265.639.9.9,0,0,0,.9.9.828.828,0,0,0,.628-.275.92.92,0,0,0,.255-.648.9.9,0,0,0-.9-.9m3.111,9.3a2.1,2.1,0,0,1-2.085-2.092A1.93,1.93,0,0,1,92.36,42.1a2.1,2.1,0,0,1,2.951,0,2.026,2.026,0,0,1-.01,2.933,2.084,2.084,0,0,1-1.489.606M93.8,42.625a.954.954,0,0,0-.683.286.92.92,0,0,0-.293.68.906.906,0,0,0,.3.68.983.983,0,0,0,.694.285.951.951,0,0,0,.683-.285.93.93,0,0,0,.293-.679.919.919,0,0,0-.293-.69,1,1,0,0,0-.7-.276" transform="translate(4496.757 -4726.449)" fill="#d5005b"/>
      <path id="Path_37" data-name="Path 37" d="M4.709,0A.393.393,0,0,1,4.42-.119.393.393,0,0,1,4.3-.408V-9.214L1.717-7.225a.36.36,0,0,1-.238.085.407.407,0,0,1-.34-.187L.425-8.245A.486.486,0,0,1,.34-8.5a.407.407,0,0,1,.187-.34l3.808-2.941A.677.677,0,0,1,4.76-11.9h1.5a.4.4,0,0,1,.3.111.4.4,0,0,1,.11.3V-.408a.409.409,0,0,1-.11.289A.386.386,0,0,1,6.26,0Zm8.738.17a4.274,4.274,0,0,1-3.375-1.258,5.2,5.2,0,0,1-1.216-3.3Q8.84-4.845,8.84-5.95q0-1.122.017-1.6a5.009,5.009,0,0,1,1.224-3.264,4.311,4.311,0,0,1,3.366-1.258,4.334,4.334,0,0,1,3.383,1.258A4.939,4.939,0,0,1,18.037-7.55q.034.476.034,1.6,0,1.105-.034,1.564a5.13,5.13,0,0,1-1.2,3.3A4.3,4.3,0,0,1,13.447.17Zm0-1.955a1.866,1.866,0,0,0,1.6-.706,3.411,3.411,0,0,0,.561-1.98q.034-.986.034-1.5,0-.561-.034-1.479a3.422,3.422,0,0,0-.561-1.972,1.857,1.857,0,0,0-1.6-.714,1.861,1.861,0,0,0-1.59.714,3.381,3.381,0,0,0-.569,1.972q-.017.459-.017,1.479,0,1,.017,1.5a3.37,3.37,0,0,0,.569,1.98A1.871,1.871,0,0,0,13.447-1.785Z" transform="translate(4566.45 -4680.12)" fill="#d5005b"/>
    </g>
  </g>
</svg>
