<svg xmlns="http://www.w3.org/2000/svg" xmlns:xlink="http://www.w3.org/1999/xlink" width="105" height="20" viewBox="0 0 105 20">
  <g id="Group_465" data-name="Group 465" transform="translate(-5178 4858)">
    <g id="Group_460" data-name="Group 460" transform="translate(5178 -4864.138)">
      <path id="Rectangle_1499" data-name="Rectangle 1499" d="M4,6.138H105v16a4,4,0,0,1-4,4H4a4,4,0,0,1-4-4v-12A4,4,0,0,1,4,6.138Z" fill="#fff"/>
    </g>
    <g id="Group_461" data-name="Group 461" transform="translate(616.55 -161.88)">
      <path id="Path_218" data-name="Path 218" d="M89.774,45.361l-1.2-.253L94.638,35.5l1.248.253Zm.976-6.123a1.869,1.869,0,0,1-1.4-.595,1.969,1.969,0,0,1-.574-1.416,1.886,1.886,0,0,1,.584-1.4,1.94,1.94,0,0,1,1.405-.576,1.852,1.852,0,0,1,1.376.6,1.969,1.969,0,0,1-.011,2.791,1.877,1.877,0,0,1-1.385.595m-.041-2.894a.819.819,0,0,0-.618.285.92.92,0,0,0-.265.639.905.905,0,0,0,.9.9.828.828,0,0,0,.628-.275.92.92,0,0,0,.255-.648.9.9,0,0,0-.9-.9m3.111,9.3a2.1,2.1,0,0,1-2.085-2.092,1.93,1.93,0,0,1,.634-1.447,2.1,2.1,0,0,1,2.951,0,2.026,2.026,0,0,1-.01,2.933,2.084,2.084,0,0,1-1.489.606M93.8,42.625a.954.954,0,0,0-.683.286.92.92,0,0,0-.293.68.906.906,0,0,0,.3.68.983.983,0,0,0,.694.285.951.951,0,0,0,.683-.285.93.93,0,0,0,.293-.679.919.919,0,0,0-.293-.69,1,1,0,0,0-.7-.276" transform="translate(4496.757 -4726.449)" fill="#d5005b"/>
      <path id="Path_221" data-name="Path 221" d="M1.849,4.714H9.793a.384.384,0,0,0,.4-.4V3.135a.384.384,0,0,0-.4-.4H5.057L7.417.343C9-.921,9.943-2.034,9.943-3.6c0-1.994-1.363-3.524-4.105-3.524a3.912,3.912,0,0,0-4.2,3.74.337.337,0,0,0,.349.332H3.461a.47.47,0,0,0,.482-.382A1.875,1.875,0,0,1,5.854-5.192a1.527,1.527,0,0,1,1.7,1.679c0,1.014-.9,1.895-3.058,3.59L1.866,2.686a1.006,1.006,0,0,0-.416.781v.848A.384.384,0,0,0,1.849,4.714Zm13.74.166c3.141,0,4.388-2.011,4.487-4.454.05-.9.05-2.144,0-3.091-.083-2.427-1.413-4.421-4.487-4.421S11.2-5.092,11.1-2.666c-.033.947-.033,2.194,0,3.091C11.218,2.869,12.448,4.88,15.589,4.88Zm0-1.911c-1.413,0-2.061-1.03-2.111-2.626-.033-.947-.033-1.994,0-2.909.05-1.562.681-2.626,2.111-2.626,1.446,0,2.078,1.064,2.111,2.626.033.914.033,1.961,0,2.909C17.666,1.938,17.018,2.969,15.589,2.969Z" transform="translate(4565 -4685)" fill="#d5005b"/>
    </g>
    <path id="Path_284" data-name="Path 284" d="M3.969,1.325c2.121,0,3.392-1.189,3.438-2.7a.232.232,0,0,0-.245-.245H6.055c-.186,0-.28.058-.326.28A1.577,1.577,0,0,1,3.957-.016c-1.049,0-1.7-.548-1.748-1.876q-.035-1,0-1.958c.047-1.329.7-1.876,1.748-1.876A1.575,1.575,0,0,1,5.729-4.4c.058.21.14.28.326.28H7.163a.232.232,0,0,0,.245-.245c-.047-1.515-1.317-2.7-3.438-2.7A3.081,3.081,0,0,0,.542-3.908c-.023.664-.023,1.445,0,2.075A3.058,3.058,0,0,0,3.969,1.325ZM8.2,1.208H9.214A.353.353,0,0,0,9.552.987L10.1-.435h3.462L14.109.987a.329.329,0,0,0,.338.221h1.014a.237.237,0,0,0,.233-.245.36.36,0,0,0-.012-.1L12.873-6.659a.4.4,0,0,0-.408-.291H11.2a.391.391,0,0,0-.408.291L7.978.859a.433.433,0,0,0-.023.1A.246.246,0,0,0,8.2,1.208Zm2.308-2.984,1.317-3.6,1.329,3.6Zm8.986,3.1c1.97,0,3.31-.909,3.31-2.436,0-1.375-.851-1.946-2.832-2.389-1.41-.373-1.935-.618-1.935-1.27s.548-.956,1.4-.956c.8,0,1.352.4,1.445.874a.343.343,0,0,0,.338.221H22.3a.239.239,0,0,0,.245-.245c-.035-.944-1.072-2.191-3.112-2.191-1.888,0-3.042.991-3.042,2.331,0,1.4.909,1.993,2.646,2.413,1.492.385,2.121.606,2.121,1.27,0,.641-.548,1.037-1.667,1.037-1.049,0-1.538-.478-1.678-.932a.383.383,0,0,0-.361-.221H16.417a.239.239,0,0,0-.245.245C16.207.229,17.337,1.325,19.494,1.325Zm4.93-.117h1.061a.269.269,0,0,0,.28-.28V-2.2H29.2V.928a.269.269,0,0,0,.28.28h1.049a.272.272,0,0,0,.291-.28V-6.659a.275.275,0,0,0-.291-.291H29.482a.272.272,0,0,0-.28.291v3.007H25.764V-6.659a.272.272,0,0,0-.28-.291H24.424a.272.272,0,0,0-.28.291V.928A.269.269,0,0,0,24.424,1.208Zm8.5,0h3.473c1.807,0,2.774-1,2.774-2.413a2.057,2.057,0,0,0-1.154-1.865A1.8,1.8,0,0,0,39-4.713c0-1.329-.828-2.238-2.7-2.238H32.92a.272.272,0,0,0-.28.291V.928A.269.269,0,0,0,32.92,1.208Zm1.34-4.814V-5.727h1.83c.828,0,1.235.4,1.235,1.049s-.408,1.072-1.235,1.072Zm0,3.578V-2.393h1.946A1.159,1.159,0,0,1,37.489-1.2,1.156,1.156,0,0,1,36.207-.027ZM40.03,1.208h1.014a.353.353,0,0,0,.338-.221l.548-1.422h3.462L45.939.987a.329.329,0,0,0,.338.221h1.014a.237.237,0,0,0,.233-.245.359.359,0,0,0-.012-.1L44.7-6.659A.4.4,0,0,0,44.3-6.95h-1.27a.391.391,0,0,0-.408.291L39.808.859a.433.433,0,0,0-.023.1A.246.246,0,0,0,40.03,1.208Zm2.308-2.984,1.317-3.6,1.329,3.6Zm9.254,3.1c2.121,0,3.392-1.189,3.438-2.7a.232.232,0,0,0-.245-.245H53.678c-.186,0-.28.058-.326.28A1.577,1.577,0,0,1,51.58-.016c-1.049,0-1.7-.548-1.748-1.876q-.035-1,0-1.958c.047-1.329.7-1.876,1.748-1.876A1.575,1.575,0,0,1,53.351-4.4c.058.21.14.28.326.28h1.107a.232.232,0,0,0,.245-.245c-.047-1.515-1.317-2.7-3.438-2.7a3.081,3.081,0,0,0-3.427,3.159c-.023.664-.023,1.445,0,2.075A3.058,3.058,0,0,0,51.591,1.325Zm5.1-.117h1.026a.272.272,0,0,0,.291-.28V-2.09L60.834,1a.564.564,0,0,0,.455.21h1.2a.246.246,0,0,0,.245-.245.249.249,0,0,0-.058-.152L59.249-3.046l3.205-3.52a.224.224,0,0,0,.047-.14.246.246,0,0,0-.245-.245H61.1a.539.539,0,0,0-.455.21L58.013-3.932V-6.659a.275.275,0,0,0-.291-.291H56.7a.272.272,0,0,0-.28.291V.928A.269.269,0,0,0,56.7,1.208Zm7.832-6.93a.279.279,0,0,0,.361-.058c0-.012.023-.023.047-.082l.536-1.119.536,1.119c.023.058.047.07.047.082a.279.279,0,0,0,.361.058L66.79-6a.26.26,0,0,0,.058-.35c0-.012-.023-.035-.07-.082l-.9-.828L67.1-7.424l.093-.023a.277.277,0,0,0,.163-.326l-.152-.443a.264.264,0,0,0-.315-.163.291.291,0,0,0-.093.047l-1.084.594L65.95-8.95a.437.437,0,0,0,.012-.093.267.267,0,0,0-.256-.256h-.466a.267.267,0,0,0-.256.256.437.437,0,0,0,.012.093l.221,1.2-1.072-.583a.291.291,0,0,0-.093-.047.264.264,0,0,0-.315.163l-.152.443a.277.277,0,0,0,.163.326l.093.023,1.212.152-.886.839c-.047.047-.07.07-.07.082a.26.26,0,0,0,.058.35Z" transform="translate(5212 -4844.7)" fill="#050605"/>
  </g>
</svg>
