<svg xmlns="http://www.w3.org/2000/svg" style="display: none;">
  <symbol id="i-menu" viewBox="0 0 24 24" fill="none" xmlns="http://www.w3.org/2000/svg">
    <path d="M21.75 19.5H2.25V21.75H21.75V19.5Z" fill="black"/>
    <path d="M21.75 10.875H2.25V13.125H21.75V10.875Z" fill="black"/>
    <path d="M21.75 2.25H2.25V4.5H21.75V2.25Z" fill="black"/>
  </symbol>
  <symbol id="i-search" viewBox="0 0 24 24" fill="none" xmlns="http://www.w3.org/2000/svg">
    <path d="M18.825 22.5001L13.65 17.3251C9.97497 19.3501 5.32497 18.0751 3.22497 14.4001C1.12497 10.7251 2.47497 6.00012 6.14997 3.97512C9.82497 1.95012 14.475 3.22512 16.575 6.90012C17.85 9.22512 17.85 12.0751 16.575 14.3251L21.75 19.5001L18.825 22.5001ZM9.89997 4.42512C6.44997 4.42512 3.67497 7.20012 3.67497 10.6501C3.67497 14.1001 6.44997 16.8751 9.89997 16.8751C13.35 16.8751 16.125 14.1001 16.125 10.6501C16.125 7.20012 13.35 4.42512 9.89997 4.42512Z" fill="black"/>
  </symbol>
</svg>
