<svg xmlns="http://www.w3.org/2000/svg" style="display: none;">
  <symbol id="i-logo" viewBox="0 0 82 18" xmlns="http://www.w3.org/2000/svg">
    <path d="M47.2358 1H44.4878V6.625H44.4464C43.9919 5.5 43.2274 5.0625 41.6571 5.0625C40.2728 5.0625 39.3637 5.39583 38.8058 6.0625C38.1653 6.83333 38 7.64583 38 9.85417C38 12.5833 38.1653 13.3958 38.8885 14.125C39.467 14.7083 40.4174 15 41.7191 15C43.3927 15 44.1159 14.5417 44.6117 13.1875H44.6737L44.5704 14.8958H47.2358V1ZM42.5456 7.22917C44.1985 7.22917 44.4878 7.64583 44.4878 9.97917C44.4878 11.6667 44.4051 12.1667 44.0539 12.5C43.7646 12.7708 43.2687 12.8958 42.5662 12.8958C41.0373 12.8958 40.748 12.4375 40.748 9.95833C40.748 7.60417 40.9959 7.22917 42.5456 7.22917Z" fill="black"/>
    <path d="M54.8017 11.7083C54.781 12.7708 54.4711 13.0208 53.0661 13.0208C51.5578 13.0208 51.1445 12.5833 51.1445 10.9167C51.1445 10.8542 51.1445 10.6875 51.1652 10.5208H57.5083V9.66667C57.5083 6.0625 56.5166 5.0625 53.0041 5.0625C51.1445 5.0625 50.0701 5.35417 49.347 6.0625C48.6651 6.75 48.4172 7.77083 48.4172 9.89583C48.4172 12.25 48.6651 13.3542 49.3883 14.0417C50.1115 14.7292 51.2065 15 53.3347 15C55.3595 15 56.4133 14.6667 56.9918 13.875C57.3224 13.4167 57.5083 12.7292 57.5083 11.9792V11.7083H54.8017ZM51.1859 8.91667C51.2065 8.14583 51.2272 7.97917 51.3305 7.72917C51.5371 7.22917 51.909 7.08333 52.9834 7.08333C54.5124 7.08333 54.8017 7.3125 54.8223 8.58333C54.8223 8.625 54.8223 8.77083 54.843 8.91667H51.1859Z" fill="black"/>
    <path d="M61.4922 8.02083C61.5541 7.02083 61.8021 6.8125 63.0005 6.8125C64.3228 6.8125 64.7154 7.16667 64.7154 8.375V10.125H64.6741C64.2608 9.20833 63.6823 8.95833 61.8227 8.95833C59.3227 8.95833 58.3309 9.8125 58.3309 11.9375C58.3309 14.1875 59.24 15 61.7608 15C63.5997 15 64.2815 14.6458 64.7567 13.4375H64.8187L64.7154 14.8958H67.4634V8.5625C67.4634 7.85417 67.3188 6.9375 67.1328 6.58333C66.5956 5.47917 65.4592 5.0625 62.8972 5.0625C59.55 5.0625 58.7028 5.64583 58.7235 8.02083H61.4922ZM62.8352 10.7083C64.3021 10.7083 64.7154 10.9583 64.7154 11.875C64.7154 12.8333 64.3228 13.125 62.9798 13.125C61.4715 13.125 61.1202 12.8958 61.1202 11.8542C61.1202 10.9792 61.5128 10.7083 62.8352 10.7083Z" fill="black"/>
    <path d="M71.7465 1H68.9985V14.8958H71.7465V1Z" fill="black"/>
    <path d="M81.6074 7.89583C81.6074 5.66667 80.719 5.0625 77.4338 5.0625C73.88 5.0625 72.9295 5.6875 72.9295 8.02083C72.9295 9.54167 73.4047 10.3333 74.5411 10.6875C75.2023 10.8958 76.1321 10.9792 77.9503 11C79.0247 11 79.314 11.2292 79.314 12.0625C79.314 12.9167 78.9421 13.125 77.4544 13.125C75.9875 13.125 75.6775 12.9375 75.6775 12.0625C75.6775 12.0417 75.6775 11.9375 75.6982 11.8333H72.8675C72.8675 12.8125 72.9502 13.2708 73.2395 13.7292C73.756 14.6667 74.8511 15 77.2685 15C79.3553 15 80.3264 14.7917 81.0702 14.1875C81.6901 13.6667 82 12.875 82 11.7708C82 10.7083 81.6901 9.9375 81.1115 9.52083C80.5743 9.125 79.9545 9.02083 78.0536 8.91667C76.504 8.85417 76.318 8.83333 76.1114 8.77083C75.7602 8.6875 75.5949 8.39583 75.5949 7.89583C75.5949 7.54167 75.7189 7.20833 75.9048 7.10417C76.1321 6.95833 76.4007 6.91667 77.2891 6.91667C78.6941 6.91667 78.8181 7 78.9834 7.89583H81.6074Z" fill="black"/>
    <rect width="36" height="18" fill="#E40001"/>
    <path d="M3 14.8767H6.41989V11.9868H11.9391C13.903 11.9868 14.6649 11.8634 15.3251 11.4405C16.2563 10.8414 16.6457 9.67841 16.6457 7.44053C16.6457 5.22026 16.2224 4.14537 15.0881 3.56388C14.3771 3.19383 13.8184 3.12335 11.6344 3.12335H3V14.8767ZM6.41989 9.13216V5.97797H11.4143C12.8872 5.97797 13.2258 6.29515 13.2258 7.70485C13.2258 8.81498 12.8195 9.13216 11.4143 9.13216H6.41989Z" fill="white"/>
    <path d="M32.5271 11.6872C32.6456 10.9295 32.6794 10.4185 32.6794 8.86784C32.6794 7.01762 32.6287 6.25991 32.4424 5.62555C32.1038 4.32159 31.4097 3.61674 30.1738 3.29956C29.2596 3.05286 28.0914 3 23.8419 3C21.7087 3 20.6252 3.08811 19.7787 3.3348C18.492 3.72247 17.8317 4.39207 17.51 5.64317C17.29 6.45374 17.2561 7.01762 17.2561 9.23788C17.2561 11.511 17.3746 12.3568 17.7809 13.2026C18.2211 14.0661 18.9322 14.5595 20.185 14.8062C20.8284 14.9295 22.5383 15 24.9085 15C27.8205 15 28.904 14.9648 29.5982 14.8062C30.4277 14.63 30.9864 14.3833 31.4605 13.9604L32.798 14.9824L34 12.5683L32.5271 11.6872ZM25.9243 7.44053L24.5699 9.81938L28.3115 11.9868C27.7866 12.0925 27.1602 12.1278 25.755 12.1278C22.5044 12.1278 22.0304 12.0925 21.4209 11.7577C20.8961 11.4581 20.7268 10.8062 20.7268 8.99119C20.7268 5.99559 20.8961 5.87225 24.6376 5.87225C29.2088 5.87225 29.2596 5.90749 29.2596 8.74449C29.2596 9.04405 29.2596 9.23789 29.2426 9.67841L25.9243 7.44053Z" fill="white"/>
  </symbol>

  <symbol viewBox="0 0 128 18" xmlns="http://www.w3.org/2000/svg">
    <path d="M2.65082 17.6618V8.97399L8.65093 17.6618L14.6401 8.97399V17.6618H17.0742V0.283445L8.65093 12.5636L0 0.0879007L0 17.6618H2.65082Z"/>
    <path d="M22.1284 0.312138V17.6618H24.8221V0.312138H22.1284Z"/>
    <path d="M30.0963 0.312138V17.6618H34.5064C35.8532 17.6618 38.0451 17.4277 39.4447 15.9711C40.2898 15.0867 40.6067 14.0983 40.6067 12.8497C40.6067 11.7832 40.3954 10.5867 39.4447 9.59827C38.5733 8.71387 38.4011 8.42775 38.0842 8.34971C38.4804 8.16763 39.0085 7.82948 39.4047 7.15318C39.8272 6.47688 39.9328 5.77457 39.9328 5.09827C39.9328 3.66763 39.4839 2.54913 38.5332 1.66474C37.3712 0.598266 35.0346 0.312138 32.7635 0.312138H30.0963ZM32.7899 2.80925H34.6248C35.3906 2.80925 36.1565 2.88728 36.7638 3.45954C37.3184 3.97977 37.3976 4.60405 37.3976 5.12428C37.3976 5.72254 37.3184 6.5289 36.711 7.10116C36.0772 7.69942 35.1794 7.77746 33.6085 7.77746H32.7899V2.80925ZM32.7899 9.96243H34.48C35.4307 9.96243 36.5134 10.0405 37.2528 10.7428C37.7018 11.185 37.9659 11.8613 37.9659 12.5636C37.9659 13.3439 37.6226 14.0723 37.0944 14.4884C36.4078 15.0347 35.193 15.1647 34.4272 15.1647H32.7899V9.96243Z"/>
    <path d="M62.1501 5.46243C62.1501 2.75723 61.1724 1.58671 60.697 1.17052C60.1425 0.702313 59.0597 0 57.1584 0C53.8574 0 52.0088 2.23699 52.0088 4.57803C52.0088 7.17919 54.1478 8.37572 55.6003 8.97399L57.2904 9.6763C58.4524 10.1445 59.8256 10.8728 59.8256 12.6416C59.8256 14.3844 58.558 15.5549 56.9207 15.5549C55.8644 15.5549 55.1249 15.1387 54.6232 14.5144C54.2007 13.9682 53.8838 12.9376 53.8838 12.0792H51.3364C51.4421 13.2758 51.7447 15.2168 52.6954 16.2572C53.5933 17.2457 54.808 18 56.8415 18C60.1425 18 62.5192 15.737 62.5192 12.4335C62.5192 10.4566 61.6213 8.63584 58.3731 7.33526L56.6038 6.63295C54.8873 5.95665 54.7024 5.04624 54.7024 4.52601C54.7024 3.40751 55.5475 2.44509 57.1848 2.44509C57.9506 2.44509 58.4083 2.64422 58.9629 3.08641C59.359 3.42456 59.532 4.88031 59.532 5.43642L62.1501 5.46243Z"/>
    <path d="M67.1735 0.536376V17.8861H69.8672V11.2854H73.3585C74.6525 11.2854 76.2634 11.1033 77.663 9.93283C79.1155 8.71028 79.3795 6.70112 79.3795 5.68666C79.3795 4.09996 78.6665 2.43522 77.1877 1.47279C75.9201 0.640422 74.4148 0.536376 73.3321 0.536376H67.1735ZM69.8672 2.98146H73.3321C76.3954 2.98146 76.7915 4.69823 76.7915 5.66065C76.7915 7.27337 75.6824 8.84034 73.3585 8.84034H69.8672V2.98146Z"/>
    <path d="M84.3329 0.312138V17.6618H87.0266V0.312138H84.3329Z"/>
    <path d="M109.285 0.312138V17.6618H111.979V0.312138H109.285Z"/>
    <path d="M128 2.80925V0.312138H117.226V2.80925H121.266V17.6618H123.96V2.80925H128Z"/>
    <path fill-rule="evenodd" clip-rule="evenodd" d="M92.1133 17.6618V0.312084H95.9379C98.0778 0.312084 101.045 0.572199 102.18 1.32653C104.108 2.6011 104.608 4.90716 104.608 5.6615C104.876 9.16767 102.291 11.0872 99.941 11.6074L104.608 17.6618H101.464L95.9834 10.5862L95.274 9.47713L97.9285 9.16947C98.6679 9.16947 101.678 8.41872 101.678 5.6615C101.678 3.21731 99.3281 2.75807 98.0077 2.75807H94.8069V9.16947H94.8451V10.5597H94.8069V17.6618H92.1133Z"/>
  </symbol>

  <symbol id="i-menu" viewBox="0 0 24 24" xmlns="http://www.w3.org/2000/svg">
    <path d="M21.75 19.5H2.25V21.75H21.75V19.5Z"/>
    <path d="M21.75 10.875H2.25V13.125H21.75V10.875Z"/>
    <path d="M21.75 2.25H2.25V4.5H21.75V2.25Z"/>
  </symbol>
  <symbol id="i-close" viewBox="0 0 24 24" xmlns="http://www.w3.org/2000/svg">
    <path d="M19.725 5.92499L18.15 4.34999L12 10.425L5.92502 4.27499L4.27502 5.92499L10.35 12L4.27502 18.075L5.85002 19.65L11.925 13.575L18 19.65L19.575 18.075L13.575 12L19.725 5.92499Z"/>
  </symbol>
  <symbol id="i-search" viewBox="0 0 24 24" xmlns="http://www.w3.org/2000/svg">
    <path d="M18.825 22.5001L13.65 17.3251C9.97497 19.3501 5.32497 18.0751 3.22497 14.4001C1.12497 10.7251 2.47497 6.00012 6.14997 3.97512C9.82497 1.95012 14.475 3.22512 16.575 6.90012C17.85 9.22512 17.85 12.0751 16.575 14.3251L21.75 19.5001L18.825 22.5001ZM9.89997 4.42512C6.44997 4.42512 3.67497 7.20012 3.67497 10.6501C3.67497 14.1001 6.44997 16.8751 9.89997 16.8751C13.35 16.8751 16.125 14.1001 16.125 10.6501C16.125 7.20012 13.35 4.42512 9.89997 4.42512Z"/>
  </symbol>
  <symbol id="i-cart" viewBox="0 0 24 24" xmlns="http://www.w3.org/2000/svg">
    <path d="M6.3 5.7L5.55 1.65L0.45 0L0 1.35L4.35 2.775L6.675 15.525C6.825 16.425 7.35 17.175 8.025 17.7C6.825 18.75 6.75 20.475 7.725 21.675C8.7 22.875 10.5 22.95 11.7 21.975C12.75 21.075 12.975 19.575 12.3 18.45H15.9C15.675 18.9 15.525 19.35 15.525 19.875C15.525 21.45 16.8 22.725 18.375 22.725C19.95 22.725 21.225 21.45 21.225 19.875C21.225 18.3 19.95 17.025 18.375 17.025H10.125C9.225 17.025 8.4 16.425 8.175 15.6C8.25 15.6 8.4 15.675 8.475 15.675H19.2C20.1 15.675 20.925 15.075 21.225 14.25L24 5.7H6.3ZM8.475 14.175C8.1 14.175 7.875 13.95 7.8 13.575L6.9 8.55H9.75L11.175 14.175H8.475ZM15.675 14.175H12.525L11.1 8.55H17.025L15.675 14.175ZM19.8 13.65C19.725 13.95 19.425 14.1 19.125 14.1H17.1L18.525 8.475H21.6L19.8 13.65Z"/>
  </symbol>
  <symbol id="i-cart-empty" viewBox="0 0 24 24" xmlns="http://www.w3.org/2000/svg">
    <path d="M21.6 8.475L19.8 13.65C19.725 13.95 19.425 14.1 19.125 14.1L8.475 14.175C8.1 14.175 7.875 13.95 7.8 13.575L6.9 8.55L6.3 5.7L5.55 1.65L0.45 0L0 1.35L4.35 2.775L6.675 15.525C6.825 16.425 7.35 17.175 8.025 17.7C6.825 18.75 6.75 20.475 7.725 21.675C8.7 22.875 10.5 22.95 11.7 21.975C12.75 21.075 12.975 19.575 12.3 18.45H15.9C15.675 18.9 15.525 19.35 15.525 19.875C15.525 21.45 16.8 22.725 18.375 22.725C19.95 22.725 21.225 21.45 21.225 19.875C21.225 18.3 19.95 17.025 18.375 17.025H10.125C9.225 17.025 8.4 16.425 8.175 15.6C8.25 15.6 8.4 15.675 8.475 15.675H19.2C20.1 15.675 20.925 15.075 21.225 14.25L24 5.7H22.5L21.6 8.475ZM18.75 4.125C18.525 3.525 18.225 2.925 17.775 2.4C17.4 1.95 16.875 1.5 16.275 1.275C15.075 0.75 13.725 0.75 12.6 1.275C12.075 1.575 11.55 1.95 11.175 2.4C10.725 2.925 10.425 3.525 10.2 4.125C9.75 5.55 9.75 7.05 10.2 8.475C10.425 9.075 10.725 9.675 11.175 10.2C11.55 10.65 12.075 11.025 12.6 11.325C13.8 11.85 15.15 11.85 16.275 11.325C16.875 11.025 17.325 10.65 17.775 10.2C18.225 9.675 18.525 9.075 18.75 8.475C19.2 7.05 19.2 5.55 18.75 4.125ZM16.5 7.65C16.425 8.025 16.275 8.325 16.05 8.7C15.9 9 15.6 9.225 15.375 9.375C15.075 9.525 14.775 9.6 14.475 9.6C14.175 9.6 13.875 9.525 13.575 9.375C13.275 9.225 13.05 9 12.9 8.7C12.675 8.4 12.525 8.025 12.45 7.65C12.375 7.2 12.3 6.75 12.3 6.375C12.3 5.925 12.375 5.475 12.45 5.025C12.525 4.65 12.675 4.275 12.9 3.975C13.05 3.675 13.35 3.45 13.575 3.3C13.875 3.15 14.175 3.075 14.475 3.075C14.775 3.075 15.075 3.15 15.375 3.3C15.675 3.45 15.9 3.675 16.05 3.975C16.275 4.275 16.425 4.65 16.5 5.025C16.575 5.475 16.65 5.925 16.65 6.375C16.65 6.75 16.65 7.2 16.5 7.65Z"/>
  </symbol>
  <symbol id="i-arrow" viewBox="0 0 24 24" xmlns="http://www.w3.org/2000/svg">
    <path d="M10 18.1L8.5 16.6L12.7999 12.3L8 7.5L9.5 6L15.7 12.2L10 18.1Z"/>
  </symbol>
  <symbol id="i-plus" viewBox="0 0 24 24" xmlns="http://www.w3.org/2000/svg">
    <path d="M18 11H13V6H10.9V11H6V13.1H10.9V18H13V13.1H18V11Z"/>
  </symbol>
  <symbol id="i-minus" viewBox="0 0 24 24" xmlns="http://www.w3.org/2000/svg">
    <path d="M6 10.9H18V13H6V10.9Z"/>
  </symbol>
  <symbol id="i-delete" viewBox="0 0 24 24" xmlns="http://www.w3.org/2000/svg">
    <path d="M15.875 5V3.3125C15.875 2.5625 15.3125 2 14.5625 2H9.4375C8.6875 2 8.125 2.5625 8.125 3.3125V5H2.6875V6.5625H4.3125L5.625 21.25C5.625 21.6875 6 22 6.375 22H17.5625C17.9375 22 18.3125 21.6875 18.3125 21.3125L19.625 6.625H21.3125V5H15.875ZM9.6875 3.5625H14.3125V5H9.6875V3.5625V3.5625ZM16.875 20.4375H7.125L5.875 6.5625H18.0625L16.875 20.4375Z" fill="black"/>
    <path d="M13.4364 8.86213L13.0972 18.1057L14.6586 18.163L14.9979 8.91944L13.4364 8.86213Z" fill="black"/>
    <path d="M10.5172 8.84982L8.95575 8.9071L9.29487 18.1506L10.8563 18.0933L10.5172 8.84982Z" fill="black"/>
  </symbol>
  <symbol id="i-done" viewBox="0 0 24 24" xmlns="http://www.w3.org/2000/svg">
    <path d="M19.707 6.293a1 1 0 010 1.414l-9 9a1 1 0 01-1.414 0l-4-4a1 1 0 111.414-1.414L10 14.586l8.293-8.293a1 1 0 011.414 0z"/>
  </symbol>
  <symbol id="i-camera" viewBox="0 0 24 24" xmlns="http://www.w3.org/2000/svg">
    <path d="M23.2015 5.94297C22.7224 5.44106 22.0608 5.14449 21.308 5.14449H17.5209V5.09886C17.5209 4.52852 17.2928 3.98099 16.9049 3.61597C16.5171 3.22814 15.9924 3 15.4221 3H8.57795C7.98479 3 7.46008 3.22814 7.07224 3.61597C6.68441 4.0038 6.45627 4.52852 6.45627 5.09886V5.14449H2.69202C1.93916 5.14449 1.27757 5.44106 0.798479 5.94297C0.319392 6.42205 0 7.10646 0 7.8365V19.1977C0 19.9506 0.296578 20.6122 0.798479 21.0913C1.27757 21.5703 1.96198 21.8897 2.69202 21.8897H21.308C22.0608 21.8897 22.7224 21.5932 23.2015 21.0913C23.6806 20.6122 24 19.9278 24 19.1977V7.8365C24 7.08365 23.7034 6.42205 23.2015 5.94297ZM22.8137 19.1977H22.7909C22.7909 19.6084 22.6312 19.9734 22.3574 20.2471C22.0837 20.5209 21.7186 20.6806 21.308 20.6806H2.69202C2.28137 20.6806 1.91635 20.5209 1.64259 20.2471C1.36882 19.9734 1.20913 19.6084 1.20913 19.1977V7.8365C1.20913 7.42586 1.36882 7.06084 1.64259 6.78707C1.91635 6.51331 2.28137 6.35361 2.69202 6.35361H7.09506C7.43726 6.35361 7.71103 6.07985 7.71103 5.73764V5.07605C7.71103 4.8251 7.80228 4.59696 7.96198 4.43726C8.12167 4.27757 8.34981 4.18631 8.60076 4.18631H15.4221C15.673 4.18631 15.9011 4.27757 16.0608 4.43726C16.2205 4.59696 16.3118 4.8251 16.3118 5.07605V5.73764C16.3118 6.07985 16.5856 6.35361 16.9278 6.35361H21.3308C21.7414 6.35361 22.1065 6.51331 22.3802 6.78707C22.654 7.06084 22.8137 7.42586 22.8137 7.8365V19.1977Z"/>
    <path d="M12 7.90497C10.4487 7.90497 9.03421 8.54375 8.0304 9.54755C7.00379 10.5742 6.38782 11.9658 6.38782 13.5171C6.38782 15.0685 7.0266 16.4829 8.0304 17.4867C9.05702 18.5133 10.4487 19.1293 12 19.1293C13.5513 19.1293 14.9658 18.4905 15.9696 17.4867C16.9962 16.4601 17.6122 15.0685 17.6122 13.5171C17.6122 11.9658 16.9734 10.5514 15.9696 9.54755C14.9658 8.54375 13.5513 7.90497 12 7.90497ZM15.1027 16.6426C14.3042 17.4183 13.2091 17.9202 12 17.9202C10.7909 17.9202 9.6958 17.4183 8.89733 16.6426C8.09885 15.8441 7.61976 14.7491 7.61976 13.5399C7.61976 12.3308 8.12166 11.2358 8.89733 10.4373C9.6958 9.63881 10.7909 9.15972 12 9.15972C13.2091 9.15972 14.3042 9.66162 15.1027 10.4373C15.9011 11.2358 16.3802 12.3308 16.3802 13.5399C16.403 14.7491 15.9011 15.8441 15.1027 16.6426Z"/>
    <path d="M20.1217 10.1179C20.7391 10.1179 21.2396 9.61739 21.2396 9.00001C21.2396 8.38263 20.7391 7.88214 20.1217 7.88214C19.5043 7.88214 19.0038 8.38263 19.0038 9.00001C19.0038 9.61739 19.5043 10.1179 20.1217 10.1179Z"/>
  </symbol>
  <symbol id="i-avatar" viewBox="0 0 24 24" xmlns="http://www.w3.org/2000/svg">
    <path d="M12 2C9.14412 2 6.80905 4.33507 6.80905 7.19098C6.80905 10.0469 9.14412 12.382 12 12.382C14.8559 12.382 17.191 10.0469 17.191 7.19098C17.191 4.33507 14.8603 2 12 2Z"/>
    <path d="M20.9149 16.5356C20.7804 16.1971 20.5981 15.8759 20.3941 15.5851C19.3524 14.0443 17.7422 13.0243 15.9279 12.7726C15.7022 12.7509 15.4505 12.7943 15.2682 12.9332C14.3177 13.6363 13.1805 14.0009 12.0043 14.0009C10.8281 14.0009 9.69096 13.6363 8.74044 12.9332C8.55815 12.7986 8.31075 12.7292 8.08072 12.7726C6.26648 13.02 4.63454 14.0443 3.61457 15.5851C3.41058 15.8802 3.22829 16.2188 3.09374 16.5356C3.02429 16.6702 3.05033 16.8307 3.11544 16.9653C3.29773 17.2821 3.52343 17.599 3.72742 17.8724C4.04426 18.3021 4.38714 18.6884 4.76908 19.053C5.08592 19.3698 5.45051 19.6649 5.81075 19.9601C7.60329 21.2969 9.75606 22 11.9783 22C14.2005 22 16.3533 21.2969 18.1458 19.9601C18.5104 19.6866 18.8706 19.3698 19.1875 19.053C19.5521 18.6884 19.9123 18.3064 20.2292 17.8724C20.4548 17.5773 20.6588 17.2821 20.8411 16.9653C20.9583 16.8307 20.98 16.6702 20.9149 16.5356Z"/>
  </symbol>


  <!-- socials -->
  <symbol id="i-facebook" viewBox="0 0 24 24" xmlns="http://www.w3.org/2000/svg">
    <path d="M21 12C21 7.05 16.95 3 12 3C7.05 3 3 7.05 3 12C3 16.425 6.225 20.1749 10.575 20.9249V14.625H8.325V12H10.575V10.0499C10.575 7.79993 11.925 6.52496 13.95 6.52496C14.625 6.52496 15.3 6.59993 15.975 6.67493V8.92493H14.85C14.175 8.84993 13.5 9.29993 13.425 10.0499C13.425 10.1249 13.425 10.275 13.425 10.35V12.0751H15.9L15.525 14.7001H13.425V21C17.775 20.175 21 16.425 21 12Z"/>
    <path d="M15.525 14.625L15.9 12H13.425V10.275C13.35 9.52496 13.875 8.92504 14.625 8.85004C14.7 8.85004 14.85 8.85004 14.925 8.85004H16.05V6.60004C15.375 6.52504 14.7 6.45007 14.025 6.45007C12 6.45007 10.65 7.72504 10.65 9.97504V11.9249H8.40002V14.5499H10.65V20.85C11.55 21 12.525 21 13.5 20.85V14.5499L15.525 14.625Z" fill="white"/>
  </symbol>
  <symbol id="i-youtube" viewBox="0 0 24 24" xmlns="http://www.w3.org/2000/svg">
    <path d="M22.5248 6.65021C22.2998 5.67521 21.5498 4.92532 20.5748 4.70032C18.8498 4.25032 11.9498 4.25024 11.9498 4.25024C11.9498 4.25024 5.04975 4.25032 3.32475 4.70032C2.34975 4.92532 1.59975 5.67521 1.37475 6.65021C1.07475 8.37521 0.924744 10.1753 0.924744 11.9753C0.924744 13.7753 1.07475 15.5752 1.37475 17.3002C1.59975 18.2752 2.34975 19.0252 3.32475 19.2502C5.04975 19.7002 11.9498 19.7003 11.9498 19.7003C11.9498 19.7003 18.8498 19.7002 20.5748 19.2502C21.5498 19.0252 22.2998 18.2752 22.5248 17.3002C22.8248 15.5752 22.9747 13.7753 22.9747 11.9753C22.9747 10.2503 22.8248 8.45021 22.5248 6.65021Z"/>
    <path d="M9.77475 15.2752L15.5497 11.9753L9.77475 8.67517V15.2752Z" fill="white"/>
  </symbol>
  <symbol id="i-instagram" viewBox="0 0 24 24" xmlns="http://www.w3.org/2000/svg">
    <path d="M12.0157 4.59064C14.4157 4.59064 14.7157 4.59071 15.6157 4.66571C16.2157 4.66571 16.7407 4.74064 17.2657 4.96564C18.0157 5.26564 18.6907 5.86567 18.9907 6.69067C19.2157 7.21567 19.2907 7.81564 19.2907 8.34064C19.3657 9.31564 19.3657 9.54067 19.3657 11.9407C19.3657 14.3407 19.3657 14.6407 19.2907 15.5407C19.2907 16.1407 19.2157 16.6657 18.9907 17.1907C18.6907 17.9407 18.0907 18.6157 17.2657 18.9157C16.7407 19.1407 16.1407 19.2156 15.6157 19.2156C14.6407 19.2906 14.4157 19.2907 12.0157 19.2907C9.61575 19.2907 9.31573 19.2906 8.41573 19.2156C7.81573 19.2156 7.29075 19.1407 6.76575 18.9157C6.01575 18.6157 5.34073 18.0157 5.04073 17.1907C4.81573 16.6657 4.74074 16.0657 4.74074 15.5407C4.66574 14.5657 4.66573 14.3407 4.66573 11.9407C4.66573 9.54067 4.66574 9.24064 4.74074 8.34064C4.74074 7.74064 4.81573 7.21567 5.04073 6.69067C5.34073 5.94067 5.94075 5.26564 6.76575 4.96564C7.29075 4.74064 7.89073 4.66571 8.41573 4.66571C9.31573 4.66571 9.61575 4.59064 12.0157 4.59064ZM12.0157 3.01575C9.54075 3.01575 9.24075 3.01564 8.34075 3.09064C7.59075 3.09064 6.84073 3.24071 6.16573 3.54071C4.96573 3.99071 3.99073 4.96571 3.54073 6.16571C3.31573 6.84071 3.16575 7.59064 3.09075 8.34064C3.01575 9.31564 3.01575 9.61575 3.01575 12.0157C3.01575 14.4157 3.01575 14.7907 3.09075 15.6907C3.09075 16.4407 3.24073 17.1906 3.54073 17.8656C3.99073 19.0656 4.96573 20.0406 6.16573 20.4906C6.84073 20.7156 7.59075 20.8657 8.34075 20.9407C9.31575 21.0157 9.61575 21.0157 12.0157 21.0157C14.4157 21.0157 14.7907 21.0157 15.6907 20.9407C16.4407 20.9407 17.1907 20.7906 17.8657 20.4906C19.0657 20.0406 20.0407 19.0656 20.4907 17.8656C20.7157 17.1906 20.8657 16.4407 20.9407 15.6907C21.0157 14.7157 21.0157 14.4157 21.0157 12.0157C21.0157 9.61575 21.0157 9.24064 20.9407 8.34064C20.9407 7.59064 20.7907 6.84071 20.4907 6.16571C20.0407 4.96571 19.0657 3.99071 17.8657 3.54071C17.1907 3.31571 16.4407 3.16564 15.6907 3.09064C14.7157 3.01564 14.4157 3.01575 12.0157 3.01575Z"/>
    <path d="M12.0157 7.3656C9.46573 7.3656 7.36572 9.46575 7.36572 12.0157C7.36572 14.5657 9.46573 16.6657 12.0157 16.6657C14.5657 16.6657 16.6657 14.5657 16.6657 12.0157C16.5907 9.46575 14.5657 7.3656 12.0157 7.3656ZM12.0157 15.0157C10.3657 15.0157 9.01573 13.6657 9.01573 12.0157C9.01573 10.3657 10.3657 9.01575 12.0157 9.01575C13.6657 9.01575 15.0157 10.3657 15.0157 12.0157C15.0157 13.6657 13.6657 15.0157 12.0157 15.0157Z"/>
    <path d="M16.8157 8.26575C17.3956 8.26575 17.8657 7.79554 17.8657 7.21564C17.8657 6.63574 17.3956 6.16571 16.8157 6.16571C16.2358 6.16571 15.7657 6.63574 15.7657 7.21564C15.7657 7.79554 16.2358 8.26575 16.8157 8.26575Z"/>
  </symbol>



</svg>
