<svg xmlns="http://www.w3.org/2000/svg" style="display: none;">
  <symbol id="i-logo" viewBox="0 0 87 18" xmlns="http://www.w3.org/2000/svg">
    <path d="M5.86306 12.933V0.55496H0V17.445H16.6521V12.933H5.86306Z"/>
    <path d="M28.5888 18C35.341 18 39.8103 14.7668 39.8103 9C39.8103 3.23324 35.341 0 28.5888 0C21.8607 0 17.3913 3.23324 17.3913 9C17.3913 14.7668 21.8607 18 28.5888 18ZM28.5888 13.3914C25.3209 13.3914 23.3265 11.7748 23.3265 9C23.3265 6.2252 25.3449 4.60858 28.5888 4.60858C31.8568 4.60858 33.8512 6.2252 33.8512 9C33.8512 11.7748 31.8568 13.3914 28.5888 13.3914Z"/>
    <path d="M62.6591 7.45576H52.3747V11.1957H57.2525V12.5952C56.0991 13.3673 54.8256 13.6568 53.2157 13.6568C49.4672 13.6568 47.4728 11.9196 47.4728 9C47.4728 6.10456 49.3951 4.41555 53.1676 4.41555C55.1861 4.41555 56.5076 4.89812 57.9734 6.08043L62.0583 3.01609C60.2081 1.35121 57.1805 0 52.9754 0C45.9349 0 41.5376 3.20911 41.5376 9C41.5376 14.7909 45.9349 18 52.9754 18C57.3967 18 60.7367 16.6729 62.6591 14.4531V7.45576Z"/>
    <path d="M75.7785 18C82.5306 18 87 14.7668 87 9C87 3.23324 82.5306 0 75.7785 0C69.0504 0 64.581 3.23324 64.581 9C64.581 14.7668 69.0504 18 75.7785 18ZM75.7785 13.3914C72.5105 13.3914 70.5161 11.7748 70.5161 9C70.5161 6.2252 72.5346 4.60858 75.7785 4.60858C79.0464 4.60858 81.0408 6.2252 81.0408 9C81.0408 11.7748 79.0464 13.3914 75.7785 13.3914Z"/>
  </symbol>
  <symbol id="i-menu" viewBox="0 0 24 24" xmlns="http://www.w3.org/2000/svg">
    <path d="M21.75 19.5H2.25V21.75H21.75V19.5Z"/>
    <path d="M21.75 10.875H2.25V13.125H21.75V10.875Z"/>
    <path d="M21.75 2.25H2.25V4.5H21.75V2.25Z"/>
  </symbol>
  <symbol id="i-close" viewBox="0 0 24 24" xmlns="http://www.w3.org/2000/svg">
    <path d="M19.725 5.92499L18.15 4.34999L12 10.425L5.92502 4.27499L4.27502 5.92499L10.35 12L4.27502 18.075L5.85002 19.65L11.925 13.575L18 19.65L19.575 18.075L13.575 12L19.725 5.92499Z"/>
  </symbol>
  <symbol id="i-search" viewBox="0 0 24 24" xmlns="http://www.w3.org/2000/svg">
    <path d="M18.825 22.5001L13.65 17.3251C9.97497 19.3501 5.32497 18.0751 3.22497 14.4001C1.12497 10.7251 2.47497 6.00012 6.14997 3.97512C9.82497 1.95012 14.475 3.22512 16.575 6.90012C17.85 9.22512 17.85 12.0751 16.575 14.3251L21.75 19.5001L18.825 22.5001ZM9.89997 4.42512C6.44997 4.42512 3.67497 7.20012 3.67497 10.6501C3.67497 14.1001 6.44997 16.8751 9.89997 16.8751C13.35 16.8751 16.125 14.1001 16.125 10.6501C16.125 7.20012 13.35 4.42512 9.89997 4.42512Z"/>
  </symbol>
  <symbol id="i-cart" viewBox="0 0 24 24" xmlns="http://www.w3.org/2000/svg">
    <path d="M6.3 5.7L5.55 1.65L0.45 0L0 1.35L4.35 2.775L6.675 15.525C6.825 16.425 7.35 17.175 8.025 17.7C6.825 18.75 6.75 20.475 7.725 21.675C8.7 22.875 10.5 22.95 11.7 21.975C12.75 21.075 12.975 19.575 12.3 18.45H15.9C15.675 18.9 15.525 19.35 15.525 19.875C15.525 21.45 16.8 22.725 18.375 22.725C19.95 22.725 21.225 21.45 21.225 19.875C21.225 18.3 19.95 17.025 18.375 17.025H10.125C9.225 17.025 8.4 16.425 8.175 15.6C8.25 15.6 8.4 15.675 8.475 15.675H19.2C20.1 15.675 20.925 15.075 21.225 14.25L24 5.7H6.3ZM8.475 14.175C8.1 14.175 7.875 13.95 7.8 13.575L6.9 8.55H9.75L11.175 14.175H8.475ZM15.675 14.175H12.525L11.1 8.55H17.025L15.675 14.175ZM19.8 13.65C19.725 13.95 19.425 14.1 19.125 14.1H17.1L18.525 8.475H21.6L19.8 13.65Z"/>
  </symbol>
  <symbol id="i-arrow" viewBox="0 0 24 24" xmlns="http://www.w3.org/2000/svg">
    <path d="M10 18.1L8.5 16.6L12.7999 12.3L8 7.5L9.5 6L15.7 12.2L10 18.1Z"/>
  </symbol>
  <symbol id="i-plus" viewBox="0 0 24 24" xmlns="http://www.w3.org/2000/svg">
    <path d="M18 11H13V6H10.9V11H6V13.1H10.9V18H13V13.1H18V11Z"/>
  </symbol>
  <symbol id="i-minus" viewBox="0 0 24 24" xmlns="http://www.w3.org/2000/svg">
    <path d="M6 10.9H18V13H6V10.9Z"/>
  </symbol>
  <symbol id="i-camera" viewBox="0 0 24 24" xmlns="http://www.w3.org/2000/svg">
    <path d="M23.2015 5.94297C22.7224 5.44106 22.0608 5.14449 21.308 5.14449H17.5209V5.09886C17.5209 4.52852 17.2928 3.98099 16.9049 3.61597C16.5171 3.22814 15.9924 3 15.4221 3H8.57795C7.98479 3 7.46008 3.22814 7.07224 3.61597C6.68441 4.0038 6.45627 4.52852 6.45627 5.09886V5.14449H2.69202C1.93916 5.14449 1.27757 5.44106 0.798479 5.94297C0.319392 6.42205 0 7.10646 0 7.8365V19.1977C0 19.9506 0.296578 20.6122 0.798479 21.0913C1.27757 21.5703 1.96198 21.8897 2.69202 21.8897H21.308C22.0608 21.8897 22.7224 21.5932 23.2015 21.0913C23.6806 20.6122 24 19.9278 24 19.1977V7.8365C24 7.08365 23.7034 6.42205 23.2015 5.94297ZM22.8137 19.1977H22.7909C22.7909 19.6084 22.6312 19.9734 22.3574 20.2471C22.0837 20.5209 21.7186 20.6806 21.308 20.6806H2.69202C2.28137 20.6806 1.91635 20.5209 1.64259 20.2471C1.36882 19.9734 1.20913 19.6084 1.20913 19.1977V7.8365C1.20913 7.42586 1.36882 7.06084 1.64259 6.78707C1.91635 6.51331 2.28137 6.35361 2.69202 6.35361H7.09506C7.43726 6.35361 7.71103 6.07985 7.71103 5.73764V5.07605C7.71103 4.8251 7.80228 4.59696 7.96198 4.43726C8.12167 4.27757 8.34981 4.18631 8.60076 4.18631H15.4221C15.673 4.18631 15.9011 4.27757 16.0608 4.43726C16.2205 4.59696 16.3118 4.8251 16.3118 5.07605V5.73764C16.3118 6.07985 16.5856 6.35361 16.9278 6.35361H21.3308C21.7414 6.35361 22.1065 6.51331 22.3802 6.78707C22.654 7.06084 22.8137 7.42586 22.8137 7.8365V19.1977Z"/>
    <path d="M12 7.90497C10.4487 7.90497 9.03421 8.54375 8.0304 9.54755C7.00379 10.5742 6.38782 11.9658 6.38782 13.5171C6.38782 15.0685 7.0266 16.4829 8.0304 17.4867C9.05702 18.5133 10.4487 19.1293 12 19.1293C13.5513 19.1293 14.9658 18.4905 15.9696 17.4867C16.9962 16.4601 17.6122 15.0685 17.6122 13.5171C17.6122 11.9658 16.9734 10.5514 15.9696 9.54755C14.9658 8.54375 13.5513 7.90497 12 7.90497ZM15.1027 16.6426C14.3042 17.4183 13.2091 17.9202 12 17.9202C10.7909 17.9202 9.6958 17.4183 8.89733 16.6426C8.09885 15.8441 7.61976 14.7491 7.61976 13.5399C7.61976 12.3308 8.12166 11.2358 8.89733 10.4373C9.6958 9.63881 10.7909 9.15972 12 9.15972C13.2091 9.15972 14.3042 9.66162 15.1027 10.4373C15.9011 11.2358 16.3802 12.3308 16.3802 13.5399C16.403 14.7491 15.9011 15.8441 15.1027 16.6426Z"/>
    <path d="M20.1217 10.1179C20.7391 10.1179 21.2396 9.61739 21.2396 9.00001C21.2396 8.38263 20.7391 7.88214 20.1217 7.88214C19.5043 7.88214 19.0038 8.38263 19.0038 9.00001C19.0038 9.61739 19.5043 10.1179 20.1217 10.1179Z"/>
  </symbol>
  <symbol id="i-avatar" viewBox="0 0 24 24" xmlns="http://www.w3.org/2000/svg">
    <path d="M12 2C9.14412 2 6.80905 4.33507 6.80905 7.19098C6.80905 10.0469 9.14412 12.382 12 12.382C14.8559 12.382 17.191 10.0469 17.191 7.19098C17.191 4.33507 14.8603 2 12 2Z"/>
    <path d="M20.9149 16.5356C20.7804 16.1971 20.5981 15.8759 20.3941 15.5851C19.3524 14.0443 17.7422 13.0243 15.9279 12.7726C15.7022 12.7509 15.4505 12.7943 15.2682 12.9332C14.3177 13.6363 13.1805 14.0009 12.0043 14.0009C10.8281 14.0009 9.69096 13.6363 8.74044 12.9332C8.55815 12.7986 8.31075 12.7292 8.08072 12.7726C6.26648 13.02 4.63454 14.0443 3.61457 15.5851C3.41058 15.8802 3.22829 16.2188 3.09374 16.5356C3.02429 16.6702 3.05033 16.8307 3.11544 16.9653C3.29773 17.2821 3.52343 17.599 3.72742 17.8724C4.04426 18.3021 4.38714 18.6884 4.76908 19.053C5.08592 19.3698 5.45051 19.6649 5.81075 19.9601C7.60329 21.2969 9.75606 22 11.9783 22C14.2005 22 16.3533 21.2969 18.1458 19.9601C18.5104 19.6866 18.8706 19.3698 19.1875 19.053C19.5521 18.6884 19.9123 18.3064 20.2292 17.8724C20.4548 17.5773 20.6588 17.2821 20.8411 16.9653C20.9583 16.8307 20.98 16.6702 20.9149 16.5356Z"/>
  </symbol>


  <!-- socials -->
  <symbol id="i-facebook" viewBox="0 0 24 24" xmlns="http://www.w3.org/2000/svg">
    <path d="M21 12C21 7.05 16.95 3 12 3C7.05 3 3 7.05 3 12C3 16.425 6.225 20.1749 10.575 20.9249V14.625H8.325V12H10.575V10.0499C10.575 7.79993 11.925 6.52496 13.95 6.52496C14.625 6.52496 15.3 6.59993 15.975 6.67493V8.92493H14.85C14.175 8.84993 13.5 9.29993 13.425 10.0499C13.425 10.1249 13.425 10.275 13.425 10.35V12.0751H15.9L15.525 14.7001H13.425V21C17.775 20.175 21 16.425 21 12Z"/>
    <path d="M15.525 14.625L15.9 12H13.425V10.275C13.35 9.52496 13.875 8.92504 14.625 8.85004C14.7 8.85004 14.85 8.85004 14.925 8.85004H16.05V6.60004C15.375 6.52504 14.7 6.45007 14.025 6.45007C12 6.45007 10.65 7.72504 10.65 9.97504V11.9249H8.40002V14.5499H10.65V20.85C11.55 21 12.525 21 13.5 20.85V14.5499L15.525 14.625Z" fill="white"/>
  </symbol>
  <symbol id="i-youtube" viewBox="0 0 24 24" xmlns="http://www.w3.org/2000/svg">
    <path d="M22.5248 6.65021C22.2998 5.67521 21.5498 4.92532 20.5748 4.70032C18.8498 4.25032 11.9498 4.25024 11.9498 4.25024C11.9498 4.25024 5.04975 4.25032 3.32475 4.70032C2.34975 4.92532 1.59975 5.67521 1.37475 6.65021C1.07475 8.37521 0.924744 10.1753 0.924744 11.9753C0.924744 13.7753 1.07475 15.5752 1.37475 17.3002C1.59975 18.2752 2.34975 19.0252 3.32475 19.2502C5.04975 19.7002 11.9498 19.7003 11.9498 19.7003C11.9498 19.7003 18.8498 19.7002 20.5748 19.2502C21.5498 19.0252 22.2998 18.2752 22.5248 17.3002C22.8248 15.5752 22.9747 13.7753 22.9747 11.9753C22.9747 10.2503 22.8248 8.45021 22.5248 6.65021Z"/>
    <path d="M9.77475 15.2752L15.5497 11.9753L9.77475 8.67517V15.2752Z" fill="white"/>
  </symbol>
  <symbol id="i-instagram" viewBox="0 0 24 24" xmlns="http://www.w3.org/2000/svg">
    <path d="M12.0157 4.59064C14.4157 4.59064 14.7157 4.59071 15.6157 4.66571C16.2157 4.66571 16.7407 4.74064 17.2657 4.96564C18.0157 5.26564 18.6907 5.86567 18.9907 6.69067C19.2157 7.21567 19.2907 7.81564 19.2907 8.34064C19.3657 9.31564 19.3657 9.54067 19.3657 11.9407C19.3657 14.3407 19.3657 14.6407 19.2907 15.5407C19.2907 16.1407 19.2157 16.6657 18.9907 17.1907C18.6907 17.9407 18.0907 18.6157 17.2657 18.9157C16.7407 19.1407 16.1407 19.2156 15.6157 19.2156C14.6407 19.2906 14.4157 19.2907 12.0157 19.2907C9.61575 19.2907 9.31573 19.2906 8.41573 19.2156C7.81573 19.2156 7.29075 19.1407 6.76575 18.9157C6.01575 18.6157 5.34073 18.0157 5.04073 17.1907C4.81573 16.6657 4.74074 16.0657 4.74074 15.5407C4.66574 14.5657 4.66573 14.3407 4.66573 11.9407C4.66573 9.54067 4.66574 9.24064 4.74074 8.34064C4.74074 7.74064 4.81573 7.21567 5.04073 6.69067C5.34073 5.94067 5.94075 5.26564 6.76575 4.96564C7.29075 4.74064 7.89073 4.66571 8.41573 4.66571C9.31573 4.66571 9.61575 4.59064 12.0157 4.59064ZM12.0157 3.01575C9.54075 3.01575 9.24075 3.01564 8.34075 3.09064C7.59075 3.09064 6.84073 3.24071 6.16573 3.54071C4.96573 3.99071 3.99073 4.96571 3.54073 6.16571C3.31573 6.84071 3.16575 7.59064 3.09075 8.34064C3.01575 9.31564 3.01575 9.61575 3.01575 12.0157C3.01575 14.4157 3.01575 14.7907 3.09075 15.6907C3.09075 16.4407 3.24073 17.1906 3.54073 17.8656C3.99073 19.0656 4.96573 20.0406 6.16573 20.4906C6.84073 20.7156 7.59075 20.8657 8.34075 20.9407C9.31575 21.0157 9.61575 21.0157 12.0157 21.0157C14.4157 21.0157 14.7907 21.0157 15.6907 20.9407C16.4407 20.9407 17.1907 20.7906 17.8657 20.4906C19.0657 20.0406 20.0407 19.0656 20.4907 17.8656C20.7157 17.1906 20.8657 16.4407 20.9407 15.6907C21.0157 14.7157 21.0157 14.4157 21.0157 12.0157C21.0157 9.61575 21.0157 9.24064 20.9407 8.34064C20.9407 7.59064 20.7907 6.84071 20.4907 6.16571C20.0407 4.96571 19.0657 3.99071 17.8657 3.54071C17.1907 3.31571 16.4407 3.16564 15.6907 3.09064C14.7157 3.01564 14.4157 3.01575 12.0157 3.01575Z"/>
    <path d="M12.0157 7.3656C9.46573 7.3656 7.36572 9.46575 7.36572 12.0157C7.36572 14.5657 9.46573 16.6657 12.0157 16.6657C14.5657 16.6657 16.6657 14.5657 16.6657 12.0157C16.5907 9.46575 14.5657 7.3656 12.0157 7.3656ZM12.0157 15.0157C10.3657 15.0157 9.01573 13.6657 9.01573 12.0157C9.01573 10.3657 10.3657 9.01575 12.0157 9.01575C13.6657 9.01575 15.0157 10.3657 15.0157 12.0157C15.0157 13.6657 13.6657 15.0157 12.0157 15.0157Z"/>
    <path d="M16.8157 8.26575C17.3956 8.26575 17.8657 7.79554 17.8657 7.21564C17.8657 6.63574 17.3956 6.16571 16.8157 6.16571C16.2358 6.16571 15.7657 6.63574 15.7657 7.21564C15.7657 7.79554 16.2358 8.26575 16.8157 8.26575Z"/>
  </symbol>



</svg>
