<?xml version="1.0" encoding="utf-8"?>
<!-- Generator: Adobe Illustrator 24.3.0, SVG Export Plug-In . SVG Version: 6.00 Build 0)  -->
<svg version="1.1" id="Layer_1" xmlns="http://www.w3.org/2000/svg" xmlns:xlink="http://www.w3.org/1999/xlink" x="0px" y="0px"
	 viewBox="0 0 291 60" style="enable-background:new 0 0 291 60;" xml:space="preserve">
<style type="text/css">
	.st0{fill-rule:evenodd;clip-rule:evenodd;fill:#FFFFFF;}
	.st1{fill:#FFFFFF;}
	.st2{fill-rule:evenodd;clip-rule:evenodd;fill:#FFFFFF;}
	.st3{fill:#FFFFFF;}
</style>
<g>
	<polygon class="st0" points="105.1,140.1 105.1,80.7 113.2,80.7 144.1,116 144.1,80.7 154.5,80.7 154.5,140.1 148.3,140.1
		115.6,103.7 115.6,140.1 	"/>
	<polygon class="st0" points="0,139.8 0,80.9 10.9,80.9 34.7,123.6 58.4,80.9 68.9,80.9 68.9,139.8 55.1,139.8 55.1,106.9
		36.1,139.8 28,139.8 10.5,106.5 10.5,139.8 	"/>
	<rect x="80.4" y="80.9" class="st1" width="13.8" height="58.9"/>
	<rect x="165.7" y="80.9" class="st1" width="13.8" height="58.9"/>
	<path class="st0" d="M186.9,137.5l1.9-8.9c5.3,2,13.5,3.1,20.5,2.6c8.8-0.6,12.1-6.4,8.3-10.8c-4.1-4.7-18.7-6.1-26.3-13.2
		c-6.7-6.3-4.9-17.1,1.9-22.1c9.4-6.8,28.5-4.8,36.7-2.9l-2,8.8c-3.7-1.8-26-4.9-27.5,3.8c-1,5.8,9.2,8.7,14.2,10.5
		c6.7,2.3,13.1,5.8,16.1,10c2.9,4.1,4.2,14.7-5.2,20.6C215.3,142.3,196.9,140.9,186.9,137.5"/>
	<path class="st0" d="M281.3,85.9c-4.2-3.8-9.8-5.3-17.3-5.3v0l0,0c-7.5,0-13.1,1.5-17.3,5.3c-6.6,5.4-10,14.1-9.5,25.3
		c0.7,16.3,7.7,29.2,26.8,29.1l0,0v0c19.1,0.1,26.1-12.8,26.8-29.1C291.3,100,287.9,91.2,281.3,85.9 M264,132L264,132L264,132
		c-9.8-0.2-12.5-10.9-12.6-20.8c-0.1-13.1,2.3-22.3,12.2-22.8c0.1,0,0.2,0,0.3,0l0,0v0c0.1,0,0.2,0,0.3,0
		c9.9,0.5,12.4,9.7,12.2,22.8C276.4,121,273.8,131.8,264,132"/>
</g>
<g>
	<polygon class="st2" points="105.1,59.7 105.1,0.3 113.2,0.3 144.1,35.7 144.1,0.3 154.5,0.3 154.5,59.7 148.3,59.7 115.6,23.4
		115.6,59.7 	"/>
	<polygon class="st2" points="0,59.5 0,0.6 10.9,0.6 34.7,43.3 58.4,0.6 68.9,0.6 68.9,59.5 55.1,59.5 55.1,26.6 36.1,59.5 28,59.5
		10.5,26.1 10.5,59.5 	"/>
	<rect x="80.4" y="0.6" class="st3" width="13.8" height="58.9"/>
	<rect x="165.7" y="0.6" class="st3" width="13.8" height="58.9"/>
	<path class="st2" d="M186.9,57.2l1.9-8.9c5.3,2,13.5,3.1,20.5,2.6c8.8-0.6,12.1-6.4,8.3-10.8c-4.1-4.7-18.7-6.1-26.3-13.2
		c-6.7-6.3-4.9-17.1,1.9-22.1c9.4-6.8,28.5-4.8,36.7-2.9l-2,8.8c-3.7-1.8-26-4.9-27.5,3.8c-1,5.8,9.2,8.7,14.2,10.5
		c6.7,2.3,13.1,5.8,16.1,10c2.9,4.1,4.2,14.7-5.2,20.6C215.3,61.9,196.9,60.5,186.9,57.2"/>
	<path class="st2" d="M281.3,5.6c-4.2-3.8-9.8-5.3-17.3-5.3v0l0,0c-7.5,0-13.1,1.5-17.3,5.3c-6.6,5.4-10,14.1-9.5,25.3
		c0.7,16.3,7.7,29.2,26.8,29.1l0,0v0c19.1,0.1,26.1-12.8,26.8-29.1C291.3,19.6,287.9,10.9,281.3,5.6 M264,51.6L264,51.6L264,51.6
		c-9.8-0.2-12.5-10.9-12.6-20.8c-0.1-13.1,2.3-22.3,12.2-22.8c0.1,0,0.2,0,0.3,0l0,0v0c0.1,0,0.2,0,0.3,0
		c9.9,0.5,12.4,9.7,12.2,22.8C276.4,40.7,273.8,51.5,264,51.6"/>
</g>
<g>
	<polygon class="st3" points="404.4,0 404.4,0 396.8,0 396.8,0 358.3,0 358.3,0 350.4,0 350.4,0 311,0 311,144.9 443.6,144.9
		443.6,0 	"/>
	<g>
		<path class="st1" d="M398.4,85.9c0,2.5-2,4.5-4.4,4.5c-2.4,0-4.4-2-4.4-4.5c0-2.5,2-4.5,4.4-4.5C396.4,81.4,398.4,83.5,398.4,85.9
			"/>
		<rect x="409.4" y="82.4" class="st1" width="18" height="5.7"/>
		<path class="st1" d="M422.9,98.3c0,0.3,0,0.6,0,0.9c0,8.1-6.3,14.8-14,14.8c-7.7,0-14-6.6-14-14.8c0-0.3,0-0.6,0.1-0.9h-5.2
			c0,0.3,0,0.6,0,0.9c0,11.1,8.6,20.2,19.2,20.2c10.6,0,19.2-9,19.2-20.2c0-0.3,0-0.6,0-0.9H422.9z"/>
	</g>
	<polygon class="st0" points="386,67.5 386,32.9 390.5,32.9 407.7,53.5 407.7,32.9 413.5,32.9 413.5,67.5 410.1,67.5 391.8,46.3
		391.8,67.5 	"/>
	<polygon class="st0" points="326.8,67.5 326.8,32.9 332.8,32.9 346.1,58 359.3,32.9 365.1,32.9 365.1,67.5 357.4,67.5 357.4,48.2
		346.8,67.5 342.3,67.5 332.6,47.9 332.6,67.5 	"/>
	<rect x="372" y="32.9" class="st0" width="7" height="34.6"/>
	<rect x="420.5" y="32.9" class="st0" width="7" height="34.6"/>
	<path class="st0" d="M347.4,116.4c2.6-1.9,5.7-7.6,2.7-12.5c-1.4-2.3-4.5-4.5-8.6-6.1c-0.2-0.1-0.5-0.2-0.7-0.3
		c-2.9-1.1-7.6-3-7.1-6.5c0.4-2.5,3.1-3.8,7.6-3.8c3.1,0,6.1,0.6,7.4,1.2l1-4.9c-2.1-0.5-5.4-1.1-8.8-1.1c-3.3,0-7.7,0.5-10.6,2.9
		c-1.8,1.5-3,4-3.2,6.7c-0.2,2.6,0.6,4.9,2.2,6.6c2.2,2.3,5.5,3.7,8.4,4.9c2.6,1.1,4.8,2,5.9,3.4c0.9,1.3,1.2,2.7,0.6,4.1
		c-0.8,1.7-2.7,2.8-5.2,3c-0.6,0.1-1.3,0.1-2,0.1c-3.2,0-6.5-0.6-8.9-1.6l-0.9,5c2.8,1,6.5,1.7,9.9,1.7
		C340,119.2,344.3,118.7,347.4,116.4z"/>
	<path class="st0" d="M369.7,82.6c-0.1,0-0.1,0-0.2,0c-4.2,0-7,1-9.1,3.2c-3.6,3.3-5.3,8.7-5.1,15.5c0.3,8.1,3,17.8,14,17.8h0.1
		c0,0,0.1,0,0.1,0h0.1h0c6.1,0,13.5-3.1,14-17.8c0.3-6.8-1.5-12.2-5-15.5C376.7,83.6,373.9,82.6,369.7,82.6z M376.7,101.3
		c0,4.9-1,13-6.9,13.2c0,0-0.1,0-0.1,0c0,0-0.1,0-0.1,0c-5.9-0.2-6.9-8.3-6.9-13.2c-0.1-6.9,0.7-14.1,6.9-14.4c0,0,0.1,0,0.1,0
		c0.1,0,0.1,0,0.2,0c0,0,0,0,0.1,0C376,87.2,376.8,94.4,376.7,101.3z"/>
</g>
</svg>
