<svg xmlns="http://www.w3.org/2000/svg" xmlns:xlink="http://www.w3.org/1999/xlink"  width="26" height="26" viewBox="0 0 26 26">
    <path fill="#999999" d="M22.5,0h-19C1.6,0,0,1.6,0,3.5v19C0,24.4,1.6,26,3.5,26h9.4l0-9.3h-2.4c-0.3,0-0.6-0.3-0.6-0.6l0-3c0-0.3,0.3-0.6,0.6-0.6h2.4V9.7c0-3.4,2-5.2,5-5.2h2.5c0.3,0,0.6,0.3,0.6,0.6v2.5c0,0.3-0.3,0.6-0.6,0.6l-1.5,0c-1.6,0-1.9,0.8-1.9,1.9v2.5h3.6c0.3,0,0.6,0.3,0.6,0.6l-0.4,3c0,0.3-0.3,0.5-0.6,0.5h-3.2l0,9.3h5.6c1.9,0,3.5-1.6,3.5-3.5v-19C26,1.6,24.4,0,22.5,0z"/>
</svg>