<svg xmlns="http://www.w3.org/2000/svg" xmlns:xlink="http://www.w3.org/1999/xlink"  width="26" height="26" viewBox="0 0 26 26">
    <g fill="#999999">
        <path d="M18.3,0H7.7C3.5,0,0,3.5,0,7.7v10.5C0,22.5,3.5,26,7.7,26h10.5c4.3,0,7.7-3.5,7.7-7.7V7.7C26,3.5,22.5,0,18.3,0zM23.4,18.3c0,2.8-2.3,5.1-5.1,5.1H7.7c-2.8,0-5.1-2.3-5.1-5.1V7.7c0-2.8,2.3-5.1,5.1-5.1h10.5c2.8,0,5.1,2.3,5.1,5.1L23.4,18.3L23.4,18.3z"/>
        <path d="M13,6.3c-3.7,0-6.7,3-6.7,6.7s3,6.7,6.7,6.7s6.7-3,6.7-6.7S16.7,6.3,13,6.3z M13,17.1c-2.3,0-4.1-1.8-4.1-4.1s1.8-4.1,4.1-4.1c2.3,0,4.1,1.8,4.1,4.1C17.1,15.3,15.3,17.1,13,17.1z"/>
        <circle cx="19.7" cy="6.3" r="1.6"/>
    </g>
</svg>