<svg xmlns="http://www.w3.org/2000/svg" width="21" height="21.002" viewBox="0 0 21 21.002">
  <path id="Path_293" d="M10.51,7.1C9.39,7.1,8.49,8,8.49,9.11c0,1.11,0.9,2.02,2.02,2.02c1.12,0,2.02-0.9,2.02-2.02c0,0,0,0,0,0
    C12.53,8,11.62,7.1,10.51,7.1z"/>
  <path id="Path_294" d="M16.93,2.7c-3.52-3.57-9.28-3.61-12.85-0.1s-3.62,9.25-0.1,12.82c0.03,0.03,0.07,0.07,0.1,0.1l4.83,4.82
    c0.88,0.88,2.32,0.88,3.2,0l4.83-4.82C20.49,11.98,20.49,6.24,16.93,2.7L16.93,2.7z M10.51,12.36c-1.8,0-3.25-1.45-3.25-3.24
    c0-1.79,1.45-3.24,3.25-3.24s3.25,1.45,3.25,3.24c0,0,0,0,0,0C13.76,10.9,12.3,12.35,10.51,12.36z"/>
</svg>




