<svg xmlns="http://www.w3.org/2000/svg" width="32" height="32" viewBox="0 0 32 32">
<path d="M10,15c-0.03-2.73,2.17-4.97,4.9-5c0.03,0,0.07,0,0.1,0c2.73-0.03,4.97,2.17,5,4.9c0,0.03,0,0.07,0,0.1
	c0.03,2.73-2.17,4.97-4.9,5c-0.03,0-0.07,0-0.1,0c-2.73,0.03-4.97-2.17-5-4.9C10,15.07,10,15.03,10,15z M22.3,23.7
	c0.39,0.38,1.02,0.38,1.4-0.01c0.38-0.38,0.38-1,0-1.39l-3.1-3.1c0.92-1.21,1.41-2.68,1.4-4.2c0.02-3.84-3.07-6.98-6.91-7
	C15.06,8,15.03,8,15,8c-3.84-0.02-6.98,3.07-7,6.91c0,0.03,0,0.06,0,0.09c-0.02,3.84,3.07,6.98,6.91,7c0.03,0,0.06,0,0.09,0
	c1.52,0.01,2.99-0.48,4.2-1.4L22.3,23.7z"/>
</svg>
