<svg xmlns="http://www.w3.org/2000/svg" width="128" height="128" viewBox="0 0 128 128">
  <g id="Group_73" data-name="Group 73" transform="translate(-2026 117)">
    <rect id="Rectangle_1015" data-name="Rectangle 1015" width="128" height="128" transform="translate(2026 -117)" fill="#74cdda"/>
    <path id="reply-all" d="M25.217,75.124V62.4a2.523,2.523,0,0,1,4.226-1.859L45.39,75.162V62.4a2.523,2.523,0,0,1,4.226-1.859l30.26,27.738a2.523,2.523,0,0,1,0,3.719l-30.26,27.738a2.53,2.53,0,0,1-1.7.662,2.485,2.485,0,0,1-1.015-.214,2.519,2.519,0,0,1-1.507-2.307V105.119L29.442,119.738a2.53,2.53,0,0,1-1.7.662,2.485,2.485,0,0,1-1.015-.214,2.519,2.519,0,0,1-1.507-2.307V102.128A20.521,20.521,0,0,0,4.5,109.361,2.522,2.522,0,0,1,0,107.792v-5.043A27.776,27.776,0,0,1,25.217,75.124Zm25.217,37.022L74.441,90.14,50.433,68.135V79.784l9.269,8.5A2.523,2.523,0,0,1,59.7,92l-9.269,8.5Zm-21.9-14.31a2.519,2.519,0,0,1,1.724,2.391v11.919L54.267,90.14,30.26,68.135v9.4a2.52,2.52,0,0,1-2.522,2.522,22.725,22.725,0,0,0-22.675,21.72,25.532,25.532,0,0,1,23.473-3.938Z" transform="translate(2050.954 -144.002)"/>
  </g>
</svg>
