<svg xmlns="http://www.w3.org/2000/svg" width="21" height="21" viewBox="0 0 21 21">
  <path id="Path_291" d="M16.93,2.7c-3.52-3.57-9.28-3.61-12.85-0.1s-3.62,9.25-0.1,12.82c0.03,0.03,0.07,0.07,0.1,0.1l4.83,4.82
    c0.88,0.88,2.32,0.88,3.2,0l4.83-4.82C20.49,11.98,20.49,6.24,16.93,2.7L16.93,2.7z M16.06,14.66l-4.83,4.82
    c-0.4,0.4-1.05,0.4-1.45,0l-4.83-4.82c-3.07-3.06-3.07-8.02,0-11.08s8.04-3.06,11.11,0C19.13,6.63,19.13,11.6,16.06,14.66z"/>
  <path id="Path_292" d="M10.51,5.87c-1.8,0-3.25,1.45-3.25,3.24s1.45,3.24,3.25,3.24c1.8,0,3.25-1.45,3.25-3.24c0,0,0,0,0,0
    C13.76,7.32,12.3,5.87,10.51,5.87z M10.51,11.13c-1.12,0-2.02-0.9-2.02-2.02c0-1.11,0.9-2.02,2.02-2.02c1.12,0,2.02,0.9,2.02,2.02
    c0,0,0,0,0,0C12.53,10.23,11.62,11.13,10.51,11.13L10.51,11.13z"/>
</svg>
