<svg xmlns="http://www.w3.org/2000/svg" xmlns:xlink="http://www.w3.org/1999/xlink" width="20" height="20" viewBox="0 0 20 20">
  <path fill="#fcbf14" d="M16.455,20.209l-2.591-2.591a.22.22,0,0,0-.318,0l-.045.045a3.986,3.986,0,0,0-.5,1.909,4.205,4.205,0,0,0,1.182,2.909,4.123,4.123,0,0,0,2.909,1.182,3.986,3.986,0,0,0,1.909-.5l.045-.045a.22.22,0,0,0,0-.318l-2.591-2.591Z" transform="translate(-7.091 -9.573)"/>
  <path fill="#fcbf14" d="M19.573,13a3.986,3.986,0,0,0-1.909.5l-.045.045a.22.22,0,0,0,0,.318l2.591,2.591L22.8,19.045a.22.22,0,0,0,.318,0L23.164,19a3.986,3.986,0,0,0,.5-1.909A4.036,4.036,0,0,0,19.573,13Z" transform="translate(-9.573 -7.091)"/>
  <path fill="#fcbf14" d="M10,0A10,10,0,1,0,20,10,9.971,9.971,0,0,0,10,0Zm4.182,14.182A5.836,5.836,0,0,1,10,15.909a6.028,6.028,0,0,1-4.182-1.727A5.836,5.836,0,0,1,4.091,10,6.028,6.028,0,0,1,5.818,5.818,5.836,5.836,0,0,1,10,4.091a6.028,6.028,0,0,1,4.182,1.727A5.836,5.836,0,0,1,15.909,10,6.028,6.028,0,0,1,14.182,14.182Z"/>
</svg>
