<svg xmlns="http://www.w3.org/2000/svg" xmlns:xlink="http://www.w3.org/1999/xlink" width="80" height="80" viewBox="0 0 80 80">
  <g transform="translate(-1719 -3043)">
    <g transform="translate(1733 3047)">
      <path fill="#dddddd" d="M412.184,341.57H366.735a3.3,3.3,0,0,1-3.275-3.316V272.885a3.3,3.3,0,0,1,3.275-3.315h45.449a3.3,3.3,0,0,1,3.275,3.315v65.369A3.291,3.291,0,0,1,412.184,341.57Z" transform="translate(-363.46 -269.57)"/>
      <path fill="#dddddd" stroke="#aaaaaa" stroke-width="0.491px" stroke-miterlimit="10" d="M378.326,289.1H367.817a.969.969,0,0,1-.967-.967V274.077a.969.969,0,0,1,.967-.967h10.509a.969.969,0,0,1,.967.967v14.051A.956.956,0,0,1,378.326,289.1Z" transform="translate(-363.505 -269.617)"/>
      <path fill="#dddddd" stroke="#aaaaaa" stroke-width="0.491px" stroke-miterlimit="10" d="M411.554,289.1H384.537a.969.969,0,0,1-.967-.967V274.077a.969.969,0,0,1,.967-.967h27.017a.969.969,0,0,1,.967.967v14.051A.956.956,0,0,1,411.554,289.1Z" transform="translate(-363.726 -269.617)"/>
      <path fill="#a5a5a5" d="M378.326,311.355H367.817a.969.969,0,0,1-.967-.967V296.337a.969.969,0,0,1,.967-.967h10.509a.969.969,0,0,1,.967.967v14.051A.956.956,0,0,1,378.326,311.355Z" transform="translate(-363.505 -269.912)"/>
      <path fill="#cccccc" stroke="#aaaaaa" stroke-width="0.361px" stroke-miterlimit="10" d="M377.083,308.836H369.1a.708.708,0,0,1-.71-.711V298.11a.707.707,0,0,1,.71-.71h7.983a.707.707,0,0,1,.711.71v10.016A.7.7,0,0,1,377.083,308.836Z" transform="translate(-363.525 -269.939)"/>
      <path fill="#dddddd" stroke="#aaaaaa" stroke-width="0.491px" stroke-miterlimit="10" d="M395.056,311.355H384.547a.968.968,0,0,1-.967-.967V296.337a.969.969,0,0,1,.967-.967h10.509a.969.969,0,0,1,.967.967v14.051A.968.968,0,0,1,395.056,311.355Z" transform="translate(-363.727 -269.912)"/>
      <path fill="#bbbbbb" stroke="#aaaaaa" stroke-width="0.491px" stroke-miterlimit="10" d="M411.776,311.355H401.267a.969.969,0,0,1-.967-.967V296.337a.969.969,0,0,1,.967-.967h10.509a.969.969,0,0,1,.967.967v14.051A.956.956,0,0,1,411.776,311.355Z" transform="translate(-363.948 -269.912)"/>
      <path fill="#bbbbbb" stroke="#aaaaaa" stroke-width="0.491px" stroke-miterlimit="10" d="M425.616,311.355H415.107a.969.969,0,0,1-.967-.967V296.337a.969.969,0,0,1,.967-.967h10.509a.969.969,0,0,1,.967.967v14.051A.969.969,0,0,1,425.616,311.355Z" transform="translate(-364.131 -269.912)"/>
      <path fill="#dddddd" stroke="#aaaaaa" stroke-width="0.491px" stroke-miterlimit="10" d="M378.326,333.615H367.817a.969.969,0,0,1-.967-.967V318.587a.969.969,0,0,1,.967-.967h10.509a.969.969,0,0,1,.967.967v14.051A.958.958,0,0,1,378.326,333.615Z" transform="translate(-363.505 -270.207)"/>
      <path fill="#dddddd" stroke="#aaaaaa" stroke-width="0.491px" stroke-miterlimit="10" d="M395.056,333.615H384.547a.969.969,0,0,1-.967-.967V318.587a.969.969,0,0,1,.967-.967h10.509a.969.969,0,0,1,.967.967v14.051A.971.971,0,0,1,395.056,333.615Z" transform="translate(-363.727 -270.207)"/>
      <path fill="#dddddd" stroke="#aaaaaa" stroke-width="0.491px" stroke-miterlimit="10" d="M411.776,333.615H401.267a.969.969,0,0,1-.967-.967V318.587a.969.969,0,0,1,.967-.967h10.509a.969.969,0,0,1,.967.967v14.051A.958.958,0,0,1,411.776,333.615Z" transform="translate(-363.948 -270.207)"/>
      <rect fill="#aaaaaa" width="1.204" height="2.684" transform="translate(48.805 27.797)"/>
      <rect fill="#aaaaaa" width="1.204" height="2.684" transform="translate(48.805 35.839)"/>
      <g transform="translate(6.177 33.283)">
        <path fill="#a5a5a5" d="M370.361,304.366h-.217a.421.421,0,0,1-.424-.424v-.217a.421.421,0,0,1,.424-.424h.217a.421.421,0,0,1,.424.424v.217A.421.421,0,0,1,370.361,304.366Z" transform="translate(-369.72 -303.3)"/>
        <path fill="#a5a5a5" d="M372.251,304.366h-.217a.421.421,0,0,1-.424-.424v-.217a.421.421,0,0,1,.424-.424h.217a.421.421,0,0,1,.424.424v.217A.421.421,0,0,1,372.251,304.366Z" transform="translate(-369.745 -303.3)"/>
        <path fill="#a5a5a5" d="M374.141,304.366h-.217a.421.421,0,0,1-.424-.424v-.217a.421.421,0,0,1,.424-.424h.217a.421.421,0,0,1,.424.424v.217A.415.415,0,0,1,374.141,304.366Z" transform="translate(-369.77 -303.3)"/>
        <path fill="#a5a5a5" d="M376.041,304.366h-.217a.421.421,0,0,1-.424-.424v-.217a.421.421,0,0,1,.424-.424h.217a.421.421,0,0,1,.424.424v.217A.427.427,0,0,1,376.041,304.366Z" transform="translate(-369.795 -303.3)"/>
      </g>
      <g transform="translate(6.177 34.99)">
        <path fill="#a5a5a5" d="M370.361,306.1h-.217a.421.421,0,0,1-.424-.424v-.217a.421.421,0,0,1,.424-.424h.217a.421.421,0,0,1,.424.424v.217A.421.421,0,0,1,370.361,306.1Z" transform="translate(-369.72 -305.03)"/>
        <path fill="#a5a5a5" d="M372.251,306.1h-.217a.421.421,0,0,1-.424-.424v-.217a.421.421,0,0,1,.424-.424h.217a.421.421,0,0,1,.424.424v.217A.421.421,0,0,1,372.251,306.1Z" transform="translate(-369.745 -305.03)"/>
        <path fill="#a5a5a5" d="M374.141,306.1h-.217a.421.421,0,0,1-.424-.424v-.217a.421.421,0,0,1,.424-.424h.217a.421.421,0,0,1,.424.424v.217A.415.415,0,0,1,374.141,306.1Z" transform="translate(-369.77 -305.03)"/>
        <path fill="#a5a5a5" d="M376.041,306.1h-.217a.421.421,0,0,1-.424-.424v-.217a.421.421,0,0,1,.424-.424h.217a.421.421,0,0,1,.424.424v.217A.428.428,0,0,1,376.041,306.1Z" transform="translate(-369.795 -305.03)"/>
      </g>
      <g transform="translate(6.177 36.697)">
        <path fill="#a5a5a5" d="M370.361,307.826h-.217a.421.421,0,0,1-.424-.424v-.217a.421.421,0,0,1,.424-.424h.217a.421.421,0,0,1,.424.424v.217A.421.421,0,0,1,370.361,307.826Z" transform="translate(-369.72 -306.76)"/>
        <path fill="#a5a5a5" d="M372.251,307.826h-.217a.421.421,0,0,1-.424-.424v-.217a.421.421,0,0,1,.424-.424h.217a.421.421,0,0,1,.424.424v.217A.421.421,0,0,1,372.251,307.826Z" transform="translate(-369.745 -306.76)"/>
        <path fill="#a5a5a5" d="M374.141,307.826h-.217a.421.421,0,0,1-.424-.424v-.217a.421.421,0,0,1,.424-.424h.217a.421.421,0,0,1,.424.424v.217A.415.415,0,0,1,374.141,307.826Z" transform="translate(-369.77 -306.76)"/>
        <path fill="#a5a5a5" d="M376.041,307.826h-.217a.421.421,0,0,1-.424-.424v-.217a.421.421,0,0,1,.424-.424h.217a.421.421,0,0,1,.424.424v.217A.427.427,0,0,1,376.041,307.826Z" transform="translate(-369.795 -306.76)"/>
      </g>
      <path fill="#eeeeee" d="M376.364,302.2H369.8a.573.573,0,0,1-.572-.572v-2.832a.573.573,0,0,1,.572-.572h6.562a.573.573,0,0,1,.572.572v2.832A.579.579,0,0,1,376.364,302.2Z" transform="translate(-363.536 -269.949)"/>
      <g transform="translate(38.217 29.593)">
        <path fill="#888888" d="M402.19,309.6h7.667L409.2,299.56h-6.523Z" transform="translate(-402.19 -299.56)"/>
        <path fill="#a5a5a5" d="M409.29,299.56h1.6l.681,10.035h-1.618Z" transform="translate(-402.284 -299.56)"/>
        <path fill="none" stroke="#a5a5a5" stroke-width="0.0.474px" d="M404.4,300.24s.1,1.786,1.5,1.786c1.322,0,1.342-1.786,1.342-1.786" transform="translate(-402.219 -299.569)"/>
      </g>
    </g>
  </g>
</svg>
