<svg xmlns="http://www.w3.org/2000/svg" xmlns:xlink="http://www.w3.org/1999/xlink" width="87" height="22" viewBox="0 0 87 22">
  <g>
    <path fill="#fff" d="M86.71,7.91l-.11.71a.076.076,0,0,1-.01.04,2.8,2.8,0,0,1-2.85,2.38,5.62,5.62,0,0,1-1.14-.17,2.741,2.741,0,0,0-.28-.05l-.92,5.3a2.873,2.873,0,0,1-1.01,1.76,2.916,2.916,0,0,1-1.86.66H77.46a2.6,2.6,0,0,1-1.87-.76,3.53,3.53,0,0,1-.89.36c-.02,0-.03.01-.05.01a15.829,15.829,0,0,1-3.6.39h-.29a7.185,7.185,0,0,1-3.86-.91,2.16,2.16,0,0,1-.82.66,2.983,2.983,0,0,1-1.33.3H63.48a3.1,3.1,0,0,1-2.7-1.16c-.01-.01-.02-.02-.02-.03l-.66-.85a2.811,2.811,0,0,1-2.78,2.04H56.3a2.616,2.616,0,0,1-1.92-.78,3.86,3.86,0,0,1-.93.38c-.02,0-.03.01-.05.01a15.829,15.829,0,0,1-3.6.39h-.29c-2.31,0-3.98-.62-4.98-1.86a3.063,3.063,0,0,1-.21-.29,3.59,3.59,0,0,1-.57.6,6.382,6.382,0,0,1-3.02,1.37c-.03.01-.05.01-.08.02a14.92,14.92,0,0,1-1.84.16h-.53a7.32,7.32,0,0,1-3.76-.85,2.5,2.5,0,0,1-.34.31,3.005,3.005,0,0,1-1.83.65H25.36a2.67,2.67,0,0,1-2.05-.9,5.356,5.356,0,0,1-1.82,2.54,7.623,7.623,0,0,1-4.64,1.22h-.32a14.412,14.412,0,0,1-3.8-.43,2.8,2.8,0,0,1-2.12-3.3,4.748,4.748,0,0,1-.89.37,11.04,11.04,0,0,1-3.2.39H5.87c-2.21-.02-3.78-.6-4.77-1.77C.08,15.64-.22,13.86.17,11.41V11.4l.07-.43C.63,8.58,1.37,6.93,2.51,5.93a7.234,7.234,0,0,1,4.9-1.5h.34c.09,0,.23,0,.45.01l.13-.71V3.69A2.858,2.858,0,0,1,11.22,1.3h1.01a2.636,2.636,0,0,1,2.15,1.03,2.754,2.754,0,0,1,.49,2.21l-.09.51a8.63,8.63,0,0,1,3.67-.67h.45c2.16,0,3.62.36,4.61,1.13a3.78,3.78,0,0,1,.81.86l.43-2.44c0-.01.01-.02.01-.03a2.829,2.829,0,0,1,2.87-2.39h1.03a2.678,2.678,0,0,1,2.08.93c0,.01,0,.01.01.01a2.673,2.673,0,0,1,.56,2.18v.02l-1.32,7.46h2.38c.02-.23.05-.46.09-.7V11.4l.07-.43c.39-2.39,1.13-4.04,2.27-5.04a7.234,7.234,0,0,1,4.9-1.5h.72c2.26,0,3.84.56,4.81,1.72q.135.165.27.36a4.262,4.262,0,0,1,.54-.58,7.124,7.124,0,0,1,4.91-1.5h.19A7.538,7.538,0,0,1,55.4,5.44l.29-1.62c0-.02,0-.03.01-.04a2.828,2.828,0,0,1,2.86-2.39H59.6a2.623,2.623,0,0,1,2.69,2.65,2.558,2.558,0,0,1-.04.47v.02l-.14.79a4.2,4.2,0,0,1,1.97-.38l1.5-.03h.09a2.81,2.81,0,0,1,.29.01,2.387,2.387,0,0,1,1.58.77A7.26,7.26,0,0,1,72.2,4.38h.19c2.2,0,3.77.46,4.79,1.42a.5.5,0,0,1,.07.08,4.543,4.543,0,0,1,2.43-1.17,10.146,10.146,0,0,1,2.25-.24h.11a9.97,9.97,0,0,1,2.48.24,2.972,2.972,0,0,1,1.7,1.06A2.726,2.726,0,0,1,86.71,7.91Z"/>
    <g transform="translate(2 3.3)">
      <g>
        <path fill="#bbb" d="M610.532,284.679h-1.067a.608.608,0,0,1-.5-.217.636.636,0,0,1-.121-.538l1.214-6.881a3.333,3.333,0,0,1,.605-1.622,2.865,2.865,0,0,1,1.441-.623,8.349,8.349,0,0,1,1.824-.189h.113a8.4,8.4,0,0,1,1.979.17q.849.207.717.943l-.113.717a.809.809,0,0,1-.887.736,4.582,4.582,0,0,1-.707-.123,5.034,5.034,0,0,0-1.085-.123h-.038a4.228,4.228,0,0,0-.811.094.75.75,0,0,0-.424.234,1.166,1.166,0,0,0-.179.516l-1.064,6.148a.869.869,0,0,1-.31.549A.9.9,0,0,1,610.532,284.679Z" transform="translate(-534.001 -271.436)"/>
        <path fill="#bbb" d="M548.745,284.165q-2.528,0-3.422-1.113t-.424-3.79l.075-.472A6.685,6.685,0,0,1,546.6,275a5.285,5.285,0,0,1,3.573-1h.189a5.048,5.048,0,0,1,3.422.877q.934.877.557,3.007l-.094.547a1.636,1.636,0,0,1-.566,1.094,2,2,0,0,1-1.207.321h-4.751a.354.354,0,0,0-.377.34,1.616,1.616,0,0,0,.179,1.357,1.963,1.963,0,0,0,1.462.4h.3a9.283,9.283,0,0,0,2.045-.245,10.845,10.845,0,0,1,1.254-.245.648.648,0,0,1,.547.245.739.739,0,0,1,.113.623l-.113.566a1.05,1.05,0,0,1-.3.632,1.616,1.616,0,0,1-.66.311,13.812,13.812,0,0,1-3.149.34Zm-.961-6.316q-.057.321.264.321h3.375a.347.347,0,0,0,.377-.321,1.941,1.941,0,0,0-.113-1.462q-.3-.368-1.47-.368h-.283a2.283,2.283,0,0,0-1.5.4A2.415,2.415,0,0,0,547.784,277.848Z" transform="translate(-479.98 -270.922)"/>
        <path fill="#bbb" d="M483.976,258.513a1.657,1.657,0,0,0-.178,0l-1.509.027a1.9,1.9,0,0,0-1.4.368l-3.518,3.017,1.082-6.134a.641.641,0,0,0-.679-.8h-1.036a.844.844,0,0,0-.9.773l-2.037,11.558a.739.739,0,0,0,.113.623.669.669,0,0,0,.566.245h1.019a.84.84,0,0,0,.905-.755l.307-1.74,1.325-1.135,2.484,3.22c.324.4.6.409,1.144.409h1.269a1.056,1.056,0,0,0,.461-.1.242.242,0,0,0,.157-.206.744.744,0,0,0-.19-.6l-3.383-4.381,4.248-3.636.008-.006A.424.424,0,0,0,483.976,258.513Z" transform="translate(-420.173 -254.9)"/>
        <path fill="#bbb" d="M419.262,277.412h0a2.674,2.674,0,0,0-.649-2.215,5.045,5.045,0,0,0-3.422-.877H415a5.284,5.284,0,0,0-3.573,1,6.659,6.659,0,0,0-1.63,3.79l-.075.472q-.472,2.676.424,3.79t3.422,1.113h.283a13.814,13.814,0,0,0,3.149-.34,1.616,1.616,0,0,0,.66-.311,1.05,1.05,0,0,0,.3-.632l.113-.566a.739.739,0,0,0-.113-.622.648.648,0,0,0-.547-.245,10.842,10.842,0,0,0-1.254.245,9.285,9.285,0,0,1-2.045.245h-.3a1.956,1.956,0,0,1-1.46-.4,1.282,1.282,0,0,1-.228-.951h0s0-.025.006-.071.008-.086.013-.13a12.808,12.808,0,0,1,.61-3.13l0,0a1.848,1.848,0,0,1,.5-.843,2.29,2.29,0,0,1,1.5-.4h.283c.78,0,1.269.123,1.47.368a1.048,1.048,0,0,1,.181.624c0,.068,0,.137,0,.206s0,.113-.011.173l0,0a3.068,3.068,0,0,1-.085.575c-.2.729-.346,1.11-.346,1.223a.665.665,0,0,0,.255.557.906.906,0,0,0,.722.123l.594-.113a1.359,1.359,0,0,0,1.157-.965,7.819,7.819,0,0,0,.255-1.368c0-.047.009-.094.013-.14C419.249,277.535,419.257,277.473,419.262,277.412Z" transform="translate(-366.05 -271.192)"/>
        <path fill="#bbb" d="M347.622,275.319q-.844-1.009-3.276-1.009h-.717a5.336,5.336,0,0,0-3.583,1.009,6.507,6.507,0,0,0-1.616,3.858l-.071.428q-.434,2.735.478,3.8t3.372,1.066h.525a14.387,14.387,0,0,0,1.555-.14,4.377,4.377,0,0,0,2.085-.926,6.043,6.043,0,0,0,1.63-3.8l.06-.428Q348.467,276.328,347.622,275.319Zm-2.218,3.862-.055.434a3.7,3.7,0,0,1-.659,2.023,1.689,1.689,0,0,1-.965.457,6.448,6.448,0,0,1-.91.06h-.031l-.1,0v0h-.09q-1.2,0-1.526-.517a3.136,3.136,0,0,1-.046-2.023l.077-.434a4.145,4.145,0,0,1,.747-2.031,2.267,2.267,0,0,1,1.7-.52h.19q1.214,0,1.542.52A3.407,3.407,0,0,1,345.4,279.182Z" transform="translate(-305.928 -271.183)"/>
        <path fill="#bbb" d="M285.354,266.333l-4.809,0a.525.525,0,0,1-.517-.615l1.622-9.2a.641.641,0,0,0-.679-.8h-1.036a.844.844,0,0,0-.9.773l-2.037,11.558a.739.739,0,0,0,.113.623.669.669,0,0,0,.566.245h1.019l.013,0,5.925,0a1.037,1.037,0,0,0,.635-.228,1.161,1.161,0,0,0,.4-.613l.27-.994Q286.136,266.345,285.354,266.333Z" transform="translate(-254.31 -255.524)"/>
      </g>
      <g transform="translate(0 0)">
        <path fill="#888" d="M203.94,287.181a12.614,12.614,0,0,1-3.265-.358.816.816,0,0,1-.679-1.038l.094-.6a.838.838,0,0,1,.9-.755c.063,0,.443.091,1.144.273a7.969,7.969,0,0,0,2.007.274h.151a3.507,3.507,0,0,0,1.567-.264,1.265,1.265,0,0,0,.629-.943.453.453,0,0,0-.019-.358c-.05-.063-.17-.088-.357-.075a10.714,10.714,0,0,1-1.426.113h-.3a4.25,4.25,0,0,1-3.3-1.064q-.938-1.063-.487-3.513l.079-.426a5.843,5.843,0,0,1,1.6-3.509,5.588,5.588,0,0,1,3.586-.934h.451a5.785,5.785,0,0,1,3.38.706,2.057,2.057,0,0,1,.657,2.135l-1.118,6.447a4.573,4.573,0,0,1-1.511,3.061,5.858,5.858,0,0,1-3.462.832h-.322Zm3.265-10.709a4.886,4.886,0,0,0-1.28-.151h-.23a2.592,2.592,0,0,0-1.756.461,3.257,3.257,0,0,0-.725,1.813l-.06.338a2.464,2.464,0,0,0,.116,1.77q.342.446,1.6.445h.248a5.27,5.27,0,0,0,1.393-.151.854.854,0,0,0,.668-.755l.5-2.713a1.341,1.341,0,0,0,0-.717A.68.68,0,0,0,207.2,276.473Z" transform="translate(-189.414 -270.922)"/>
        <path fill="#888" d="M136.8,267.71q-2.462,0-3.372-1.066t-.478-3.8l.071-.428a6.507,6.507,0,0,1,1.616-3.858,5.333,5.333,0,0,1,3.583-1.009h.34q.434,0,1.753.094a.328.328,0,0,0,.415-.3l.38-2.151a.852.852,0,0,1,.918-.773h1.012a.665.665,0,0,1,.563.245.735.735,0,0,1,.112.621l-1.726,9.577a3.837,3.837,0,0,1-.638,1.652,2.737,2.737,0,0,1-1.418.9,9.022,9.022,0,0,1-2.6.3H136.8Zm.6-2.319a5.227,5.227,0,0,0,1.291-.132.967.967,0,0,0,.571-.33,1.641,1.641,0,0,0,.253-.726l.612-3.468q.113-.592-.391-.722a5.683,5.683,0,0,0-1.363-.148h-.242a2.26,2.26,0,0,0-1.7.52,4.145,4.145,0,0,0-.747,2.031l-.077.434a3.138,3.138,0,0,0,.046,2.023q.328.519,1.526.517Z" transform="translate(-132.809 -254.42)"/>
      </g>
    </g>
  </g>
</svg>