<svg id="icon-great" xmlns="http://www.w3.org/2000/svg" width="32" height="32" viewBox="0 0 32 32">
  <circle id="Ellipse_11" data-name="Ellipse 11" cx="16" cy="16" r="16" fill="#ffd93b"/>
  <path id="Path_5" data-name="Path 5" d="M85.175,69.175A16,16,0,0,1,56.72,79.22a16,16,0,0,0,22.5-22.5A15.983,15.983,0,0,1,85.175,69.175Z" transform="translate(-53.175 -53.175)" fill="#f4c534"/>
  <path id="Path_6" data-name="Path 6" d="M134.252,308.261c1.406.385-.847,7.861-8.273,7.916-7.426-.055-9.679-7.531-8.273-7.916,1.124-.554,4.139,2.516,8.273,2.516C130.17,310.776,133.128,307.707,134.252,308.261Z" transform="translate(-109.979 -288.932)" fill="#3e4347"/>
  <path id="Path_7" data-name="Path 7" d="M94.491,142.336a.277.277,0,0,1-.353.067c-.9-.473-4.52-2.5-4.867-4.387a2.194,2.194,0,0,1,3.94-1.68,2.167,2.167,0,0,1,1.72-1.593,2.19,2.19,0,0,1,2.553,1.76C97.831,138.389,95.164,141.569,94.491,142.336Z" transform="translate(-83.657 -126.287)" fill="#e24b4b"/>
  <path id="Path_8" data-name="Path 8" d="M94.858,154.637c-.153.187-.287.34-.38.447a.277.277,0,0,1-.353.067c-.9-.473-4.52-2.5-4.867-4.387a2.182,2.182,0,0,1,1.407-2.46,2.19,2.19,0,0,0-.627,1.973C90.378,152.137,93.891,154.13,94.858,154.637Z" transform="translate(-83.644 -139.035)" fill="#d03f3f"/>
  <g id="Group_2" data-name="Group 2" transform="translate(11.429 9.155)" opacity="0.2">
    <ellipse id="Ellipse_12" data-name="Ellipse 12" cx="0.867" cy="0.584" rx="0.867" ry="0.584" transform="translate(0.634 2.041) rotate(-111.433)" fill="#fff"/>
  </g>
  <path id="Path_9" data-name="Path 9" d="M287.392,142.336a.277.277,0,0,0,.353.067c.9-.473,4.52-2.5,4.867-4.387a2.194,2.194,0,0,0-3.94-1.68,2.167,2.167,0,0,0-1.72-1.593,2.19,2.19,0,0,0-2.553,1.76C284.052,138.389,286.718,141.569,287.392,142.336Z" transform="translate(-266.595 -126.287)" fill="#e24b4b"/>
  <path id="Path_10" data-name="Path 10" d="M326.672,154.637c.153.187.287.34.38.447a.277.277,0,0,0,.353.067c.9-.473,4.52-2.5,4.867-4.387a2.182,2.182,0,0,0-1.407-2.46,2.19,2.19,0,0,1,.627,1.973C331.152,152.137,327.638,154.13,326.672,154.637Z" transform="translate(-306.255 -139.035)" fill="#d03f3f"/>
  <g id="Group_3" data-name="Group 3" transform="translate(18.479 9.157)" opacity="0.2">
    <ellipse id="Ellipse_13" data-name="Ellipse 13" cx="0.584" cy="0.867" rx="0.584" ry="0.867" transform="translate(1.087 2.041) rotate(-158.567)" fill="#fff"/>
  </g>
  <path id="Path_11" data-name="Path 11" d="M200.05,392.453a9.478,9.478,0,0,0,3.732-.759,3.922,3.922,0,0,0-1.238-1.781,1.732,1.732,0,0,0-1.642-.261,3.616,3.616,0,0,1-1.091.165,3.822,3.822,0,0,1-.869-.1,1.768,1.768,0,0,0-1.687.472,3.912,3.912,0,0,0-.935,1.509A9.473,9.473,0,0,0,200.05,392.453Z" transform="translate(-184.05 -365.208)" fill="#e24b4b"/>
</svg>
